M48
; DRILL file {KiCad (6.0.7)} date Mon Mar 20 21:53:51 2023
; FORMAT={-:-/ absolute / metric / decimal}
; #@! TF.CreationDate,2023-03-20T21:53:51-04:00
; #@! TF.GenerationSoftware,Kicad,Pcbnew,(6.0.7)
; #@! TF.FileFunction,Plated,1,2,PTH
FMAT,2
METRIC
; #@! TA.AperFunction,Plated,PTH,ComponentDrill
T1C0.250
; #@! TA.AperFunction,Plated,PTH,ViaDrill
T2C0.254
; #@! TA.AperFunction,Plated,PTH,ViaDrill
T3C0.381
; #@! TA.AperFunction,Plated,PTH,ComponentDrill
T4C0.600
; #@! TA.AperFunction,Plated,PTH,ComponentDrill
T5C0.762
; #@! TA.AperFunction,Plated,PTH,ComponentDrill
T6C1.000
; #@! TA.AperFunction,Plated,PTH,ComponentDrill
T7C2.200
%
G90
G05
T1
X128.27Y-101.1
X128.27Y-102.1
T2
X123.698Y-92.837
X124.714Y-85.979
X125.349Y-94.615
X130.048Y-103.759
X130.81Y-81.28
X135.89Y-89.789
X135.89Y-91.059
X136.525Y-86.891
X136.693Y-102.362
X138.684Y-82.677
X145.415Y-89.281
X147.066Y-89.154
X148.209Y-83.058
X149.098Y-84.582
X149.86Y-83.058
X149.86Y-86.106
X149.86Y-88.646
X150.114Y-85.378
X151.13Y-86.36
X151.13Y-87.63
X151.13Y-88.9
X152.4Y-86.36
X152.4Y-87.63
X152.4Y-88.9
X153.258Y-91.959
X153.67Y-86.36
X153.67Y-87.63
X153.67Y-88.9
X153.797Y-89.916
X154.559Y-88.392
X154.686Y-81.153
X154.686Y-83.346
X154.94Y-87.249
X155.194Y-94.615
X155.321Y-84.074
X156.337Y-97.409
X157.734Y-84.074
X163.83Y-96.139
X165.862Y-93.511
X165.862Y-94.449
X166.37Y-91.694
X167.386Y-92.71
X169.545Y-110.363
X171.45Y-82.677
X171.45Y-83.82
X173.359Y-85.594
X173.99Y-82.677
X173.99Y-90.17
X174.244Y-89.154
X174.498Y-83.312
X174.498Y-84.455
X175.006Y-105.029
X178.816Y-88.265
T3
X124.46Y-97.79
X124.46Y-103.759
X124.46Y-108.839
X124.46Y-110.49
X126.111Y-108.585
X127.0Y-78.74
X127.0Y-110.49
X127.0Y-113.03
X127.254Y-99.06
X127.381Y-102.997
X128.27Y-88.9
X129.286Y-106.68
X129.54Y-83.82
X129.54Y-110.49
X129.54Y-113.03
X130.923Y-99.576
X131.953Y-88.9
X132.08Y-83.82
X132.08Y-105.41
X132.08Y-107.95
X132.08Y-110.49
X132.08Y-113.03
X133.35Y-94.615
X133.35Y-102.616
X134.62Y-83.82
X134.62Y-97.79
X134.62Y-101.693
X134.62Y-110.49
X135.001Y-86.614
X137.16Y-92.71
X137.16Y-95.25
X137.16Y-97.79
X137.16Y-113.03
X138.43Y-93.98
X139.7Y-78.74
X139.7Y-81.28
X139.7Y-92.71
X139.7Y-95.25
X139.7Y-97.79
X139.7Y-110.49
X139.827Y-105.283
X140.97Y-86.36
X140.97Y-99.06
X142.24Y-78.74
X142.24Y-81.28
X142.24Y-95.25
X142.24Y-97.79
X142.24Y-110.49
X142.24Y-113.03
X143.51Y-83.82
X143.51Y-90.17
X143.51Y-92.71
X143.51Y-99.06
X144.399Y-100.33
X144.526Y-85.344
X144.78Y-78.74
X144.78Y-81.28
X144.78Y-97.79
X144.78Y-110.49
X144.78Y-112.268
X145.415Y-82.169
X147.32Y-78.74
X147.32Y-93.98
X147.32Y-96.52
X147.32Y-99.06
X147.32Y-101.6
X147.32Y-104.14
X147.574Y-84.074
X148.59Y-105.791
X148.59Y-106.934
X148.59Y-109.347
X149.225Y-96.52
X150.114Y-108.966
X151.384Y-79.756
X151.638Y-81.153
X151.765Y-96.52
X153.353Y-104.14
X153.924Y-79.756
X154.305Y-96.52
X154.559Y-102.87
X154.559Y-108.966
X156.21Y-99.06
X156.21Y-101.6
X156.21Y-104.14
X156.21Y-105.791
X156.21Y-109.347
X157.48Y-95.25
X159.004Y-78.232
X159.385Y-88.392
X160.02Y-95.25
X160.02Y-108.077
X160.02Y-110.49
X160.02Y-112.268
X160.274Y-78.232
X160.528Y-97.028
X160.528Y-101.092
X161.036Y-84.455
X161.29Y-86.614
X161.29Y-90.17
X161.544Y-78.232
X162.56Y-95.25
X162.56Y-110.49
X162.56Y-113.03
X162.814Y-78.232
X163.703Y-88.392
X163.83Y-86.614
X164.084Y-78.232
X165.354Y-78.232
X165.354Y-79.502
X165.354Y-80.772
X165.354Y-82.042
X165.608Y-97.028
X165.608Y-101.092
X166.115Y-81.407
X166.37Y-106.68
X166.37Y-109.22
X166.37Y-111.76
X167.005Y-104.394
X167.64Y-82.677
X167.64Y-91.44
X167.64Y-95.25
X168.021Y-87.63
X170.561Y-114.3
X171.196Y-111.941
X172.72Y-99.06
X172.72Y-101.6
X172.72Y-105.41
X175.26Y-87.63
X175.26Y-101.6
X177.8Y-78.74
X177.8Y-81.28
X177.8Y-85.09
X177.8Y-87.63
X177.8Y-90.17
X177.8Y-96.52
X177.8Y-99.06
X177.8Y-101.6
X178.435Y-104.394
X180.34Y-81.28
T5
X175.26Y-93.98
X175.26Y-96.52
X175.26Y-99.06
T6
X129.54Y-78.74
X132.08Y-78.74
X134.62Y-78.74
X137.16Y-78.74
X167.64Y-78.74
X167.64Y-81.28
X170.18Y-78.74
X170.18Y-81.28
X172.72Y-78.74
X172.72Y-81.28
X175.26Y-78.74
X175.26Y-81.28
X180.34Y-86.36
X180.34Y-88.9
X180.34Y-91.44
X180.34Y-93.98
X180.34Y-96.52
X180.34Y-99.06
X180.34Y-101.6
X180.34Y-104.14
X180.34Y-106.68
T7
X124.46Y-78.74
X124.46Y-114.3
X180.34Y-78.74
X180.34Y-114.3
T4
X148.08Y-111.65G85X148.08Y-110.55
G05
X148.08Y-115.67G85X148.08Y-114.87
G05
X156.72Y-111.65G85X156.72Y-110.55
G05
X156.72Y-115.67G85X156.72Y-114.87
G05
T0
M30
