%TF.GenerationSoftware,KiCad,Pcbnew,(6.0.7)*%
%TF.CreationDate,2023-02-15T12:46:07-05:00*%
%TF.ProjectId,CDR_Board,4344525f-426f-4617-9264-2e6b69636164,rev?*%
%TF.SameCoordinates,Original*%
%TF.FileFunction,Legend,Bot*%
%TF.FilePolarity,Positive*%
%FSLAX46Y46*%
G04 Gerber Fmt 4.6, Leading zero omitted, Abs format (unit mm)*
G04 Created by KiCad (PCBNEW (6.0.7)) date 2023-02-15 12:46:07*
%MOMM*%
%LPD*%
G01*
G04 APERTURE LIST*
%ADD10C,0.150000*%
%ADD11R,1.524000X1.524000*%
%ADD12C,1.524000*%
%ADD13R,1.700000X1.700000*%
%ADD14O,1.700000X1.700000*%
%ADD15C,3.800000*%
%ADD16C,0.600000*%
%ADD17O,0.900000X2.000000*%
%ADD18O,0.900000X1.700000*%
G04 APERTURE END LIST*
D10*
X165280952Y-94634761D02*
X165138095Y-94682380D01*
X164900000Y-94682380D01*
X164804761Y-94634761D01*
X164757142Y-94587142D01*
X164709523Y-94491904D01*
X164709523Y-94396666D01*
X164757142Y-94301428D01*
X164804761Y-94253809D01*
X164900000Y-94206190D01*
X165090476Y-94158571D01*
X165185714Y-94110952D01*
X165233333Y-94063333D01*
X165280952Y-93968095D01*
X165280952Y-93872857D01*
X165233333Y-93777619D01*
X165185714Y-93730000D01*
X165090476Y-93682380D01*
X164852380Y-93682380D01*
X164709523Y-93730000D01*
X164280952Y-94682380D02*
X164280952Y-93682380D01*
X164042857Y-93682380D01*
X163900000Y-93730000D01*
X163804761Y-93825238D01*
X163757142Y-93920476D01*
X163709523Y-94110952D01*
X163709523Y-94253809D01*
X163757142Y-94444285D01*
X163804761Y-94539523D01*
X163900000Y-94634761D01*
X164042857Y-94682380D01*
X164280952Y-94682380D01*
X163280952Y-94682380D02*
X163280952Y-93682380D01*
X162900000Y-93682380D01*
X162804761Y-93730000D01*
X162757142Y-93777619D01*
X162709523Y-93872857D01*
X162709523Y-94015714D01*
X162757142Y-94110952D01*
X162804761Y-94158571D01*
X162900000Y-94206190D01*
X163280952Y-94206190D01*
X162328571Y-93777619D02*
X162280952Y-93730000D01*
X162185714Y-93682380D01*
X161947619Y-93682380D01*
X161852380Y-93730000D01*
X161804761Y-93777619D01*
X161757142Y-93872857D01*
X161757142Y-93968095D01*
X161804761Y-94110952D01*
X162376190Y-94682380D01*
X161757142Y-94682380D01*
X161423809Y-93682380D02*
X160804761Y-93682380D01*
X161138095Y-94063333D01*
X160995238Y-94063333D01*
X160900000Y-94110952D01*
X160852380Y-94158571D01*
X160804761Y-94253809D01*
X160804761Y-94491904D01*
X160852380Y-94587142D01*
X160900000Y-94634761D01*
X160995238Y-94682380D01*
X161280952Y-94682380D01*
X161376190Y-94634761D01*
X161423809Y-94587142D01*
X159757142Y-93682380D02*
X159185714Y-93682380D01*
X159471428Y-94682380D02*
X159471428Y-93682380D01*
X158471428Y-94634761D02*
X158566666Y-94682380D01*
X158757142Y-94682380D01*
X158852380Y-94634761D01*
X158900000Y-94539523D01*
X158900000Y-94158571D01*
X158852380Y-94063333D01*
X158757142Y-94015714D01*
X158566666Y-94015714D01*
X158471428Y-94063333D01*
X158423809Y-94158571D01*
X158423809Y-94253809D01*
X158900000Y-94349047D01*
X157566666Y-94682380D02*
X157566666Y-94158571D01*
X157614285Y-94063333D01*
X157709523Y-94015714D01*
X157900000Y-94015714D01*
X157995238Y-94063333D01*
X157566666Y-94634761D02*
X157661904Y-94682380D01*
X157900000Y-94682380D01*
X157995238Y-94634761D01*
X158042857Y-94539523D01*
X158042857Y-94444285D01*
X157995238Y-94349047D01*
X157900000Y-94301428D01*
X157661904Y-94301428D01*
X157566666Y-94253809D01*
X157090476Y-94682380D02*
X157090476Y-94015714D01*
X157090476Y-94110952D02*
X157042857Y-94063333D01*
X156947619Y-94015714D01*
X156804761Y-94015714D01*
X156709523Y-94063333D01*
X156661904Y-94158571D01*
X156661904Y-94682380D01*
X156661904Y-94158571D02*
X156614285Y-94063333D01*
X156519047Y-94015714D01*
X156376190Y-94015714D01*
X156280952Y-94063333D01*
X156233333Y-94158571D01*
X156233333Y-94682380D01*
X155090476Y-93682380D02*
X154471428Y-93682380D01*
X154804761Y-94063333D01*
X154661904Y-94063333D01*
X154566666Y-94110952D01*
X154519047Y-94158571D01*
X154471428Y-94253809D01*
X154471428Y-94491904D01*
X154519047Y-94587142D01*
X154566666Y-94634761D01*
X154661904Y-94682380D01*
X154947619Y-94682380D01*
X155042857Y-94634761D01*
X155090476Y-94587142D01*
X153519047Y-94682380D02*
X154090476Y-94682380D01*
X153804761Y-94682380D02*
X153804761Y-93682380D01*
X153900000Y-93825238D01*
X153995238Y-93920476D01*
X154090476Y-93968095D01*
X153090476Y-94587142D02*
X153042857Y-94634761D01*
X153090476Y-94682380D01*
X153138095Y-94634761D01*
X153090476Y-94587142D01*
X153090476Y-94682380D01*
X153090476Y-94063333D02*
X153042857Y-94110952D01*
X153090476Y-94158571D01*
X153138095Y-94110952D01*
X153090476Y-94063333D01*
X153090476Y-94158571D01*
X151852380Y-94682380D02*
X151852380Y-93682380D01*
X151852380Y-94158571D02*
X151280952Y-94158571D01*
X151280952Y-94682380D02*
X151280952Y-93682380D01*
X150423809Y-94634761D02*
X150519047Y-94682380D01*
X150709523Y-94682380D01*
X150804761Y-94634761D01*
X150852380Y-94539523D01*
X150852380Y-94158571D01*
X150804761Y-94063333D01*
X150709523Y-94015714D01*
X150519047Y-94015714D01*
X150423809Y-94063333D01*
X150376190Y-94158571D01*
X150376190Y-94253809D01*
X150852380Y-94349047D01*
X149804761Y-94682380D02*
X149900000Y-94634761D01*
X149947619Y-94539523D01*
X149947619Y-93682380D01*
X149423809Y-94682380D02*
X149423809Y-94015714D01*
X149423809Y-94110952D02*
X149376190Y-94063333D01*
X149280952Y-94015714D01*
X149138095Y-94015714D01*
X149042857Y-94063333D01*
X148995238Y-94158571D01*
X148995238Y-94682380D01*
X148995238Y-94158571D02*
X148947619Y-94063333D01*
X148852380Y-94015714D01*
X148709523Y-94015714D01*
X148614285Y-94063333D01*
X148566666Y-94158571D01*
X148566666Y-94682380D01*
X147709523Y-94634761D02*
X147804761Y-94682380D01*
X147995238Y-94682380D01*
X148090476Y-94634761D01*
X148138095Y-94539523D01*
X148138095Y-94158571D01*
X148090476Y-94063333D01*
X147995238Y-94015714D01*
X147804761Y-94015714D01*
X147709523Y-94063333D01*
X147661904Y-94158571D01*
X147661904Y-94253809D01*
X148138095Y-94349047D01*
X147376190Y-94015714D02*
X146995238Y-94015714D01*
X147233333Y-93682380D02*
X147233333Y-94539523D01*
X147185714Y-94634761D01*
X147090476Y-94682380D01*
X146995238Y-94682380D01*
X145566666Y-94158571D02*
X145423809Y-94206190D01*
X145376190Y-94253809D01*
X145328571Y-94349047D01*
X145328571Y-94491904D01*
X145376190Y-94587142D01*
X145423809Y-94634761D01*
X145519047Y-94682380D01*
X145900000Y-94682380D01*
X145900000Y-93682380D01*
X145566666Y-93682380D01*
X145471428Y-93730000D01*
X145423809Y-93777619D01*
X145376190Y-93872857D01*
X145376190Y-93968095D01*
X145423809Y-94063333D01*
X145471428Y-94110952D01*
X145566666Y-94158571D01*
X145900000Y-94158571D01*
X144757142Y-94682380D02*
X144852380Y-94634761D01*
X144900000Y-94587142D01*
X144947619Y-94491904D01*
X144947619Y-94206190D01*
X144900000Y-94110952D01*
X144852380Y-94063333D01*
X144757142Y-94015714D01*
X144614285Y-94015714D01*
X144519047Y-94063333D01*
X144471428Y-94110952D01*
X144423809Y-94206190D01*
X144423809Y-94491904D01*
X144471428Y-94587142D01*
X144519047Y-94634761D01*
X144614285Y-94682380D01*
X144757142Y-94682380D01*
X143566666Y-94682380D02*
X143566666Y-94158571D01*
X143614285Y-94063333D01*
X143709523Y-94015714D01*
X143900000Y-94015714D01*
X143995238Y-94063333D01*
X143566666Y-94634761D02*
X143661904Y-94682380D01*
X143900000Y-94682380D01*
X143995238Y-94634761D01*
X144042857Y-94539523D01*
X144042857Y-94444285D01*
X143995238Y-94349047D01*
X143900000Y-94301428D01*
X143661904Y-94301428D01*
X143566666Y-94253809D01*
X143090476Y-94682380D02*
X143090476Y-94015714D01*
X143090476Y-94206190D02*
X143042857Y-94110952D01*
X142995238Y-94063333D01*
X142900000Y-94015714D01*
X142804761Y-94015714D01*
X142042857Y-94682380D02*
X142042857Y-93682380D01*
X142042857Y-94634761D02*
X142138095Y-94682380D01*
X142328571Y-94682380D01*
X142423809Y-94634761D01*
X142471428Y-94587142D01*
X142519047Y-94491904D01*
X142519047Y-94206190D01*
X142471428Y-94110952D01*
X142423809Y-94063333D01*
X142328571Y-94015714D01*
X142138095Y-94015714D01*
X142042857Y-94063333D01*
X140900000Y-94015714D02*
X140661904Y-94682380D01*
X140423809Y-94015714D01*
X139519047Y-94682380D02*
X140090476Y-94682380D01*
X139804761Y-94682380D02*
X139804761Y-93682380D01*
X139900000Y-93825238D01*
X139995238Y-93920476D01*
X140090476Y-93968095D01*
X157019047Y-95292380D02*
X157019047Y-96006666D01*
X157066666Y-96149523D01*
X157161904Y-96244761D01*
X157304761Y-96292380D01*
X157400000Y-96292380D01*
X156066666Y-96292380D02*
X156542857Y-96292380D01*
X156542857Y-95292380D01*
X155161904Y-96197142D02*
X155209523Y-96244761D01*
X155352380Y-96292380D01*
X155447619Y-96292380D01*
X155590476Y-96244761D01*
X155685714Y-96149523D01*
X155733333Y-96054285D01*
X155780952Y-95863809D01*
X155780952Y-95720952D01*
X155733333Y-95530476D01*
X155685714Y-95435238D01*
X155590476Y-95340000D01*
X155447619Y-95292380D01*
X155352380Y-95292380D01*
X155209523Y-95340000D01*
X155161904Y-95387619D01*
X154447619Y-95292380D02*
X154447619Y-96006666D01*
X154495238Y-96149523D01*
X154590476Y-96244761D01*
X154733333Y-96292380D01*
X154828571Y-96292380D01*
X153495238Y-96292380D02*
X153971428Y-96292380D01*
X153971428Y-95292380D01*
X152590476Y-96197142D02*
X152638095Y-96244761D01*
X152780952Y-96292380D01*
X152876190Y-96292380D01*
X153019047Y-96244761D01*
X153114285Y-96149523D01*
X153161904Y-96054285D01*
X153209523Y-95863809D01*
X153209523Y-95720952D01*
X153161904Y-95530476D01*
X153114285Y-95435238D01*
X153019047Y-95340000D01*
X152876190Y-95292380D01*
X152780952Y-95292380D01*
X152638095Y-95340000D01*
X152590476Y-95387619D01*
X151876190Y-95292380D02*
X151876190Y-96006666D01*
X151923809Y-96149523D01*
X152019047Y-96244761D01*
X152161904Y-96292380D01*
X152257142Y-96292380D01*
X150923809Y-96292380D02*
X151400000Y-96292380D01*
X151400000Y-95292380D01*
X150019047Y-96197142D02*
X150066666Y-96244761D01*
X150209523Y-96292380D01*
X150304761Y-96292380D01*
X150447619Y-96244761D01*
X150542857Y-96149523D01*
X150590476Y-96054285D01*
X150638095Y-95863809D01*
X150638095Y-95720952D01*
X150590476Y-95530476D01*
X150542857Y-95435238D01*
X150447619Y-95340000D01*
X150304761Y-95292380D01*
X150209523Y-95292380D01*
X150066666Y-95340000D01*
X150019047Y-95387619D01*
X149304761Y-95292380D02*
X149304761Y-96006666D01*
X149352380Y-96149523D01*
X149447619Y-96244761D01*
X149590476Y-96292380D01*
X149685714Y-96292380D01*
X148352380Y-96292380D02*
X148828571Y-96292380D01*
X148828571Y-95292380D01*
X147447619Y-96197142D02*
X147495238Y-96244761D01*
X147638095Y-96292380D01*
X147733333Y-96292380D01*
X147876190Y-96244761D01*
X147971428Y-96149523D01*
X148019047Y-96054285D01*
X148066666Y-95863809D01*
X148066666Y-95720952D01*
X148019047Y-95530476D01*
X147971428Y-95435238D01*
X147876190Y-95340000D01*
X147733333Y-95292380D01*
X147638095Y-95292380D01*
X147495238Y-95340000D01*
X147447619Y-95387619D01*
X168876190Y-99226666D02*
X168400000Y-99226666D01*
X168971428Y-99512380D02*
X168638095Y-98512380D01*
X168304761Y-99512380D01*
X167971428Y-99417142D02*
X167923809Y-99464761D01*
X167971428Y-99512380D01*
X168019047Y-99464761D01*
X167971428Y-99417142D01*
X167971428Y-99512380D01*
X166780952Y-99464761D02*
X166638095Y-99512380D01*
X166400000Y-99512380D01*
X166304761Y-99464761D01*
X166257142Y-99417142D01*
X166209523Y-99321904D01*
X166209523Y-99226666D01*
X166257142Y-99131428D01*
X166304761Y-99083809D01*
X166400000Y-99036190D01*
X166590476Y-98988571D01*
X166685714Y-98940952D01*
X166733333Y-98893333D01*
X166780952Y-98798095D01*
X166780952Y-98702857D01*
X166733333Y-98607619D01*
X166685714Y-98560000D01*
X166590476Y-98512380D01*
X166352380Y-98512380D01*
X166209523Y-98560000D01*
X165352380Y-99512380D02*
X165352380Y-98988571D01*
X165400000Y-98893333D01*
X165495238Y-98845714D01*
X165685714Y-98845714D01*
X165780952Y-98893333D01*
X165352380Y-99464761D02*
X165447619Y-99512380D01*
X165685714Y-99512380D01*
X165780952Y-99464761D01*
X165828571Y-99369523D01*
X165828571Y-99274285D01*
X165780952Y-99179047D01*
X165685714Y-99131428D01*
X165447619Y-99131428D01*
X165352380Y-99083809D01*
X164876190Y-99512380D02*
X164876190Y-98512380D01*
X164447619Y-99512380D02*
X164447619Y-98988571D01*
X164495238Y-98893333D01*
X164590476Y-98845714D01*
X164733333Y-98845714D01*
X164828571Y-98893333D01*
X164876190Y-98940952D01*
X163542857Y-99512380D02*
X163542857Y-98988571D01*
X163590476Y-98893333D01*
X163685714Y-98845714D01*
X163876190Y-98845714D01*
X163971428Y-98893333D01*
X163542857Y-99464761D02*
X163638095Y-99512380D01*
X163876190Y-99512380D01*
X163971428Y-99464761D01*
X164019047Y-99369523D01*
X164019047Y-99274285D01*
X163971428Y-99179047D01*
X163876190Y-99131428D01*
X163638095Y-99131428D01*
X163542857Y-99083809D01*
X163161904Y-98845714D02*
X162923809Y-99512380D01*
X162685714Y-98845714D02*
X162923809Y-99512380D01*
X163019047Y-99750476D01*
X163066666Y-99798095D01*
X163161904Y-99845714D01*
X162257142Y-99464761D02*
X162257142Y-99512380D01*
X162304761Y-99607619D01*
X162352380Y-99655238D01*
X161066666Y-99512380D02*
X161066666Y-98512380D01*
X160733333Y-99226666D01*
X160400000Y-98512380D01*
X160400000Y-99512380D01*
X159923809Y-99417142D02*
X159876190Y-99464761D01*
X159923809Y-99512380D01*
X159971428Y-99464761D01*
X159923809Y-99417142D01*
X159923809Y-99512380D01*
X158685714Y-99512380D02*
X158685714Y-98512380D01*
X158352380Y-99226666D01*
X158019047Y-98512380D01*
X158019047Y-99512380D01*
X157400000Y-99512380D02*
X157495238Y-99464761D01*
X157542857Y-99417142D01*
X157590476Y-99321904D01*
X157590476Y-99036190D01*
X157542857Y-98940952D01*
X157495238Y-98893333D01*
X157400000Y-98845714D01*
X157257142Y-98845714D01*
X157161904Y-98893333D01*
X157114285Y-98940952D01*
X157066666Y-99036190D01*
X157066666Y-99321904D01*
X157114285Y-99417142D01*
X157161904Y-99464761D01*
X157257142Y-99512380D01*
X157400000Y-99512380D01*
X156638095Y-99512380D02*
X156638095Y-98845714D01*
X156638095Y-99036190D02*
X156590476Y-98940952D01*
X156542857Y-98893333D01*
X156447619Y-98845714D01*
X156352380Y-98845714D01*
X155638095Y-99464761D02*
X155733333Y-99512380D01*
X155923809Y-99512380D01*
X156019047Y-99464761D01*
X156066666Y-99369523D01*
X156066666Y-98988571D01*
X156019047Y-98893333D01*
X155923809Y-98845714D01*
X155733333Y-98845714D01*
X155638095Y-98893333D01*
X155590476Y-98988571D01*
X155590476Y-99083809D01*
X156066666Y-99179047D01*
X155019047Y-99512380D02*
X155114285Y-99464761D01*
X155161904Y-99369523D01*
X155161904Y-98512380D01*
X154590476Y-99464761D02*
X154590476Y-99512380D01*
X154638095Y-99607619D01*
X154685714Y-99655238D01*
X153400000Y-99512380D02*
X153400000Y-98512380D01*
X153066666Y-99226666D01*
X152733333Y-98512380D01*
X152733333Y-99512380D01*
X152257142Y-99417142D02*
X152209523Y-99464761D01*
X152257142Y-99512380D01*
X152304761Y-99464761D01*
X152257142Y-99417142D01*
X152257142Y-99512380D01*
X151780952Y-99512380D02*
X151780952Y-98512380D01*
X151400000Y-98512380D01*
X151304761Y-98560000D01*
X151257142Y-98607619D01*
X151209523Y-98702857D01*
X151209523Y-98845714D01*
X151257142Y-98940952D01*
X151304761Y-98988571D01*
X151400000Y-99036190D01*
X151780952Y-99036190D01*
X150780952Y-99417142D02*
X150733333Y-99464761D01*
X150780952Y-99512380D01*
X150828571Y-99464761D01*
X150780952Y-99417142D01*
X150780952Y-99512380D01*
X149019047Y-98560000D02*
X149114285Y-98512380D01*
X149257142Y-98512380D01*
X149400000Y-98560000D01*
X149495238Y-98655238D01*
X149542857Y-98750476D01*
X149590476Y-98940952D01*
X149590476Y-99083809D01*
X149542857Y-99274285D01*
X149495238Y-99369523D01*
X149400000Y-99464761D01*
X149257142Y-99512380D01*
X149161904Y-99512380D01*
X149019047Y-99464761D01*
X148971428Y-99417142D01*
X148971428Y-99083809D01*
X149161904Y-99083809D01*
X148400000Y-99512380D02*
X148495238Y-99464761D01*
X148542857Y-99417142D01*
X148590476Y-99321904D01*
X148590476Y-99036190D01*
X148542857Y-98940952D01*
X148495238Y-98893333D01*
X148400000Y-98845714D01*
X148257142Y-98845714D01*
X148161904Y-98893333D01*
X148114285Y-98940952D01*
X148066666Y-99036190D01*
X148066666Y-99321904D01*
X148114285Y-99417142D01*
X148161904Y-99464761D01*
X148257142Y-99512380D01*
X148400000Y-99512380D01*
X147638095Y-98845714D02*
X147638095Y-99512380D01*
X147638095Y-98940952D02*
X147590476Y-98893333D01*
X147495238Y-98845714D01*
X147352380Y-98845714D01*
X147257142Y-98893333D01*
X147209523Y-98988571D01*
X147209523Y-99512380D01*
X146828571Y-98845714D02*
X146304761Y-98845714D01*
X146828571Y-99512380D01*
X146304761Y-99512380D01*
X145495238Y-99512380D02*
X145495238Y-98988571D01*
X145542857Y-98893333D01*
X145638095Y-98845714D01*
X145828571Y-98845714D01*
X145923809Y-98893333D01*
X145495238Y-99464761D02*
X145590476Y-99512380D01*
X145828571Y-99512380D01*
X145923809Y-99464761D01*
X145971428Y-99369523D01*
X145971428Y-99274285D01*
X145923809Y-99179047D01*
X145828571Y-99131428D01*
X145590476Y-99131428D01*
X145495238Y-99083809D01*
X144876190Y-99512380D02*
X144971428Y-99464761D01*
X145019047Y-99369523D01*
X145019047Y-98512380D01*
X144114285Y-99464761D02*
X144209523Y-99512380D01*
X144400000Y-99512380D01*
X144495238Y-99464761D01*
X144542857Y-99369523D01*
X144542857Y-98988571D01*
X144495238Y-98893333D01*
X144400000Y-98845714D01*
X144209523Y-98845714D01*
X144114285Y-98893333D01*
X144066666Y-98988571D01*
X144066666Y-99083809D01*
X144542857Y-99179047D01*
X143733333Y-98845714D02*
X143209523Y-98845714D01*
X143733333Y-99512380D01*
X143209523Y-99512380D01*
X142780952Y-99464761D02*
X142780952Y-99512380D01*
X142828571Y-99607619D01*
X142876190Y-99655238D01*
X141019047Y-99512380D02*
X141352380Y-99036190D01*
X141590476Y-99512380D02*
X141590476Y-98512380D01*
X141209523Y-98512380D01*
X141114285Y-98560000D01*
X141066666Y-98607619D01*
X141019047Y-98702857D01*
X141019047Y-98845714D01*
X141066666Y-98940952D01*
X141114285Y-98988571D01*
X141209523Y-99036190D01*
X141590476Y-99036190D01*
X140590476Y-99417142D02*
X140542857Y-99464761D01*
X140590476Y-99512380D01*
X140638095Y-99464761D01*
X140590476Y-99417142D01*
X140590476Y-99512380D01*
X139352380Y-99512380D02*
X139352380Y-98512380D01*
X138971428Y-98512380D01*
X138876190Y-98560000D01*
X138828571Y-98607619D01*
X138780952Y-98702857D01*
X138780952Y-98845714D01*
X138828571Y-98940952D01*
X138876190Y-98988571D01*
X138971428Y-99036190D01*
X139352380Y-99036190D01*
X137923809Y-99512380D02*
X137923809Y-98988571D01*
X137971428Y-98893333D01*
X138066666Y-98845714D01*
X138257142Y-98845714D01*
X138352380Y-98893333D01*
X137923809Y-99464761D02*
X138019047Y-99512380D01*
X138257142Y-99512380D01*
X138352380Y-99464761D01*
X138400000Y-99369523D01*
X138400000Y-99274285D01*
X138352380Y-99179047D01*
X138257142Y-99131428D01*
X138019047Y-99131428D01*
X137923809Y-99083809D01*
X137590476Y-98845714D02*
X137209523Y-98845714D01*
X137447619Y-98512380D02*
X137447619Y-99369523D01*
X137400000Y-99464761D01*
X137304761Y-99512380D01*
X137209523Y-99512380D01*
X136495238Y-99464761D02*
X136590476Y-99512380D01*
X136780952Y-99512380D01*
X136876190Y-99464761D01*
X136923809Y-99369523D01*
X136923809Y-98988571D01*
X136876190Y-98893333D01*
X136780952Y-98845714D01*
X136590476Y-98845714D01*
X136495238Y-98893333D01*
X136447619Y-98988571D01*
X136447619Y-99083809D01*
X136923809Y-99179047D01*
X135876190Y-99512380D02*
X135971428Y-99464761D01*
X136019047Y-99369523D01*
X136019047Y-98512380D01*
X156661904Y-101122380D02*
X156661904Y-100122380D01*
X156280952Y-100122380D01*
X156185714Y-100170000D01*
X156138095Y-100217619D01*
X156090476Y-100312857D01*
X156090476Y-100455714D01*
X156138095Y-100550952D01*
X156185714Y-100598571D01*
X156280952Y-100646190D01*
X156661904Y-100646190D01*
X155661904Y-101122380D02*
X155661904Y-100455714D01*
X155661904Y-100646190D02*
X155614285Y-100550952D01*
X155566666Y-100503333D01*
X155471428Y-100455714D01*
X155376190Y-100455714D01*
X154900000Y-101122380D02*
X154995238Y-101074761D01*
X155042857Y-101027142D01*
X155090476Y-100931904D01*
X155090476Y-100646190D01*
X155042857Y-100550952D01*
X154995238Y-100503333D01*
X154900000Y-100455714D01*
X154757142Y-100455714D01*
X154661904Y-100503333D01*
X154614285Y-100550952D01*
X154566666Y-100646190D01*
X154566666Y-100931904D01*
X154614285Y-101027142D01*
X154661904Y-101074761D01*
X154757142Y-101122380D01*
X154900000Y-101122380D01*
X154280952Y-100455714D02*
X153900000Y-100455714D01*
X154138095Y-101122380D02*
X154138095Y-100265238D01*
X154090476Y-100170000D01*
X153995238Y-100122380D01*
X153900000Y-100122380D01*
X153566666Y-101027142D02*
X153519047Y-101074761D01*
X153566666Y-101122380D01*
X153614285Y-101074761D01*
X153566666Y-101027142D01*
X153566666Y-101122380D01*
X152376190Y-100836666D02*
X151900000Y-100836666D01*
X152471428Y-101122380D02*
X152138095Y-100122380D01*
X151804761Y-101122380D01*
X151471428Y-101122380D02*
X151471428Y-100455714D01*
X151471428Y-100646190D02*
X151423809Y-100550952D01*
X151376190Y-100503333D01*
X151280952Y-100455714D01*
X151185714Y-100455714D01*
X150852380Y-101122380D02*
X150852380Y-100122380D01*
X150852380Y-100503333D02*
X150757142Y-100455714D01*
X150566666Y-100455714D01*
X150471428Y-100503333D01*
X150423809Y-100550952D01*
X150376190Y-100646190D01*
X150376190Y-100931904D01*
X150423809Y-101027142D01*
X150471428Y-101074761D01*
X150566666Y-101122380D01*
X150757142Y-101122380D01*
X150852380Y-101074761D01*
X149519047Y-101122380D02*
X149519047Y-100598571D01*
X149566666Y-100503333D01*
X149661904Y-100455714D01*
X149852380Y-100455714D01*
X149947619Y-100503333D01*
X149519047Y-101074761D02*
X149614285Y-101122380D01*
X149852380Y-101122380D01*
X149947619Y-101074761D01*
X149995238Y-100979523D01*
X149995238Y-100884285D01*
X149947619Y-100789047D01*
X149852380Y-100741428D01*
X149614285Y-100741428D01*
X149519047Y-100693809D01*
X149042857Y-101122380D02*
X149042857Y-100122380D01*
X149042857Y-100503333D02*
X148947619Y-100455714D01*
X148757142Y-100455714D01*
X148661904Y-100503333D01*
X148614285Y-100550952D01*
X148566666Y-100646190D01*
X148566666Y-100931904D01*
X148614285Y-101027142D01*
X148661904Y-101074761D01*
X148757142Y-101122380D01*
X148947619Y-101122380D01*
X149042857Y-101074761D01*
X148138095Y-101122380D02*
X148138095Y-100455714D01*
X148138095Y-100122380D02*
X148185714Y-100170000D01*
X148138095Y-100217619D01*
X148090476Y-100170000D01*
X148138095Y-100122380D01*
X148138095Y-100217619D01*
%LPC*%
D11*
X175260000Y-93980000D03*
D12*
X175260000Y-96520000D03*
X175260000Y-99060000D03*
D13*
X129540000Y-78740000D03*
D14*
X132080000Y-78740000D03*
X134620000Y-78740000D03*
X137160000Y-78740000D03*
D13*
X180340000Y-86360000D03*
D14*
X180340000Y-88900000D03*
X180340000Y-91440000D03*
X180340000Y-93980000D03*
X180340000Y-96520000D03*
X180340000Y-99060000D03*
X180340000Y-101600000D03*
X180340000Y-104140000D03*
X180340000Y-106680000D03*
D13*
X167640000Y-78740000D03*
D14*
X167640000Y-81280000D03*
X170180000Y-78740000D03*
X170180000Y-81280000D03*
X172720000Y-78740000D03*
X172720000Y-81280000D03*
X175260000Y-78740000D03*
X175260000Y-81280000D03*
D15*
X124460000Y-78740000D03*
D16*
X155290000Y-111580000D03*
X149510000Y-111580000D03*
D17*
X148080000Y-111100000D03*
D18*
X148080000Y-115270000D03*
X156720000Y-115270000D03*
D17*
X156720000Y-111100000D03*
D15*
X180340000Y-78740000D03*
X180340000Y-114300000D03*
X124460000Y-114300000D03*
M02*
