%TF.GenerationSoftware,KiCad,Pcbnew,(6.0.7)*%
%TF.CreationDate,2023-03-20T21:53:52-04:00*%
%TF.ProjectId,CDR_Board,4344525f-426f-4617-9264-2e6b69636164,rev?*%
%TF.SameCoordinates,Original*%
%TF.FileFunction,Drillmap*%
%TF.FilePolarity,Positive*%
%FSLAX45Y45*%
G04 Gerber Fmt 4.5, Leading zero omitted, Abs format (unit mm)*
G04 Created by KiCad (PCBNEW (6.0.7)) date 2023-03-20 21:53:52*
%MOMM*%
%LPD*%
G01*
G04 APERTURE LIST*
%ADD10C,0.100000*%
%ADD11C,0.200000*%
%ADD12C,0.060000*%
G04 APERTURE END LIST*
D10*
X12446000Y-11684000D02*
X18034000Y-11684000D01*
X12446000Y-7620000D02*
G75*
G03*
X12192000Y-7874000I0J-254000D01*
G01*
X18034000Y-11684000D02*
G75*
G03*
X18288000Y-11430000I0J254000D01*
G01*
X12192000Y-11430000D02*
G75*
G03*
X12446000Y-11684000I254000J0D01*
G01*
X18288000Y-7874000D02*
G75*
G03*
X18034000Y-7620000I-254000J0D01*
G01*
X12192000Y-7874000D02*
X12192000Y-11430000D01*
X12446000Y-7620000D02*
X18034000Y-7620000D01*
X18288000Y-11430000D02*
X18288000Y-7874000D01*
D11*
D12*
X14921000Y-11128000D02*
X14981000Y-11188000D01*
X14981000Y-11128000D02*
X14921000Y-11188000D01*
X15499000Y-11128000D02*
X15559000Y-11188000D01*
X15559000Y-11128000D02*
X15499000Y-11188000D01*
D11*
X12444619Y-11999476D02*
X12444619Y-11799476D01*
X12492238Y-11799476D01*
X12520809Y-11809000D01*
X12539857Y-11828048D01*
X12549381Y-11847095D01*
X12558905Y-11885190D01*
X12558905Y-11913762D01*
X12549381Y-11951857D01*
X12539857Y-11970905D01*
X12520809Y-11989952D01*
X12492238Y-11999476D01*
X12444619Y-11999476D01*
X12644619Y-11999476D02*
X12644619Y-11866143D01*
X12644619Y-11904238D02*
X12654143Y-11885190D01*
X12663667Y-11875667D01*
X12682714Y-11866143D01*
X12701762Y-11866143D01*
X12768428Y-11999476D02*
X12768428Y-11866143D01*
X12768428Y-11799476D02*
X12758905Y-11809000D01*
X12768428Y-11818524D01*
X12777952Y-11809000D01*
X12768428Y-11799476D01*
X12768428Y-11818524D01*
X12892238Y-11999476D02*
X12873190Y-11989952D01*
X12863667Y-11970905D01*
X12863667Y-11799476D01*
X12997000Y-11999476D02*
X12977952Y-11989952D01*
X12968428Y-11970905D01*
X12968428Y-11799476D01*
X13225571Y-11999476D02*
X13225571Y-11799476D01*
X13292238Y-11942333D01*
X13358905Y-11799476D01*
X13358905Y-11999476D01*
X13539857Y-11999476D02*
X13539857Y-11894714D01*
X13530333Y-11875667D01*
X13511286Y-11866143D01*
X13473190Y-11866143D01*
X13454143Y-11875667D01*
X13539857Y-11989952D02*
X13520809Y-11999476D01*
X13473190Y-11999476D01*
X13454143Y-11989952D01*
X13444619Y-11970905D01*
X13444619Y-11951857D01*
X13454143Y-11932809D01*
X13473190Y-11923286D01*
X13520809Y-11923286D01*
X13539857Y-11913762D01*
X13635095Y-11866143D02*
X13635095Y-12066143D01*
X13635095Y-11875667D02*
X13654143Y-11866143D01*
X13692238Y-11866143D01*
X13711286Y-11875667D01*
X13720809Y-11885190D01*
X13730333Y-11904238D01*
X13730333Y-11961381D01*
X13720809Y-11980428D01*
X13711286Y-11989952D01*
X13692238Y-11999476D01*
X13654143Y-11999476D01*
X13635095Y-11989952D01*
X13816048Y-11980428D02*
X13825571Y-11989952D01*
X13816048Y-11999476D01*
X13806524Y-11989952D01*
X13816048Y-11980428D01*
X13816048Y-11999476D01*
X13816048Y-11875667D02*
X13825571Y-11885190D01*
X13816048Y-11894714D01*
X13806524Y-11885190D01*
X13816048Y-11875667D01*
X13816048Y-11894714D01*
D12*
X12127000Y-12299000D02*
X12187000Y-12359000D01*
X12187000Y-12299000D02*
X12127000Y-12359000D01*
D11*
X12482714Y-12219476D02*
X12501762Y-12219476D01*
X12520809Y-12229000D01*
X12530333Y-12238524D01*
X12539857Y-12257571D01*
X12549381Y-12295667D01*
X12549381Y-12343286D01*
X12539857Y-12381381D01*
X12530333Y-12400428D01*
X12520809Y-12409952D01*
X12501762Y-12419476D01*
X12482714Y-12419476D01*
X12463667Y-12409952D01*
X12454143Y-12400428D01*
X12444619Y-12381381D01*
X12435095Y-12343286D01*
X12435095Y-12295667D01*
X12444619Y-12257571D01*
X12454143Y-12238524D01*
X12463667Y-12229000D01*
X12482714Y-12219476D01*
X12635095Y-12400428D02*
X12644619Y-12409952D01*
X12635095Y-12419476D01*
X12625571Y-12409952D01*
X12635095Y-12400428D01*
X12635095Y-12419476D01*
X12816048Y-12219476D02*
X12777952Y-12219476D01*
X12758905Y-12229000D01*
X12749381Y-12238524D01*
X12730333Y-12267095D01*
X12720809Y-12305190D01*
X12720809Y-12381381D01*
X12730333Y-12400428D01*
X12739857Y-12409952D01*
X12758905Y-12419476D01*
X12797000Y-12419476D01*
X12816048Y-12409952D01*
X12825571Y-12400428D01*
X12835095Y-12381381D01*
X12835095Y-12333762D01*
X12825571Y-12314714D01*
X12816048Y-12305190D01*
X12797000Y-12295667D01*
X12758905Y-12295667D01*
X12739857Y-12305190D01*
X12730333Y-12314714D01*
X12720809Y-12333762D01*
X12958905Y-12219476D02*
X12977952Y-12219476D01*
X12997000Y-12229000D01*
X13006524Y-12238524D01*
X13016048Y-12257571D01*
X13025571Y-12295667D01*
X13025571Y-12343286D01*
X13016048Y-12381381D01*
X13006524Y-12400428D01*
X12997000Y-12409952D01*
X12977952Y-12419476D01*
X12958905Y-12419476D01*
X12939857Y-12409952D01*
X12930333Y-12400428D01*
X12920809Y-12381381D01*
X12911286Y-12343286D01*
X12911286Y-12295667D01*
X12920809Y-12257571D01*
X12930333Y-12238524D01*
X12939857Y-12229000D01*
X12958905Y-12219476D01*
X13149381Y-12219476D02*
X13168428Y-12219476D01*
X13187476Y-12229000D01*
X13197000Y-12238524D01*
X13206524Y-12257571D01*
X13216048Y-12295667D01*
X13216048Y-12343286D01*
X13206524Y-12381381D01*
X13197000Y-12400428D01*
X13187476Y-12409952D01*
X13168428Y-12419476D01*
X13149381Y-12419476D01*
X13130333Y-12409952D01*
X13120809Y-12400428D01*
X13111286Y-12381381D01*
X13101762Y-12343286D01*
X13101762Y-12295667D01*
X13111286Y-12257571D01*
X13120809Y-12238524D01*
X13130333Y-12229000D01*
X13149381Y-12219476D01*
X13301762Y-12419476D02*
X13301762Y-12286143D01*
X13301762Y-12305190D02*
X13311286Y-12295667D01*
X13330333Y-12286143D01*
X13358905Y-12286143D01*
X13377952Y-12295667D01*
X13387476Y-12314714D01*
X13387476Y-12419476D01*
X13387476Y-12314714D02*
X13397000Y-12295667D01*
X13416048Y-12286143D01*
X13444619Y-12286143D01*
X13463667Y-12295667D01*
X13473190Y-12314714D01*
X13473190Y-12419476D01*
X13568428Y-12419476D02*
X13568428Y-12286143D01*
X13568428Y-12305190D02*
X13577952Y-12295667D01*
X13597000Y-12286143D01*
X13625571Y-12286143D01*
X13644619Y-12295667D01*
X13654143Y-12314714D01*
X13654143Y-12419476D01*
X13654143Y-12314714D02*
X13663667Y-12295667D01*
X13682714Y-12286143D01*
X13711286Y-12286143D01*
X13730333Y-12295667D01*
X13739857Y-12314714D01*
X13739857Y-12419476D01*
X14130333Y-12209952D02*
X13958905Y-12467095D01*
X14387476Y-12219476D02*
X14406524Y-12219476D01*
X14425571Y-12229000D01*
X14435095Y-12238524D01*
X14444619Y-12257571D01*
X14454143Y-12295667D01*
X14454143Y-12343286D01*
X14444619Y-12381381D01*
X14435095Y-12400428D01*
X14425571Y-12409952D01*
X14406524Y-12419476D01*
X14387476Y-12419476D01*
X14368428Y-12409952D01*
X14358905Y-12400428D01*
X14349381Y-12381381D01*
X14339857Y-12343286D01*
X14339857Y-12295667D01*
X14349381Y-12257571D01*
X14358905Y-12238524D01*
X14368428Y-12229000D01*
X14387476Y-12219476D01*
X14539857Y-12400428D02*
X14549381Y-12409952D01*
X14539857Y-12419476D01*
X14530333Y-12409952D01*
X14539857Y-12400428D01*
X14539857Y-12419476D01*
X14673190Y-12219476D02*
X14692238Y-12219476D01*
X14711286Y-12229000D01*
X14720809Y-12238524D01*
X14730333Y-12257571D01*
X14739857Y-12295667D01*
X14739857Y-12343286D01*
X14730333Y-12381381D01*
X14720809Y-12400428D01*
X14711286Y-12409952D01*
X14692238Y-12419476D01*
X14673190Y-12419476D01*
X14654143Y-12409952D01*
X14644619Y-12400428D01*
X14635095Y-12381381D01*
X14625571Y-12343286D01*
X14625571Y-12295667D01*
X14635095Y-12257571D01*
X14644619Y-12238524D01*
X14654143Y-12229000D01*
X14673190Y-12219476D01*
X14816048Y-12238524D02*
X14825571Y-12229000D01*
X14844619Y-12219476D01*
X14892238Y-12219476D01*
X14911286Y-12229000D01*
X14920809Y-12238524D01*
X14930333Y-12257571D01*
X14930333Y-12276619D01*
X14920809Y-12305190D01*
X14806524Y-12419476D01*
X14930333Y-12419476D01*
X14997000Y-12219476D02*
X15120809Y-12219476D01*
X15054143Y-12295667D01*
X15082714Y-12295667D01*
X15101762Y-12305190D01*
X15111286Y-12314714D01*
X15120809Y-12333762D01*
X15120809Y-12381381D01*
X15111286Y-12400428D01*
X15101762Y-12409952D01*
X15082714Y-12419476D01*
X15025571Y-12419476D01*
X15006524Y-12409952D01*
X14997000Y-12400428D01*
X15292238Y-12219476D02*
X15254143Y-12219476D01*
X15235095Y-12229000D01*
X15225571Y-12238524D01*
X15206524Y-12267095D01*
X15197000Y-12305190D01*
X15197000Y-12381381D01*
X15206524Y-12400428D01*
X15216048Y-12409952D01*
X15235095Y-12419476D01*
X15273190Y-12419476D01*
X15292238Y-12409952D01*
X15301762Y-12400428D01*
X15311286Y-12381381D01*
X15311286Y-12333762D01*
X15301762Y-12314714D01*
X15292238Y-12305190D01*
X15273190Y-12295667D01*
X15235095Y-12295667D01*
X15216048Y-12305190D01*
X15206524Y-12314714D01*
X15197000Y-12333762D01*
X15387476Y-12219476D02*
X15387476Y-12257571D01*
X15463667Y-12219476D02*
X15463667Y-12257571D01*
X15758905Y-12495667D02*
X15749381Y-12486143D01*
X15730333Y-12457571D01*
X15720809Y-12438524D01*
X15711286Y-12409952D01*
X15701762Y-12362333D01*
X15701762Y-12324238D01*
X15711286Y-12276619D01*
X15720809Y-12248048D01*
X15730333Y-12229000D01*
X15749381Y-12200428D01*
X15758905Y-12190905D01*
X15825571Y-12238524D02*
X15835095Y-12229000D01*
X15854143Y-12219476D01*
X15901762Y-12219476D01*
X15920809Y-12229000D01*
X15930333Y-12238524D01*
X15939857Y-12257571D01*
X15939857Y-12276619D01*
X15930333Y-12305190D01*
X15816048Y-12419476D01*
X15939857Y-12419476D01*
X16177952Y-12419476D02*
X16177952Y-12219476D01*
X16263667Y-12419476D02*
X16263667Y-12314714D01*
X16254143Y-12295667D01*
X16235095Y-12286143D01*
X16206524Y-12286143D01*
X16187476Y-12295667D01*
X16177952Y-12305190D01*
X16387476Y-12419476D02*
X16368428Y-12409952D01*
X16358905Y-12400428D01*
X16349381Y-12381381D01*
X16349381Y-12324238D01*
X16358905Y-12305190D01*
X16368428Y-12295667D01*
X16387476Y-12286143D01*
X16416048Y-12286143D01*
X16435095Y-12295667D01*
X16444619Y-12305190D01*
X16454143Y-12324238D01*
X16454143Y-12381381D01*
X16444619Y-12400428D01*
X16435095Y-12409952D01*
X16416048Y-12419476D01*
X16387476Y-12419476D01*
X16568428Y-12419476D02*
X16549381Y-12409952D01*
X16539857Y-12390905D01*
X16539857Y-12219476D01*
X16720809Y-12409952D02*
X16701762Y-12419476D01*
X16663667Y-12419476D01*
X16644619Y-12409952D01*
X16635095Y-12390905D01*
X16635095Y-12314714D01*
X16644619Y-12295667D01*
X16663667Y-12286143D01*
X16701762Y-12286143D01*
X16720809Y-12295667D01*
X16730333Y-12314714D01*
X16730333Y-12333762D01*
X16635095Y-12352809D01*
X16806524Y-12409952D02*
X16825571Y-12419476D01*
X16863667Y-12419476D01*
X16882714Y-12409952D01*
X16892238Y-12390905D01*
X16892238Y-12381381D01*
X16882714Y-12362333D01*
X16863667Y-12352809D01*
X16835095Y-12352809D01*
X16816048Y-12343286D01*
X16806524Y-12324238D01*
X16806524Y-12314714D01*
X16816048Y-12295667D01*
X16835095Y-12286143D01*
X16863667Y-12286143D01*
X16882714Y-12295667D01*
X16958905Y-12495667D02*
X16968429Y-12486143D01*
X16987476Y-12457571D01*
X16997000Y-12438524D01*
X17006524Y-12409952D01*
X17016048Y-12362333D01*
X17016048Y-12324238D01*
X17006524Y-12276619D01*
X16997000Y-12248048D01*
X16987476Y-12229000D01*
X16968429Y-12200428D01*
X16958905Y-12190905D01*
X17320810Y-12495667D02*
X17311286Y-12486143D01*
X17292238Y-12457571D01*
X17282714Y-12438524D01*
X17273190Y-12409952D01*
X17263667Y-12362333D01*
X17263667Y-12324238D01*
X17273190Y-12276619D01*
X17282714Y-12248048D01*
X17292238Y-12229000D01*
X17311286Y-12200428D01*
X17320810Y-12190905D01*
X17397000Y-12286143D02*
X17397000Y-12419476D01*
X17397000Y-12305190D02*
X17406524Y-12295667D01*
X17425571Y-12286143D01*
X17454143Y-12286143D01*
X17473190Y-12295667D01*
X17482714Y-12314714D01*
X17482714Y-12419476D01*
X17606524Y-12419476D02*
X17587476Y-12409952D01*
X17577952Y-12400428D01*
X17568429Y-12381381D01*
X17568429Y-12324238D01*
X17577952Y-12305190D01*
X17587476Y-12295667D01*
X17606524Y-12286143D01*
X17635095Y-12286143D01*
X17654143Y-12295667D01*
X17663667Y-12305190D01*
X17673190Y-12324238D01*
X17673190Y-12381381D01*
X17663667Y-12400428D01*
X17654143Y-12409952D01*
X17635095Y-12419476D01*
X17606524Y-12419476D01*
X17730333Y-12286143D02*
X17806524Y-12286143D01*
X17758905Y-12219476D02*
X17758905Y-12390905D01*
X17768429Y-12409952D01*
X17787476Y-12419476D01*
X17806524Y-12419476D01*
X18025571Y-12286143D02*
X18025571Y-12486143D01*
X18025571Y-12295667D02*
X18044619Y-12286143D01*
X18082714Y-12286143D01*
X18101762Y-12295667D01*
X18111286Y-12305190D01*
X18120810Y-12324238D01*
X18120810Y-12381381D01*
X18111286Y-12400428D01*
X18101762Y-12409952D01*
X18082714Y-12419476D01*
X18044619Y-12419476D01*
X18025571Y-12409952D01*
X18235095Y-12419476D02*
X18216048Y-12409952D01*
X18206524Y-12390905D01*
X18206524Y-12219476D01*
X18397000Y-12419476D02*
X18397000Y-12314714D01*
X18387476Y-12295667D01*
X18368429Y-12286143D01*
X18330333Y-12286143D01*
X18311286Y-12295667D01*
X18397000Y-12409952D02*
X18377952Y-12419476D01*
X18330333Y-12419476D01*
X18311286Y-12409952D01*
X18301762Y-12390905D01*
X18301762Y-12371857D01*
X18311286Y-12352809D01*
X18330333Y-12343286D01*
X18377952Y-12343286D01*
X18397000Y-12333762D01*
X18463667Y-12286143D02*
X18539857Y-12286143D01*
X18492238Y-12219476D02*
X18492238Y-12390905D01*
X18501762Y-12409952D01*
X18520810Y-12419476D01*
X18539857Y-12419476D01*
X18682714Y-12409952D02*
X18663667Y-12419476D01*
X18625571Y-12419476D01*
X18606524Y-12409952D01*
X18597000Y-12390905D01*
X18597000Y-12314714D01*
X18606524Y-12295667D01*
X18625571Y-12286143D01*
X18663667Y-12286143D01*
X18682714Y-12295667D01*
X18692238Y-12314714D01*
X18692238Y-12333762D01*
X18597000Y-12352809D01*
X18863667Y-12419476D02*
X18863667Y-12219476D01*
X18863667Y-12409952D02*
X18844619Y-12419476D01*
X18806524Y-12419476D01*
X18787476Y-12409952D01*
X18777952Y-12400428D01*
X18768429Y-12381381D01*
X18768429Y-12324238D01*
X18777952Y-12305190D01*
X18787476Y-12295667D01*
X18806524Y-12286143D01*
X18844619Y-12286143D01*
X18863667Y-12295667D01*
X18939857Y-12495667D02*
X18949381Y-12486143D01*
X18968429Y-12457571D01*
X18977952Y-12438524D01*
X18987476Y-12409952D01*
X18997000Y-12362333D01*
X18997000Y-12324238D01*
X18987476Y-12276619D01*
X18977952Y-12248048D01*
X18968429Y-12229000D01*
X18949381Y-12200428D01*
X18939857Y-12190905D01*
M02*
