%TF.GenerationSoftware,KiCad,Pcbnew,(6.0.7)*%
%TF.CreationDate,2023-03-20T21:53:08-04:00*%
%TF.ProjectId,CDR_Board,4344525f-426f-4617-9264-2e6b69636164,rev?*%
%TF.SameCoordinates,Original*%
%TF.FileFunction,Paste,Top*%
%TF.FilePolarity,Positive*%
%FSLAX46Y46*%
G04 Gerber Fmt 4.6, Leading zero omitted, Abs format (unit mm)*
G04 Created by KiCad (PCBNEW (6.0.7)) date 2023-03-20 21:53:08*
%MOMM*%
%LPD*%
G01*
G04 APERTURE LIST*
G04 Aperture macros list*
%AMRoundRect*
0 Rectangle with rounded corners*
0 $1 Rounding radius*
0 $2 $3 $4 $5 $6 $7 $8 $9 X,Y pos of 4 corners*
0 Add a 4 corners polygon primitive as box body*
4,1,4,$2,$3,$4,$5,$6,$7,$8,$9,$2,$3,0*
0 Add four circle primitives for the rounded corners*
1,1,$1+$1,$2,$3*
1,1,$1+$1,$4,$5*
1,1,$1+$1,$6,$7*
1,1,$1+$1,$8,$9*
0 Add four rect primitives between the rounded corners*
20,1,$1+$1,$2,$3,$4,$5,0*
20,1,$1+$1,$4,$5,$6,$7,0*
20,1,$1+$1,$6,$7,$8,$9,0*
20,1,$1+$1,$8,$9,$2,$3,0*%
G04 Aperture macros list end*
%ADD10RoundRect,0.250000X-0.475000X0.337500X-0.475000X-0.337500X0.475000X-0.337500X0.475000X0.337500X0*%
%ADD11RoundRect,0.237500X0.300000X0.237500X-0.300000X0.237500X-0.300000X-0.237500X0.300000X-0.237500X0*%
%ADD12RoundRect,0.250000X-0.450000X0.350000X-0.450000X-0.350000X0.450000X-0.350000X0.450000X0.350000X0*%
%ADD13RoundRect,0.237500X0.237500X-0.300000X0.237500X0.300000X-0.237500X0.300000X-0.237500X-0.300000X0*%
%ADD14RoundRect,0.250000X0.450000X-0.350000X0.450000X0.350000X-0.450000X0.350000X-0.450000X-0.350000X0*%
%ADD15RoundRect,0.250000X0.475000X-0.337500X0.475000X0.337500X-0.475000X0.337500X-0.475000X-0.337500X0*%
%ADD16RoundRect,0.237500X-0.300000X-0.237500X0.300000X-0.237500X0.300000X0.237500X-0.300000X0.237500X0*%
%ADD17RoundRect,0.250000X-0.250000X-1.500000X0.250000X-1.500000X0.250000X1.500000X-0.250000X1.500000X0*%
%ADD18RoundRect,0.250001X-0.499999X-1.449999X0.499999X-1.449999X0.499999X1.449999X-0.499999X1.449999X0*%
%ADD19RoundRect,0.250000X0.350000X0.450000X-0.350000X0.450000X-0.350000X-0.450000X0.350000X-0.450000X0*%
%ADD20R,1.200000X1.400000*%
%ADD21RoundRect,0.250000X-0.350000X-0.450000X0.350000X-0.450000X0.350000X0.450000X-0.350000X0.450000X0*%
%ADD22RoundRect,0.150000X-0.650000X-0.150000X0.650000X-0.150000X0.650000X0.150000X-0.650000X0.150000X0*%
%ADD23RoundRect,0.249999X0.395001X0.395001X-0.395001X0.395001X-0.395001X-0.395001X0.395001X-0.395001X0*%
%ADD24RoundRect,0.050000X0.387500X0.050000X-0.387500X0.050000X-0.387500X-0.050000X0.387500X-0.050000X0*%
%ADD25RoundRect,0.050000X0.050000X0.387500X-0.050000X0.387500X-0.050000X-0.387500X0.050000X-0.387500X0*%
%ADD26RoundRect,0.237500X-0.237500X0.300000X-0.237500X-0.300000X0.237500X-0.300000X0.237500X0.300000X0*%
%ADD27R,1.000000X1.000000*%
%ADD28RoundRect,0.150000X0.512500X0.150000X-0.512500X0.150000X-0.512500X-0.150000X0.512500X-0.150000X0*%
%ADD29R,0.600000X1.660000*%
%ADD30R,0.300000X1.660000*%
%ADD31RoundRect,0.250000X0.325000X0.450000X-0.325000X0.450000X-0.325000X-0.450000X0.325000X-0.450000X0*%
%ADD32RoundRect,0.250000X-0.337500X-0.475000X0.337500X-0.475000X0.337500X0.475000X-0.337500X0.475000X0*%
%ADD33RoundRect,0.150000X0.325000X0.150000X-0.325000X0.150000X-0.325000X-0.150000X0.325000X-0.150000X0*%
%ADD34RoundRect,0.150000X0.150000X0.325000X-0.150000X0.325000X-0.150000X-0.325000X0.150000X-0.325000X0*%
%ADD35R,1.000000X0.900000*%
%ADD36RoundRect,0.150000X0.587500X0.150000X-0.587500X0.150000X-0.587500X-0.150000X0.587500X-0.150000X0*%
%ADD37R,0.750000X0.650000*%
%ADD38R,0.500000X0.250000*%
G04 APERTURE END LIST*
D10*
X124460000Y-100562500D03*
X124460000Y-102637500D03*
D11*
X146277500Y-86360000D03*
X144552500Y-86360000D03*
D12*
X160020000Y-113300000D03*
X160020000Y-115300000D03*
D13*
X153035000Y-81507500D03*
X153035000Y-79782500D03*
D12*
X149860000Y-99330000D03*
X149860000Y-101330000D03*
D14*
X132715000Y-92440000D03*
X132715000Y-90440000D03*
D15*
X177165000Y-106447500D03*
X177165000Y-104372500D03*
D16*
X158522500Y-90170000D03*
X160247500Y-90170000D03*
D17*
X136160000Y-108910000D03*
X138160000Y-108910000D03*
D18*
X140510000Y-114660000D03*
X133810000Y-114660000D03*
D14*
X168275000Y-111490000D03*
X168275000Y-109490000D03*
D12*
X152400000Y-99330000D03*
X152400000Y-101330000D03*
X132715000Y-85360000D03*
X132715000Y-87360000D03*
D14*
X167640000Y-99044000D03*
X167640000Y-97044000D03*
D19*
X159750000Y-104140000D03*
X157750000Y-104140000D03*
D15*
X168275000Y-106447500D03*
X168275000Y-104372500D03*
D20*
X163995000Y-81745000D03*
X163995000Y-79545000D03*
X162395000Y-79545000D03*
X162395000Y-81745000D03*
D21*
X141240000Y-104140000D03*
X143240000Y-104140000D03*
D10*
X132080000Y-100562500D03*
X132080000Y-102637500D03*
D22*
X164040000Y-90805000D03*
X164040000Y-92075000D03*
X164040000Y-93345000D03*
X164040000Y-94615000D03*
X171240000Y-94615000D03*
X171240000Y-93345000D03*
X171240000Y-92075000D03*
X171240000Y-90805000D03*
D23*
X151600000Y-88430000D03*
X153200000Y-86830000D03*
X153200000Y-88430000D03*
X151600000Y-86830000D03*
D24*
X155837500Y-90230000D03*
X155837500Y-89830000D03*
X155837500Y-89430000D03*
X155837500Y-89030000D03*
X155837500Y-88630000D03*
X155837500Y-88230000D03*
X155837500Y-87830000D03*
X155837500Y-87430000D03*
X155837500Y-87030000D03*
X155837500Y-86630000D03*
X155837500Y-86230000D03*
X155837500Y-85830000D03*
X155837500Y-85430000D03*
X155837500Y-85030000D03*
D25*
X155000000Y-84192500D03*
X154600000Y-84192500D03*
X154200000Y-84192500D03*
X153800000Y-84192500D03*
X153400000Y-84192500D03*
X153000000Y-84192500D03*
X152600000Y-84192500D03*
X152200000Y-84192500D03*
X151800000Y-84192500D03*
X151400000Y-84192500D03*
X151000000Y-84192500D03*
X150600000Y-84192500D03*
X150200000Y-84192500D03*
X149800000Y-84192500D03*
D24*
X148962500Y-85030000D03*
X148962500Y-85430000D03*
X148962500Y-85830000D03*
X148962500Y-86230000D03*
X148962500Y-86630000D03*
X148962500Y-87030000D03*
X148962500Y-87430000D03*
X148962500Y-87830000D03*
X148962500Y-88230000D03*
X148962500Y-88630000D03*
X148962500Y-89030000D03*
X148962500Y-89430000D03*
X148962500Y-89830000D03*
X148962500Y-90230000D03*
D25*
X149800000Y-91067500D03*
X150200000Y-91067500D03*
X150600000Y-91067500D03*
X151000000Y-91067500D03*
X151400000Y-91067500D03*
X151800000Y-91067500D03*
X152200000Y-91067500D03*
X152600000Y-91067500D03*
X153000000Y-91067500D03*
X153400000Y-91067500D03*
X153800000Y-91067500D03*
X154200000Y-91067500D03*
X154600000Y-91067500D03*
X155000000Y-91067500D03*
D26*
X149225000Y-93752500D03*
X149225000Y-95477500D03*
D11*
X146277500Y-90170000D03*
X144552500Y-90170000D03*
D27*
X177165000Y-109240000D03*
X177165000Y-111740000D03*
D26*
X154305000Y-93752500D03*
X154305000Y-95477500D03*
D21*
X127270000Y-94615000D03*
X129270000Y-94615000D03*
D11*
X146277500Y-83820000D03*
X144552500Y-83820000D03*
D15*
X129540000Y-92477500D03*
X129540000Y-90402500D03*
D21*
X136160000Y-104140000D03*
X138160000Y-104140000D03*
D28*
X173857500Y-106360000D03*
X173857500Y-105410000D03*
X173857500Y-104460000D03*
X171582500Y-104460000D03*
X171582500Y-106360000D03*
D13*
X150495000Y-81507500D03*
X150495000Y-79782500D03*
D29*
X149200000Y-110280000D03*
X150000000Y-110280000D03*
D30*
X151150000Y-110280000D03*
X152150000Y-110280000D03*
X152650000Y-110280000D03*
X153650000Y-110280000D03*
D29*
X154800000Y-110280000D03*
X155600000Y-110280000D03*
X155600000Y-110280000D03*
X154800000Y-110280000D03*
D30*
X154150000Y-110280000D03*
X153150000Y-110280000D03*
X151650000Y-110280000D03*
X150650000Y-110280000D03*
D29*
X150000000Y-110280000D03*
X149200000Y-110280000D03*
D19*
X164830000Y-104140000D03*
X162830000Y-104140000D03*
D21*
X127270000Y-105410000D03*
X129270000Y-105410000D03*
D31*
X138162500Y-100330000D03*
X136112500Y-100330000D03*
D32*
X169142500Y-87630000D03*
X171217500Y-87630000D03*
D33*
X126730000Y-90900000D03*
X126730000Y-90100000D03*
X126730000Y-89300000D03*
X126730000Y-88500000D03*
X126730000Y-87700000D03*
X126730000Y-86900000D03*
D34*
X125730000Y-86900000D03*
D33*
X124730000Y-86900000D03*
X124730000Y-87700000D03*
X124730000Y-88500000D03*
X124730000Y-89300000D03*
X124730000Y-90100000D03*
X124730000Y-90900000D03*
D34*
X125730000Y-90900000D03*
D35*
X159550000Y-101110000D03*
X159550000Y-97010000D03*
X157950000Y-101110000D03*
X157950000Y-97010000D03*
D19*
X129270000Y-108585000D03*
X127270000Y-108585000D03*
D31*
X143242500Y-100330000D03*
X141192500Y-100330000D03*
D36*
X173657500Y-111440000D03*
X173657500Y-109540000D03*
X171782500Y-110490000D03*
D32*
X162157500Y-84455000D03*
X164232500Y-84455000D03*
D11*
X146277500Y-92710000D03*
X144552500Y-92710000D03*
D12*
X124460000Y-105680000D03*
X124460000Y-107680000D03*
X156210000Y-79645000D03*
X156210000Y-81645000D03*
D37*
X128270000Y-102000000D03*
X128270000Y-101200000D03*
D38*
X127320000Y-100850000D03*
X127320000Y-101350000D03*
X127320000Y-101850000D03*
X127320000Y-102350000D03*
X129220000Y-102350000D03*
X129220000Y-101850000D03*
X129220000Y-101350000D03*
X129220000Y-100850000D03*
D21*
X127270000Y-97790000D03*
X129270000Y-97790000D03*
D19*
X126730000Y-83820000D03*
X124730000Y-83820000D03*
D16*
X158522500Y-86614000D03*
X160247500Y-86614000D03*
D35*
X164630000Y-97010000D03*
X164630000Y-101110000D03*
X163030000Y-97010000D03*
X163030000Y-101110000D03*
D21*
X171720000Y-114300000D03*
X173720000Y-114300000D03*
D15*
X159385000Y-81682500D03*
X159385000Y-79607500D03*
D10*
X129540000Y-85322500D03*
X129540000Y-87397500D03*
D12*
X144780000Y-113300000D03*
X144780000Y-115300000D03*
D26*
X151765000Y-93752500D03*
X151765000Y-95477500D03*
M02*
