%TF.GenerationSoftware,KiCad,Pcbnew,(6.0.7)*%
%TF.CreationDate,2023-02-15T12:46:07-05:00*%
%TF.ProjectId,CDR_Board,4344525f-426f-4617-9264-2e6b69636164,rev?*%
%TF.SameCoordinates,Original*%
%TF.FileFunction,Legend,Top*%
%TF.FilePolarity,Positive*%
%FSLAX46Y46*%
G04 Gerber Fmt 4.6, Leading zero omitted, Abs format (unit mm)*
G04 Created by KiCad (PCBNEW (6.0.7)) date 2023-02-15 12:46:07*
%MOMM*%
%LPD*%
G01*
G04 APERTURE LIST*
G04 Aperture macros list*
%AMRoundRect*
0 Rectangle with rounded corners*
0 $1 Rounding radius*
0 $2 $3 $4 $5 $6 $7 $8 $9 X,Y pos of 4 corners*
0 Add a 4 corners polygon primitive as box body*
4,1,4,$2,$3,$4,$5,$6,$7,$8,$9,$2,$3,0*
0 Add four circle primitives for the rounded corners*
1,1,$1+$1,$2,$3*
1,1,$1+$1,$4,$5*
1,1,$1+$1,$6,$7*
1,1,$1+$1,$8,$9*
0 Add four rect primitives between the rounded corners*
20,1,$1+$1,$2,$3,$4,$5,0*
20,1,$1+$1,$4,$5,$6,$7,0*
20,1,$1+$1,$6,$7,$8,$9,0*
20,1,$1+$1,$8,$9,$2,$3,0*%
G04 Aperture macros list end*
%ADD10C,0.150000*%
%ADD11C,0.127000*%
%ADD12C,0.088900*%
%ADD13C,0.120000*%
%ADD14RoundRect,0.250000X-0.475000X0.337500X-0.475000X-0.337500X0.475000X-0.337500X0.475000X0.337500X0*%
%ADD15RoundRect,0.237500X0.300000X0.237500X-0.300000X0.237500X-0.300000X-0.237500X0.300000X-0.237500X0*%
%ADD16RoundRect,0.250000X-0.450000X0.350000X-0.450000X-0.350000X0.450000X-0.350000X0.450000X0.350000X0*%
%ADD17RoundRect,0.237500X0.237500X-0.300000X0.237500X0.300000X-0.237500X0.300000X-0.237500X-0.300000X0*%
%ADD18R,1.524000X1.524000*%
%ADD19C,1.524000*%
%ADD20RoundRect,0.250000X0.450000X-0.350000X0.450000X0.350000X-0.450000X0.350000X-0.450000X-0.350000X0*%
%ADD21RoundRect,0.250000X0.475000X-0.337500X0.475000X0.337500X-0.475000X0.337500X-0.475000X-0.337500X0*%
%ADD22RoundRect,0.237500X-0.300000X-0.237500X0.300000X-0.237500X0.300000X0.237500X-0.300000X0.237500X0*%
%ADD23RoundRect,0.250000X-0.250000X-1.500000X0.250000X-1.500000X0.250000X1.500000X-0.250000X1.500000X0*%
%ADD24RoundRect,0.250001X-0.499999X-1.449999X0.499999X-1.449999X0.499999X1.449999X-0.499999X1.449999X0*%
%ADD25R,1.700000X1.700000*%
%ADD26O,1.700000X1.700000*%
%ADD27RoundRect,0.250000X0.350000X0.450000X-0.350000X0.450000X-0.350000X-0.450000X0.350000X-0.450000X0*%
%ADD28R,1.200000X1.400000*%
%ADD29RoundRect,0.250000X-0.350000X-0.450000X0.350000X-0.450000X0.350000X0.450000X-0.350000X0.450000X0*%
%ADD30RoundRect,0.150000X-0.650000X-0.150000X0.650000X-0.150000X0.650000X0.150000X-0.650000X0.150000X0*%
%ADD31RoundRect,0.050000X0.387500X0.050000X-0.387500X0.050000X-0.387500X-0.050000X0.387500X-0.050000X0*%
%ADD32RoundRect,0.050000X0.050000X0.387500X-0.050000X0.387500X-0.050000X-0.387500X0.050000X-0.387500X0*%
%ADD33R,3.200000X3.200000*%
%ADD34RoundRect,0.237500X-0.237500X0.300000X-0.237500X-0.300000X0.237500X-0.300000X0.237500X0.300000X0*%
%ADD35R,1.000000X1.000000*%
%ADD36C,3.800000*%
%ADD37RoundRect,0.150000X0.512500X0.150000X-0.512500X0.150000X-0.512500X-0.150000X0.512500X-0.150000X0*%
%ADD38C,0.600000*%
%ADD39R,0.600000X1.660000*%
%ADD40R,0.300000X1.660000*%
%ADD41O,0.900000X2.000000*%
%ADD42O,0.900000X1.700000*%
%ADD43RoundRect,0.250000X0.325000X0.450000X-0.325000X0.450000X-0.325000X-0.450000X0.325000X-0.450000X0*%
%ADD44RoundRect,0.250000X-0.337500X-0.475000X0.337500X-0.475000X0.337500X0.475000X-0.337500X0.475000X0*%
%ADD45RoundRect,0.150000X0.325000X0.150000X-0.325000X0.150000X-0.325000X-0.150000X0.325000X-0.150000X0*%
%ADD46RoundRect,0.150000X0.150000X0.325000X-0.150000X0.325000X-0.150000X-0.325000X0.150000X-0.325000X0*%
%ADD47R,1.000000X0.900000*%
%ADD48RoundRect,0.150000X0.587500X0.150000X-0.587500X0.150000X-0.587500X-0.150000X0.587500X-0.150000X0*%
%ADD49R,0.500000X0.250000*%
%ADD50R,0.900000X1.600000*%
G04 APERTURE END LIST*
D10*
X140882857Y-99004380D02*
X140882857Y-98004380D01*
X141263809Y-98004380D01*
X141359047Y-98052000D01*
X141406666Y-98099619D01*
X141454285Y-98194857D01*
X141454285Y-98337714D01*
X141406666Y-98432952D01*
X141359047Y-98480571D01*
X141263809Y-98528190D01*
X140882857Y-98528190D01*
X142073333Y-98004380D02*
X142263809Y-98004380D01*
X142359047Y-98052000D01*
X142454285Y-98147238D01*
X142501904Y-98337714D01*
X142501904Y-98671047D01*
X142454285Y-98861523D01*
X142359047Y-98956761D01*
X142263809Y-99004380D01*
X142073333Y-99004380D01*
X141978095Y-98956761D01*
X141882857Y-98861523D01*
X141835238Y-98671047D01*
X141835238Y-98337714D01*
X141882857Y-98147238D01*
X141978095Y-98052000D01*
X142073333Y-98004380D01*
X142835238Y-98004380D02*
X143073333Y-99004380D01*
X143263809Y-98290095D01*
X143454285Y-99004380D01*
X143692380Y-98004380D01*
D11*
X158332714Y-99404714D02*
X158078714Y-99041857D01*
X157897285Y-99404714D02*
X157897285Y-98642714D01*
X158187571Y-98642714D01*
X158260142Y-98679000D01*
X158296428Y-98715285D01*
X158332714Y-98787857D01*
X158332714Y-98896714D01*
X158296428Y-98969285D01*
X158260142Y-99005571D01*
X158187571Y-99041857D01*
X157897285Y-99041857D01*
X158623000Y-99368428D02*
X158731857Y-99404714D01*
X158913285Y-99404714D01*
X158985857Y-99368428D01*
X159022142Y-99332142D01*
X159058428Y-99259571D01*
X159058428Y-99187000D01*
X159022142Y-99114428D01*
X158985857Y-99078142D01*
X158913285Y-99041857D01*
X158768142Y-99005571D01*
X158695571Y-98969285D01*
X158659285Y-98933000D01*
X158623000Y-98860428D01*
X158623000Y-98787857D01*
X158659285Y-98715285D01*
X158695571Y-98679000D01*
X158768142Y-98642714D01*
X158949571Y-98642714D01*
X159058428Y-98679000D01*
X159276142Y-98642714D02*
X159711571Y-98642714D01*
X159493857Y-99404714D02*
X159493857Y-98642714D01*
X162795857Y-99005571D02*
X162904714Y-99041857D01*
X162941000Y-99078142D01*
X162977285Y-99150714D01*
X162977285Y-99259571D01*
X162941000Y-99332142D01*
X162904714Y-99368428D01*
X162832142Y-99404714D01*
X162541857Y-99404714D01*
X162541857Y-98642714D01*
X162795857Y-98642714D01*
X162868428Y-98679000D01*
X162904714Y-98715285D01*
X162941000Y-98787857D01*
X162941000Y-98860428D01*
X162904714Y-98933000D01*
X162868428Y-98969285D01*
X162795857Y-99005571D01*
X162541857Y-99005571D01*
X163449000Y-98642714D02*
X163594142Y-98642714D01*
X163666714Y-98679000D01*
X163739285Y-98751571D01*
X163775571Y-98896714D01*
X163775571Y-99150714D01*
X163739285Y-99295857D01*
X163666714Y-99368428D01*
X163594142Y-99404714D01*
X163449000Y-99404714D01*
X163376428Y-99368428D01*
X163303857Y-99295857D01*
X163267571Y-99150714D01*
X163267571Y-98896714D01*
X163303857Y-98751571D01*
X163376428Y-98679000D01*
X163449000Y-98642714D01*
X164247285Y-98642714D02*
X164392428Y-98642714D01*
X164465000Y-98679000D01*
X164537571Y-98751571D01*
X164573857Y-98896714D01*
X164573857Y-99150714D01*
X164537571Y-99295857D01*
X164465000Y-99368428D01*
X164392428Y-99404714D01*
X164247285Y-99404714D01*
X164174714Y-99368428D01*
X164102142Y-99295857D01*
X164065857Y-99150714D01*
X164065857Y-98896714D01*
X164102142Y-98751571D01*
X164174714Y-98679000D01*
X164247285Y-98642714D01*
X164791571Y-98642714D02*
X165227000Y-98642714D01*
X165009285Y-99404714D02*
X165009285Y-98642714D01*
D10*
X174640952Y-89368380D02*
X174831428Y-89368380D01*
X174926666Y-89416000D01*
X175021904Y-89511238D01*
X175069523Y-89701714D01*
X175069523Y-90035047D01*
X175021904Y-90225523D01*
X174926666Y-90320761D01*
X174831428Y-90368380D01*
X174640952Y-90368380D01*
X174545714Y-90320761D01*
X174450476Y-90225523D01*
X174402857Y-90035047D01*
X174402857Y-89701714D01*
X174450476Y-89511238D01*
X174545714Y-89416000D01*
X174640952Y-89368380D01*
X175498095Y-90368380D02*
X175498095Y-89368380D01*
X176069523Y-90368380D01*
X176069523Y-89368380D01*
X177585714Y-89616071D02*
X178252380Y-89616071D01*
X177680952Y-89616071D02*
X177633333Y-89568452D01*
X177585714Y-89473214D01*
X177585714Y-89330357D01*
X177633333Y-89235119D01*
X177728571Y-89187500D01*
X178252380Y-89187500D01*
X178252380Y-88139880D02*
X177776190Y-88473214D01*
X178252380Y-88711309D02*
X177252380Y-88711309D01*
X177252380Y-88330357D01*
X177300000Y-88235119D01*
X177347619Y-88187500D01*
X177442857Y-88139880D01*
X177585714Y-88139880D01*
X177680952Y-88187500D01*
X177728571Y-88235119D01*
X177776190Y-88330357D01*
X177776190Y-88711309D01*
X177728571Y-87377976D02*
X177728571Y-87711309D01*
X178252380Y-87711309D02*
X177252380Y-87711309D01*
X177252380Y-87235119D01*
X177252380Y-86377976D02*
X177252380Y-86854166D01*
X177728571Y-86901785D01*
X177680952Y-86854166D01*
X177633333Y-86758928D01*
X177633333Y-86520833D01*
X177680952Y-86425595D01*
X177728571Y-86377976D01*
X177823809Y-86330357D01*
X178061904Y-86330357D01*
X178157142Y-86377976D01*
X178204761Y-86425595D01*
X178252380Y-86520833D01*
X178252380Y-86758928D01*
X178204761Y-86854166D01*
X178157142Y-86901785D01*
X177347619Y-85949404D02*
X177300000Y-85901785D01*
X177252380Y-85806547D01*
X177252380Y-85568452D01*
X177300000Y-85473214D01*
X177347619Y-85425595D01*
X177442857Y-85377976D01*
X177538095Y-85377976D01*
X177680952Y-85425595D01*
X178252380Y-85997023D01*
X178252380Y-85377976D01*
X124126761Y-92781380D02*
X124126761Y-91781380D01*
X124602952Y-92781380D02*
X124602952Y-91781380D01*
X124936285Y-92495666D01*
X125269619Y-91781380D01*
X125269619Y-92781380D01*
X125745809Y-91781380D02*
X125745809Y-92590904D01*
X125793428Y-92686142D01*
X125841047Y-92733761D01*
X125936285Y-92781380D01*
X126126761Y-92781380D01*
X126222000Y-92733761D01*
X126269619Y-92686142D01*
X126317238Y-92590904D01*
X126317238Y-91781380D01*
D11*
X131499428Y-80899000D02*
X131426857Y-80862714D01*
X131318000Y-80862714D01*
X131209142Y-80899000D01*
X131136571Y-80971571D01*
X131100285Y-81044142D01*
X131064000Y-81189285D01*
X131064000Y-81298142D01*
X131100285Y-81443285D01*
X131136571Y-81515857D01*
X131209142Y-81588428D01*
X131318000Y-81624714D01*
X131390571Y-81624714D01*
X131499428Y-81588428D01*
X131535714Y-81552142D01*
X131535714Y-81298142D01*
X131390571Y-81298142D01*
X131862285Y-81624714D02*
X131862285Y-80862714D01*
X132297714Y-81624714D01*
X132297714Y-80862714D01*
X132660571Y-81624714D02*
X132660571Y-80862714D01*
X132842000Y-80862714D01*
X132950857Y-80899000D01*
X133023428Y-80971571D01*
X133059714Y-81044142D01*
X133096000Y-81189285D01*
X133096000Y-81298142D01*
X133059714Y-81443285D01*
X133023428Y-81515857D01*
X132950857Y-81588428D01*
X132842000Y-81624714D01*
X132660571Y-81624714D01*
X136579428Y-80899000D02*
X136506857Y-80862714D01*
X136398000Y-80862714D01*
X136289142Y-80899000D01*
X136216571Y-80971571D01*
X136180285Y-81044142D01*
X136144000Y-81189285D01*
X136144000Y-81298142D01*
X136180285Y-81443285D01*
X136216571Y-81515857D01*
X136289142Y-81588428D01*
X136398000Y-81624714D01*
X136470571Y-81624714D01*
X136579428Y-81588428D01*
X136615714Y-81552142D01*
X136615714Y-81298142D01*
X136470571Y-81298142D01*
X136942285Y-81624714D02*
X136942285Y-80862714D01*
X137377714Y-81624714D01*
X137377714Y-80862714D01*
X137740571Y-81624714D02*
X137740571Y-80862714D01*
X137922000Y-80862714D01*
X138030857Y-80899000D01*
X138103428Y-80971571D01*
X138139714Y-81044142D01*
X138176000Y-81189285D01*
X138176000Y-81298142D01*
X138139714Y-81443285D01*
X138103428Y-81515857D01*
X138030857Y-81588428D01*
X137922000Y-81624714D01*
X137740571Y-81624714D01*
D10*
X133905714Y-81446666D02*
X134381904Y-81446666D01*
X133810476Y-81732380D02*
X134143809Y-80732380D01*
X134477142Y-81732380D01*
X134762857Y-80827619D02*
X134810476Y-80780000D01*
X134905714Y-80732380D01*
X135143809Y-80732380D01*
X135239047Y-80780000D01*
X135286666Y-80827619D01*
X135334285Y-80922857D01*
X135334285Y-81018095D01*
X135286666Y-81160952D01*
X134715238Y-81732380D01*
X135334285Y-81732380D01*
X135683809Y-98956761D02*
X135826666Y-99004380D01*
X136064761Y-99004380D01*
X136160000Y-98956761D01*
X136207619Y-98909142D01*
X136255238Y-98813904D01*
X136255238Y-98718666D01*
X136207619Y-98623428D01*
X136160000Y-98575809D01*
X136064761Y-98528190D01*
X135874285Y-98480571D01*
X135779047Y-98432952D01*
X135731428Y-98385333D01*
X135683809Y-98290095D01*
X135683809Y-98194857D01*
X135731428Y-98099619D01*
X135779047Y-98052000D01*
X135874285Y-98004380D01*
X136112380Y-98004380D01*
X136255238Y-98052000D01*
X136540952Y-98004380D02*
X137112380Y-98004380D01*
X136826666Y-99004380D02*
X136826666Y-98004380D01*
X137398095Y-98718666D02*
X137874285Y-98718666D01*
X137302857Y-99004380D02*
X137636190Y-98004380D01*
X137969523Y-99004380D01*
X138160000Y-98004380D02*
X138731428Y-98004380D01*
X138445714Y-99004380D02*
X138445714Y-98004380D01*
X166705595Y-83605714D02*
X166705595Y-84272380D01*
X166705595Y-83700952D02*
X166753214Y-83653333D01*
X166848452Y-83605714D01*
X166991309Y-83605714D01*
X167086547Y-83653333D01*
X167134166Y-83748571D01*
X167134166Y-84272380D01*
X168181785Y-84272380D02*
X167848452Y-83796190D01*
X167610357Y-84272380D02*
X167610357Y-83272380D01*
X167991309Y-83272380D01*
X168086547Y-83320000D01*
X168134166Y-83367619D01*
X168181785Y-83462857D01*
X168181785Y-83605714D01*
X168134166Y-83700952D01*
X168086547Y-83748571D01*
X167991309Y-83796190D01*
X167610357Y-83796190D01*
X168943690Y-83748571D02*
X168610357Y-83748571D01*
X168610357Y-84272380D02*
X168610357Y-83272380D01*
X169086547Y-83272380D01*
X169419880Y-83367619D02*
X169467500Y-83320000D01*
X169562738Y-83272380D01*
X169800833Y-83272380D01*
X169896071Y-83320000D01*
X169943690Y-83367619D01*
X169991309Y-83462857D01*
X169991309Y-83558095D01*
X169943690Y-83700952D01*
X169372261Y-84272380D01*
X169991309Y-84272380D01*
X170848452Y-83605714D02*
X170848452Y-84272380D01*
X170610357Y-83224761D02*
X170372261Y-83939047D01*
X170991309Y-83939047D01*
D12*
X149161832Y-83472261D02*
X148950165Y-83169880D01*
X148798975Y-83472261D02*
X148798975Y-82837261D01*
X149040880Y-82837261D01*
X149101356Y-82867500D01*
X149131594Y-82897738D01*
X149161832Y-82958214D01*
X149161832Y-83048928D01*
X149131594Y-83109404D01*
X149101356Y-83139642D01*
X149040880Y-83169880D01*
X148798975Y-83169880D01*
X149433975Y-83472261D02*
X149433975Y-82837261D01*
X149675880Y-82837261D01*
X149736356Y-82867500D01*
X149766594Y-82897738D01*
X149796832Y-82958214D01*
X149796832Y-83048928D01*
X149766594Y-83109404D01*
X149736356Y-83139642D01*
X149675880Y-83169880D01*
X149433975Y-83169880D01*
X150038737Y-82897738D02*
X150068975Y-82867500D01*
X150129451Y-82837261D01*
X150280642Y-82837261D01*
X150341118Y-82867500D01*
X150371356Y-82897738D01*
X150401594Y-82958214D01*
X150401594Y-83018690D01*
X150371356Y-83109404D01*
X150008499Y-83472261D01*
X150401594Y-83472261D01*
X150794689Y-82837261D02*
X150855165Y-82837261D01*
X150915642Y-82867500D01*
X150945880Y-82897738D01*
X150976118Y-82958214D01*
X151006356Y-83079166D01*
X151006356Y-83230357D01*
X150976118Y-83351309D01*
X150945880Y-83411785D01*
X150915642Y-83442023D01*
X150855165Y-83472261D01*
X150794689Y-83472261D01*
X150734213Y-83442023D01*
X150703975Y-83411785D01*
X150673737Y-83351309D01*
X150643499Y-83230357D01*
X150643499Y-83079166D01*
X150673737Y-82958214D01*
X150703975Y-82897738D01*
X150734213Y-82867500D01*
X150794689Y-82837261D01*
X151550642Y-83048928D02*
X151550642Y-83472261D01*
X151399451Y-82807023D02*
X151248261Y-83260595D01*
X151641356Y-83260595D01*
X152004213Y-82837261D02*
X152064689Y-82837261D01*
X152125165Y-82867500D01*
X152155404Y-82897738D01*
X152185642Y-82958214D01*
X152215880Y-83079166D01*
X152215880Y-83230357D01*
X152185642Y-83351309D01*
X152155404Y-83411785D01*
X152125165Y-83442023D01*
X152064689Y-83472261D01*
X152004213Y-83472261D01*
X151943737Y-83442023D01*
X151913499Y-83411785D01*
X151883261Y-83351309D01*
X151853023Y-83230357D01*
X151853023Y-83079166D01*
X151883261Y-82958214D01*
X151913499Y-82897738D01*
X151943737Y-82867500D01*
X152004213Y-82837261D01*
D10*
X128825714Y-81446666D02*
X129301904Y-81446666D01*
X128730476Y-81732380D02*
X129063809Y-80732380D01*
X129397142Y-81732380D01*
X129635238Y-80732380D02*
X130254285Y-80732380D01*
X129920952Y-81113333D01*
X130063809Y-81113333D01*
X130159047Y-81160952D01*
X130206666Y-81208571D01*
X130254285Y-81303809D01*
X130254285Y-81541904D01*
X130206666Y-81637142D01*
X130159047Y-81684761D01*
X130063809Y-81732380D01*
X129778095Y-81732380D01*
X129682857Y-81684761D01*
X129635238Y-81637142D01*
D11*
X126256142Y-102452714D02*
X126292428Y-102489000D01*
X126328714Y-102597857D01*
X126328714Y-102670428D01*
X126292428Y-102779285D01*
X126219857Y-102851857D01*
X126147285Y-102888142D01*
X126002142Y-102924428D01*
X125893285Y-102924428D01*
X125748142Y-102888142D01*
X125675571Y-102851857D01*
X125603000Y-102779285D01*
X125566714Y-102670428D01*
X125566714Y-102597857D01*
X125603000Y-102489000D01*
X125639285Y-102452714D01*
X125566714Y-102198714D02*
X125566714Y-101727000D01*
X125857000Y-101981000D01*
X125857000Y-101872142D01*
X125893285Y-101799571D01*
X125929571Y-101763285D01*
X126002142Y-101727000D01*
X126183571Y-101727000D01*
X126256142Y-101763285D01*
X126292428Y-101799571D01*
X126328714Y-101872142D01*
X126328714Y-102089857D01*
X126292428Y-102162428D01*
X126256142Y-102198714D01*
X125566714Y-101255285D02*
X125566714Y-101182714D01*
X125603000Y-101110142D01*
X125639285Y-101073857D01*
X125711857Y-101037571D01*
X125857000Y-101001285D01*
X126038428Y-101001285D01*
X126183571Y-101037571D01*
X126256142Y-101073857D01*
X126292428Y-101110142D01*
X126328714Y-101182714D01*
X126328714Y-101255285D01*
X126292428Y-101327857D01*
X126256142Y-101364142D01*
X126183571Y-101400428D01*
X126038428Y-101436714D01*
X125857000Y-101436714D01*
X125711857Y-101400428D01*
X125639285Y-101364142D01*
X125603000Y-101327857D01*
X125566714Y-101255285D01*
X126328714Y-100275571D02*
X126328714Y-100711000D01*
X126328714Y-100493285D02*
X125566714Y-100493285D01*
X125675571Y-100565857D01*
X125748142Y-100638428D01*
X125784428Y-100711000D01*
X144562285Y-87902142D02*
X144526000Y-87938428D01*
X144417142Y-87974714D01*
X144344571Y-87974714D01*
X144235714Y-87938428D01*
X144163142Y-87865857D01*
X144126857Y-87793285D01*
X144090571Y-87648142D01*
X144090571Y-87539285D01*
X144126857Y-87394142D01*
X144163142Y-87321571D01*
X144235714Y-87249000D01*
X144344571Y-87212714D01*
X144417142Y-87212714D01*
X144526000Y-87249000D01*
X144562285Y-87285285D01*
X145215428Y-87466714D02*
X145215428Y-87974714D01*
X145034000Y-87176428D02*
X144852571Y-87720714D01*
X145324285Y-87720714D01*
X145759714Y-87212714D02*
X145832285Y-87212714D01*
X145904857Y-87249000D01*
X145941142Y-87285285D01*
X145977428Y-87357857D01*
X146013714Y-87503000D01*
X146013714Y-87684428D01*
X145977428Y-87829571D01*
X145941142Y-87902142D01*
X145904857Y-87938428D01*
X145832285Y-87974714D01*
X145759714Y-87974714D01*
X145687142Y-87938428D01*
X145650857Y-87902142D01*
X145614571Y-87829571D01*
X145578285Y-87684428D01*
X145578285Y-87503000D01*
X145614571Y-87357857D01*
X145650857Y-87285285D01*
X145687142Y-87249000D01*
X145759714Y-87212714D01*
X146449142Y-87539285D02*
X146376571Y-87503000D01*
X146340285Y-87466714D01*
X146304000Y-87394142D01*
X146304000Y-87357857D01*
X146340285Y-87285285D01*
X146376571Y-87249000D01*
X146449142Y-87212714D01*
X146594285Y-87212714D01*
X146666857Y-87249000D01*
X146703142Y-87285285D01*
X146739428Y-87357857D01*
X146739428Y-87394142D01*
X146703142Y-87466714D01*
X146666857Y-87503000D01*
X146594285Y-87539285D01*
X146449142Y-87539285D01*
X146376571Y-87575571D01*
X146340285Y-87611857D01*
X146304000Y-87684428D01*
X146304000Y-87829571D01*
X146340285Y-87902142D01*
X146376571Y-87938428D01*
X146449142Y-87974714D01*
X146594285Y-87974714D01*
X146666857Y-87938428D01*
X146703142Y-87902142D01*
X146739428Y-87829571D01*
X146739428Y-87684428D01*
X146703142Y-87611857D01*
X146666857Y-87575571D01*
X146594285Y-87539285D01*
D10*
X158821380Y-115419047D02*
X158345190Y-115752380D01*
X158821380Y-115990476D02*
X157821380Y-115990476D01*
X157821380Y-115609523D01*
X157869000Y-115514285D01*
X157916619Y-115466666D01*
X158011857Y-115419047D01*
X158154714Y-115419047D01*
X158249952Y-115466666D01*
X158297571Y-115514285D01*
X158345190Y-115609523D01*
X158345190Y-115990476D01*
X157821380Y-114561904D02*
X157821380Y-114752380D01*
X157869000Y-114847619D01*
X157916619Y-114895238D01*
X158059476Y-114990476D01*
X158249952Y-115038095D01*
X158630904Y-115038095D01*
X158726142Y-114990476D01*
X158773761Y-114942857D01*
X158821380Y-114847619D01*
X158821380Y-114657142D01*
X158773761Y-114561904D01*
X158726142Y-114514285D01*
X158630904Y-114466666D01*
X158392809Y-114466666D01*
X158297571Y-114514285D01*
X158249952Y-114561904D01*
X158202333Y-114657142D01*
X158202333Y-114847619D01*
X158249952Y-114942857D01*
X158297571Y-114990476D01*
X158392809Y-115038095D01*
X157821380Y-113847619D02*
X157821380Y-113752380D01*
X157869000Y-113657142D01*
X157916619Y-113609523D01*
X158011857Y-113561904D01*
X158202333Y-113514285D01*
X158440428Y-113514285D01*
X158630904Y-113561904D01*
X158726142Y-113609523D01*
X158773761Y-113657142D01*
X158821380Y-113752380D01*
X158821380Y-113847619D01*
X158773761Y-113942857D01*
X158726142Y-113990476D01*
X158630904Y-114038095D01*
X158440428Y-114085714D01*
X158202333Y-114085714D01*
X158011857Y-114038095D01*
X157916619Y-113990476D01*
X157869000Y-113942857D01*
X157821380Y-113847619D01*
X157916619Y-113133333D02*
X157869000Y-113085714D01*
X157821380Y-112990476D01*
X157821380Y-112752380D01*
X157869000Y-112657142D01*
X157916619Y-112609523D01*
X158011857Y-112561904D01*
X158107095Y-112561904D01*
X158249952Y-112609523D01*
X158821380Y-113180952D01*
X158821380Y-112561904D01*
D11*
X152037142Y-81497714D02*
X152073428Y-81534000D01*
X152109714Y-81642857D01*
X152109714Y-81715428D01*
X152073428Y-81824285D01*
X152000857Y-81896857D01*
X151928285Y-81933142D01*
X151783142Y-81969428D01*
X151674285Y-81969428D01*
X151529142Y-81933142D01*
X151456571Y-81896857D01*
X151384000Y-81824285D01*
X151347714Y-81715428D01*
X151347714Y-81642857D01*
X151384000Y-81534000D01*
X151420285Y-81497714D01*
X151601714Y-80844571D02*
X152109714Y-80844571D01*
X151311428Y-81026000D02*
X151855714Y-81207428D01*
X151855714Y-80735714D01*
X151347714Y-80300285D02*
X151347714Y-80227714D01*
X151384000Y-80155142D01*
X151420285Y-80118857D01*
X151492857Y-80082571D01*
X151638000Y-80046285D01*
X151819428Y-80046285D01*
X151964571Y-80082571D01*
X152037142Y-80118857D01*
X152073428Y-80155142D01*
X152109714Y-80227714D01*
X152109714Y-80300285D01*
X152073428Y-80372857D01*
X152037142Y-80409142D01*
X151964571Y-80445428D01*
X151819428Y-80481714D01*
X151638000Y-80481714D01*
X151492857Y-80445428D01*
X151420285Y-80409142D01*
X151384000Y-80372857D01*
X151347714Y-80300285D01*
X151347714Y-79393142D02*
X151347714Y-79538285D01*
X151384000Y-79610857D01*
X151420285Y-79647142D01*
X151529142Y-79719714D01*
X151674285Y-79756000D01*
X151964571Y-79756000D01*
X152037142Y-79719714D01*
X152073428Y-79683428D01*
X152109714Y-79610857D01*
X152109714Y-79465714D01*
X152073428Y-79393142D01*
X152037142Y-79356857D01*
X151964571Y-79320571D01*
X151783142Y-79320571D01*
X151710571Y-79356857D01*
X151674285Y-79393142D01*
X151638000Y-79465714D01*
X151638000Y-79610857D01*
X151674285Y-79683428D01*
X151710571Y-79719714D01*
X151783142Y-79756000D01*
X148680714Y-101182714D02*
X148317857Y-101436714D01*
X148680714Y-101618142D02*
X147918714Y-101618142D01*
X147918714Y-101327857D01*
X147955000Y-101255285D01*
X147991285Y-101219000D01*
X148063857Y-101182714D01*
X148172714Y-101182714D01*
X148245285Y-101219000D01*
X148281571Y-101255285D01*
X148317857Y-101327857D01*
X148317857Y-101618142D01*
X148172714Y-100529571D02*
X148680714Y-100529571D01*
X147882428Y-100711000D02*
X148426714Y-100892428D01*
X148426714Y-100420714D01*
X147918714Y-99985285D02*
X147918714Y-99912714D01*
X147955000Y-99840142D01*
X147991285Y-99803857D01*
X148063857Y-99767571D01*
X148209000Y-99731285D01*
X148390428Y-99731285D01*
X148535571Y-99767571D01*
X148608142Y-99803857D01*
X148644428Y-99840142D01*
X148680714Y-99912714D01*
X148680714Y-99985285D01*
X148644428Y-100057857D01*
X148608142Y-100094142D01*
X148535571Y-100130428D01*
X148390428Y-100166714D01*
X148209000Y-100166714D01*
X148063857Y-100130428D01*
X147991285Y-100094142D01*
X147955000Y-100057857D01*
X147918714Y-99985285D01*
X147991285Y-99441000D02*
X147955000Y-99404714D01*
X147918714Y-99332142D01*
X147918714Y-99150714D01*
X147955000Y-99078142D01*
X147991285Y-99041857D01*
X148063857Y-99005571D01*
X148136428Y-99005571D01*
X148245285Y-99041857D01*
X148680714Y-99477285D01*
X148680714Y-99005571D01*
X131662714Y-92292714D02*
X131299857Y-92546714D01*
X131662714Y-92728142D02*
X130900714Y-92728142D01*
X130900714Y-92437857D01*
X130937000Y-92365285D01*
X130973285Y-92329000D01*
X131045857Y-92292714D01*
X131154714Y-92292714D01*
X131227285Y-92329000D01*
X131263571Y-92365285D01*
X131299857Y-92437857D01*
X131299857Y-92728142D01*
X131154714Y-91639571D02*
X131662714Y-91639571D01*
X130864428Y-91821000D02*
X131408714Y-92002428D01*
X131408714Y-91530714D01*
X130900714Y-91095285D02*
X130900714Y-91022714D01*
X130937000Y-90950142D01*
X130973285Y-90913857D01*
X131045857Y-90877571D01*
X131191000Y-90841285D01*
X131372428Y-90841285D01*
X131517571Y-90877571D01*
X131590142Y-90913857D01*
X131626428Y-90950142D01*
X131662714Y-91022714D01*
X131662714Y-91095285D01*
X131626428Y-91167857D01*
X131590142Y-91204142D01*
X131517571Y-91240428D01*
X131372428Y-91276714D01*
X131191000Y-91276714D01*
X131045857Y-91240428D01*
X130973285Y-91204142D01*
X130937000Y-91167857D01*
X130900714Y-91095285D01*
X131154714Y-90188142D02*
X131662714Y-90188142D01*
X130864428Y-90369571D02*
X131408714Y-90551000D01*
X131408714Y-90079285D01*
X175913142Y-106262714D02*
X175949428Y-106299000D01*
X175985714Y-106407857D01*
X175985714Y-106480428D01*
X175949428Y-106589285D01*
X175876857Y-106661857D01*
X175804285Y-106698142D01*
X175659142Y-106734428D01*
X175550285Y-106734428D01*
X175405142Y-106698142D01*
X175332571Y-106661857D01*
X175260000Y-106589285D01*
X175223714Y-106480428D01*
X175223714Y-106407857D01*
X175260000Y-106299000D01*
X175296285Y-106262714D01*
X175296285Y-105972428D02*
X175260000Y-105936142D01*
X175223714Y-105863571D01*
X175223714Y-105682142D01*
X175260000Y-105609571D01*
X175296285Y-105573285D01*
X175368857Y-105537000D01*
X175441428Y-105537000D01*
X175550285Y-105573285D01*
X175985714Y-106008714D01*
X175985714Y-105537000D01*
X175223714Y-105065285D02*
X175223714Y-104992714D01*
X175260000Y-104920142D01*
X175296285Y-104883857D01*
X175368857Y-104847571D01*
X175514000Y-104811285D01*
X175695428Y-104811285D01*
X175840571Y-104847571D01*
X175913142Y-104883857D01*
X175949428Y-104920142D01*
X175985714Y-104992714D01*
X175985714Y-105065285D01*
X175949428Y-105137857D01*
X175913142Y-105174142D01*
X175840571Y-105210428D01*
X175695428Y-105246714D01*
X175514000Y-105246714D01*
X175368857Y-105210428D01*
X175296285Y-105174142D01*
X175260000Y-105137857D01*
X175223714Y-105065285D01*
X175985714Y-104085571D02*
X175985714Y-104521000D01*
X175985714Y-104303285D02*
X175223714Y-104303285D01*
X175332571Y-104375857D01*
X175405142Y-104448428D01*
X175441428Y-104521000D01*
X158532285Y-91712142D02*
X158496000Y-91748428D01*
X158387142Y-91784714D01*
X158314571Y-91784714D01*
X158205714Y-91748428D01*
X158133142Y-91675857D01*
X158096857Y-91603285D01*
X158060571Y-91458142D01*
X158060571Y-91349285D01*
X158096857Y-91204142D01*
X158133142Y-91131571D01*
X158205714Y-91059000D01*
X158314571Y-91022714D01*
X158387142Y-91022714D01*
X158496000Y-91059000D01*
X158532285Y-91095285D01*
X159185428Y-91276714D02*
X159185428Y-91784714D01*
X159004000Y-90986428D02*
X158822571Y-91530714D01*
X159294285Y-91530714D01*
X159983714Y-91784714D02*
X159548285Y-91784714D01*
X159766000Y-91784714D02*
X159766000Y-91022714D01*
X159693428Y-91131571D01*
X159620857Y-91204142D01*
X159548285Y-91240428D01*
X160455428Y-91022714D02*
X160528000Y-91022714D01*
X160600571Y-91059000D01*
X160636857Y-91095285D01*
X160673142Y-91167857D01*
X160709428Y-91313000D01*
X160709428Y-91494428D01*
X160673142Y-91639571D01*
X160636857Y-91712142D01*
X160600571Y-91748428D01*
X160528000Y-91784714D01*
X160455428Y-91784714D01*
X160382857Y-91748428D01*
X160346571Y-91712142D01*
X160310285Y-91639571D01*
X160274000Y-91494428D01*
X160274000Y-91313000D01*
X160310285Y-91167857D01*
X160346571Y-91095285D01*
X160382857Y-91059000D01*
X160455428Y-91022714D01*
D10*
X136826666Y-111212380D02*
X136826666Y-111926666D01*
X136779047Y-112069523D01*
X136683809Y-112164761D01*
X136540952Y-112212380D01*
X136445714Y-112212380D01*
X137207619Y-111212380D02*
X137826666Y-111212380D01*
X137493333Y-111593333D01*
X137636190Y-111593333D01*
X137731428Y-111640952D01*
X137779047Y-111688571D01*
X137826666Y-111783809D01*
X137826666Y-112021904D01*
X137779047Y-112117142D01*
X137731428Y-112164761D01*
X137636190Y-112212380D01*
X137350476Y-112212380D01*
X137255238Y-112164761D01*
X137207619Y-112117142D01*
D11*
X170143714Y-111342714D02*
X169780857Y-111596714D01*
X170143714Y-111778142D02*
X169381714Y-111778142D01*
X169381714Y-111487857D01*
X169418000Y-111415285D01*
X169454285Y-111379000D01*
X169526857Y-111342714D01*
X169635714Y-111342714D01*
X169708285Y-111379000D01*
X169744571Y-111415285D01*
X169780857Y-111487857D01*
X169780857Y-111778142D01*
X169454285Y-111052428D02*
X169418000Y-111016142D01*
X169381714Y-110943571D01*
X169381714Y-110762142D01*
X169418000Y-110689571D01*
X169454285Y-110653285D01*
X169526857Y-110617000D01*
X169599428Y-110617000D01*
X169708285Y-110653285D01*
X170143714Y-111088714D01*
X170143714Y-110617000D01*
X169381714Y-110145285D02*
X169381714Y-110072714D01*
X169418000Y-110000142D01*
X169454285Y-109963857D01*
X169526857Y-109927571D01*
X169672000Y-109891285D01*
X169853428Y-109891285D01*
X169998571Y-109927571D01*
X170071142Y-109963857D01*
X170107428Y-110000142D01*
X170143714Y-110072714D01*
X170143714Y-110145285D01*
X170107428Y-110217857D01*
X170071142Y-110254142D01*
X169998571Y-110290428D01*
X169853428Y-110326714D01*
X169672000Y-110326714D01*
X169526857Y-110290428D01*
X169454285Y-110254142D01*
X169418000Y-110217857D01*
X169381714Y-110145285D01*
X170143714Y-109165571D02*
X170143714Y-109601000D01*
X170143714Y-109383285D02*
X169381714Y-109383285D01*
X169490571Y-109455857D01*
X169563142Y-109528428D01*
X169599428Y-109601000D01*
X154394714Y-101182714D02*
X154031857Y-101436714D01*
X154394714Y-101618142D02*
X153632714Y-101618142D01*
X153632714Y-101327857D01*
X153669000Y-101255285D01*
X153705285Y-101219000D01*
X153777857Y-101182714D01*
X153886714Y-101182714D01*
X153959285Y-101219000D01*
X153995571Y-101255285D01*
X154031857Y-101327857D01*
X154031857Y-101618142D01*
X153886714Y-100529571D02*
X154394714Y-100529571D01*
X153596428Y-100711000D02*
X154140714Y-100892428D01*
X154140714Y-100420714D01*
X153632714Y-99985285D02*
X153632714Y-99912714D01*
X153669000Y-99840142D01*
X153705285Y-99803857D01*
X153777857Y-99767571D01*
X153923000Y-99731285D01*
X154104428Y-99731285D01*
X154249571Y-99767571D01*
X154322142Y-99803857D01*
X154358428Y-99840142D01*
X154394714Y-99912714D01*
X154394714Y-99985285D01*
X154358428Y-100057857D01*
X154322142Y-100094142D01*
X154249571Y-100130428D01*
X154104428Y-100166714D01*
X153923000Y-100166714D01*
X153777857Y-100130428D01*
X153705285Y-100094142D01*
X153669000Y-100057857D01*
X153632714Y-99985285D01*
X154394714Y-99005571D02*
X154394714Y-99441000D01*
X154394714Y-99223285D02*
X153632714Y-99223285D01*
X153741571Y-99295857D01*
X153814142Y-99368428D01*
X153850428Y-99441000D01*
X131662714Y-87212714D02*
X131299857Y-87466714D01*
X131662714Y-87648142D02*
X130900714Y-87648142D01*
X130900714Y-87357857D01*
X130937000Y-87285285D01*
X130973285Y-87249000D01*
X131045857Y-87212714D01*
X131154714Y-87212714D01*
X131227285Y-87249000D01*
X131263571Y-87285285D01*
X131299857Y-87357857D01*
X131299857Y-87648142D01*
X131154714Y-86559571D02*
X131662714Y-86559571D01*
X130864428Y-86741000D02*
X131408714Y-86922428D01*
X131408714Y-86450714D01*
X130900714Y-86015285D02*
X130900714Y-85942714D01*
X130937000Y-85870142D01*
X130973285Y-85833857D01*
X131045857Y-85797571D01*
X131191000Y-85761285D01*
X131372428Y-85761285D01*
X131517571Y-85797571D01*
X131590142Y-85833857D01*
X131626428Y-85870142D01*
X131662714Y-85942714D01*
X131662714Y-86015285D01*
X131626428Y-86087857D01*
X131590142Y-86124142D01*
X131517571Y-86160428D01*
X131372428Y-86196714D01*
X131191000Y-86196714D01*
X131045857Y-86160428D01*
X130973285Y-86124142D01*
X130937000Y-86087857D01*
X130900714Y-86015285D01*
X130900714Y-85507285D02*
X130900714Y-85035571D01*
X131191000Y-85289571D01*
X131191000Y-85180714D01*
X131227285Y-85108142D01*
X131263571Y-85071857D01*
X131336142Y-85035571D01*
X131517571Y-85035571D01*
X131590142Y-85071857D01*
X131626428Y-85108142D01*
X131662714Y-85180714D01*
X131662714Y-85398428D01*
X131626428Y-85471000D01*
X131590142Y-85507285D01*
X166714714Y-98896714D02*
X166351857Y-99150714D01*
X166714714Y-99332142D02*
X165952714Y-99332142D01*
X165952714Y-99041857D01*
X165989000Y-98969285D01*
X166025285Y-98933000D01*
X166097857Y-98896714D01*
X166206714Y-98896714D01*
X166279285Y-98933000D01*
X166315571Y-98969285D01*
X166351857Y-99041857D01*
X166351857Y-99332142D01*
X165952714Y-98207285D02*
X165952714Y-98570142D01*
X166315571Y-98606428D01*
X166279285Y-98570142D01*
X166243000Y-98497571D01*
X166243000Y-98316142D01*
X166279285Y-98243571D01*
X166315571Y-98207285D01*
X166388142Y-98171000D01*
X166569571Y-98171000D01*
X166642142Y-98207285D01*
X166678428Y-98243571D01*
X166714714Y-98316142D01*
X166714714Y-98497571D01*
X166678428Y-98570142D01*
X166642142Y-98606428D01*
X165952714Y-97699285D02*
X165952714Y-97626714D01*
X165989000Y-97554142D01*
X166025285Y-97517857D01*
X166097857Y-97481571D01*
X166243000Y-97445285D01*
X166424428Y-97445285D01*
X166569571Y-97481571D01*
X166642142Y-97517857D01*
X166678428Y-97554142D01*
X166714714Y-97626714D01*
X166714714Y-97699285D01*
X166678428Y-97771857D01*
X166642142Y-97808142D01*
X166569571Y-97844428D01*
X166424428Y-97880714D01*
X166243000Y-97880714D01*
X166097857Y-97844428D01*
X166025285Y-97808142D01*
X165989000Y-97771857D01*
X165952714Y-97699285D01*
X166206714Y-96792142D02*
X166714714Y-96792142D01*
X165916428Y-96973571D02*
X166460714Y-97155000D01*
X166460714Y-96683285D01*
X157897285Y-106134714D02*
X157643285Y-105771857D01*
X157461857Y-106134714D02*
X157461857Y-105372714D01*
X157752142Y-105372714D01*
X157824714Y-105409000D01*
X157861000Y-105445285D01*
X157897285Y-105517857D01*
X157897285Y-105626714D01*
X157861000Y-105699285D01*
X157824714Y-105735571D01*
X157752142Y-105771857D01*
X157461857Y-105771857D01*
X158586714Y-105372714D02*
X158223857Y-105372714D01*
X158187571Y-105735571D01*
X158223857Y-105699285D01*
X158296428Y-105663000D01*
X158477857Y-105663000D01*
X158550428Y-105699285D01*
X158586714Y-105735571D01*
X158623000Y-105808142D01*
X158623000Y-105989571D01*
X158586714Y-106062142D01*
X158550428Y-106098428D01*
X158477857Y-106134714D01*
X158296428Y-106134714D01*
X158223857Y-106098428D01*
X158187571Y-106062142D01*
X159094714Y-105372714D02*
X159167285Y-105372714D01*
X159239857Y-105409000D01*
X159276142Y-105445285D01*
X159312428Y-105517857D01*
X159348714Y-105663000D01*
X159348714Y-105844428D01*
X159312428Y-105989571D01*
X159276142Y-106062142D01*
X159239857Y-106098428D01*
X159167285Y-106134714D01*
X159094714Y-106134714D01*
X159022142Y-106098428D01*
X158985857Y-106062142D01*
X158949571Y-105989571D01*
X158913285Y-105844428D01*
X158913285Y-105663000D01*
X158949571Y-105517857D01*
X158985857Y-105445285D01*
X159022142Y-105409000D01*
X159094714Y-105372714D01*
X159602714Y-105372714D02*
X160074428Y-105372714D01*
X159820428Y-105663000D01*
X159929285Y-105663000D01*
X160001857Y-105699285D01*
X160038142Y-105735571D01*
X160074428Y-105808142D01*
X160074428Y-105989571D01*
X160038142Y-106062142D01*
X160001857Y-106098428D01*
X159929285Y-106134714D01*
X159711571Y-106134714D01*
X159639000Y-106098428D01*
X159602714Y-106062142D01*
X170071142Y-106262714D02*
X170107428Y-106299000D01*
X170143714Y-106407857D01*
X170143714Y-106480428D01*
X170107428Y-106589285D01*
X170034857Y-106661857D01*
X169962285Y-106698142D01*
X169817142Y-106734428D01*
X169708285Y-106734428D01*
X169563142Y-106698142D01*
X169490571Y-106661857D01*
X169418000Y-106589285D01*
X169381714Y-106480428D01*
X169381714Y-106407857D01*
X169418000Y-106299000D01*
X169454285Y-106262714D01*
X169454285Y-105972428D02*
X169418000Y-105936142D01*
X169381714Y-105863571D01*
X169381714Y-105682142D01*
X169418000Y-105609571D01*
X169454285Y-105573285D01*
X169526857Y-105537000D01*
X169599428Y-105537000D01*
X169708285Y-105573285D01*
X170143714Y-106008714D01*
X170143714Y-105537000D01*
X169381714Y-105065285D02*
X169381714Y-104992714D01*
X169418000Y-104920142D01*
X169454285Y-104883857D01*
X169526857Y-104847571D01*
X169672000Y-104811285D01*
X169853428Y-104811285D01*
X169998571Y-104847571D01*
X170071142Y-104883857D01*
X170107428Y-104920142D01*
X170143714Y-104992714D01*
X170143714Y-105065285D01*
X170107428Y-105137857D01*
X170071142Y-105174142D01*
X169998571Y-105210428D01*
X169853428Y-105246714D01*
X169672000Y-105246714D01*
X169526857Y-105210428D01*
X169454285Y-105174142D01*
X169418000Y-105137857D01*
X169381714Y-105065285D01*
X169454285Y-104521000D02*
X169418000Y-104484714D01*
X169381714Y-104412142D01*
X169381714Y-104230714D01*
X169418000Y-104158142D01*
X169454285Y-104121857D01*
X169526857Y-104085571D01*
X169599428Y-104085571D01*
X169708285Y-104121857D01*
X170143714Y-104557285D01*
X170143714Y-104085571D01*
D10*
X160178809Y-83161190D02*
X160178809Y-83637380D01*
X159845476Y-82637380D02*
X160178809Y-83161190D01*
X160512142Y-82637380D01*
X161369285Y-83637380D02*
X160797857Y-83637380D01*
X161083571Y-83637380D02*
X161083571Y-82637380D01*
X160988333Y-82780238D01*
X160893095Y-82875476D01*
X160797857Y-82923095D01*
D11*
X141387285Y-102960714D02*
X141133285Y-102597857D01*
X140951857Y-102960714D02*
X140951857Y-102198714D01*
X141242142Y-102198714D01*
X141314714Y-102235000D01*
X141351000Y-102271285D01*
X141387285Y-102343857D01*
X141387285Y-102452714D01*
X141351000Y-102525285D01*
X141314714Y-102561571D01*
X141242142Y-102597857D01*
X140951857Y-102597857D01*
X141677571Y-102271285D02*
X141713857Y-102235000D01*
X141786428Y-102198714D01*
X141967857Y-102198714D01*
X142040428Y-102235000D01*
X142076714Y-102271285D01*
X142113000Y-102343857D01*
X142113000Y-102416428D01*
X142076714Y-102525285D01*
X141641285Y-102960714D01*
X142113000Y-102960714D01*
X142584714Y-102198714D02*
X142657285Y-102198714D01*
X142729857Y-102235000D01*
X142766142Y-102271285D01*
X142802428Y-102343857D01*
X142838714Y-102489000D01*
X142838714Y-102670428D01*
X142802428Y-102815571D01*
X142766142Y-102888142D01*
X142729857Y-102924428D01*
X142657285Y-102960714D01*
X142584714Y-102960714D01*
X142512142Y-102924428D01*
X142475857Y-102888142D01*
X142439571Y-102815571D01*
X142403285Y-102670428D01*
X142403285Y-102489000D01*
X142439571Y-102343857D01*
X142475857Y-102271285D01*
X142512142Y-102235000D01*
X142584714Y-102198714D01*
X143129000Y-102271285D02*
X143165285Y-102235000D01*
X143237857Y-102198714D01*
X143419285Y-102198714D01*
X143491857Y-102235000D01*
X143528142Y-102271285D01*
X143564428Y-102343857D01*
X143564428Y-102416428D01*
X143528142Y-102525285D01*
X143092714Y-102960714D01*
X143564428Y-102960714D01*
X130955142Y-102452714D02*
X130991428Y-102489000D01*
X131027714Y-102597857D01*
X131027714Y-102670428D01*
X130991428Y-102779285D01*
X130918857Y-102851857D01*
X130846285Y-102888142D01*
X130701142Y-102924428D01*
X130592285Y-102924428D01*
X130447142Y-102888142D01*
X130374571Y-102851857D01*
X130302000Y-102779285D01*
X130265714Y-102670428D01*
X130265714Y-102597857D01*
X130302000Y-102489000D01*
X130338285Y-102452714D01*
X130265714Y-102198714D02*
X130265714Y-101727000D01*
X130556000Y-101981000D01*
X130556000Y-101872142D01*
X130592285Y-101799571D01*
X130628571Y-101763285D01*
X130701142Y-101727000D01*
X130882571Y-101727000D01*
X130955142Y-101763285D01*
X130991428Y-101799571D01*
X131027714Y-101872142D01*
X131027714Y-102089857D01*
X130991428Y-102162428D01*
X130955142Y-102198714D01*
X130265714Y-101255285D02*
X130265714Y-101182714D01*
X130302000Y-101110142D01*
X130338285Y-101073857D01*
X130410857Y-101037571D01*
X130556000Y-101001285D01*
X130737428Y-101001285D01*
X130882571Y-101037571D01*
X130955142Y-101073857D01*
X130991428Y-101110142D01*
X131027714Y-101182714D01*
X131027714Y-101255285D01*
X130991428Y-101327857D01*
X130955142Y-101364142D01*
X130882571Y-101400428D01*
X130737428Y-101436714D01*
X130556000Y-101436714D01*
X130410857Y-101400428D01*
X130338285Y-101364142D01*
X130302000Y-101327857D01*
X130265714Y-101255285D01*
X130338285Y-100711000D02*
X130302000Y-100674714D01*
X130265714Y-100602142D01*
X130265714Y-100420714D01*
X130302000Y-100348142D01*
X130338285Y-100311857D01*
X130410857Y-100275571D01*
X130483428Y-100275571D01*
X130592285Y-100311857D01*
X131027714Y-100747285D01*
X131027714Y-100275571D01*
D10*
X166878095Y-92162380D02*
X166878095Y-92971904D01*
X166925714Y-93067142D01*
X166973333Y-93114761D01*
X167068571Y-93162380D01*
X167259047Y-93162380D01*
X167354285Y-93114761D01*
X167401904Y-93067142D01*
X167449523Y-92971904D01*
X167449523Y-92162380D01*
X168449523Y-93162380D02*
X167878095Y-93162380D01*
X168163809Y-93162380D02*
X168163809Y-92162380D01*
X168068571Y-92305238D01*
X167973333Y-92400476D01*
X167878095Y-92448095D01*
D11*
X150767142Y-95467714D02*
X150803428Y-95504000D01*
X150839714Y-95612857D01*
X150839714Y-95685428D01*
X150803428Y-95794285D01*
X150730857Y-95866857D01*
X150658285Y-95903142D01*
X150513142Y-95939428D01*
X150404285Y-95939428D01*
X150259142Y-95903142D01*
X150186571Y-95866857D01*
X150114000Y-95794285D01*
X150077714Y-95685428D01*
X150077714Y-95612857D01*
X150114000Y-95504000D01*
X150150285Y-95467714D01*
X150331714Y-94814571D02*
X150839714Y-94814571D01*
X150041428Y-94996000D02*
X150585714Y-95177428D01*
X150585714Y-94705714D01*
X150077714Y-94270285D02*
X150077714Y-94197714D01*
X150114000Y-94125142D01*
X150150285Y-94088857D01*
X150222857Y-94052571D01*
X150368000Y-94016285D01*
X150549428Y-94016285D01*
X150694571Y-94052571D01*
X150767142Y-94088857D01*
X150803428Y-94125142D01*
X150839714Y-94197714D01*
X150839714Y-94270285D01*
X150803428Y-94342857D01*
X150767142Y-94379142D01*
X150694571Y-94415428D01*
X150549428Y-94451714D01*
X150368000Y-94451714D01*
X150222857Y-94415428D01*
X150150285Y-94379142D01*
X150114000Y-94342857D01*
X150077714Y-94270285D01*
X150077714Y-93762285D02*
X150077714Y-93290571D01*
X150368000Y-93544571D01*
X150368000Y-93435714D01*
X150404285Y-93363142D01*
X150440571Y-93326857D01*
X150513142Y-93290571D01*
X150694571Y-93290571D01*
X150767142Y-93326857D01*
X150803428Y-93363142D01*
X150839714Y-93435714D01*
X150839714Y-93653428D01*
X150803428Y-93726000D01*
X150767142Y-93762285D01*
X144562285Y-91712142D02*
X144526000Y-91748428D01*
X144417142Y-91784714D01*
X144344571Y-91784714D01*
X144235714Y-91748428D01*
X144163142Y-91675857D01*
X144126857Y-91603285D01*
X144090571Y-91458142D01*
X144090571Y-91349285D01*
X144126857Y-91204142D01*
X144163142Y-91131571D01*
X144235714Y-91059000D01*
X144344571Y-91022714D01*
X144417142Y-91022714D01*
X144526000Y-91059000D01*
X144562285Y-91095285D01*
X145215428Y-91276714D02*
X145215428Y-91784714D01*
X145034000Y-90986428D02*
X144852571Y-91530714D01*
X145324285Y-91530714D01*
X146013714Y-91784714D02*
X145578285Y-91784714D01*
X145796000Y-91784714D02*
X145796000Y-91022714D01*
X145723428Y-91131571D01*
X145650857Y-91204142D01*
X145578285Y-91240428D01*
X146739428Y-91784714D02*
X146304000Y-91784714D01*
X146521714Y-91784714D02*
X146521714Y-91022714D01*
X146449142Y-91131571D01*
X146376571Y-91204142D01*
X146304000Y-91240428D01*
X175985714Y-111052428D02*
X175223714Y-111052428D01*
X175223714Y-110871000D01*
X175260000Y-110762142D01*
X175332571Y-110689571D01*
X175405142Y-110653285D01*
X175550285Y-110617000D01*
X175659142Y-110617000D01*
X175804285Y-110653285D01*
X175876857Y-110689571D01*
X175949428Y-110762142D01*
X175985714Y-110871000D01*
X175985714Y-111052428D01*
X175985714Y-109891285D02*
X175985714Y-110326714D01*
X175985714Y-110109000D02*
X175223714Y-110109000D01*
X175332571Y-110181571D01*
X175405142Y-110254142D01*
X175441428Y-110326714D01*
X155847142Y-95467714D02*
X155883428Y-95504000D01*
X155919714Y-95612857D01*
X155919714Y-95685428D01*
X155883428Y-95794285D01*
X155810857Y-95866857D01*
X155738285Y-95903142D01*
X155593142Y-95939428D01*
X155484285Y-95939428D01*
X155339142Y-95903142D01*
X155266571Y-95866857D01*
X155194000Y-95794285D01*
X155157714Y-95685428D01*
X155157714Y-95612857D01*
X155194000Y-95504000D01*
X155230285Y-95467714D01*
X155411714Y-94814571D02*
X155919714Y-94814571D01*
X155121428Y-94996000D02*
X155665714Y-95177428D01*
X155665714Y-94705714D01*
X155157714Y-94270285D02*
X155157714Y-94197714D01*
X155194000Y-94125142D01*
X155230285Y-94088857D01*
X155302857Y-94052571D01*
X155448000Y-94016285D01*
X155629428Y-94016285D01*
X155774571Y-94052571D01*
X155847142Y-94088857D01*
X155883428Y-94125142D01*
X155919714Y-94197714D01*
X155919714Y-94270285D01*
X155883428Y-94342857D01*
X155847142Y-94379142D01*
X155774571Y-94415428D01*
X155629428Y-94451714D01*
X155448000Y-94451714D01*
X155302857Y-94415428D01*
X155230285Y-94379142D01*
X155194000Y-94342857D01*
X155157714Y-94270285D01*
X155230285Y-93726000D02*
X155194000Y-93689714D01*
X155157714Y-93617142D01*
X155157714Y-93435714D01*
X155194000Y-93363142D01*
X155230285Y-93326857D01*
X155302857Y-93290571D01*
X155375428Y-93290571D01*
X155484285Y-93326857D01*
X155919714Y-93762285D01*
X155919714Y-93290571D01*
X144562285Y-85362142D02*
X144526000Y-85398428D01*
X144417142Y-85434714D01*
X144344571Y-85434714D01*
X144235714Y-85398428D01*
X144163142Y-85325857D01*
X144126857Y-85253285D01*
X144090571Y-85108142D01*
X144090571Y-84999285D01*
X144126857Y-84854142D01*
X144163142Y-84781571D01*
X144235714Y-84709000D01*
X144344571Y-84672714D01*
X144417142Y-84672714D01*
X144526000Y-84709000D01*
X144562285Y-84745285D01*
X145215428Y-84926714D02*
X145215428Y-85434714D01*
X145034000Y-84636428D02*
X144852571Y-85180714D01*
X145324285Y-85180714D01*
X145759714Y-84672714D02*
X145832285Y-84672714D01*
X145904857Y-84709000D01*
X145941142Y-84745285D01*
X145977428Y-84817857D01*
X146013714Y-84963000D01*
X146013714Y-85144428D01*
X145977428Y-85289571D01*
X145941142Y-85362142D01*
X145904857Y-85398428D01*
X145832285Y-85434714D01*
X145759714Y-85434714D01*
X145687142Y-85398428D01*
X145650857Y-85362142D01*
X145614571Y-85289571D01*
X145578285Y-85144428D01*
X145578285Y-84963000D01*
X145614571Y-84817857D01*
X145650857Y-84745285D01*
X145687142Y-84709000D01*
X145759714Y-84672714D01*
X146267714Y-84672714D02*
X146775714Y-84672714D01*
X146449142Y-85434714D01*
X128415142Y-92292714D02*
X128451428Y-92329000D01*
X128487714Y-92437857D01*
X128487714Y-92510428D01*
X128451428Y-92619285D01*
X128378857Y-92691857D01*
X128306285Y-92728142D01*
X128161142Y-92764428D01*
X128052285Y-92764428D01*
X127907142Y-92728142D01*
X127834571Y-92691857D01*
X127762000Y-92619285D01*
X127725714Y-92510428D01*
X127725714Y-92437857D01*
X127762000Y-92329000D01*
X127798285Y-92292714D01*
X127725714Y-92038714D02*
X127725714Y-91530714D01*
X128487714Y-91857285D01*
X127725714Y-91095285D02*
X127725714Y-91022714D01*
X127762000Y-90950142D01*
X127798285Y-90913857D01*
X127870857Y-90877571D01*
X128016000Y-90841285D01*
X128197428Y-90841285D01*
X128342571Y-90877571D01*
X128415142Y-90913857D01*
X128451428Y-90950142D01*
X128487714Y-91022714D01*
X128487714Y-91095285D01*
X128451428Y-91167857D01*
X128415142Y-91204142D01*
X128342571Y-91240428D01*
X128197428Y-91276714D01*
X128016000Y-91276714D01*
X127870857Y-91240428D01*
X127798285Y-91204142D01*
X127762000Y-91167857D01*
X127725714Y-91095285D01*
X127798285Y-90551000D02*
X127762000Y-90514714D01*
X127725714Y-90442142D01*
X127725714Y-90260714D01*
X127762000Y-90188142D01*
X127798285Y-90151857D01*
X127870857Y-90115571D01*
X127943428Y-90115571D01*
X128052285Y-90151857D01*
X128487714Y-90587285D01*
X128487714Y-90115571D01*
X136307285Y-102960714D02*
X136053285Y-102597857D01*
X135871857Y-102960714D02*
X135871857Y-102198714D01*
X136162142Y-102198714D01*
X136234714Y-102235000D01*
X136271000Y-102271285D01*
X136307285Y-102343857D01*
X136307285Y-102452714D01*
X136271000Y-102525285D01*
X136234714Y-102561571D01*
X136162142Y-102597857D01*
X135871857Y-102597857D01*
X136561285Y-102198714D02*
X137033000Y-102198714D01*
X136779000Y-102489000D01*
X136887857Y-102489000D01*
X136960428Y-102525285D01*
X136996714Y-102561571D01*
X137033000Y-102634142D01*
X137033000Y-102815571D01*
X136996714Y-102888142D01*
X136960428Y-102924428D01*
X136887857Y-102960714D01*
X136670142Y-102960714D01*
X136597571Y-102924428D01*
X136561285Y-102888142D01*
X137504714Y-102198714D02*
X137577285Y-102198714D01*
X137649857Y-102235000D01*
X137686142Y-102271285D01*
X137722428Y-102343857D01*
X137758714Y-102489000D01*
X137758714Y-102670428D01*
X137722428Y-102815571D01*
X137686142Y-102888142D01*
X137649857Y-102924428D01*
X137577285Y-102960714D01*
X137504714Y-102960714D01*
X137432142Y-102924428D01*
X137395857Y-102888142D01*
X137359571Y-102815571D01*
X137323285Y-102670428D01*
X137323285Y-102489000D01*
X137359571Y-102343857D01*
X137395857Y-102271285D01*
X137432142Y-102235000D01*
X137504714Y-102198714D01*
X138448142Y-102198714D02*
X138085285Y-102198714D01*
X138049000Y-102561571D01*
X138085285Y-102525285D01*
X138157857Y-102489000D01*
X138339285Y-102489000D01*
X138411857Y-102525285D01*
X138448142Y-102561571D01*
X138484428Y-102634142D01*
X138484428Y-102815571D01*
X138448142Y-102888142D01*
X138411857Y-102924428D01*
X138339285Y-102960714D01*
X138157857Y-102960714D01*
X138085285Y-102924428D01*
X138049000Y-102888142D01*
D10*
X172139428Y-102833714D02*
X172139428Y-103450571D01*
X172175714Y-103523142D01*
X172212000Y-103559428D01*
X172284571Y-103595714D01*
X172429714Y-103595714D01*
X172502285Y-103559428D01*
X172538571Y-103523142D01*
X172574857Y-103450571D01*
X172574857Y-102833714D01*
X172901428Y-102906285D02*
X172937714Y-102870000D01*
X173010285Y-102833714D01*
X173191714Y-102833714D01*
X173264285Y-102870000D01*
X173300571Y-102906285D01*
X173336857Y-102978857D01*
X173336857Y-103051428D01*
X173300571Y-103160285D01*
X172865142Y-103595714D01*
X173336857Y-103595714D01*
D11*
X149497142Y-81497714D02*
X149533428Y-81534000D01*
X149569714Y-81642857D01*
X149569714Y-81715428D01*
X149533428Y-81824285D01*
X149460857Y-81896857D01*
X149388285Y-81933142D01*
X149243142Y-81969428D01*
X149134285Y-81969428D01*
X148989142Y-81933142D01*
X148916571Y-81896857D01*
X148844000Y-81824285D01*
X148807714Y-81715428D01*
X148807714Y-81642857D01*
X148844000Y-81534000D01*
X148880285Y-81497714D01*
X149061714Y-80844571D02*
X149569714Y-80844571D01*
X148771428Y-81026000D02*
X149315714Y-81207428D01*
X149315714Y-80735714D01*
X148807714Y-80300285D02*
X148807714Y-80227714D01*
X148844000Y-80155142D01*
X148880285Y-80118857D01*
X148952857Y-80082571D01*
X149098000Y-80046285D01*
X149279428Y-80046285D01*
X149424571Y-80082571D01*
X149497142Y-80118857D01*
X149533428Y-80155142D01*
X149569714Y-80227714D01*
X149569714Y-80300285D01*
X149533428Y-80372857D01*
X149497142Y-80409142D01*
X149424571Y-80445428D01*
X149279428Y-80481714D01*
X149098000Y-80481714D01*
X148952857Y-80445428D01*
X148880285Y-80409142D01*
X148844000Y-80372857D01*
X148807714Y-80300285D01*
X149569714Y-79320571D02*
X149569714Y-79756000D01*
X149569714Y-79538285D02*
X148807714Y-79538285D01*
X148916571Y-79610857D01*
X148989142Y-79683428D01*
X149025428Y-79756000D01*
D10*
X152066666Y-112482380D02*
X152066666Y-113196666D01*
X152019047Y-113339523D01*
X151923809Y-113434761D01*
X151780952Y-113482380D01*
X151685714Y-113482380D01*
X153019047Y-112482380D02*
X152542857Y-112482380D01*
X152495238Y-112958571D01*
X152542857Y-112910952D01*
X152638095Y-112863333D01*
X152876190Y-112863333D01*
X152971428Y-112910952D01*
X153019047Y-112958571D01*
X153066666Y-113053809D01*
X153066666Y-113291904D01*
X153019047Y-113387142D01*
X152971428Y-113434761D01*
X152876190Y-113482380D01*
X152638095Y-113482380D01*
X152542857Y-113434761D01*
X152495238Y-113387142D01*
D11*
X162977285Y-106134714D02*
X162723285Y-105771857D01*
X162541857Y-106134714D02*
X162541857Y-105372714D01*
X162832142Y-105372714D01*
X162904714Y-105409000D01*
X162941000Y-105445285D01*
X162977285Y-105517857D01*
X162977285Y-105626714D01*
X162941000Y-105699285D01*
X162904714Y-105735571D01*
X162832142Y-105771857D01*
X162541857Y-105771857D01*
X163666714Y-105372714D02*
X163303857Y-105372714D01*
X163267571Y-105735571D01*
X163303857Y-105699285D01*
X163376428Y-105663000D01*
X163557857Y-105663000D01*
X163630428Y-105699285D01*
X163666714Y-105735571D01*
X163703000Y-105808142D01*
X163703000Y-105989571D01*
X163666714Y-106062142D01*
X163630428Y-106098428D01*
X163557857Y-106134714D01*
X163376428Y-106134714D01*
X163303857Y-106098428D01*
X163267571Y-106062142D01*
X164174714Y-105372714D02*
X164247285Y-105372714D01*
X164319857Y-105409000D01*
X164356142Y-105445285D01*
X164392428Y-105517857D01*
X164428714Y-105663000D01*
X164428714Y-105844428D01*
X164392428Y-105989571D01*
X164356142Y-106062142D01*
X164319857Y-106098428D01*
X164247285Y-106134714D01*
X164174714Y-106134714D01*
X164102142Y-106098428D01*
X164065857Y-106062142D01*
X164029571Y-105989571D01*
X163993285Y-105844428D01*
X163993285Y-105663000D01*
X164029571Y-105517857D01*
X164065857Y-105445285D01*
X164102142Y-105409000D01*
X164174714Y-105372714D01*
X164719000Y-105445285D02*
X164755285Y-105409000D01*
X164827857Y-105372714D01*
X165009285Y-105372714D01*
X165081857Y-105409000D01*
X165118142Y-105445285D01*
X165154428Y-105517857D01*
X165154428Y-105590428D01*
X165118142Y-105699285D01*
X164682714Y-106134714D01*
X165154428Y-106134714D01*
X127417285Y-107278714D02*
X127163285Y-106915857D01*
X126981857Y-107278714D02*
X126981857Y-106516714D01*
X127272142Y-106516714D01*
X127344714Y-106553000D01*
X127381000Y-106589285D01*
X127417285Y-106661857D01*
X127417285Y-106770714D01*
X127381000Y-106843285D01*
X127344714Y-106879571D01*
X127272142Y-106915857D01*
X126981857Y-106915857D01*
X127671285Y-106516714D02*
X128143000Y-106516714D01*
X127889000Y-106807000D01*
X127997857Y-106807000D01*
X128070428Y-106843285D01*
X128106714Y-106879571D01*
X128143000Y-106952142D01*
X128143000Y-107133571D01*
X128106714Y-107206142D01*
X128070428Y-107242428D01*
X127997857Y-107278714D01*
X127780142Y-107278714D01*
X127707571Y-107242428D01*
X127671285Y-107206142D01*
X128614714Y-106516714D02*
X128687285Y-106516714D01*
X128759857Y-106553000D01*
X128796142Y-106589285D01*
X128832428Y-106661857D01*
X128868714Y-106807000D01*
X128868714Y-106988428D01*
X128832428Y-107133571D01*
X128796142Y-107206142D01*
X128759857Y-107242428D01*
X128687285Y-107278714D01*
X128614714Y-107278714D01*
X128542142Y-107242428D01*
X128505857Y-107206142D01*
X128469571Y-107133571D01*
X128433285Y-106988428D01*
X128433285Y-106807000D01*
X128469571Y-106661857D01*
X128505857Y-106589285D01*
X128542142Y-106553000D01*
X128614714Y-106516714D01*
X129159000Y-106589285D02*
X129195285Y-106553000D01*
X129267857Y-106516714D01*
X129449285Y-106516714D01*
X129521857Y-106553000D01*
X129558142Y-106589285D01*
X129594428Y-106661857D01*
X129594428Y-106734428D01*
X129558142Y-106843285D01*
X129122714Y-107278714D01*
X129594428Y-107278714D01*
X169327285Y-86505142D02*
X169291000Y-86541428D01*
X169182142Y-86577714D01*
X169109571Y-86577714D01*
X169000714Y-86541428D01*
X168928142Y-86468857D01*
X168891857Y-86396285D01*
X168855571Y-86251142D01*
X168855571Y-86142285D01*
X168891857Y-85997142D01*
X168928142Y-85924571D01*
X169000714Y-85852000D01*
X169109571Y-85815714D01*
X169182142Y-85815714D01*
X169291000Y-85852000D01*
X169327285Y-85888285D01*
X170016714Y-85815714D02*
X169653857Y-85815714D01*
X169617571Y-86178571D01*
X169653857Y-86142285D01*
X169726428Y-86106000D01*
X169907857Y-86106000D01*
X169980428Y-86142285D01*
X170016714Y-86178571D01*
X170053000Y-86251142D01*
X170053000Y-86432571D01*
X170016714Y-86505142D01*
X169980428Y-86541428D01*
X169907857Y-86577714D01*
X169726428Y-86577714D01*
X169653857Y-86541428D01*
X169617571Y-86505142D01*
X170524714Y-85815714D02*
X170597285Y-85815714D01*
X170669857Y-85852000D01*
X170706142Y-85888285D01*
X170742428Y-85960857D01*
X170778714Y-86106000D01*
X170778714Y-86287428D01*
X170742428Y-86432571D01*
X170706142Y-86505142D01*
X170669857Y-86541428D01*
X170597285Y-86577714D01*
X170524714Y-86577714D01*
X170452142Y-86541428D01*
X170415857Y-86505142D01*
X170379571Y-86432571D01*
X170343285Y-86287428D01*
X170343285Y-86106000D01*
X170379571Y-85960857D01*
X170415857Y-85888285D01*
X170452142Y-85852000D01*
X170524714Y-85815714D01*
X171504428Y-86577714D02*
X171069000Y-86577714D01*
X171286714Y-86577714D02*
X171286714Y-85815714D01*
X171214142Y-85924571D01*
X171141571Y-85997142D01*
X171069000Y-86033428D01*
X127417285Y-110453714D02*
X127163285Y-110090857D01*
X126981857Y-110453714D02*
X126981857Y-109691714D01*
X127272142Y-109691714D01*
X127344714Y-109728000D01*
X127381000Y-109764285D01*
X127417285Y-109836857D01*
X127417285Y-109945714D01*
X127381000Y-110018285D01*
X127344714Y-110054571D01*
X127272142Y-110090857D01*
X126981857Y-110090857D01*
X127671285Y-109691714D02*
X128143000Y-109691714D01*
X127889000Y-109982000D01*
X127997857Y-109982000D01*
X128070428Y-110018285D01*
X128106714Y-110054571D01*
X128143000Y-110127142D01*
X128143000Y-110308571D01*
X128106714Y-110381142D01*
X128070428Y-110417428D01*
X127997857Y-110453714D01*
X127780142Y-110453714D01*
X127707571Y-110417428D01*
X127671285Y-110381142D01*
X128614714Y-109691714D02*
X128687285Y-109691714D01*
X128759857Y-109728000D01*
X128796142Y-109764285D01*
X128832428Y-109836857D01*
X128868714Y-109982000D01*
X128868714Y-110163428D01*
X128832428Y-110308571D01*
X128796142Y-110381142D01*
X128759857Y-110417428D01*
X128687285Y-110453714D01*
X128614714Y-110453714D01*
X128542142Y-110417428D01*
X128505857Y-110381142D01*
X128469571Y-110308571D01*
X128433285Y-110163428D01*
X128433285Y-109982000D01*
X128469571Y-109836857D01*
X128505857Y-109764285D01*
X128542142Y-109728000D01*
X128614714Y-109691714D01*
X129122714Y-109691714D02*
X129594428Y-109691714D01*
X129340428Y-109982000D01*
X129449285Y-109982000D01*
X129521857Y-110018285D01*
X129558142Y-110054571D01*
X129594428Y-110127142D01*
X129594428Y-110308571D01*
X129558142Y-110381142D01*
X129521857Y-110417428D01*
X129449285Y-110453714D01*
X129231571Y-110453714D01*
X129159000Y-110417428D01*
X129122714Y-110381142D01*
D10*
X172624761Y-108497619D02*
X172529523Y-108450000D01*
X172434285Y-108354761D01*
X172291428Y-108211904D01*
X172196190Y-108164285D01*
X172100952Y-108164285D01*
X172148571Y-108402380D02*
X172053333Y-108354761D01*
X171958095Y-108259523D01*
X171910476Y-108069047D01*
X171910476Y-107735714D01*
X171958095Y-107545238D01*
X172053333Y-107450000D01*
X172148571Y-107402380D01*
X172339047Y-107402380D01*
X172434285Y-107450000D01*
X172529523Y-107545238D01*
X172577142Y-107735714D01*
X172577142Y-108069047D01*
X172529523Y-108259523D01*
X172434285Y-108354761D01*
X172339047Y-108402380D01*
X172148571Y-108402380D01*
X173529523Y-108402380D02*
X172958095Y-108402380D01*
X173243809Y-108402380D02*
X173243809Y-107402380D01*
X173148571Y-107545238D01*
X173053333Y-107640476D01*
X172958095Y-107688095D01*
D11*
X162342285Y-86251142D02*
X162306000Y-86287428D01*
X162197142Y-86323714D01*
X162124571Y-86323714D01*
X162015714Y-86287428D01*
X161943142Y-86214857D01*
X161906857Y-86142285D01*
X161870571Y-85997142D01*
X161870571Y-85888285D01*
X161906857Y-85743142D01*
X161943142Y-85670571D01*
X162015714Y-85598000D01*
X162124571Y-85561714D01*
X162197142Y-85561714D01*
X162306000Y-85598000D01*
X162342285Y-85634285D01*
X163031714Y-85561714D02*
X162668857Y-85561714D01*
X162632571Y-85924571D01*
X162668857Y-85888285D01*
X162741428Y-85852000D01*
X162922857Y-85852000D01*
X162995428Y-85888285D01*
X163031714Y-85924571D01*
X163068000Y-85997142D01*
X163068000Y-86178571D01*
X163031714Y-86251142D01*
X162995428Y-86287428D01*
X162922857Y-86323714D01*
X162741428Y-86323714D01*
X162668857Y-86287428D01*
X162632571Y-86251142D01*
X163539714Y-85561714D02*
X163612285Y-85561714D01*
X163684857Y-85598000D01*
X163721142Y-85634285D01*
X163757428Y-85706857D01*
X163793714Y-85852000D01*
X163793714Y-86033428D01*
X163757428Y-86178571D01*
X163721142Y-86251142D01*
X163684857Y-86287428D01*
X163612285Y-86323714D01*
X163539714Y-86323714D01*
X163467142Y-86287428D01*
X163430857Y-86251142D01*
X163394571Y-86178571D01*
X163358285Y-86033428D01*
X163358285Y-85852000D01*
X163394571Y-85706857D01*
X163430857Y-85634285D01*
X163467142Y-85598000D01*
X163539714Y-85561714D01*
X164084000Y-85634285D02*
X164120285Y-85598000D01*
X164192857Y-85561714D01*
X164374285Y-85561714D01*
X164446857Y-85598000D01*
X164483142Y-85634285D01*
X164519428Y-85706857D01*
X164519428Y-85779428D01*
X164483142Y-85888285D01*
X164047714Y-86323714D01*
X164519428Y-86323714D01*
X144562285Y-94252142D02*
X144526000Y-94288428D01*
X144417142Y-94324714D01*
X144344571Y-94324714D01*
X144235714Y-94288428D01*
X144163142Y-94215857D01*
X144126857Y-94143285D01*
X144090571Y-93998142D01*
X144090571Y-93889285D01*
X144126857Y-93744142D01*
X144163142Y-93671571D01*
X144235714Y-93599000D01*
X144344571Y-93562714D01*
X144417142Y-93562714D01*
X144526000Y-93599000D01*
X144562285Y-93635285D01*
X145215428Y-93816714D02*
X145215428Y-94324714D01*
X145034000Y-93526428D02*
X144852571Y-94070714D01*
X145324285Y-94070714D01*
X145759714Y-93562714D02*
X145832285Y-93562714D01*
X145904857Y-93599000D01*
X145941142Y-93635285D01*
X145977428Y-93707857D01*
X146013714Y-93853000D01*
X146013714Y-94034428D01*
X145977428Y-94179571D01*
X145941142Y-94252142D01*
X145904857Y-94288428D01*
X145832285Y-94324714D01*
X145759714Y-94324714D01*
X145687142Y-94288428D01*
X145650857Y-94252142D01*
X145614571Y-94179571D01*
X145578285Y-94034428D01*
X145578285Y-93853000D01*
X145614571Y-93707857D01*
X145650857Y-93635285D01*
X145687142Y-93599000D01*
X145759714Y-93562714D01*
X146666857Y-93816714D02*
X146666857Y-94324714D01*
X146485428Y-93526428D02*
X146304000Y-94070714D01*
X146775714Y-94070714D01*
X126328714Y-107532714D02*
X125965857Y-107786714D01*
X126328714Y-107968142D02*
X125566714Y-107968142D01*
X125566714Y-107677857D01*
X125603000Y-107605285D01*
X125639285Y-107569000D01*
X125711857Y-107532714D01*
X125820714Y-107532714D01*
X125893285Y-107569000D01*
X125929571Y-107605285D01*
X125965857Y-107677857D01*
X125965857Y-107968142D01*
X125566714Y-107278714D02*
X125566714Y-106807000D01*
X125857000Y-107061000D01*
X125857000Y-106952142D01*
X125893285Y-106879571D01*
X125929571Y-106843285D01*
X126002142Y-106807000D01*
X126183571Y-106807000D01*
X126256142Y-106843285D01*
X126292428Y-106879571D01*
X126328714Y-106952142D01*
X126328714Y-107169857D01*
X126292428Y-107242428D01*
X126256142Y-107278714D01*
X125566714Y-106335285D02*
X125566714Y-106262714D01*
X125603000Y-106190142D01*
X125639285Y-106153857D01*
X125711857Y-106117571D01*
X125857000Y-106081285D01*
X126038428Y-106081285D01*
X126183571Y-106117571D01*
X126256142Y-106153857D01*
X126292428Y-106190142D01*
X126328714Y-106262714D01*
X126328714Y-106335285D01*
X126292428Y-106407857D01*
X126256142Y-106444142D01*
X126183571Y-106480428D01*
X126038428Y-106516714D01*
X125857000Y-106516714D01*
X125711857Y-106480428D01*
X125639285Y-106444142D01*
X125603000Y-106407857D01*
X125566714Y-106335285D01*
X126328714Y-105355571D02*
X126328714Y-105791000D01*
X126328714Y-105573285D02*
X125566714Y-105573285D01*
X125675571Y-105645857D01*
X125748142Y-105718428D01*
X125784428Y-105791000D01*
X158078714Y-81497714D02*
X157715857Y-81751714D01*
X158078714Y-81933142D02*
X157316714Y-81933142D01*
X157316714Y-81642857D01*
X157353000Y-81570285D01*
X157389285Y-81534000D01*
X157461857Y-81497714D01*
X157570714Y-81497714D01*
X157643285Y-81534000D01*
X157679571Y-81570285D01*
X157715857Y-81642857D01*
X157715857Y-81933142D01*
X157316714Y-80808285D02*
X157316714Y-81171142D01*
X157679571Y-81207428D01*
X157643285Y-81171142D01*
X157607000Y-81098571D01*
X157607000Y-80917142D01*
X157643285Y-80844571D01*
X157679571Y-80808285D01*
X157752142Y-80772000D01*
X157933571Y-80772000D01*
X158006142Y-80808285D01*
X158042428Y-80844571D01*
X158078714Y-80917142D01*
X158078714Y-81098571D01*
X158042428Y-81171142D01*
X158006142Y-81207428D01*
X157316714Y-80300285D02*
X157316714Y-80227714D01*
X157353000Y-80155142D01*
X157389285Y-80118857D01*
X157461857Y-80082571D01*
X157607000Y-80046285D01*
X157788428Y-80046285D01*
X157933571Y-80082571D01*
X158006142Y-80118857D01*
X158042428Y-80155142D01*
X158078714Y-80227714D01*
X158078714Y-80300285D01*
X158042428Y-80372857D01*
X158006142Y-80409142D01*
X157933571Y-80445428D01*
X157788428Y-80481714D01*
X157607000Y-80481714D01*
X157461857Y-80445428D01*
X157389285Y-80409142D01*
X157353000Y-80372857D01*
X157316714Y-80300285D01*
X158078714Y-79320571D02*
X158078714Y-79756000D01*
X158078714Y-79538285D02*
X157316714Y-79538285D01*
X157425571Y-79610857D01*
X157498142Y-79683428D01*
X157534428Y-79756000D01*
D10*
X127508095Y-99274380D02*
X127508095Y-100083904D01*
X127555714Y-100179142D01*
X127603333Y-100226761D01*
X127698571Y-100274380D01*
X127889047Y-100274380D01*
X127984285Y-100226761D01*
X128031904Y-100179142D01*
X128079523Y-100083904D01*
X128079523Y-99274380D01*
X128984285Y-99607714D02*
X128984285Y-100274380D01*
X128746190Y-99226761D02*
X128508095Y-99941047D01*
X129127142Y-99941047D01*
D11*
X127417285Y-96737714D02*
X127163285Y-96374857D01*
X126981857Y-96737714D02*
X126981857Y-95975714D01*
X127272142Y-95975714D01*
X127344714Y-96012000D01*
X127381000Y-96048285D01*
X127417285Y-96120857D01*
X127417285Y-96229714D01*
X127381000Y-96302285D01*
X127344714Y-96338571D01*
X127272142Y-96374857D01*
X126981857Y-96374857D01*
X127671285Y-95975714D02*
X128143000Y-95975714D01*
X127889000Y-96266000D01*
X127997857Y-96266000D01*
X128070428Y-96302285D01*
X128106714Y-96338571D01*
X128143000Y-96411142D01*
X128143000Y-96592571D01*
X128106714Y-96665142D01*
X128070428Y-96701428D01*
X127997857Y-96737714D01*
X127780142Y-96737714D01*
X127707571Y-96701428D01*
X127671285Y-96665142D01*
X128614714Y-95975714D02*
X128687285Y-95975714D01*
X128759857Y-96012000D01*
X128796142Y-96048285D01*
X128832428Y-96120857D01*
X128868714Y-96266000D01*
X128868714Y-96447428D01*
X128832428Y-96592571D01*
X128796142Y-96665142D01*
X128759857Y-96701428D01*
X128687285Y-96737714D01*
X128614714Y-96737714D01*
X128542142Y-96701428D01*
X128505857Y-96665142D01*
X128469571Y-96592571D01*
X128433285Y-96447428D01*
X128433285Y-96266000D01*
X128469571Y-96120857D01*
X128505857Y-96048285D01*
X128542142Y-96012000D01*
X128614714Y-95975714D01*
X129521857Y-96229714D02*
X129521857Y-96737714D01*
X129340428Y-95939428D02*
X129159000Y-96483714D01*
X129630714Y-96483714D01*
X158532285Y-88156142D02*
X158496000Y-88192428D01*
X158387142Y-88228714D01*
X158314571Y-88228714D01*
X158205714Y-88192428D01*
X158133142Y-88119857D01*
X158096857Y-88047285D01*
X158060571Y-87902142D01*
X158060571Y-87793285D01*
X158096857Y-87648142D01*
X158133142Y-87575571D01*
X158205714Y-87503000D01*
X158314571Y-87466714D01*
X158387142Y-87466714D01*
X158496000Y-87503000D01*
X158532285Y-87539285D01*
X159185428Y-87720714D02*
X159185428Y-88228714D01*
X159004000Y-87430428D02*
X158822571Y-87974714D01*
X159294285Y-87974714D01*
X159729714Y-87466714D02*
X159802285Y-87466714D01*
X159874857Y-87503000D01*
X159911142Y-87539285D01*
X159947428Y-87611857D01*
X159983714Y-87757000D01*
X159983714Y-87938428D01*
X159947428Y-88083571D01*
X159911142Y-88156142D01*
X159874857Y-88192428D01*
X159802285Y-88228714D01*
X159729714Y-88228714D01*
X159657142Y-88192428D01*
X159620857Y-88156142D01*
X159584571Y-88083571D01*
X159548285Y-87938428D01*
X159548285Y-87757000D01*
X159584571Y-87611857D01*
X159620857Y-87539285D01*
X159657142Y-87503000D01*
X159729714Y-87466714D01*
X160346571Y-88228714D02*
X160491714Y-88228714D01*
X160564285Y-88192428D01*
X160600571Y-88156142D01*
X160673142Y-88047285D01*
X160709428Y-87902142D01*
X160709428Y-87611857D01*
X160673142Y-87539285D01*
X160636857Y-87503000D01*
X160564285Y-87466714D01*
X160419142Y-87466714D01*
X160346571Y-87503000D01*
X160310285Y-87539285D01*
X160274000Y-87611857D01*
X160274000Y-87793285D01*
X160310285Y-87865857D01*
X160346571Y-87902142D01*
X160419142Y-87938428D01*
X160564285Y-87938428D01*
X160636857Y-87902142D01*
X160673142Y-87865857D01*
X160709428Y-87793285D01*
X171867285Y-113120714D02*
X171613285Y-112757857D01*
X171431857Y-113120714D02*
X171431857Y-112358714D01*
X171722142Y-112358714D01*
X171794714Y-112395000D01*
X171831000Y-112431285D01*
X171867285Y-112503857D01*
X171867285Y-112612714D01*
X171831000Y-112685285D01*
X171794714Y-112721571D01*
X171722142Y-112757857D01*
X171431857Y-112757857D01*
X172593000Y-113120714D02*
X172157571Y-113120714D01*
X172375285Y-113120714D02*
X172375285Y-112358714D01*
X172302714Y-112467571D01*
X172230142Y-112540142D01*
X172157571Y-112576428D01*
X173064714Y-112358714D02*
X173137285Y-112358714D01*
X173209857Y-112395000D01*
X173246142Y-112431285D01*
X173282428Y-112503857D01*
X173318714Y-112649000D01*
X173318714Y-112830428D01*
X173282428Y-112975571D01*
X173246142Y-113048142D01*
X173209857Y-113084428D01*
X173137285Y-113120714D01*
X173064714Y-113120714D01*
X172992142Y-113084428D01*
X172955857Y-113048142D01*
X172919571Y-112975571D01*
X172883285Y-112830428D01*
X172883285Y-112649000D01*
X172919571Y-112503857D01*
X172955857Y-112431285D01*
X172992142Y-112395000D01*
X173064714Y-112358714D01*
X174044428Y-113120714D02*
X173609000Y-113120714D01*
X173826714Y-113120714D02*
X173826714Y-112358714D01*
X173754142Y-112467571D01*
X173681571Y-112540142D01*
X173609000Y-112576428D01*
X161181142Y-81497714D02*
X161217428Y-81534000D01*
X161253714Y-81642857D01*
X161253714Y-81715428D01*
X161217428Y-81824285D01*
X161144857Y-81896857D01*
X161072285Y-81933142D01*
X160927142Y-81969428D01*
X160818285Y-81969428D01*
X160673142Y-81933142D01*
X160600571Y-81896857D01*
X160528000Y-81824285D01*
X160491714Y-81715428D01*
X160491714Y-81642857D01*
X160528000Y-81534000D01*
X160564285Y-81497714D01*
X160491714Y-80808285D02*
X160491714Y-81171142D01*
X160854571Y-81207428D01*
X160818285Y-81171142D01*
X160782000Y-81098571D01*
X160782000Y-80917142D01*
X160818285Y-80844571D01*
X160854571Y-80808285D01*
X160927142Y-80772000D01*
X161108571Y-80772000D01*
X161181142Y-80808285D01*
X161217428Y-80844571D01*
X161253714Y-80917142D01*
X161253714Y-81098571D01*
X161217428Y-81171142D01*
X161181142Y-81207428D01*
X160491714Y-80300285D02*
X160491714Y-80227714D01*
X160528000Y-80155142D01*
X160564285Y-80118857D01*
X160636857Y-80082571D01*
X160782000Y-80046285D01*
X160963428Y-80046285D01*
X161108571Y-80082571D01*
X161181142Y-80118857D01*
X161217428Y-80155142D01*
X161253714Y-80227714D01*
X161253714Y-80300285D01*
X161217428Y-80372857D01*
X161181142Y-80409142D01*
X161108571Y-80445428D01*
X160963428Y-80481714D01*
X160782000Y-80481714D01*
X160636857Y-80445428D01*
X160564285Y-80409142D01*
X160528000Y-80372857D01*
X160491714Y-80300285D01*
X160491714Y-79792285D02*
X160491714Y-79320571D01*
X160782000Y-79574571D01*
X160782000Y-79465714D01*
X160818285Y-79393142D01*
X160854571Y-79356857D01*
X160927142Y-79320571D01*
X161108571Y-79320571D01*
X161181142Y-79356857D01*
X161217428Y-79393142D01*
X161253714Y-79465714D01*
X161253714Y-79683428D01*
X161217428Y-79756000D01*
X161181142Y-79792285D01*
X128415142Y-87212714D02*
X128451428Y-87249000D01*
X128487714Y-87357857D01*
X128487714Y-87430428D01*
X128451428Y-87539285D01*
X128378857Y-87611857D01*
X128306285Y-87648142D01*
X128161142Y-87684428D01*
X128052285Y-87684428D01*
X127907142Y-87648142D01*
X127834571Y-87611857D01*
X127762000Y-87539285D01*
X127725714Y-87430428D01*
X127725714Y-87357857D01*
X127762000Y-87249000D01*
X127798285Y-87212714D01*
X127725714Y-86958714D02*
X127725714Y-86450714D01*
X128487714Y-86777285D01*
X127725714Y-86015285D02*
X127725714Y-85942714D01*
X127762000Y-85870142D01*
X127798285Y-85833857D01*
X127870857Y-85797571D01*
X128016000Y-85761285D01*
X128197428Y-85761285D01*
X128342571Y-85797571D01*
X128415142Y-85833857D01*
X128451428Y-85870142D01*
X128487714Y-85942714D01*
X128487714Y-86015285D01*
X128451428Y-86087857D01*
X128415142Y-86124142D01*
X128342571Y-86160428D01*
X128197428Y-86196714D01*
X128016000Y-86196714D01*
X127870857Y-86160428D01*
X127798285Y-86124142D01*
X127762000Y-86087857D01*
X127725714Y-86015285D01*
X128487714Y-85035571D02*
X128487714Y-85471000D01*
X128487714Y-85253285D02*
X127725714Y-85253285D01*
X127834571Y-85325857D01*
X127907142Y-85398428D01*
X127943428Y-85471000D01*
D10*
X146882380Y-115419047D02*
X146406190Y-115752380D01*
X146882380Y-115990476D02*
X145882380Y-115990476D01*
X145882380Y-115609523D01*
X145930000Y-115514285D01*
X145977619Y-115466666D01*
X146072857Y-115419047D01*
X146215714Y-115419047D01*
X146310952Y-115466666D01*
X146358571Y-115514285D01*
X146406190Y-115609523D01*
X146406190Y-115990476D01*
X145882380Y-114561904D02*
X145882380Y-114752380D01*
X145930000Y-114847619D01*
X145977619Y-114895238D01*
X146120476Y-114990476D01*
X146310952Y-115038095D01*
X146691904Y-115038095D01*
X146787142Y-114990476D01*
X146834761Y-114942857D01*
X146882380Y-114847619D01*
X146882380Y-114657142D01*
X146834761Y-114561904D01*
X146787142Y-114514285D01*
X146691904Y-114466666D01*
X146453809Y-114466666D01*
X146358571Y-114514285D01*
X146310952Y-114561904D01*
X146263333Y-114657142D01*
X146263333Y-114847619D01*
X146310952Y-114942857D01*
X146358571Y-114990476D01*
X146453809Y-115038095D01*
X145882380Y-113847619D02*
X145882380Y-113752380D01*
X145930000Y-113657142D01*
X145977619Y-113609523D01*
X146072857Y-113561904D01*
X146263333Y-113514285D01*
X146501428Y-113514285D01*
X146691904Y-113561904D01*
X146787142Y-113609523D01*
X146834761Y-113657142D01*
X146882380Y-113752380D01*
X146882380Y-113847619D01*
X146834761Y-113942857D01*
X146787142Y-113990476D01*
X146691904Y-114038095D01*
X146501428Y-114085714D01*
X146263333Y-114085714D01*
X146072857Y-114038095D01*
X145977619Y-113990476D01*
X145930000Y-113942857D01*
X145882380Y-113847619D01*
X146882380Y-112561904D02*
X146882380Y-113133333D01*
X146882380Y-112847619D02*
X145882380Y-112847619D01*
X146025238Y-112942857D01*
X146120476Y-113038095D01*
X146168095Y-113133333D01*
D11*
X153307142Y-95467714D02*
X153343428Y-95504000D01*
X153379714Y-95612857D01*
X153379714Y-95685428D01*
X153343428Y-95794285D01*
X153270857Y-95866857D01*
X153198285Y-95903142D01*
X153053142Y-95939428D01*
X152944285Y-95939428D01*
X152799142Y-95903142D01*
X152726571Y-95866857D01*
X152654000Y-95794285D01*
X152617714Y-95685428D01*
X152617714Y-95612857D01*
X152654000Y-95504000D01*
X152690285Y-95467714D01*
X152871714Y-94814571D02*
X153379714Y-94814571D01*
X152581428Y-94996000D02*
X153125714Y-95177428D01*
X153125714Y-94705714D01*
X152617714Y-94270285D02*
X152617714Y-94197714D01*
X152654000Y-94125142D01*
X152690285Y-94088857D01*
X152762857Y-94052571D01*
X152908000Y-94016285D01*
X153089428Y-94016285D01*
X153234571Y-94052571D01*
X153307142Y-94088857D01*
X153343428Y-94125142D01*
X153379714Y-94197714D01*
X153379714Y-94270285D01*
X153343428Y-94342857D01*
X153307142Y-94379142D01*
X153234571Y-94415428D01*
X153089428Y-94451714D01*
X152908000Y-94451714D01*
X152762857Y-94415428D01*
X152690285Y-94379142D01*
X152654000Y-94342857D01*
X152617714Y-94270285D01*
X152617714Y-93326857D02*
X152617714Y-93689714D01*
X152980571Y-93726000D01*
X152944285Y-93689714D01*
X152908000Y-93617142D01*
X152908000Y-93435714D01*
X152944285Y-93363142D01*
X152980571Y-93326857D01*
X153053142Y-93290571D01*
X153234571Y-93290571D01*
X153307142Y-93326857D01*
X153343428Y-93363142D01*
X153379714Y-93435714D01*
X153379714Y-93617142D01*
X153343428Y-93689714D01*
X153307142Y-93726000D01*
D13*
X123725000Y-101338748D02*
X123725000Y-101861252D01*
X125195000Y-101338748D02*
X125195000Y-101861252D01*
X145561267Y-85850000D02*
X145268733Y-85850000D01*
X145561267Y-86870000D02*
X145268733Y-86870000D01*
X159285000Y-114072936D02*
X159285000Y-114527064D01*
X160755000Y-114072936D02*
X160755000Y-114527064D01*
X153545000Y-80791267D02*
X153545000Y-80498733D01*
X152525000Y-80791267D02*
X152525000Y-80498733D01*
X177260000Y-99080000D02*
X177260000Y-102380000D01*
X176260000Y-102380000D02*
X175260000Y-102380000D01*
X175260000Y-90680000D02*
X177260000Y-90680000D01*
X173260000Y-90680000D02*
X175260000Y-90680000D01*
X177260000Y-99080000D02*
X177260000Y-93980000D01*
X177260000Y-102380000D02*
X176260000Y-102380000D01*
X173260000Y-98980000D02*
X173260000Y-102380000D01*
X177260000Y-90680000D02*
X177260000Y-93980000D01*
X173260000Y-102380000D02*
X175260000Y-102380000D01*
X173260000Y-93980000D02*
X173260000Y-98980000D01*
X173260000Y-93980000D02*
X173260000Y-90680000D01*
X149125000Y-100102936D02*
X149125000Y-100557064D01*
X150595000Y-100102936D02*
X150595000Y-100557064D01*
X133450000Y-91667064D02*
X133450000Y-91212936D01*
X131980000Y-91667064D02*
X131980000Y-91212936D01*
X176430000Y-105671252D02*
X176430000Y-105148748D01*
X177900000Y-105671252D02*
X177900000Y-105148748D01*
X159238733Y-90680000D02*
X159531267Y-90680000D01*
X159238733Y-89660000D02*
X159531267Y-89660000D01*
X134820000Y-116270000D02*
X139500000Y-116270000D01*
X134120000Y-110050000D02*
X135400000Y-110050000D01*
X133100000Y-108450000D02*
X134120000Y-108450000D01*
X141220000Y-112700000D02*
X141220000Y-108450000D01*
X135400000Y-110050000D02*
X135400000Y-107160000D01*
X141220000Y-108450000D02*
X140200000Y-108450000D01*
X134120000Y-108450000D02*
X134120000Y-110050000D01*
X140200000Y-110050000D02*
X138920000Y-110050000D01*
X133100000Y-112700000D02*
X133100000Y-108450000D01*
X140200000Y-108450000D02*
X140200000Y-110050000D01*
X167540000Y-110717064D02*
X167540000Y-110262936D01*
X169010000Y-110717064D02*
X169010000Y-110262936D01*
X130810000Y-80070000D02*
X138490000Y-80070000D01*
X128210000Y-78740000D02*
X128210000Y-77410000D01*
X138490000Y-80070000D02*
X138490000Y-77410000D01*
X128210000Y-77410000D02*
X129540000Y-77410000D01*
X130810000Y-80070000D02*
X130810000Y-77410000D01*
X130810000Y-77410000D02*
X138490000Y-77410000D01*
X151665000Y-100102936D02*
X151665000Y-100557064D01*
X153135000Y-100102936D02*
X153135000Y-100557064D01*
X133450000Y-86132936D02*
X133450000Y-86587064D01*
X131980000Y-86132936D02*
X131980000Y-86587064D01*
X166905000Y-98271064D02*
X166905000Y-97816936D01*
X168375000Y-98271064D02*
X168375000Y-97816936D01*
X158977064Y-104875000D02*
X158522936Y-104875000D01*
X158977064Y-103405000D02*
X158522936Y-103405000D01*
X181670000Y-85030000D02*
X181670000Y-86360000D01*
X180340000Y-85030000D02*
X181670000Y-85030000D01*
X181670000Y-87630000D02*
X181670000Y-108010000D01*
X179010000Y-87630000D02*
X179010000Y-108010000D01*
X179010000Y-108010000D02*
X181670000Y-108010000D01*
X179010000Y-87630000D02*
X181670000Y-87630000D01*
X169010000Y-105671252D02*
X169010000Y-105148748D01*
X167540000Y-105671252D02*
X167540000Y-105148748D01*
X164795000Y-82645000D02*
X164795000Y-78645000D01*
X161595000Y-82645000D02*
X164795000Y-82645000D01*
X142012936Y-104875000D02*
X142467064Y-104875000D01*
X142012936Y-103405000D02*
X142467064Y-103405000D01*
X166310000Y-80010000D02*
X168910000Y-80010000D01*
X166310000Y-77410000D02*
X167640000Y-77410000D01*
X176590000Y-82610000D02*
X176590000Y-77410000D01*
X168910000Y-77410000D02*
X176590000Y-77410000D01*
X166310000Y-78740000D02*
X166310000Y-77410000D01*
X168910000Y-80010000D02*
X168910000Y-77410000D01*
X166310000Y-82610000D02*
X176590000Y-82610000D01*
X166310000Y-82610000D02*
X166310000Y-80010000D01*
X131345000Y-101338748D02*
X131345000Y-101861252D01*
X132815000Y-101338748D02*
X132815000Y-101861252D01*
X167640000Y-95435000D02*
X164915000Y-95435000D01*
X170365000Y-89985000D02*
X170365000Y-90245000D01*
X164915000Y-95435000D02*
X164915000Y-95175000D01*
X167640000Y-95435000D02*
X170365000Y-95435000D01*
X167640000Y-89985000D02*
X170365000Y-89985000D01*
X170365000Y-95435000D02*
X170365000Y-95175000D01*
X164915000Y-89985000D02*
X164915000Y-90245000D01*
X167640000Y-89985000D02*
X164915000Y-89985000D01*
X164915000Y-90245000D02*
X163240000Y-90245000D01*
X148790000Y-84020000D02*
X148790000Y-84670000D01*
X149440000Y-91240000D02*
X148790000Y-91240000D01*
X156010000Y-84020000D02*
X156010000Y-84670000D01*
X155360000Y-84020000D02*
X156010000Y-84020000D01*
X155360000Y-91240000D02*
X156010000Y-91240000D01*
X149440000Y-84020000D02*
X148790000Y-84020000D01*
X148790000Y-91240000D02*
X148790000Y-90590000D01*
X148715000Y-94468733D02*
X148715000Y-94761267D01*
X149735000Y-94468733D02*
X149735000Y-94761267D01*
X145561267Y-90680000D02*
X145268733Y-90680000D01*
X145561267Y-89660000D02*
X145268733Y-89660000D01*
X178015000Y-108590000D02*
X176315000Y-108590000D01*
X178015000Y-108590000D02*
X178015000Y-111740000D01*
X176315000Y-108590000D02*
X176315000Y-111740000D01*
X153795000Y-94468733D02*
X153795000Y-94761267D01*
X154815000Y-94468733D02*
X154815000Y-94761267D01*
X145561267Y-83310000D02*
X145268733Y-83310000D01*
X145561267Y-84330000D02*
X145268733Y-84330000D01*
X128805000Y-91701252D02*
X128805000Y-91178748D01*
X130275000Y-91701252D02*
X130275000Y-91178748D01*
X136932936Y-103405000D02*
X137387064Y-103405000D01*
X136932936Y-104875000D02*
X137387064Y-104875000D01*
X172720000Y-106970000D02*
X174520000Y-106970000D01*
X172720000Y-103850000D02*
X171920000Y-103850000D01*
X172720000Y-103850000D02*
X173520000Y-103850000D01*
X172720000Y-106970000D02*
X171920000Y-106970000D01*
X151005000Y-80791267D02*
X151005000Y-80498733D01*
X149985000Y-80791267D02*
X149985000Y-80498733D01*
X156870000Y-117870000D02*
X156870000Y-116410000D01*
X156870000Y-117870000D02*
X147930000Y-117870000D01*
X147930000Y-112360000D02*
X147930000Y-114160000D01*
X147930000Y-117870000D02*
X147930000Y-116410000D01*
X156870000Y-112360000D02*
X156870000Y-114160000D01*
X164057064Y-103405000D02*
X163602936Y-103405000D01*
X164057064Y-104875000D02*
X163602936Y-104875000D01*
X128042936Y-106145000D02*
X128497064Y-106145000D01*
X128042936Y-104675000D02*
X128497064Y-104675000D01*
X136137500Y-101290000D02*
X138997500Y-101290000D01*
X138997500Y-99370000D02*
X136137500Y-99370000D01*
X138997500Y-101290000D02*
X138997500Y-99370000D01*
X169918748Y-86895000D02*
X170441252Y-86895000D01*
X169918748Y-88365000D02*
X170441252Y-88365000D01*
X125170000Y-91510000D02*
X124120000Y-91510000D01*
X125170000Y-86290000D02*
X124120000Y-86290000D01*
X126290000Y-86290000D02*
X127340000Y-86290000D01*
X157200000Y-96860000D02*
X157200000Y-101260000D01*
X158700000Y-101260000D02*
X158800000Y-101260000D01*
X158700000Y-96860000D02*
X158800000Y-96860000D01*
X160300000Y-101260000D02*
X160300000Y-96860000D01*
X128497064Y-107850000D02*
X128042936Y-107850000D01*
X128497064Y-109320000D02*
X128042936Y-109320000D01*
X144077500Y-99370000D02*
X141217500Y-99370000D01*
X141217500Y-101290000D02*
X144077500Y-101290000D01*
X144077500Y-101290000D02*
X144077500Y-99370000D01*
X172720000Y-112050000D02*
X172070000Y-112050000D01*
X172720000Y-108930000D02*
X172070000Y-108930000D01*
X172720000Y-108930000D02*
X173370000Y-108930000D01*
X172720000Y-112050000D02*
X174395000Y-112050000D01*
X162933748Y-85190000D02*
X163456252Y-85190000D01*
X162933748Y-83720000D02*
X163456252Y-83720000D01*
X145561267Y-93220000D02*
X145268733Y-93220000D01*
X145561267Y-92200000D02*
X145268733Y-92200000D01*
X123725000Y-106452936D02*
X123725000Y-106907064D01*
X125195000Y-106452936D02*
X125195000Y-106907064D01*
X156945000Y-80417936D02*
X156945000Y-80872064D01*
X155475000Y-80417936D02*
X155475000Y-80872064D01*
X128770000Y-102720000D02*
X127770000Y-102720000D01*
X126770000Y-100480000D02*
X128770000Y-100480000D01*
X128042936Y-97055000D02*
X128497064Y-97055000D01*
X128042936Y-98525000D02*
X128497064Y-98525000D01*
X159238733Y-87124000D02*
X159531267Y-87124000D01*
X159238733Y-86104000D02*
X159531267Y-86104000D01*
X163780000Y-101260000D02*
X163880000Y-101260000D01*
X162280000Y-96860000D02*
X162280000Y-101260000D01*
X163780000Y-96860000D02*
X163880000Y-96860000D01*
X165380000Y-101260000D02*
X165380000Y-96860000D01*
X172492936Y-113565000D02*
X172947064Y-113565000D01*
X172492936Y-115035000D02*
X172947064Y-115035000D01*
X160120000Y-80906252D02*
X160120000Y-80383748D01*
X158650000Y-80906252D02*
X158650000Y-80383748D01*
X128805000Y-86098748D02*
X128805000Y-86621252D01*
X130275000Y-86098748D02*
X130275000Y-86621252D01*
X144045000Y-114072936D02*
X144045000Y-114527064D01*
X145515000Y-114072936D02*
X145515000Y-114527064D01*
X151255000Y-94468733D02*
X151255000Y-94761267D01*
X152275000Y-94468733D02*
X152275000Y-94761267D01*
%LPC*%
D14*
X124460000Y-100562500D03*
X124460000Y-102637500D03*
D15*
X146277500Y-86360000D03*
X144552500Y-86360000D03*
D16*
X160020000Y-113300000D03*
X160020000Y-115300000D03*
D17*
X153035000Y-81507500D03*
X153035000Y-79782500D03*
D18*
X175260000Y-93980000D03*
D19*
X175260000Y-96520000D03*
X175260000Y-99060000D03*
D16*
X149860000Y-99330000D03*
X149860000Y-101330000D03*
D20*
X132715000Y-92440000D03*
X132715000Y-90440000D03*
D21*
X177165000Y-106447500D03*
X177165000Y-104372500D03*
D22*
X158522500Y-90170000D03*
X160247500Y-90170000D03*
D23*
X136160000Y-108910000D03*
X138160000Y-108910000D03*
D24*
X140510000Y-114660000D03*
X133810000Y-114660000D03*
D20*
X168275000Y-111490000D03*
X168275000Y-109490000D03*
D25*
X129540000Y-78740000D03*
D26*
X132080000Y-78740000D03*
X134620000Y-78740000D03*
X137160000Y-78740000D03*
D16*
X152400000Y-99330000D03*
X152400000Y-101330000D03*
X132715000Y-85360000D03*
X132715000Y-87360000D03*
D20*
X167640000Y-99044000D03*
X167640000Y-97044000D03*
D27*
X159750000Y-104140000D03*
X157750000Y-104140000D03*
D25*
X180340000Y-86360000D03*
D26*
X180340000Y-88900000D03*
X180340000Y-91440000D03*
X180340000Y-93980000D03*
X180340000Y-96520000D03*
X180340000Y-99060000D03*
X180340000Y-101600000D03*
X180340000Y-104140000D03*
X180340000Y-106680000D03*
D21*
X168275000Y-106447500D03*
X168275000Y-104372500D03*
D28*
X163995000Y-81745000D03*
X163995000Y-79545000D03*
X162395000Y-79545000D03*
X162395000Y-81745000D03*
D29*
X141240000Y-104140000D03*
X143240000Y-104140000D03*
D25*
X167640000Y-78740000D03*
D26*
X167640000Y-81280000D03*
X170180000Y-78740000D03*
X170180000Y-81280000D03*
X172720000Y-78740000D03*
X172720000Y-81280000D03*
X175260000Y-78740000D03*
X175260000Y-81280000D03*
D14*
X132080000Y-100562500D03*
X132080000Y-102637500D03*
D30*
X164040000Y-90805000D03*
X164040000Y-92075000D03*
X164040000Y-93345000D03*
X164040000Y-94615000D03*
X171240000Y-94615000D03*
X171240000Y-93345000D03*
X171240000Y-92075000D03*
X171240000Y-90805000D03*
D31*
X155837500Y-90230000D03*
X155837500Y-89830000D03*
X155837500Y-89430000D03*
X155837500Y-89030000D03*
X155837500Y-88630000D03*
X155837500Y-88230000D03*
X155837500Y-87830000D03*
X155837500Y-87430000D03*
X155837500Y-87030000D03*
X155837500Y-86630000D03*
X155837500Y-86230000D03*
X155837500Y-85830000D03*
X155837500Y-85430000D03*
X155837500Y-85030000D03*
D32*
X155000000Y-84192500D03*
X154600000Y-84192500D03*
X154200000Y-84192500D03*
X153800000Y-84192500D03*
X153400000Y-84192500D03*
X153000000Y-84192500D03*
X152600000Y-84192500D03*
X152200000Y-84192500D03*
X151800000Y-84192500D03*
X151400000Y-84192500D03*
X151000000Y-84192500D03*
X150600000Y-84192500D03*
X150200000Y-84192500D03*
X149800000Y-84192500D03*
D31*
X148962500Y-85030000D03*
X148962500Y-85430000D03*
X148962500Y-85830000D03*
X148962500Y-86230000D03*
X148962500Y-86630000D03*
X148962500Y-87030000D03*
X148962500Y-87430000D03*
X148962500Y-87830000D03*
X148962500Y-88230000D03*
X148962500Y-88630000D03*
X148962500Y-89030000D03*
X148962500Y-89430000D03*
X148962500Y-89830000D03*
X148962500Y-90230000D03*
D32*
X149800000Y-91067500D03*
X150200000Y-91067500D03*
X150600000Y-91067500D03*
X151000000Y-91067500D03*
X151400000Y-91067500D03*
X151800000Y-91067500D03*
X152200000Y-91067500D03*
X152600000Y-91067500D03*
X153000000Y-91067500D03*
X153400000Y-91067500D03*
X153800000Y-91067500D03*
X154200000Y-91067500D03*
X154600000Y-91067500D03*
X155000000Y-91067500D03*
D33*
X152400000Y-87630000D03*
D34*
X149225000Y-93752500D03*
X149225000Y-95477500D03*
D15*
X146277500Y-90170000D03*
X144552500Y-90170000D03*
D35*
X177165000Y-109240000D03*
X177165000Y-111740000D03*
D34*
X154305000Y-93752500D03*
X154305000Y-95477500D03*
D36*
X124460000Y-78740000D03*
D15*
X146277500Y-83820000D03*
X144552500Y-83820000D03*
D21*
X129540000Y-92477500D03*
X129540000Y-90402500D03*
D29*
X136160000Y-104140000D03*
X138160000Y-104140000D03*
D37*
X173857500Y-106360000D03*
X173857500Y-105410000D03*
X173857500Y-104460000D03*
X171582500Y-104460000D03*
X171582500Y-106360000D03*
D17*
X150495000Y-81507500D03*
X150495000Y-79782500D03*
D38*
X155290000Y-111580000D03*
X149510000Y-111580000D03*
D39*
X149200000Y-110280000D03*
X150000000Y-110280000D03*
D40*
X151150000Y-110280000D03*
X152150000Y-110280000D03*
X152650000Y-110280000D03*
X153650000Y-110280000D03*
D39*
X154800000Y-110280000D03*
X155600000Y-110280000D03*
X155600000Y-110280000D03*
X154800000Y-110280000D03*
D40*
X154150000Y-110280000D03*
X153150000Y-110280000D03*
X151650000Y-110280000D03*
X150650000Y-110280000D03*
D39*
X150000000Y-110280000D03*
X149200000Y-110280000D03*
D41*
X148080000Y-111100000D03*
D42*
X148080000Y-115270000D03*
X156720000Y-115270000D03*
D41*
X156720000Y-111100000D03*
D36*
X180340000Y-78740000D03*
D27*
X164830000Y-104140000D03*
X162830000Y-104140000D03*
D29*
X127270000Y-105410000D03*
X129270000Y-105410000D03*
D43*
X138162500Y-100330000D03*
X136112500Y-100330000D03*
D44*
X169142500Y-87630000D03*
X171217500Y-87630000D03*
D45*
X126730000Y-90900000D03*
X126730000Y-90100000D03*
X126730000Y-89300000D03*
X126730000Y-88500000D03*
X126730000Y-87700000D03*
X126730000Y-86900000D03*
D46*
X125730000Y-86900000D03*
D45*
X124730000Y-86900000D03*
X124730000Y-87700000D03*
X124730000Y-88500000D03*
X124730000Y-89300000D03*
X124730000Y-90100000D03*
X124730000Y-90900000D03*
D46*
X125730000Y-90900000D03*
D47*
X159550000Y-101110000D03*
X159550000Y-97010000D03*
X157950000Y-101110000D03*
X157950000Y-97010000D03*
D27*
X129270000Y-108585000D03*
X127270000Y-108585000D03*
D43*
X143242500Y-100330000D03*
X141192500Y-100330000D03*
D48*
X173657500Y-111440000D03*
X173657500Y-109540000D03*
X171782500Y-110490000D03*
D36*
X180340000Y-114300000D03*
D44*
X162157500Y-84455000D03*
X164232500Y-84455000D03*
D15*
X146277500Y-92710000D03*
X144552500Y-92710000D03*
D16*
X124460000Y-105680000D03*
X124460000Y-107680000D03*
X156210000Y-79645000D03*
X156210000Y-81645000D03*
D49*
X127320000Y-100850000D03*
X127320000Y-101350000D03*
X127320000Y-101850000D03*
X127320000Y-102350000D03*
X129220000Y-102350000D03*
X129220000Y-101850000D03*
X129220000Y-101350000D03*
X129220000Y-100850000D03*
D50*
X128270000Y-101600000D03*
D29*
X127270000Y-97790000D03*
X129270000Y-97790000D03*
D22*
X158522500Y-86614000D03*
X160247500Y-86614000D03*
D36*
X124460000Y-114300000D03*
D47*
X164630000Y-97010000D03*
X164630000Y-101110000D03*
X163030000Y-97010000D03*
X163030000Y-101110000D03*
D29*
X171720000Y-114300000D03*
X173720000Y-114300000D03*
D21*
X159385000Y-81682500D03*
X159385000Y-79607500D03*
D14*
X129540000Y-85322500D03*
X129540000Y-87397500D03*
D16*
X144780000Y-113300000D03*
X144780000Y-115300000D03*
D34*
X151765000Y-93752500D03*
X151765000Y-95477500D03*
M02*
