G04 #@! TF.GenerationSoftware,KiCad,Pcbnew,(6.0.7)*
G04 #@! TF.CreationDate,2022-11-06T18:43:16-05:00*
G04 #@! TF.ProjectId,MDR_Breakout_Board,4d44525f-4272-4656-916b-6f75745f426f,rev?*
G04 #@! TF.SameCoordinates,Original*
G04 #@! TF.FileFunction,Legend,Bot*
G04 #@! TF.FilePolarity,Positive*
%FSLAX46Y46*%
G04 Gerber Fmt 4.6, Leading zero omitted, Abs format (unit mm)*
G04 Created by KiCad (PCBNEW (6.0.7)) date 2022-11-06 18:43:16*
%MOMM*%
%LPD*%
G01*
G04 APERTURE LIST*
%ADD10C,0.152400*%
%ADD11C,7.500000*%
%ADD12R,1.700000X1.700000*%
%ADD13O,1.700000X1.700000*%
%ADD14R,1.800000X1.800000*%
%ADD15C,1.800000*%
%ADD16C,1.600000*%
%ADD17O,1.600000X1.600000*%
%ADD18R,1.600000X1.600000*%
G04 APERTURE END LIST*
D10*
X158639933Y-91732583D02*
X158639933Y-92216393D01*
X158930219Y-91635821D02*
X157914219Y-91974488D01*
X158930219Y-92313155D01*
X158930219Y-92651821D02*
X157914219Y-92651821D01*
X158543171Y-92748583D02*
X158930219Y-93038869D01*
X158252885Y-93038869D02*
X158639933Y-92651821D01*
X158881838Y-93425917D02*
X158930219Y-93522679D01*
X158930219Y-93716202D01*
X158881838Y-93812964D01*
X158785076Y-93861345D01*
X158736695Y-93861345D01*
X158639933Y-93812964D01*
X158591552Y-93716202D01*
X158591552Y-93571060D01*
X158543171Y-93474298D01*
X158446409Y-93425917D01*
X158398028Y-93425917D01*
X158301266Y-93474298D01*
X158252885Y-93571060D01*
X158252885Y-93716202D01*
X158301266Y-93812964D01*
X158930219Y-94296774D02*
X157914219Y-94296774D01*
X158930219Y-94732202D02*
X158398028Y-94732202D01*
X158301266Y-94683821D01*
X158252885Y-94587060D01*
X158252885Y-94441917D01*
X158301266Y-94345155D01*
X158349647Y-94296774D01*
X158930219Y-95651440D02*
X158398028Y-95651440D01*
X158301266Y-95603060D01*
X158252885Y-95506298D01*
X158252885Y-95312774D01*
X158301266Y-95216012D01*
X158881838Y-95651440D02*
X158930219Y-95554679D01*
X158930219Y-95312774D01*
X158881838Y-95216012D01*
X158785076Y-95167631D01*
X158688314Y-95167631D01*
X158591552Y-95216012D01*
X158543171Y-95312774D01*
X158543171Y-95554679D01*
X158494790Y-95651440D01*
X158252885Y-95990107D02*
X158252885Y-96377155D01*
X157914219Y-96135250D02*
X158785076Y-96135250D01*
X158881838Y-96183631D01*
X158930219Y-96280393D01*
X158930219Y-96377155D01*
X158881838Y-97441536D02*
X158930219Y-97586679D01*
X158930219Y-97828583D01*
X158881838Y-97925345D01*
X158833457Y-97973726D01*
X158736695Y-98022107D01*
X158639933Y-98022107D01*
X158543171Y-97973726D01*
X158494790Y-97925345D01*
X158446409Y-97828583D01*
X158398028Y-97635060D01*
X158349647Y-97538298D01*
X158301266Y-97489917D01*
X158204504Y-97441536D01*
X158107742Y-97441536D01*
X158010980Y-97489917D01*
X157962600Y-97538298D01*
X157914219Y-97635060D01*
X157914219Y-97876964D01*
X157962600Y-98022107D01*
X158930219Y-98892964D02*
X158398028Y-98892964D01*
X158301266Y-98844583D01*
X158252885Y-98747821D01*
X158252885Y-98554298D01*
X158301266Y-98457536D01*
X158881838Y-98892964D02*
X158930219Y-98796202D01*
X158930219Y-98554298D01*
X158881838Y-98457536D01*
X158785076Y-98409155D01*
X158688314Y-98409155D01*
X158591552Y-98457536D01*
X158543171Y-98554298D01*
X158543171Y-98796202D01*
X158494790Y-98892964D01*
X158930219Y-99376774D02*
X157914219Y-99376774D01*
X158930219Y-99812202D02*
X158398028Y-99812202D01*
X158301266Y-99763821D01*
X158252885Y-99667060D01*
X158252885Y-99521917D01*
X158301266Y-99425155D01*
X158349647Y-99376774D01*
X158930219Y-100731440D02*
X158398028Y-100731440D01*
X158301266Y-100683060D01*
X158252885Y-100586298D01*
X158252885Y-100392774D01*
X158301266Y-100296012D01*
X158881838Y-100731440D02*
X158930219Y-100634679D01*
X158930219Y-100392774D01*
X158881838Y-100296012D01*
X158785076Y-100247631D01*
X158688314Y-100247631D01*
X158591552Y-100296012D01*
X158543171Y-100392774D01*
X158543171Y-100634679D01*
X158494790Y-100731440D01*
X158252885Y-101118488D02*
X158930219Y-101360393D01*
X158252885Y-101602298D02*
X158930219Y-101360393D01*
X159172123Y-101263631D01*
X159220504Y-101215250D01*
X159268885Y-101118488D01*
X160565979Y-91780964D02*
X159549979Y-91780964D01*
X160275693Y-92119631D01*
X159549979Y-92458298D01*
X160565979Y-92458298D01*
X160565979Y-93377536D02*
X160033788Y-93377536D01*
X159937026Y-93329155D01*
X159888645Y-93232393D01*
X159888645Y-93038869D01*
X159937026Y-92942107D01*
X160517598Y-93377536D02*
X160565979Y-93280774D01*
X160565979Y-93038869D01*
X160517598Y-92942107D01*
X160420836Y-92893726D01*
X160324074Y-92893726D01*
X160227312Y-92942107D01*
X160178931Y-93038869D01*
X160178931Y-93280774D01*
X160130550Y-93377536D01*
X160565979Y-93764583D02*
X159888645Y-94296774D01*
X159888645Y-93764583D02*
X160565979Y-94296774D01*
X160565979Y-95457917D02*
X159549979Y-95457917D01*
X160275693Y-95796583D01*
X159549979Y-96135250D01*
X160565979Y-96135250D01*
X160565979Y-96764202D02*
X160517598Y-96667440D01*
X160469217Y-96619060D01*
X160372455Y-96570679D01*
X160082169Y-96570679D01*
X159985407Y-96619060D01*
X159937026Y-96667440D01*
X159888645Y-96764202D01*
X159888645Y-96909345D01*
X159937026Y-97006107D01*
X159985407Y-97054488D01*
X160082169Y-97102869D01*
X160372455Y-97102869D01*
X160469217Y-97054488D01*
X160517598Y-97006107D01*
X160565979Y-96909345D01*
X160565979Y-96764202D01*
X160565979Y-97538298D02*
X159888645Y-97538298D01*
X160082169Y-97538298D02*
X159985407Y-97586679D01*
X159937026Y-97635060D01*
X159888645Y-97731821D01*
X159888645Y-97828583D01*
X160517598Y-98554298D02*
X160565979Y-98457536D01*
X160565979Y-98264012D01*
X160517598Y-98167250D01*
X160420836Y-98118869D01*
X160033788Y-98118869D01*
X159937026Y-98167250D01*
X159888645Y-98264012D01*
X159888645Y-98457536D01*
X159937026Y-98554298D01*
X160033788Y-98602679D01*
X160130550Y-98602679D01*
X160227312Y-98118869D01*
X160565979Y-99183250D02*
X160517598Y-99086488D01*
X160420836Y-99038107D01*
X159549979Y-99038107D01*
X162201739Y-91780964D02*
X161185739Y-91780964D01*
X161911453Y-92119631D01*
X161185739Y-92458298D01*
X162201739Y-92458298D01*
X162201739Y-93377536D02*
X161669548Y-93377536D01*
X161572786Y-93329155D01*
X161524405Y-93232393D01*
X161524405Y-93038869D01*
X161572786Y-92942107D01*
X162153358Y-93377536D02*
X162201739Y-93280774D01*
X162201739Y-93038869D01*
X162153358Y-92942107D01*
X162056596Y-92893726D01*
X161959834Y-92893726D01*
X161863072Y-92942107D01*
X161814691Y-93038869D01*
X161814691Y-93280774D01*
X161766310Y-93377536D01*
X162201739Y-93861345D02*
X161524405Y-93861345D01*
X161717929Y-93861345D02*
X161621167Y-93909726D01*
X161572786Y-93958107D01*
X161524405Y-94054869D01*
X161524405Y-94151631D01*
X162201739Y-94635440D02*
X162153358Y-94538679D01*
X162056596Y-94490298D01*
X161185739Y-94490298D01*
X162201739Y-95167631D02*
X162153358Y-95070869D01*
X162104977Y-95022488D01*
X162008215Y-94974107D01*
X161717929Y-94974107D01*
X161621167Y-95022488D01*
X161572786Y-95070869D01*
X161524405Y-95167631D01*
X161524405Y-95312774D01*
X161572786Y-95409536D01*
X161621167Y-95457917D01*
X161717929Y-95506298D01*
X162008215Y-95506298D01*
X162104977Y-95457917D01*
X162153358Y-95409536D01*
X162201739Y-95312774D01*
X162201739Y-95167631D01*
X162201739Y-96086869D02*
X162153358Y-95990107D01*
X162104977Y-95941726D01*
X162008215Y-95893345D01*
X161717929Y-95893345D01*
X161621167Y-95941726D01*
X161572786Y-95990107D01*
X161524405Y-96086869D01*
X161524405Y-96232012D01*
X161572786Y-96328774D01*
X161621167Y-96377155D01*
X161717929Y-96425536D01*
X162008215Y-96425536D01*
X162104977Y-96377155D01*
X162153358Y-96328774D01*
X162201739Y-96232012D01*
X162201739Y-96086869D01*
X161524405Y-96860964D02*
X162201739Y-96860964D01*
X161621167Y-96860964D02*
X161572786Y-96909345D01*
X161524405Y-97006107D01*
X161524405Y-97151250D01*
X161572786Y-97248012D01*
X161669548Y-97296393D01*
X162201739Y-97296393D01*
X162201739Y-98554298D02*
X161185739Y-98554298D01*
X161185739Y-98941345D01*
X161234120Y-99038107D01*
X161282500Y-99086488D01*
X161379262Y-99134869D01*
X161524405Y-99134869D01*
X161621167Y-99086488D01*
X161669548Y-99038107D01*
X161717929Y-98941345D01*
X161717929Y-98554298D01*
X162201739Y-100005726D02*
X161669548Y-100005726D01*
X161572786Y-99957345D01*
X161524405Y-99860583D01*
X161524405Y-99667060D01*
X161572786Y-99570298D01*
X162153358Y-100005726D02*
X162201739Y-99908964D01*
X162201739Y-99667060D01*
X162153358Y-99570298D01*
X162056596Y-99521917D01*
X161959834Y-99521917D01*
X161863072Y-99570298D01*
X161814691Y-99667060D01*
X161814691Y-99908964D01*
X161766310Y-100005726D01*
X161524405Y-100924964D02*
X162201739Y-100924964D01*
X161524405Y-100489536D02*
X162056596Y-100489536D01*
X162153358Y-100537917D01*
X162201739Y-100634679D01*
X162201739Y-100779821D01*
X162153358Y-100876583D01*
X162104977Y-100924964D01*
X162201739Y-101553917D02*
X162153358Y-101457155D01*
X162056596Y-101408774D01*
X161185739Y-101408774D01*
X162201739Y-102376393D02*
X161669548Y-102376393D01*
X161572786Y-102328012D01*
X161524405Y-102231250D01*
X161524405Y-102037726D01*
X161572786Y-101940964D01*
X162153358Y-102376393D02*
X162201739Y-102279631D01*
X162201739Y-102037726D01*
X162153358Y-101940964D01*
X162056596Y-101892583D01*
X161959834Y-101892583D01*
X161863072Y-101940964D01*
X161814691Y-102037726D01*
X161814691Y-102279631D01*
X161766310Y-102376393D01*
X161234120Y-104166488D02*
X161185739Y-104069726D01*
X161185739Y-103924583D01*
X161234120Y-103779440D01*
X161330881Y-103682679D01*
X161427643Y-103634298D01*
X161621167Y-103585917D01*
X161766310Y-103585917D01*
X161959834Y-103634298D01*
X162056596Y-103682679D01*
X162153358Y-103779440D01*
X162201739Y-103924583D01*
X162201739Y-104021345D01*
X162153358Y-104166488D01*
X162104977Y-104214869D01*
X161766310Y-104214869D01*
X161766310Y-104021345D01*
X162201739Y-104795440D02*
X162153358Y-104698679D01*
X162104977Y-104650298D01*
X162008215Y-104601917D01*
X161717929Y-104601917D01*
X161621167Y-104650298D01*
X161572786Y-104698679D01*
X161524405Y-104795440D01*
X161524405Y-104940583D01*
X161572786Y-105037345D01*
X161621167Y-105085726D01*
X161717929Y-105134107D01*
X162008215Y-105134107D01*
X162104977Y-105085726D01*
X162153358Y-105037345D01*
X162201739Y-104940583D01*
X162201739Y-104795440D01*
X161524405Y-105569536D02*
X162201739Y-105569536D01*
X161621167Y-105569536D02*
X161572786Y-105617917D01*
X161524405Y-105714679D01*
X161524405Y-105859821D01*
X161572786Y-105956583D01*
X161669548Y-106004964D01*
X162201739Y-106004964D01*
X161524405Y-106392012D02*
X161524405Y-106924202D01*
X162201739Y-106392012D01*
X162201739Y-106924202D01*
X162201739Y-107746679D02*
X161669548Y-107746679D01*
X161572786Y-107698298D01*
X161524405Y-107601536D01*
X161524405Y-107408012D01*
X161572786Y-107311250D01*
X162153358Y-107746679D02*
X162201739Y-107649917D01*
X162201739Y-107408012D01*
X162153358Y-107311250D01*
X162056596Y-107262869D01*
X161959834Y-107262869D01*
X161863072Y-107311250D01*
X161814691Y-107408012D01*
X161814691Y-107649917D01*
X161766310Y-107746679D01*
X162201739Y-108375631D02*
X162153358Y-108278869D01*
X162056596Y-108230488D01*
X161185739Y-108230488D01*
X162153358Y-109149726D02*
X162201739Y-109052964D01*
X162201739Y-108859440D01*
X162153358Y-108762679D01*
X162056596Y-108714298D01*
X161669548Y-108714298D01*
X161572786Y-108762679D01*
X161524405Y-108859440D01*
X161524405Y-109052964D01*
X161572786Y-109149726D01*
X161669548Y-109198107D01*
X161766310Y-109198107D01*
X161863072Y-108714298D01*
X161524405Y-109536774D02*
X161524405Y-110068964D01*
X162201739Y-109536774D01*
X162201739Y-110068964D01*
X163837499Y-92361536D02*
X163353689Y-92022869D01*
X163837499Y-91780964D02*
X162821499Y-91780964D01*
X162821499Y-92168012D01*
X162869880Y-92264774D01*
X162918260Y-92313155D01*
X163015022Y-92361536D01*
X163160165Y-92361536D01*
X163256927Y-92313155D01*
X163305308Y-92264774D01*
X163353689Y-92168012D01*
X163353689Y-91780964D01*
X163160165Y-93232393D02*
X163837499Y-93232393D01*
X163160165Y-92796964D02*
X163692356Y-92796964D01*
X163789118Y-92845345D01*
X163837499Y-92942107D01*
X163837499Y-93087250D01*
X163789118Y-93184012D01*
X163740737Y-93232393D01*
X163789118Y-94151631D02*
X163837499Y-94054869D01*
X163837499Y-93861345D01*
X163789118Y-93764583D01*
X163740737Y-93716202D01*
X163643975Y-93667821D01*
X163353689Y-93667821D01*
X163256927Y-93716202D01*
X163208546Y-93764583D01*
X163160165Y-93861345D01*
X163160165Y-94054869D01*
X163208546Y-94151631D01*
X163837499Y-94587060D02*
X162821499Y-94587060D01*
X163837499Y-95022488D02*
X163305308Y-95022488D01*
X163208546Y-94974107D01*
X163160165Y-94877345D01*
X163160165Y-94732202D01*
X163208546Y-94635440D01*
X163256927Y-94587060D01*
X163837499Y-95506298D02*
X163160165Y-95506298D01*
X162821499Y-95506298D02*
X162869880Y-95457917D01*
X162918260Y-95506298D01*
X162869880Y-95554679D01*
X162821499Y-95506298D01*
X162918260Y-95506298D01*
X163160165Y-95844964D02*
X163160165Y-96232012D01*
X162821499Y-95990107D02*
X163692356Y-95990107D01*
X163789118Y-96038488D01*
X163837499Y-96135250D01*
X163837499Y-96232012D01*
X163837499Y-97344774D02*
X162821499Y-97344774D01*
X162821499Y-97731821D01*
X162869880Y-97828583D01*
X162918260Y-97876964D01*
X163015022Y-97925345D01*
X163160165Y-97925345D01*
X163256927Y-97876964D01*
X163305308Y-97828583D01*
X163353689Y-97731821D01*
X163353689Y-97344774D01*
X163837499Y-98796202D02*
X163305308Y-98796202D01*
X163208546Y-98747821D01*
X163160165Y-98651060D01*
X163160165Y-98457536D01*
X163208546Y-98360774D01*
X163789118Y-98796202D02*
X163837499Y-98699440D01*
X163837499Y-98457536D01*
X163789118Y-98360774D01*
X163692356Y-98312393D01*
X163595594Y-98312393D01*
X163498832Y-98360774D01*
X163450451Y-98457536D01*
X163450451Y-98699440D01*
X163402070Y-98796202D01*
X163160165Y-99134869D02*
X163160165Y-99521917D01*
X162821499Y-99280012D02*
X163692356Y-99280012D01*
X163789118Y-99328393D01*
X163837499Y-99425155D01*
X163837499Y-99521917D01*
X163789118Y-100247631D02*
X163837499Y-100150869D01*
X163837499Y-99957345D01*
X163789118Y-99860583D01*
X163692356Y-99812202D01*
X163305308Y-99812202D01*
X163208546Y-99860583D01*
X163160165Y-99957345D01*
X163160165Y-100150869D01*
X163208546Y-100247631D01*
X163305308Y-100296012D01*
X163402070Y-100296012D01*
X163498832Y-99812202D01*
X163837499Y-100876583D02*
X163789118Y-100779821D01*
X163692356Y-100731440D01*
X162821499Y-100731440D01*
X166093019Y-92071250D02*
X166818733Y-92071250D01*
X166963876Y-92022869D01*
X167060638Y-91926107D01*
X167109019Y-91780964D01*
X167109019Y-91684202D01*
X167109019Y-93038869D02*
X167109019Y-92555060D01*
X166093019Y-92555060D01*
X167012257Y-93958107D02*
X167060638Y-93909726D01*
X167109019Y-93764583D01*
X167109019Y-93667821D01*
X167060638Y-93522679D01*
X166963876Y-93425917D01*
X166867114Y-93377536D01*
X166673590Y-93329155D01*
X166528447Y-93329155D01*
X166334923Y-93377536D01*
X166238161Y-93425917D01*
X166141400Y-93522679D01*
X166093019Y-93667821D01*
X166093019Y-93764583D01*
X166141400Y-93909726D01*
X166189780Y-93958107D01*
X166093019Y-94683821D02*
X166818733Y-94683821D01*
X166963876Y-94635440D01*
X167060638Y-94538679D01*
X167109019Y-94393536D01*
X167109019Y-94296774D01*
X167109019Y-95651440D02*
X167109019Y-95167631D01*
X166093019Y-95167631D01*
X167012257Y-96570679D02*
X167060638Y-96522298D01*
X167109019Y-96377155D01*
X167109019Y-96280393D01*
X167060638Y-96135250D01*
X166963876Y-96038488D01*
X166867114Y-95990107D01*
X166673590Y-95941726D01*
X166528447Y-95941726D01*
X166334923Y-95990107D01*
X166238161Y-96038488D01*
X166141400Y-96135250D01*
X166093019Y-96280393D01*
X166093019Y-96377155D01*
X166141400Y-96522298D01*
X166189780Y-96570679D01*
X166093019Y-97296393D02*
X166818733Y-97296393D01*
X166963876Y-97248012D01*
X167060638Y-97151250D01*
X167109019Y-97006107D01*
X167109019Y-96909345D01*
X167109019Y-98264012D02*
X167109019Y-97780202D01*
X166093019Y-97780202D01*
X167012257Y-99183250D02*
X167060638Y-99134869D01*
X167109019Y-98989726D01*
X167109019Y-98892964D01*
X167060638Y-98747821D01*
X166963876Y-98651060D01*
X166867114Y-98602679D01*
X166673590Y-98554298D01*
X166528447Y-98554298D01*
X166334923Y-98602679D01*
X166238161Y-98651060D01*
X166141400Y-98747821D01*
X166093019Y-98892964D01*
X166093019Y-98989726D01*
X166141400Y-99134869D01*
X166189780Y-99183250D01*
X166093019Y-99908964D02*
X166818733Y-99908964D01*
X166963876Y-99860583D01*
X167060638Y-99763821D01*
X167109019Y-99618679D01*
X167109019Y-99521917D01*
X167109019Y-100876583D02*
X167109019Y-100392774D01*
X166093019Y-100392774D01*
X167012257Y-101795821D02*
X167060638Y-101747440D01*
X167109019Y-101602298D01*
X167109019Y-101505536D01*
X167060638Y-101360393D01*
X166963876Y-101263631D01*
X166867114Y-101215250D01*
X166673590Y-101166869D01*
X166528447Y-101166869D01*
X166334923Y-101215250D01*
X166238161Y-101263631D01*
X166141400Y-101360393D01*
X166093019Y-101505536D01*
X166093019Y-101602298D01*
X166141400Y-101747440D01*
X166189780Y-101795821D01*
%LPC*%
D11*
X142240000Y-63500000D03*
D12*
X185420000Y-98940000D03*
D13*
X185420000Y-101480000D03*
X185420000Y-104020000D03*
X185420000Y-106560000D03*
X185420000Y-109100000D03*
X185420000Y-111640000D03*
D12*
X139700000Y-86240000D03*
D13*
X139700000Y-83700000D03*
X139700000Y-81160000D03*
X139700000Y-78620000D03*
X139700000Y-76080000D03*
X139700000Y-73540000D03*
X139700000Y-71000000D03*
D11*
X182880000Y-142240000D03*
X142240000Y-142240000D03*
D12*
X139700000Y-116720000D03*
D13*
X139700000Y-114180000D03*
X139700000Y-111640000D03*
X139700000Y-109100000D03*
X139700000Y-106560000D03*
X139700000Y-104020000D03*
X139700000Y-101480000D03*
X139700000Y-98940000D03*
D12*
X160020000Y-123190000D03*
D13*
X162560000Y-123190000D03*
X165100000Y-123190000D03*
X167640000Y-123190000D03*
X170180000Y-123190000D03*
X172720000Y-123190000D03*
D14*
X182880000Y-124340000D03*
D15*
X182880000Y-121800000D03*
D12*
X162560000Y-135890000D03*
D13*
X165100000Y-135890000D03*
X167640000Y-135890000D03*
X170180000Y-135890000D03*
D16*
X175260000Y-143510000D03*
D17*
X175260000Y-130810000D03*
D12*
X185420000Y-71000000D03*
D13*
X185420000Y-73540000D03*
X185420000Y-76080000D03*
X185420000Y-78620000D03*
X185420000Y-81160000D03*
X185420000Y-83700000D03*
X185420000Y-86240000D03*
D11*
X182880000Y-63500000D03*
D12*
X162560000Y-141090000D03*
D13*
X162560000Y-143630000D03*
X165100000Y-141090000D03*
X165100000Y-143630000D03*
X167640000Y-141090000D03*
X167640000Y-143630000D03*
X170180000Y-141090000D03*
X170180000Y-143630000D03*
D18*
X152400000Y-73540000D03*
D16*
X152400000Y-76080000D03*
X152400000Y-78620000D03*
X152400000Y-81160000D03*
X152400000Y-83700000D03*
X152400000Y-86240000D03*
X152400000Y-88780000D03*
X152400000Y-91320000D03*
X152400000Y-93860000D03*
X152400000Y-96400000D03*
X152400000Y-98940000D03*
X152400000Y-101480000D03*
X152400000Y-104020000D03*
X152400000Y-106560000D03*
X152400000Y-109100000D03*
X152400000Y-111640000D03*
X172720000Y-111640000D03*
X172720000Y-109100000D03*
X172720000Y-106560000D03*
X172720000Y-104020000D03*
X172720000Y-101480000D03*
X172720000Y-98940000D03*
X172720000Y-96400000D03*
X172720000Y-93860000D03*
X172720000Y-91320000D03*
X172720000Y-88780000D03*
X172720000Y-86240000D03*
X172720000Y-83700000D03*
M02*
