G04 #@! TF.GenerationSoftware,KiCad,Pcbnew,(6.0.7)*
G04 #@! TF.CreationDate,2022-11-06T18:43:15-05:00*
G04 #@! TF.ProjectId,MDR_Breakout_Board,4d44525f-4272-4656-916b-6f75745f426f,rev?*
G04 #@! TF.SameCoordinates,Original*
G04 #@! TF.FileFunction,Copper,L2,Bot*
G04 #@! TF.FilePolarity,Positive*
%FSLAX46Y46*%
G04 Gerber Fmt 4.6, Leading zero omitted, Abs format (unit mm)*
G04 Created by KiCad (PCBNEW (6.0.7)) date 2022-11-06 18:43:15*
%MOMM*%
%LPD*%
G01*
G04 APERTURE LIST*
G04 #@! TA.AperFunction,ComponentPad*
%ADD10C,7.500000*%
G04 #@! TD*
G04 #@! TA.AperFunction,ComponentPad*
%ADD11R,1.700000X1.700000*%
G04 #@! TD*
G04 #@! TA.AperFunction,ComponentPad*
%ADD12O,1.700000X1.700000*%
G04 #@! TD*
G04 #@! TA.AperFunction,ComponentPad*
%ADD13R,1.800000X1.800000*%
G04 #@! TD*
G04 #@! TA.AperFunction,ComponentPad*
%ADD14C,1.800000*%
G04 #@! TD*
G04 #@! TA.AperFunction,ComponentPad*
%ADD15C,1.600000*%
G04 #@! TD*
G04 #@! TA.AperFunction,ComponentPad*
%ADD16O,1.600000X1.600000*%
G04 #@! TD*
G04 #@! TA.AperFunction,ComponentPad*
%ADD17R,1.600000X1.600000*%
G04 #@! TD*
G04 #@! TA.AperFunction,ViaPad*
%ADD18C,0.800000*%
G04 #@! TD*
G04 #@! TA.AperFunction,Conductor*
%ADD19C,1.270000*%
G04 #@! TD*
G04 #@! TA.AperFunction,Conductor*
%ADD20C,0.254000*%
G04 #@! TD*
G04 APERTURE END LIST*
D10*
X142240000Y-63500000D03*
D11*
X185420000Y-98940000D03*
D12*
X185420000Y-101480000D03*
X185420000Y-104020000D03*
X185420000Y-106560000D03*
X185420000Y-109100000D03*
X185420000Y-111640000D03*
D11*
X139700000Y-86240000D03*
D12*
X139700000Y-83700000D03*
X139700000Y-81160000D03*
X139700000Y-78620000D03*
X139700000Y-76080000D03*
X139700000Y-73540000D03*
X139700000Y-71000000D03*
D10*
X182880000Y-142240000D03*
X142240000Y-142240000D03*
D11*
X139700000Y-116720000D03*
D12*
X139700000Y-114180000D03*
X139700000Y-111640000D03*
X139700000Y-109100000D03*
X139700000Y-106560000D03*
X139700000Y-104020000D03*
X139700000Y-101480000D03*
X139700000Y-98940000D03*
D11*
X160020000Y-123190000D03*
D12*
X162560000Y-123190000D03*
X165100000Y-123190000D03*
X167640000Y-123190000D03*
X170180000Y-123190000D03*
X172720000Y-123190000D03*
D13*
X182880000Y-124340000D03*
D14*
X182880000Y-121800000D03*
D11*
X162560000Y-135890000D03*
D12*
X165100000Y-135890000D03*
X167640000Y-135890000D03*
X170180000Y-135890000D03*
D15*
X175260000Y-143510000D03*
D16*
X175260000Y-130810000D03*
D11*
X185420000Y-71000000D03*
D12*
X185420000Y-73540000D03*
X185420000Y-76080000D03*
X185420000Y-78620000D03*
X185420000Y-81160000D03*
X185420000Y-83700000D03*
X185420000Y-86240000D03*
D10*
X182880000Y-63500000D03*
D11*
X162560000Y-141090000D03*
D12*
X162560000Y-143630000D03*
X165100000Y-141090000D03*
X165100000Y-143630000D03*
X167640000Y-141090000D03*
X167640000Y-143630000D03*
X170180000Y-141090000D03*
X170180000Y-143630000D03*
D17*
X152400000Y-73540000D03*
D15*
X152400000Y-76080000D03*
X152400000Y-78620000D03*
X152400000Y-81160000D03*
X152400000Y-83700000D03*
X152400000Y-86240000D03*
X152400000Y-88780000D03*
X152400000Y-91320000D03*
X152400000Y-93860000D03*
X152400000Y-96400000D03*
X152400000Y-98940000D03*
X152400000Y-101480000D03*
X152400000Y-104020000D03*
X152400000Y-106560000D03*
X152400000Y-109100000D03*
X152400000Y-111640000D03*
X172720000Y-111640000D03*
X172720000Y-109100000D03*
X172720000Y-106560000D03*
X172720000Y-104020000D03*
X172720000Y-101480000D03*
X172720000Y-98940000D03*
X172720000Y-96400000D03*
X172720000Y-93860000D03*
X172720000Y-91320000D03*
X172720000Y-88780000D03*
X172720000Y-86240000D03*
X172720000Y-83700000D03*
D18*
X154940000Y-84335000D03*
X159385000Y-92590000D03*
X147320000Y-71120000D03*
X154940000Y-116840000D03*
X139700000Y-121920000D03*
X144780000Y-68580000D03*
X175260000Y-99060000D03*
X175260000Y-88900000D03*
X149860000Y-73660000D03*
X167640000Y-127000000D03*
X157480000Y-139700000D03*
X154940000Y-129540000D03*
X142240000Y-101600000D03*
X162560000Y-88900000D03*
X175260000Y-96520000D03*
X142240000Y-93980000D03*
X177800000Y-101600000D03*
X149860000Y-142240000D03*
X144780000Y-71120000D03*
X165100000Y-127000000D03*
X157480000Y-109220000D03*
X165100000Y-86360000D03*
X142240000Y-121920000D03*
X162560000Y-114300000D03*
X162560000Y-81280000D03*
X152400000Y-142240000D03*
X144780000Y-91440000D03*
X157480000Y-114300000D03*
X160020000Y-81280000D03*
X157480000Y-83820000D03*
X157480000Y-134620000D03*
X144780000Y-104140000D03*
X182880000Y-104140000D03*
X157480000Y-132080000D03*
X144780000Y-99060000D03*
X139700000Y-124460000D03*
X154940000Y-137160000D03*
X177800000Y-99060000D03*
X165100000Y-83820000D03*
X157480000Y-116840000D03*
X160020000Y-143510000D03*
X170180000Y-127000000D03*
X147320000Y-73660000D03*
X154940000Y-127000000D03*
X144780000Y-124460000D03*
X177800000Y-116840000D03*
X149860000Y-137160000D03*
X160020000Y-86360000D03*
X177800000Y-93980000D03*
X157480000Y-81280000D03*
X180340000Y-104140000D03*
X142240000Y-91440000D03*
X149860000Y-139700000D03*
X165100000Y-116840000D03*
X165100000Y-81280000D03*
X160020000Y-127000000D03*
X157480000Y-111760000D03*
X170180000Y-129540000D03*
X160020000Y-78740000D03*
X157480000Y-137160000D03*
X157480000Y-88900000D03*
X157480000Y-86360000D03*
X162560000Y-109220000D03*
X149860000Y-71120000D03*
X177800000Y-119380000D03*
X165100000Y-129540000D03*
X160020000Y-88900000D03*
X147320000Y-68580000D03*
X162560000Y-78740000D03*
X175260000Y-114300000D03*
X160020000Y-129540000D03*
X160020000Y-83820000D03*
X142240000Y-96520000D03*
X152400000Y-137160000D03*
X160020000Y-111760000D03*
X144780000Y-93980000D03*
X162560000Y-83820000D03*
X175260000Y-83820000D03*
X149860000Y-68580000D03*
X180340000Y-114300000D03*
X175260000Y-86360000D03*
X160020000Y-114300000D03*
X157480000Y-106680000D03*
X162560000Y-116840000D03*
X182880000Y-76200000D03*
X154940000Y-114300000D03*
X154940000Y-139700000D03*
X142240000Y-88900000D03*
X177800000Y-114300000D03*
X167640000Y-129540000D03*
X157480000Y-78740000D03*
X160020000Y-109220000D03*
X180340000Y-116840000D03*
X142240000Y-119380000D03*
X172720000Y-143510000D03*
X175260000Y-93980000D03*
X175260000Y-116840000D03*
X177800000Y-96520000D03*
X162560000Y-86360000D03*
X165100000Y-114300000D03*
X180340000Y-99060000D03*
X144780000Y-96520000D03*
X157480000Y-127000000D03*
X142240000Y-83820000D03*
X180340000Y-101600000D03*
X152400000Y-139700000D03*
X160020000Y-106680000D03*
X165100000Y-78740000D03*
X157480000Y-129540000D03*
X162560000Y-129540000D03*
X175260000Y-119380000D03*
X144780000Y-101600000D03*
X162560000Y-127000000D03*
X144780000Y-88900000D03*
X160020000Y-116840000D03*
X142240000Y-124460000D03*
D19*
X152400000Y-76080000D02*
X180220000Y-76080000D01*
D20*
X161411866Y-111640000D02*
X154940000Y-105168134D01*
X172720000Y-111640000D02*
X161411866Y-111640000D01*
X172720000Y-111640000D02*
X172600000Y-111760000D01*
X154940000Y-105168134D02*
X154940000Y-84335000D01*
X172720000Y-109100000D02*
X171450000Y-109100000D01*
X159385000Y-97035000D02*
X159385000Y-92590000D01*
X166370000Y-104020000D02*
X159385000Y-97035000D01*
X171450000Y-109100000D02*
X166370000Y-104020000D01*
X182880000Y-109100000D02*
X182880000Y-121800000D01*
X172720000Y-101480000D02*
X175260000Y-101480000D01*
X175260000Y-101480000D02*
X182880000Y-109100000D01*
D19*
X180340000Y-76200000D02*
X180340000Y-73660000D01*
X180340000Y-76200000D02*
X180340000Y-97035000D01*
X139700000Y-106560000D02*
X146685000Y-106560000D01*
X146685000Y-83700000D02*
X146685000Y-78620000D01*
X149225000Y-76080000D02*
X152400000Y-76080000D01*
X183000000Y-71000000D02*
X185420000Y-71000000D01*
X146685000Y-85605000D02*
X146685000Y-86240000D01*
X148590000Y-123190000D02*
X160020000Y-123190000D01*
X146685000Y-78620000D02*
X149225000Y-76080000D01*
X146685000Y-105925000D02*
X146685000Y-106560000D01*
X180340000Y-97035000D02*
X182245000Y-98940000D01*
X146685000Y-83700000D02*
X146685000Y-85605000D01*
X146685000Y-121285000D02*
X148590000Y-123190000D01*
X180220000Y-76080000D02*
X180340000Y-76200000D01*
X182245000Y-98940000D02*
X185420000Y-98940000D01*
X146685000Y-103385000D02*
X146685000Y-105925000D01*
X139700000Y-86240000D02*
X146685000Y-86240000D01*
X146685000Y-86240000D02*
X146685000Y-103385000D01*
X180340000Y-73660000D02*
X183000000Y-71000000D01*
X146685000Y-106560000D02*
X146685000Y-121285000D01*
G04 #@! TA.AperFunction,Conductor*
G36*
X149665304Y-58948502D02*
G01*
X149686278Y-58965405D01*
X154530177Y-63809304D01*
X154537800Y-63818844D01*
X154538168Y-63818530D01*
X154543986Y-63825366D01*
X154548776Y-63832958D01*
X154555504Y-63838900D01*
X154589125Y-63868593D01*
X154594812Y-63873939D01*
X154606255Y-63885382D01*
X154613020Y-63890452D01*
X154614630Y-63891659D01*
X154622459Y-63898033D01*
X154657951Y-63929378D01*
X154666074Y-63933192D01*
X154668562Y-63934826D01*
X154683523Y-63943814D01*
X154686108Y-63945229D01*
X154693295Y-63950616D01*
X154737642Y-63967241D01*
X154746958Y-63971167D01*
X154789800Y-63991281D01*
X154798669Y-63992662D01*
X154801502Y-63993528D01*
X154818389Y-63997958D01*
X154821274Y-63998592D01*
X154829684Y-64001745D01*
X154858842Y-64003912D01*
X154876906Y-64005254D01*
X154886952Y-64006408D01*
X154895575Y-64007751D01*
X154895578Y-64007751D01*
X154900386Y-64008500D01*
X154915906Y-64008500D01*
X154925243Y-64008846D01*
X154974941Y-64012539D01*
X154983720Y-64010665D01*
X154991978Y-64010102D01*
X155007161Y-64008500D01*
X170108928Y-64008500D01*
X170121058Y-64009855D01*
X170121097Y-64009373D01*
X170130044Y-64010093D01*
X170138800Y-64012074D01*
X170192508Y-64008742D01*
X170200310Y-64008500D01*
X170216513Y-64008500D01*
X170225429Y-64007223D01*
X170226878Y-64007016D01*
X170236928Y-64005987D01*
X170275216Y-64003611D01*
X170284177Y-64003055D01*
X170292623Y-64000006D01*
X170295514Y-63999407D01*
X170312480Y-63995178D01*
X170315305Y-63994352D01*
X170324187Y-63993080D01*
X170367298Y-63973478D01*
X170376649Y-63969672D01*
X170412735Y-63956645D01*
X170421181Y-63953596D01*
X170428429Y-63948301D01*
X170431027Y-63946920D01*
X170446145Y-63938085D01*
X170448614Y-63936506D01*
X170456782Y-63932792D01*
X170492653Y-63901884D01*
X170500569Y-63895599D01*
X170507615Y-63890452D01*
X170507620Y-63890447D01*
X170511552Y-63887575D01*
X170522527Y-63876600D01*
X170529375Y-63870242D01*
X170560323Y-63843576D01*
X170560324Y-63843575D01*
X170567127Y-63837713D01*
X170572011Y-63830178D01*
X170577458Y-63823934D01*
X170587058Y-63812069D01*
X171033041Y-63366086D01*
X178618775Y-63366086D01*
X178625084Y-63767697D01*
X178669160Y-64166932D01*
X178750611Y-64560247D01*
X178868716Y-64944151D01*
X179022425Y-65315237D01*
X179210374Y-65670211D01*
X179211999Y-65672685D01*
X179212005Y-65672695D01*
X179423199Y-65994207D01*
X179430894Y-66005922D01*
X179682030Y-66319390D01*
X179684094Y-66321520D01*
X179684102Y-66321529D01*
X179893220Y-66537321D01*
X179961550Y-66607833D01*
X180266976Y-66868691D01*
X180595594Y-67099648D01*
X180771952Y-67200241D01*
X180941913Y-67297185D01*
X180941918Y-67297188D01*
X180944489Y-67298654D01*
X181310564Y-67463943D01*
X181690569Y-67594048D01*
X181693443Y-67594738D01*
X181693450Y-67594740D01*
X182078253Y-67687123D01*
X182078257Y-67687124D01*
X182081132Y-67687814D01*
X182084065Y-67688231D01*
X182084068Y-67688232D01*
X182215313Y-67706911D01*
X182478785Y-67744408D01*
X182880000Y-67763329D01*
X183281215Y-67744408D01*
X183544687Y-67706911D01*
X183675932Y-67688232D01*
X183675935Y-67688231D01*
X183678868Y-67687814D01*
X183681743Y-67687124D01*
X183681747Y-67687123D01*
X184066550Y-67594740D01*
X184066557Y-67594738D01*
X184069431Y-67594048D01*
X184449436Y-67463943D01*
X184815511Y-67298654D01*
X184818082Y-67297188D01*
X184818087Y-67297185D01*
X184988048Y-67200241D01*
X185164406Y-67099648D01*
X185493024Y-66868691D01*
X185798450Y-66607833D01*
X185866780Y-66537321D01*
X186075898Y-66321529D01*
X186075906Y-66321520D01*
X186077970Y-66319390D01*
X186329106Y-66005922D01*
X186336801Y-65994207D01*
X186547995Y-65672695D01*
X186548001Y-65672685D01*
X186549626Y-65670211D01*
X186737575Y-65315237D01*
X186891284Y-64944151D01*
X187009389Y-64560247D01*
X187090840Y-64166932D01*
X187108154Y-64010102D01*
X187134645Y-63770153D01*
X187134645Y-63770149D01*
X187134916Y-63767697D01*
X187134993Y-63765244D01*
X187134994Y-63765231D01*
X187143251Y-63502468D01*
X187143329Y-63500000D01*
X187124408Y-63098785D01*
X187067814Y-62701132D01*
X186974048Y-62310569D01*
X186843943Y-61930564D01*
X186678654Y-61564489D01*
X186609695Y-61443590D01*
X186481113Y-61218163D01*
X186479648Y-61215594D01*
X186248691Y-60886976D01*
X185987833Y-60581550D01*
X185886530Y-60483381D01*
X185701529Y-60304102D01*
X185701520Y-60304094D01*
X185699390Y-60302030D01*
X185385922Y-60050894D01*
X185374207Y-60043199D01*
X185052695Y-59832005D01*
X185052685Y-59831999D01*
X185050211Y-59830374D01*
X184695237Y-59642425D01*
X184324151Y-59488716D01*
X183940247Y-59370611D01*
X183937344Y-59370010D01*
X183937337Y-59370008D01*
X183549851Y-59289764D01*
X183549841Y-59289762D01*
X183546932Y-59289160D01*
X183147697Y-59245084D01*
X183144716Y-59245037D01*
X183144713Y-59245037D01*
X183032454Y-59243274D01*
X182746086Y-59238775D01*
X182743142Y-59239007D01*
X182743132Y-59239007D01*
X182358775Y-59269257D01*
X182345663Y-59270289D01*
X181949984Y-59339346D01*
X181947117Y-59340130D01*
X181947105Y-59340133D01*
X181565423Y-59444549D01*
X181565413Y-59444552D01*
X181562559Y-59445333D01*
X181559795Y-59446377D01*
X181559784Y-59446381D01*
X181189601Y-59586262D01*
X181186828Y-59587310D01*
X180826126Y-59764016D01*
X180823591Y-59765569D01*
X180823590Y-59765570D01*
X180715178Y-59832005D01*
X180483654Y-59973883D01*
X180162452Y-60215049D01*
X179865371Y-60485371D01*
X179595049Y-60782452D01*
X179353883Y-61103654D01*
X179144016Y-61446126D01*
X179142704Y-61448805D01*
X179142703Y-61448806D01*
X179086031Y-61564489D01*
X178967310Y-61806828D01*
X178966263Y-61809598D01*
X178966262Y-61809601D01*
X178826381Y-62179784D01*
X178826377Y-62179795D01*
X178825333Y-62182559D01*
X178824552Y-62185413D01*
X178824549Y-62185423D01*
X178720133Y-62567105D01*
X178720130Y-62567117D01*
X178719346Y-62569984D01*
X178650289Y-62965663D01*
X178650057Y-62968611D01*
X178640044Y-63095843D01*
X178618775Y-63366086D01*
X171033041Y-63366086D01*
X175433722Y-58965405D01*
X175496034Y-58931379D01*
X175522817Y-58928500D01*
X185157183Y-58928500D01*
X185225304Y-58948502D01*
X185246278Y-58965405D01*
X187414595Y-61133723D01*
X187448621Y-61196035D01*
X187451500Y-61222818D01*
X187451500Y-144517182D01*
X187431498Y-144585303D01*
X187414595Y-144606277D01*
X185246278Y-146774595D01*
X185183966Y-146808620D01*
X185157183Y-146811500D01*
X139962818Y-146811500D01*
X139894697Y-146791498D01*
X139873723Y-146774595D01*
X137705405Y-144606278D01*
X137671380Y-144543966D01*
X137668500Y-144517183D01*
X137668500Y-142106086D01*
X137978775Y-142106086D01*
X137981957Y-142308642D01*
X137984846Y-142492520D01*
X137985084Y-142507697D01*
X138029160Y-142906932D01*
X138029762Y-142909841D01*
X138029764Y-142909851D01*
X138105732Y-143276688D01*
X138110611Y-143300247D01*
X138111484Y-143303083D01*
X138111484Y-143303085D01*
X138132872Y-143372607D01*
X138228716Y-143684151D01*
X138382425Y-144055237D01*
X138570374Y-144410211D01*
X138571999Y-144412685D01*
X138572005Y-144412695D01*
X138699165Y-144606278D01*
X138790894Y-144745922D01*
X138914487Y-144900191D01*
X139039941Y-145056782D01*
X139042030Y-145059390D01*
X139044094Y-145061520D01*
X139044102Y-145061529D01*
X139158778Y-145179865D01*
X139321550Y-145347833D01*
X139626976Y-145608691D01*
X139955594Y-145839648D01*
X140131952Y-145940241D01*
X140301913Y-146037185D01*
X140301918Y-146037188D01*
X140304489Y-146038654D01*
X140670564Y-146203943D01*
X141050569Y-146334048D01*
X141053443Y-146334738D01*
X141053450Y-146334740D01*
X141438253Y-146427123D01*
X141438257Y-146427124D01*
X141441132Y-146427814D01*
X141444065Y-146428231D01*
X141444068Y-146428232D01*
X141575313Y-146446911D01*
X141838785Y-146484408D01*
X142240000Y-146503329D01*
X142641215Y-146484408D01*
X142904687Y-146446911D01*
X143035932Y-146428232D01*
X143035935Y-146428231D01*
X143038868Y-146427814D01*
X143041743Y-146427124D01*
X143041747Y-146427123D01*
X143426550Y-146334740D01*
X143426557Y-146334738D01*
X143429431Y-146334048D01*
X143809436Y-146203943D01*
X144175511Y-146038654D01*
X144178082Y-146037188D01*
X144178087Y-146037185D01*
X144348048Y-145940241D01*
X144524406Y-145839648D01*
X144853024Y-145608691D01*
X145158450Y-145347833D01*
X145321222Y-145179865D01*
X145435898Y-145061529D01*
X145435906Y-145061520D01*
X145437970Y-145059390D01*
X145440060Y-145056782D01*
X145565513Y-144900191D01*
X145689106Y-144745922D01*
X145780835Y-144606278D01*
X145907995Y-144412695D01*
X145908001Y-144412685D01*
X145909626Y-144410211D01*
X146097575Y-144055237D01*
X146162719Y-143897966D01*
X161228257Y-143897966D01*
X161258565Y-144032446D01*
X161261645Y-144042275D01*
X161341770Y-144239603D01*
X161346413Y-144248794D01*
X161457694Y-144430388D01*
X161463777Y-144438699D01*
X161603213Y-144599667D01*
X161610580Y-144606883D01*
X161774434Y-144742916D01*
X161782881Y-144748831D01*
X161966756Y-144856279D01*
X161976042Y-144860729D01*
X162175001Y-144936703D01*
X162184899Y-144939579D01*
X162288250Y-144960606D01*
X162302299Y-144959410D01*
X162306000Y-144949065D01*
X162306000Y-144948517D01*
X162814000Y-144948517D01*
X162818064Y-144962359D01*
X162831478Y-144964393D01*
X162838184Y-144963534D01*
X162848262Y-144961392D01*
X163052255Y-144900191D01*
X163061842Y-144896433D01*
X163253095Y-144802739D01*
X163261945Y-144797464D01*
X163435328Y-144673792D01*
X163443200Y-144667139D01*
X163594052Y-144516812D01*
X163600730Y-144508965D01*
X163728022Y-144331819D01*
X163729147Y-144332627D01*
X163776669Y-144288876D01*
X163846607Y-144276661D01*
X163912046Y-144304197D01*
X163939870Y-144336028D01*
X163997690Y-144430383D01*
X164003777Y-144438699D01*
X164143213Y-144599667D01*
X164150580Y-144606883D01*
X164314434Y-144742916D01*
X164322881Y-144748831D01*
X164506756Y-144856279D01*
X164516042Y-144860729D01*
X164715001Y-144936703D01*
X164724899Y-144939579D01*
X164828250Y-144960606D01*
X164842299Y-144959410D01*
X164846000Y-144949065D01*
X164846000Y-144948517D01*
X165354000Y-144948517D01*
X165358064Y-144962359D01*
X165371478Y-144964393D01*
X165378184Y-144963534D01*
X165388262Y-144961392D01*
X165592255Y-144900191D01*
X165601842Y-144896433D01*
X165793095Y-144802739D01*
X165801945Y-144797464D01*
X165975328Y-144673792D01*
X165983200Y-144667139D01*
X166134052Y-144516812D01*
X166140730Y-144508965D01*
X166268022Y-144331819D01*
X166269147Y-144332627D01*
X166316669Y-144288876D01*
X166386607Y-144276661D01*
X166452046Y-144304197D01*
X166479870Y-144336028D01*
X166537690Y-144430383D01*
X166543777Y-144438699D01*
X166683213Y-144599667D01*
X166690580Y-144606883D01*
X166854434Y-144742916D01*
X166862881Y-144748831D01*
X167046756Y-144856279D01*
X167056042Y-144860729D01*
X167255001Y-144936703D01*
X167264899Y-144939579D01*
X167368250Y-144960606D01*
X167382299Y-144959410D01*
X167386000Y-144949065D01*
X167386000Y-144948517D01*
X167894000Y-144948517D01*
X167898064Y-144962359D01*
X167911478Y-144964393D01*
X167918184Y-144963534D01*
X167928262Y-144961392D01*
X168132255Y-144900191D01*
X168141842Y-144896433D01*
X168333095Y-144802739D01*
X168341945Y-144797464D01*
X168515328Y-144673792D01*
X168523200Y-144667139D01*
X168674052Y-144516812D01*
X168680730Y-144508965D01*
X168808022Y-144331819D01*
X168809147Y-144332627D01*
X168856669Y-144288876D01*
X168926607Y-144276661D01*
X168992046Y-144304197D01*
X169019870Y-144336028D01*
X169077690Y-144430383D01*
X169083777Y-144438699D01*
X169223213Y-144599667D01*
X169230580Y-144606883D01*
X169394434Y-144742916D01*
X169402881Y-144748831D01*
X169586756Y-144856279D01*
X169596042Y-144860729D01*
X169795001Y-144936703D01*
X169804899Y-144939579D01*
X169908250Y-144960606D01*
X169922299Y-144959410D01*
X169926000Y-144949065D01*
X169926000Y-144948517D01*
X170434000Y-144948517D01*
X170438064Y-144962359D01*
X170451478Y-144964393D01*
X170458184Y-144963534D01*
X170468262Y-144961392D01*
X170672255Y-144900191D01*
X170681842Y-144896433D01*
X170873095Y-144802739D01*
X170881945Y-144797464D01*
X171055328Y-144673792D01*
X171063200Y-144667139D01*
X171134525Y-144596062D01*
X174538493Y-144596062D01*
X174547789Y-144608077D01*
X174598994Y-144643931D01*
X174608489Y-144649414D01*
X174805947Y-144741490D01*
X174816239Y-144745236D01*
X175026688Y-144801625D01*
X175037481Y-144803528D01*
X175254525Y-144822517D01*
X175265475Y-144822517D01*
X175482519Y-144803528D01*
X175493312Y-144801625D01*
X175703761Y-144745236D01*
X175714053Y-144741490D01*
X175911511Y-144649414D01*
X175921006Y-144643931D01*
X175973048Y-144607491D01*
X175981424Y-144597012D01*
X175974356Y-144583566D01*
X175272812Y-143882022D01*
X175258868Y-143874408D01*
X175257035Y-143874539D01*
X175250420Y-143878790D01*
X174544923Y-144584287D01*
X174538493Y-144596062D01*
X171134525Y-144596062D01*
X171214052Y-144516812D01*
X171220730Y-144508965D01*
X171345003Y-144336020D01*
X171350313Y-144327183D01*
X171444670Y-144136267D01*
X171448469Y-144126672D01*
X171510377Y-143922910D01*
X171512555Y-143912837D01*
X171513986Y-143901962D01*
X171511775Y-143887778D01*
X171498617Y-143884000D01*
X170452115Y-143884000D01*
X170436876Y-143888475D01*
X170435671Y-143889865D01*
X170434000Y-143897548D01*
X170434000Y-144948517D01*
X169926000Y-144948517D01*
X169926000Y-143902115D01*
X169921525Y-143886876D01*
X169920135Y-143885671D01*
X169912452Y-143884000D01*
X167912115Y-143884000D01*
X167896876Y-143888475D01*
X167895671Y-143889865D01*
X167894000Y-143897548D01*
X167894000Y-144948517D01*
X167386000Y-144948517D01*
X167386000Y-143902115D01*
X167381525Y-143886876D01*
X167380135Y-143885671D01*
X167372452Y-143884000D01*
X165372115Y-143884000D01*
X165356876Y-143888475D01*
X165355671Y-143889865D01*
X165354000Y-143897548D01*
X165354000Y-144948517D01*
X164846000Y-144948517D01*
X164846000Y-143902115D01*
X164841525Y-143886876D01*
X164840135Y-143885671D01*
X164832452Y-143884000D01*
X162832115Y-143884000D01*
X162816876Y-143888475D01*
X162815671Y-143889865D01*
X162814000Y-143897548D01*
X162814000Y-144948517D01*
X162306000Y-144948517D01*
X162306000Y-143902115D01*
X162301525Y-143886876D01*
X162300135Y-143885671D01*
X162292452Y-143884000D01*
X161243225Y-143884000D01*
X161229694Y-143887973D01*
X161228257Y-143897966D01*
X146162719Y-143897966D01*
X146251284Y-143684151D01*
X146303176Y-143515475D01*
X173947483Y-143515475D01*
X173966472Y-143732519D01*
X173968375Y-143743312D01*
X174024764Y-143953761D01*
X174028510Y-143964053D01*
X174120586Y-144161511D01*
X174126069Y-144171006D01*
X174162509Y-144223048D01*
X174172988Y-144231424D01*
X174186434Y-144224356D01*
X174887978Y-143522812D01*
X174894356Y-143511132D01*
X175624408Y-143511132D01*
X175624539Y-143512965D01*
X175628790Y-143519580D01*
X176334287Y-144225077D01*
X176346062Y-144231507D01*
X176358077Y-144222211D01*
X176393931Y-144171006D01*
X176399414Y-144161511D01*
X176491490Y-143964053D01*
X176495236Y-143953761D01*
X176551625Y-143743312D01*
X176553528Y-143732519D01*
X176572517Y-143515475D01*
X176572517Y-143504525D01*
X176553528Y-143287481D01*
X176551625Y-143276688D01*
X176495236Y-143066239D01*
X176491490Y-143055947D01*
X176399414Y-142858489D01*
X176393931Y-142848994D01*
X176357491Y-142796952D01*
X176347012Y-142788576D01*
X176333566Y-142795644D01*
X175632022Y-143497188D01*
X175624408Y-143511132D01*
X174894356Y-143511132D01*
X174895592Y-143508868D01*
X174895461Y-143507035D01*
X174891210Y-143500420D01*
X174185713Y-142794923D01*
X174173938Y-142788493D01*
X174161923Y-142797789D01*
X174126069Y-142848994D01*
X174120586Y-142858489D01*
X174028510Y-143055947D01*
X174024764Y-143066239D01*
X173968375Y-143276688D01*
X173966472Y-143287481D01*
X173947483Y-143504525D01*
X173947483Y-143515475D01*
X146303176Y-143515475D01*
X146347128Y-143372607D01*
X146368516Y-143303085D01*
X146368516Y-143303083D01*
X146369389Y-143300247D01*
X146374268Y-143276688D01*
X146450236Y-142909851D01*
X146450238Y-142909841D01*
X146450840Y-142906932D01*
X146480614Y-142637240D01*
X146494645Y-142510153D01*
X146494645Y-142510149D01*
X146494916Y-142507697D01*
X146494993Y-142505244D01*
X146494994Y-142505231D01*
X146499801Y-142352245D01*
X146503329Y-142240000D01*
X146491451Y-141988134D01*
X161201500Y-141988134D01*
X161208255Y-142050316D01*
X161259385Y-142186705D01*
X161346739Y-142303261D01*
X161463295Y-142390615D01*
X161471704Y-142393767D01*
X161471705Y-142393768D01*
X161580960Y-142434726D01*
X161637725Y-142477367D01*
X161662425Y-142543929D01*
X161647218Y-142613278D01*
X161627825Y-142639759D01*
X161504590Y-142768717D01*
X161498104Y-142776727D01*
X161378098Y-142952649D01*
X161373000Y-142961623D01*
X161283338Y-143154783D01*
X161279775Y-143164470D01*
X161224389Y-143364183D01*
X161225912Y-143372607D01*
X161238292Y-143376000D01*
X171498344Y-143376000D01*
X171511875Y-143372027D01*
X171513180Y-143362947D01*
X171471214Y-143195875D01*
X171467894Y-143186124D01*
X171382972Y-142990814D01*
X171378105Y-142981739D01*
X171262426Y-142802926D01*
X171256136Y-142794757D01*
X171112806Y-142637240D01*
X171105273Y-142630215D01*
X170938139Y-142498222D01*
X170929556Y-142492520D01*
X170892602Y-142472120D01*
X170843920Y-142422988D01*
X174538576Y-142422988D01*
X174545644Y-142436434D01*
X175247188Y-143137978D01*
X175261132Y-143145592D01*
X175262965Y-143145461D01*
X175269580Y-143141210D01*
X175975077Y-142435713D01*
X175981507Y-142423938D01*
X175972211Y-142411923D01*
X175921006Y-142376069D01*
X175911511Y-142370586D01*
X175714053Y-142278510D01*
X175703761Y-142274764D01*
X175493312Y-142218375D01*
X175482519Y-142216472D01*
X175265475Y-142197483D01*
X175254525Y-142197483D01*
X175037481Y-142216472D01*
X175026688Y-142218375D01*
X174816239Y-142274764D01*
X174805947Y-142278510D01*
X174608489Y-142370586D01*
X174598994Y-142376069D01*
X174546952Y-142412509D01*
X174538576Y-142422988D01*
X170843920Y-142422988D01*
X170842631Y-142421687D01*
X170827859Y-142352245D01*
X170852975Y-142285839D01*
X170880327Y-142259232D01*
X170907289Y-142240000D01*
X171059860Y-142131173D01*
X171082053Y-142109058D01*
X171085035Y-142106086D01*
X178618775Y-142106086D01*
X178621957Y-142308642D01*
X178624846Y-142492520D01*
X178625084Y-142507697D01*
X178669160Y-142906932D01*
X178669762Y-142909841D01*
X178669764Y-142909851D01*
X178745732Y-143276688D01*
X178750611Y-143300247D01*
X178751484Y-143303083D01*
X178751484Y-143303085D01*
X178772872Y-143372607D01*
X178868716Y-143684151D01*
X179022425Y-144055237D01*
X179210374Y-144410211D01*
X179211999Y-144412685D01*
X179212005Y-144412695D01*
X179339165Y-144606278D01*
X179430894Y-144745922D01*
X179554487Y-144900191D01*
X179679941Y-145056782D01*
X179682030Y-145059390D01*
X179684094Y-145061520D01*
X179684102Y-145061529D01*
X179798778Y-145179865D01*
X179961550Y-145347833D01*
X180266976Y-145608691D01*
X180595594Y-145839648D01*
X180771952Y-145940241D01*
X180941913Y-146037185D01*
X180941918Y-146037188D01*
X180944489Y-146038654D01*
X181310564Y-146203943D01*
X181690569Y-146334048D01*
X181693443Y-146334738D01*
X181693450Y-146334740D01*
X182078253Y-146427123D01*
X182078257Y-146427124D01*
X182081132Y-146427814D01*
X182084065Y-146428231D01*
X182084068Y-146428232D01*
X182215313Y-146446911D01*
X182478785Y-146484408D01*
X182880000Y-146503329D01*
X183281215Y-146484408D01*
X183544687Y-146446911D01*
X183675932Y-146428232D01*
X183675935Y-146428231D01*
X183678868Y-146427814D01*
X183681743Y-146427124D01*
X183681747Y-146427123D01*
X184066550Y-146334740D01*
X184066557Y-146334738D01*
X184069431Y-146334048D01*
X184449436Y-146203943D01*
X184815511Y-146038654D01*
X184818082Y-146037188D01*
X184818087Y-146037185D01*
X184988048Y-145940241D01*
X185164406Y-145839648D01*
X185493024Y-145608691D01*
X185798450Y-145347833D01*
X185961222Y-145179865D01*
X186075898Y-145061529D01*
X186075906Y-145061520D01*
X186077970Y-145059390D01*
X186080060Y-145056782D01*
X186205513Y-144900191D01*
X186329106Y-144745922D01*
X186420835Y-144606278D01*
X186547995Y-144412695D01*
X186548001Y-144412685D01*
X186549626Y-144410211D01*
X186737575Y-144055237D01*
X186891284Y-143684151D01*
X186987128Y-143372607D01*
X187008516Y-143303085D01*
X187008516Y-143303083D01*
X187009389Y-143300247D01*
X187014268Y-143276688D01*
X187090236Y-142909851D01*
X187090238Y-142909841D01*
X187090840Y-142906932D01*
X187120614Y-142637240D01*
X187134645Y-142510153D01*
X187134645Y-142510149D01*
X187134916Y-142507697D01*
X187134993Y-142505244D01*
X187134994Y-142505231D01*
X187139801Y-142352245D01*
X187143329Y-142240000D01*
X187124408Y-141838785D01*
X187067814Y-141441132D01*
X187052674Y-141378069D01*
X186974740Y-141053450D01*
X186974738Y-141053443D01*
X186974048Y-141050569D01*
X186843943Y-140670564D01*
X186678654Y-140304489D01*
X186650117Y-140254457D01*
X186481113Y-139958163D01*
X186479648Y-139955594D01*
X186248691Y-139626976D01*
X185987833Y-139321550D01*
X185886530Y-139223381D01*
X185701529Y-139044102D01*
X185701520Y-139044094D01*
X185699390Y-139042030D01*
X185385922Y-138790894D01*
X185374207Y-138783199D01*
X185052695Y-138572005D01*
X185052685Y-138571999D01*
X185050211Y-138570374D01*
X184695237Y-138382425D01*
X184324151Y-138228716D01*
X183940247Y-138110611D01*
X183937344Y-138110010D01*
X183937337Y-138110008D01*
X183549851Y-138029764D01*
X183549841Y-138029762D01*
X183546932Y-138029160D01*
X183147697Y-137985084D01*
X183144716Y-137985037D01*
X183144713Y-137985037D01*
X183032454Y-137983274D01*
X182746086Y-137978775D01*
X182743142Y-137979007D01*
X182743132Y-137979007D01*
X182358775Y-138009257D01*
X182345663Y-138010289D01*
X181949984Y-138079346D01*
X181947117Y-138080130D01*
X181947105Y-138080133D01*
X181565423Y-138184549D01*
X181565413Y-138184552D01*
X181562559Y-138185333D01*
X181559795Y-138186377D01*
X181559784Y-138186381D01*
X181189601Y-138326262D01*
X181186828Y-138327310D01*
X180826126Y-138504016D01*
X180823591Y-138505569D01*
X180823590Y-138505570D01*
X180715178Y-138572005D01*
X180483654Y-138713883D01*
X180162452Y-138955049D01*
X179865371Y-139225371D01*
X179595049Y-139522452D01*
X179353883Y-139843654D01*
X179248950Y-140014890D01*
X179173790Y-140137540D01*
X179144016Y-140186126D01*
X179142704Y-140188805D01*
X179142703Y-140188806D01*
X179018277Y-140442792D01*
X178967310Y-140546828D01*
X178966263Y-140549598D01*
X178966262Y-140549601D01*
X178826381Y-140919784D01*
X178826377Y-140919795D01*
X178825333Y-140922559D01*
X178824552Y-140925413D01*
X178824549Y-140925423D01*
X178720133Y-141307105D01*
X178720130Y-141307117D01*
X178719346Y-141309984D01*
X178650289Y-141705663D01*
X178650057Y-141708611D01*
X178621664Y-142069382D01*
X178618775Y-142106086D01*
X171085035Y-142106086D01*
X171203616Y-141987918D01*
X171218096Y-141973489D01*
X171348453Y-141792077D01*
X171369320Y-141749857D01*
X171445136Y-141596453D01*
X171445137Y-141596451D01*
X171447430Y-141591811D01*
X171512370Y-141378069D01*
X171541529Y-141156590D01*
X171543156Y-141090000D01*
X171524852Y-140867361D01*
X171470431Y-140650702D01*
X171381354Y-140445840D01*
X171289910Y-140304489D01*
X171262822Y-140262617D01*
X171262820Y-140262614D01*
X171260014Y-140258277D01*
X171109670Y-140093051D01*
X171105619Y-140089852D01*
X171105615Y-140089848D01*
X170938414Y-139957800D01*
X170938410Y-139957798D01*
X170934359Y-139954598D01*
X170738789Y-139846638D01*
X170733920Y-139844914D01*
X170733916Y-139844912D01*
X170533087Y-139773795D01*
X170533083Y-139773794D01*
X170528212Y-139772069D01*
X170523119Y-139771162D01*
X170523116Y-139771161D01*
X170313373Y-139733800D01*
X170313367Y-139733799D01*
X170308284Y-139732894D01*
X170234452Y-139731992D01*
X170090081Y-139730228D01*
X170090079Y-139730228D01*
X170084911Y-139730165D01*
X169864091Y-139763955D01*
X169651756Y-139833357D01*
X169453607Y-139936507D01*
X169449474Y-139939610D01*
X169449471Y-139939612D01*
X169279100Y-140067530D01*
X169274965Y-140070635D01*
X169271393Y-140074373D01*
X169163729Y-140187037D01*
X169120629Y-140232138D01*
X169013201Y-140389621D01*
X168958293Y-140434621D01*
X168887768Y-140442792D01*
X168824021Y-140411538D01*
X168803324Y-140387054D01*
X168722822Y-140262617D01*
X168722820Y-140262614D01*
X168720014Y-140258277D01*
X168569670Y-140093051D01*
X168565619Y-140089852D01*
X168565615Y-140089848D01*
X168398414Y-139957800D01*
X168398410Y-139957798D01*
X168394359Y-139954598D01*
X168198789Y-139846638D01*
X168193920Y-139844914D01*
X168193916Y-139844912D01*
X167993087Y-139773795D01*
X167993083Y-139773794D01*
X167988212Y-139772069D01*
X167983119Y-139771162D01*
X167983116Y-139771161D01*
X167773373Y-139733800D01*
X167773367Y-139733799D01*
X167768284Y-139732894D01*
X167694452Y-139731992D01*
X167550081Y-139730228D01*
X167550079Y-139730228D01*
X167544911Y-139730165D01*
X167324091Y-139763955D01*
X167111756Y-139833357D01*
X166913607Y-139936507D01*
X166909474Y-139939610D01*
X166909471Y-139939612D01*
X166739100Y-140067530D01*
X166734965Y-140070635D01*
X166731393Y-140074373D01*
X166623729Y-140187037D01*
X166580629Y-140232138D01*
X166473201Y-140389621D01*
X166418293Y-140434621D01*
X166347768Y-140442792D01*
X166284021Y-140411538D01*
X166263324Y-140387054D01*
X166182822Y-140262617D01*
X166182820Y-140262614D01*
X166180014Y-140258277D01*
X166029670Y-140093051D01*
X166025619Y-140089852D01*
X166025615Y-140089848D01*
X165858414Y-139957800D01*
X165858410Y-139957798D01*
X165854359Y-139954598D01*
X165658789Y-139846638D01*
X165653920Y-139844914D01*
X165653916Y-139844912D01*
X165453087Y-139773795D01*
X165453083Y-139773794D01*
X165448212Y-139772069D01*
X165443119Y-139771162D01*
X165443116Y-139771161D01*
X165233373Y-139733800D01*
X165233367Y-139733799D01*
X165228284Y-139732894D01*
X165154452Y-139731992D01*
X165010081Y-139730228D01*
X165010079Y-139730228D01*
X165004911Y-139730165D01*
X164784091Y-139763955D01*
X164571756Y-139833357D01*
X164373607Y-139936507D01*
X164369474Y-139939610D01*
X164369471Y-139939612D01*
X164199100Y-140067530D01*
X164194965Y-140070635D01*
X164138537Y-140129684D01*
X164114283Y-140155064D01*
X164052759Y-140190494D01*
X163981846Y-140187037D01*
X163924060Y-140145791D01*
X163905207Y-140112243D01*
X163863767Y-140001703D01*
X163860615Y-139993295D01*
X163773261Y-139876739D01*
X163656705Y-139789385D01*
X163520316Y-139738255D01*
X163458134Y-139731500D01*
X161661866Y-139731500D01*
X161599684Y-139738255D01*
X161463295Y-139789385D01*
X161346739Y-139876739D01*
X161259385Y-139993295D01*
X161208255Y-140129684D01*
X161201500Y-140191866D01*
X161201500Y-141988134D01*
X146491451Y-141988134D01*
X146484408Y-141838785D01*
X146427814Y-141441132D01*
X146412674Y-141378069D01*
X146334740Y-141053450D01*
X146334738Y-141053443D01*
X146334048Y-141050569D01*
X146203943Y-140670564D01*
X146038654Y-140304489D01*
X146010117Y-140254457D01*
X145841113Y-139958163D01*
X145839648Y-139955594D01*
X145608691Y-139626976D01*
X145347833Y-139321550D01*
X145246530Y-139223381D01*
X145061529Y-139044102D01*
X145061520Y-139044094D01*
X145059390Y-139042030D01*
X144745922Y-138790894D01*
X144734207Y-138783199D01*
X144412695Y-138572005D01*
X144412685Y-138571999D01*
X144410211Y-138570374D01*
X144055237Y-138382425D01*
X143684151Y-138228716D01*
X143300247Y-138110611D01*
X143297344Y-138110010D01*
X143297337Y-138110008D01*
X142909851Y-138029764D01*
X142909841Y-138029762D01*
X142906932Y-138029160D01*
X142507697Y-137985084D01*
X142504716Y-137985037D01*
X142504713Y-137985037D01*
X142392454Y-137983274D01*
X142106086Y-137978775D01*
X142103142Y-137979007D01*
X142103132Y-137979007D01*
X141718775Y-138009257D01*
X141705663Y-138010289D01*
X141309984Y-138079346D01*
X141307117Y-138080130D01*
X141307105Y-138080133D01*
X140925423Y-138184549D01*
X140925413Y-138184552D01*
X140922559Y-138185333D01*
X140919795Y-138186377D01*
X140919784Y-138186381D01*
X140549601Y-138326262D01*
X140546828Y-138327310D01*
X140186126Y-138504016D01*
X140183591Y-138505569D01*
X140183590Y-138505570D01*
X140075178Y-138572005D01*
X139843654Y-138713883D01*
X139522452Y-138955049D01*
X139225371Y-139225371D01*
X138955049Y-139522452D01*
X138713883Y-139843654D01*
X138608950Y-140014890D01*
X138533790Y-140137540D01*
X138504016Y-140186126D01*
X138502704Y-140188805D01*
X138502703Y-140188806D01*
X138378277Y-140442792D01*
X138327310Y-140546828D01*
X138326263Y-140549598D01*
X138326262Y-140549601D01*
X138186381Y-140919784D01*
X138186377Y-140919795D01*
X138185333Y-140922559D01*
X138184552Y-140925413D01*
X138184549Y-140925423D01*
X138080133Y-141307105D01*
X138080130Y-141307117D01*
X138079346Y-141309984D01*
X138010289Y-141705663D01*
X138010057Y-141708611D01*
X137981664Y-142069382D01*
X137978775Y-142106086D01*
X137668500Y-142106086D01*
X137668500Y-136788134D01*
X161201500Y-136788134D01*
X161208255Y-136850316D01*
X161259385Y-136986705D01*
X161346739Y-137103261D01*
X161463295Y-137190615D01*
X161599684Y-137241745D01*
X161661866Y-137248500D01*
X163458134Y-137248500D01*
X163520316Y-137241745D01*
X163656705Y-137190615D01*
X163773261Y-137103261D01*
X163860615Y-136986705D01*
X163882799Y-136927529D01*
X163904598Y-136869382D01*
X163947240Y-136812618D01*
X164013802Y-136787918D01*
X164083150Y-136803126D01*
X164117817Y-136831114D01*
X164146250Y-136863938D01*
X164318126Y-137006632D01*
X164511000Y-137119338D01*
X164719692Y-137199030D01*
X164724760Y-137200061D01*
X164724763Y-137200062D01*
X164832017Y-137221883D01*
X164938597Y-137243567D01*
X164943772Y-137243757D01*
X164943774Y-137243757D01*
X165156673Y-137251564D01*
X165156677Y-137251564D01*
X165161837Y-137251753D01*
X165166957Y-137251097D01*
X165166959Y-137251097D01*
X165378288Y-137224025D01*
X165378289Y-137224025D01*
X165383416Y-137223368D01*
X165388366Y-137221883D01*
X165592429Y-137160661D01*
X165592434Y-137160659D01*
X165597384Y-137159174D01*
X165797994Y-137060896D01*
X165979860Y-136931173D01*
X166138096Y-136773489D01*
X166268453Y-136592077D01*
X166269776Y-136593028D01*
X166316645Y-136549857D01*
X166386580Y-136537625D01*
X166452026Y-136565144D01*
X166479875Y-136596994D01*
X166539987Y-136695088D01*
X166686250Y-136863938D01*
X166858126Y-137006632D01*
X167051000Y-137119338D01*
X167259692Y-137199030D01*
X167264760Y-137200061D01*
X167264763Y-137200062D01*
X167372017Y-137221883D01*
X167478597Y-137243567D01*
X167483772Y-137243757D01*
X167483774Y-137243757D01*
X167696673Y-137251564D01*
X167696677Y-137251564D01*
X167701837Y-137251753D01*
X167706957Y-137251097D01*
X167706959Y-137251097D01*
X167918288Y-137224025D01*
X167918289Y-137224025D01*
X167923416Y-137223368D01*
X167928366Y-137221883D01*
X168132429Y-137160661D01*
X168132434Y-137160659D01*
X168137384Y-137159174D01*
X168337994Y-137060896D01*
X168519860Y-136931173D01*
X168678096Y-136773489D01*
X168808453Y-136592077D01*
X168809776Y-136593028D01*
X168856645Y-136549857D01*
X168926580Y-136537625D01*
X168992026Y-136565144D01*
X169019875Y-136596994D01*
X169079987Y-136695088D01*
X169226250Y-136863938D01*
X169398126Y-137006632D01*
X169591000Y-137119338D01*
X169799692Y-137199030D01*
X169804760Y-137200061D01*
X169804763Y-137200062D01*
X169912017Y-137221883D01*
X170018597Y-137243567D01*
X170023772Y-137243757D01*
X170023774Y-137243757D01*
X170236673Y-137251564D01*
X170236677Y-137251564D01*
X170241837Y-137251753D01*
X170246957Y-137251097D01*
X170246959Y-137251097D01*
X170458288Y-137224025D01*
X170458289Y-137224025D01*
X170463416Y-137223368D01*
X170468366Y-137221883D01*
X170672429Y-137160661D01*
X170672434Y-137160659D01*
X170677384Y-137159174D01*
X170877994Y-137060896D01*
X171059860Y-136931173D01*
X171218096Y-136773489D01*
X171348453Y-136592077D01*
X171369320Y-136549857D01*
X171445136Y-136396453D01*
X171445137Y-136396451D01*
X171447430Y-136391811D01*
X171512370Y-136178069D01*
X171541529Y-135956590D01*
X171543156Y-135890000D01*
X171524852Y-135667361D01*
X171470431Y-135450702D01*
X171381354Y-135245840D01*
X171260014Y-135058277D01*
X171109670Y-134893051D01*
X171105619Y-134889852D01*
X171105615Y-134889848D01*
X170938414Y-134757800D01*
X170938410Y-134757798D01*
X170934359Y-134754598D01*
X170738789Y-134646638D01*
X170733920Y-134644914D01*
X170733916Y-134644912D01*
X170533087Y-134573795D01*
X170533083Y-134573794D01*
X170528212Y-134572069D01*
X170523119Y-134571162D01*
X170523116Y-134571161D01*
X170313373Y-134533800D01*
X170313367Y-134533799D01*
X170308284Y-134532894D01*
X170234452Y-134531992D01*
X170090081Y-134530228D01*
X170090079Y-134530228D01*
X170084911Y-134530165D01*
X169864091Y-134563955D01*
X169651756Y-134633357D01*
X169453607Y-134736507D01*
X169449474Y-134739610D01*
X169449471Y-134739612D01*
X169279100Y-134867530D01*
X169274965Y-134870635D01*
X169271393Y-134874373D01*
X169163729Y-134987037D01*
X169120629Y-135032138D01*
X169013201Y-135189621D01*
X168958293Y-135234621D01*
X168887768Y-135242792D01*
X168824021Y-135211538D01*
X168803324Y-135187054D01*
X168722822Y-135062617D01*
X168722820Y-135062614D01*
X168720014Y-135058277D01*
X168569670Y-134893051D01*
X168565619Y-134889852D01*
X168565615Y-134889848D01*
X168398414Y-134757800D01*
X168398410Y-134757798D01*
X168394359Y-134754598D01*
X168198789Y-134646638D01*
X168193920Y-134644914D01*
X168193916Y-134644912D01*
X167993087Y-134573795D01*
X167993083Y-134573794D01*
X167988212Y-134572069D01*
X167983119Y-134571162D01*
X167983116Y-134571161D01*
X167773373Y-134533800D01*
X167773367Y-134533799D01*
X167768284Y-134532894D01*
X167694452Y-134531992D01*
X167550081Y-134530228D01*
X167550079Y-134530228D01*
X167544911Y-134530165D01*
X167324091Y-134563955D01*
X167111756Y-134633357D01*
X166913607Y-134736507D01*
X166909474Y-134739610D01*
X166909471Y-134739612D01*
X166739100Y-134867530D01*
X166734965Y-134870635D01*
X166731393Y-134874373D01*
X166623729Y-134987037D01*
X166580629Y-135032138D01*
X166473201Y-135189621D01*
X166418293Y-135234621D01*
X166347768Y-135242792D01*
X166284021Y-135211538D01*
X166263324Y-135187054D01*
X166182822Y-135062617D01*
X166182820Y-135062614D01*
X166180014Y-135058277D01*
X166029670Y-134893051D01*
X166025619Y-134889852D01*
X166025615Y-134889848D01*
X165858414Y-134757800D01*
X165858410Y-134757798D01*
X165854359Y-134754598D01*
X165658789Y-134646638D01*
X165653920Y-134644914D01*
X165653916Y-134644912D01*
X165453087Y-134573795D01*
X165453083Y-134573794D01*
X165448212Y-134572069D01*
X165443119Y-134571162D01*
X165443116Y-134571161D01*
X165233373Y-134533800D01*
X165233367Y-134533799D01*
X165228284Y-134532894D01*
X165154452Y-134531992D01*
X165010081Y-134530228D01*
X165010079Y-134530228D01*
X165004911Y-134530165D01*
X164784091Y-134563955D01*
X164571756Y-134633357D01*
X164373607Y-134736507D01*
X164369474Y-134739610D01*
X164369471Y-134739612D01*
X164199100Y-134867530D01*
X164194965Y-134870635D01*
X164138537Y-134929684D01*
X164114283Y-134955064D01*
X164052759Y-134990494D01*
X163981846Y-134987037D01*
X163924060Y-134945791D01*
X163905207Y-134912243D01*
X163863767Y-134801703D01*
X163860615Y-134793295D01*
X163773261Y-134676739D01*
X163656705Y-134589385D01*
X163520316Y-134538255D01*
X163458134Y-134531500D01*
X161661866Y-134531500D01*
X161599684Y-134538255D01*
X161463295Y-134589385D01*
X161346739Y-134676739D01*
X161259385Y-134793295D01*
X161208255Y-134929684D01*
X161201500Y-134991866D01*
X161201500Y-136788134D01*
X137668500Y-136788134D01*
X137668500Y-130810000D01*
X173946502Y-130810000D01*
X173966457Y-131038087D01*
X174025716Y-131259243D01*
X174028039Y-131264224D01*
X174028039Y-131264225D01*
X174120151Y-131461762D01*
X174120154Y-131461767D01*
X174122477Y-131466749D01*
X174253802Y-131654300D01*
X174415700Y-131816198D01*
X174420208Y-131819355D01*
X174420211Y-131819357D01*
X174498389Y-131874098D01*
X174603251Y-131947523D01*
X174608233Y-131949846D01*
X174608238Y-131949849D01*
X174805775Y-132041961D01*
X174810757Y-132044284D01*
X174816065Y-132045706D01*
X174816067Y-132045707D01*
X175026598Y-132102119D01*
X175026600Y-132102119D01*
X175031913Y-132103543D01*
X175260000Y-132123498D01*
X175488087Y-132103543D01*
X175493400Y-132102119D01*
X175493402Y-132102119D01*
X175703933Y-132045707D01*
X175703935Y-132045706D01*
X175709243Y-132044284D01*
X175714225Y-132041961D01*
X175911762Y-131949849D01*
X175911767Y-131949846D01*
X175916749Y-131947523D01*
X176021611Y-131874098D01*
X176099789Y-131819357D01*
X176099792Y-131819355D01*
X176104300Y-131816198D01*
X176266198Y-131654300D01*
X176397523Y-131466749D01*
X176399846Y-131461767D01*
X176399849Y-131461762D01*
X176491961Y-131264225D01*
X176491961Y-131264224D01*
X176494284Y-131259243D01*
X176553543Y-131038087D01*
X176573498Y-130810000D01*
X176553543Y-130581913D01*
X176494284Y-130360757D01*
X176491961Y-130355775D01*
X176399849Y-130158238D01*
X176399846Y-130158233D01*
X176397523Y-130153251D01*
X176266198Y-129965700D01*
X176104300Y-129803802D01*
X176099792Y-129800645D01*
X176099789Y-129800643D01*
X176021611Y-129745902D01*
X175916749Y-129672477D01*
X175911767Y-129670154D01*
X175911762Y-129670151D01*
X175714225Y-129578039D01*
X175714224Y-129578039D01*
X175709243Y-129575716D01*
X175703935Y-129574294D01*
X175703933Y-129574293D01*
X175493402Y-129517881D01*
X175493400Y-129517881D01*
X175488087Y-129516457D01*
X175260000Y-129496502D01*
X175031913Y-129516457D01*
X175026600Y-129517881D01*
X175026598Y-129517881D01*
X174816067Y-129574293D01*
X174816065Y-129574294D01*
X174810757Y-129575716D01*
X174805776Y-129578039D01*
X174805775Y-129578039D01*
X174608238Y-129670151D01*
X174608233Y-129670154D01*
X174603251Y-129672477D01*
X174498389Y-129745902D01*
X174420211Y-129800643D01*
X174420208Y-129800645D01*
X174415700Y-129803802D01*
X174253802Y-129965700D01*
X174122477Y-130153251D01*
X174120154Y-130158233D01*
X174120151Y-130158238D01*
X174028039Y-130355775D01*
X174025716Y-130360757D01*
X173966457Y-130581913D01*
X173946502Y-130810000D01*
X137668500Y-130810000D01*
X137668500Y-114146695D01*
X138337251Y-114146695D01*
X138337548Y-114151848D01*
X138337548Y-114151851D01*
X138343011Y-114246590D01*
X138350110Y-114369715D01*
X138351247Y-114374761D01*
X138351248Y-114374767D01*
X138371119Y-114462939D01*
X138399222Y-114587639D01*
X138483266Y-114794616D01*
X138599987Y-114985088D01*
X138746250Y-115153938D01*
X138750230Y-115157242D01*
X138754981Y-115161187D01*
X138794616Y-115220090D01*
X138796113Y-115291071D01*
X138758997Y-115351593D01*
X138718724Y-115376112D01*
X138603295Y-115419385D01*
X138486739Y-115506739D01*
X138399385Y-115623295D01*
X138348255Y-115759684D01*
X138341500Y-115821866D01*
X138341500Y-117618134D01*
X138348255Y-117680316D01*
X138399385Y-117816705D01*
X138486739Y-117933261D01*
X138603295Y-118020615D01*
X138739684Y-118071745D01*
X138801866Y-118078500D01*
X140598134Y-118078500D01*
X140660316Y-118071745D01*
X140796705Y-118020615D01*
X140913261Y-117933261D01*
X141000615Y-117816705D01*
X141051745Y-117680316D01*
X141058500Y-117618134D01*
X141058500Y-115821866D01*
X141051745Y-115759684D01*
X141000615Y-115623295D01*
X140913261Y-115506739D01*
X140796705Y-115419385D01*
X140784132Y-115414672D01*
X140678203Y-115374960D01*
X140621439Y-115332318D01*
X140596739Y-115265756D01*
X140611947Y-115196408D01*
X140633493Y-115167727D01*
X140734435Y-115067137D01*
X140738096Y-115063489D01*
X140797594Y-114980689D01*
X140865435Y-114886277D01*
X140868453Y-114882077D01*
X140967430Y-114681811D01*
X141032370Y-114468069D01*
X141061529Y-114246590D01*
X141063156Y-114180000D01*
X141044852Y-113957361D01*
X140990431Y-113740702D01*
X140901354Y-113535840D01*
X140780014Y-113348277D01*
X140629670Y-113183051D01*
X140625619Y-113179852D01*
X140625615Y-113179848D01*
X140458414Y-113047800D01*
X140458410Y-113047798D01*
X140454359Y-113044598D01*
X140413053Y-113021796D01*
X140363084Y-112971364D01*
X140348312Y-112901921D01*
X140373428Y-112835516D01*
X140400780Y-112808909D01*
X140449207Y-112774366D01*
X140579860Y-112681173D01*
X140611788Y-112649357D01*
X140734435Y-112527137D01*
X140738096Y-112523489D01*
X140769498Y-112479789D01*
X140865435Y-112346277D01*
X140868453Y-112342077D01*
X140888628Y-112301257D01*
X140965136Y-112146453D01*
X140965137Y-112146451D01*
X140967430Y-112141811D01*
X141032370Y-111928069D01*
X141061529Y-111706590D01*
X141063156Y-111640000D01*
X141044852Y-111417361D01*
X140990431Y-111200702D01*
X140901354Y-110995840D01*
X140780014Y-110808277D01*
X140629670Y-110643051D01*
X140625619Y-110639852D01*
X140625615Y-110639848D01*
X140458414Y-110507800D01*
X140458410Y-110507798D01*
X140454359Y-110504598D01*
X140413053Y-110481796D01*
X140363084Y-110431364D01*
X140348312Y-110361921D01*
X140373428Y-110295516D01*
X140400780Y-110268909D01*
X140449207Y-110234366D01*
X140579860Y-110141173D01*
X140611788Y-110109357D01*
X140734435Y-109987137D01*
X140738096Y-109983489D01*
X140769498Y-109939789D01*
X140865435Y-109806277D01*
X140868453Y-109802077D01*
X140888628Y-109761257D01*
X140965136Y-109606453D01*
X140965137Y-109606451D01*
X140967430Y-109601811D01*
X141000343Y-109493483D01*
X141030865Y-109393023D01*
X141030865Y-109393021D01*
X141032370Y-109388069D01*
X141061529Y-109166590D01*
X141063156Y-109100000D01*
X141044852Y-108877361D01*
X140990431Y-108660702D01*
X140901354Y-108455840D01*
X140780014Y-108268277D01*
X140629670Y-108103051D01*
X140625619Y-108099852D01*
X140625615Y-108099848D01*
X140458414Y-107967800D01*
X140458410Y-107967798D01*
X140454359Y-107964598D01*
X140413053Y-107941796D01*
X140363084Y-107891364D01*
X140348312Y-107821921D01*
X140373428Y-107755516D01*
X140400778Y-107728910D01*
X140403566Y-107726922D01*
X140476735Y-107703500D01*
X145415500Y-107703500D01*
X145483621Y-107723502D01*
X145530114Y-107777158D01*
X145541500Y-107829500D01*
X145541500Y-121242195D01*
X145541230Y-121250436D01*
X145536994Y-121315061D01*
X145547399Y-121402973D01*
X145547736Y-121406186D01*
X145555831Y-121494279D01*
X145557399Y-121499839D01*
X145558061Y-121503412D01*
X145560250Y-121514415D01*
X145561018Y-121518028D01*
X145561697Y-121523765D01*
X145587938Y-121608276D01*
X145588854Y-121611373D01*
X145612877Y-121696549D01*
X145615435Y-121701737D01*
X145616760Y-121705188D01*
X145620901Y-121715566D01*
X145622304Y-121718953D01*
X145624018Y-121724473D01*
X145626709Y-121729587D01*
X145626709Y-121729588D01*
X145665198Y-121802745D01*
X145666695Y-121805681D01*
X145705829Y-121885037D01*
X145709287Y-121889668D01*
X145711250Y-121892871D01*
X145717173Y-121902258D01*
X145719182Y-121905351D01*
X145721871Y-121910463D01*
X145776656Y-121979956D01*
X145778627Y-121982526D01*
X145828116Y-122048801D01*
X145828123Y-122048808D01*
X145831573Y-122053429D01*
X145835807Y-122057343D01*
X145835809Y-122057345D01*
X145891973Y-122109262D01*
X145895539Y-122112692D01*
X147751151Y-123968304D01*
X147756788Y-123974322D01*
X147799494Y-124023019D01*
X147804029Y-124026594D01*
X147804030Y-124026595D01*
X147868982Y-124077798D01*
X147871547Y-124079876D01*
X147935100Y-124132734D01*
X147935105Y-124132738D01*
X147939540Y-124136426D01*
X147944574Y-124139245D01*
X147947584Y-124141314D01*
X147956854Y-124147508D01*
X147959999Y-124149551D01*
X147964537Y-124153128D01*
X147969645Y-124155816D01*
X147969649Y-124155818D01*
X148042816Y-124194312D01*
X148045716Y-124195887D01*
X148108723Y-124231173D01*
X148122904Y-124239115D01*
X148128376Y-124240972D01*
X148131776Y-124242486D01*
X148141987Y-124246873D01*
X148145421Y-124248295D01*
X148150527Y-124250982D01*
X148156041Y-124252694D01*
X148156043Y-124252695D01*
X148234999Y-124277212D01*
X148238135Y-124278231D01*
X148284269Y-124293891D01*
X148321912Y-124306669D01*
X148327625Y-124307498D01*
X148331138Y-124308341D01*
X148342151Y-124310833D01*
X148345718Y-124311591D01*
X148351234Y-124313304D01*
X148356962Y-124313982D01*
X148356967Y-124313983D01*
X148409367Y-124320184D01*
X148439118Y-124323706D01*
X148442340Y-124324130D01*
X148529897Y-124336825D01*
X148612054Y-124333597D01*
X148617001Y-124333500D01*
X158691429Y-124333500D01*
X158759550Y-124353502D01*
X158792255Y-124383935D01*
X158806739Y-124403261D01*
X158923295Y-124490615D01*
X159059684Y-124541745D01*
X159121866Y-124548500D01*
X160918134Y-124548500D01*
X160980316Y-124541745D01*
X161116705Y-124490615D01*
X161233261Y-124403261D01*
X161320615Y-124286705D01*
X161338456Y-124239115D01*
X161364798Y-124168848D01*
X161407440Y-124112084D01*
X161474001Y-124087384D01*
X161543350Y-124102592D01*
X161578017Y-124130580D01*
X161603218Y-124159673D01*
X161610580Y-124166883D01*
X161774434Y-124302916D01*
X161782881Y-124308831D01*
X161966756Y-124416279D01*
X161976042Y-124420729D01*
X162175001Y-124496703D01*
X162184899Y-124499579D01*
X162288250Y-124520606D01*
X162302299Y-124519410D01*
X162306000Y-124509065D01*
X162306000Y-124508517D01*
X162814000Y-124508517D01*
X162818064Y-124522359D01*
X162831478Y-124524393D01*
X162838184Y-124523534D01*
X162848262Y-124521392D01*
X163052255Y-124460191D01*
X163061842Y-124456433D01*
X163253095Y-124362739D01*
X163261945Y-124357464D01*
X163435328Y-124233792D01*
X163443200Y-124227139D01*
X163594052Y-124076812D01*
X163600730Y-124068965D01*
X163728022Y-123891819D01*
X163729279Y-123892722D01*
X163776373Y-123849362D01*
X163846311Y-123837145D01*
X163911751Y-123864678D01*
X163939579Y-123896511D01*
X163999987Y-123995088D01*
X164146250Y-124163938D01*
X164318126Y-124306632D01*
X164511000Y-124419338D01*
X164719692Y-124499030D01*
X164724760Y-124500061D01*
X164724763Y-124500062D01*
X164819862Y-124519410D01*
X164938597Y-124543567D01*
X164943772Y-124543757D01*
X164943774Y-124543757D01*
X165156673Y-124551564D01*
X165156677Y-124551564D01*
X165161837Y-124551753D01*
X165166957Y-124551097D01*
X165166959Y-124551097D01*
X165378288Y-124524025D01*
X165378289Y-124524025D01*
X165383416Y-124523368D01*
X165388366Y-124521883D01*
X165592429Y-124460661D01*
X165592434Y-124460659D01*
X165597384Y-124459174D01*
X165797994Y-124360896D01*
X165979860Y-124231173D01*
X166016086Y-124195074D01*
X166124152Y-124087384D01*
X166138096Y-124073489D01*
X166268453Y-123892077D01*
X166269776Y-123893028D01*
X166316645Y-123849857D01*
X166386580Y-123837625D01*
X166452026Y-123865144D01*
X166479875Y-123896994D01*
X166539987Y-123995088D01*
X166686250Y-124163938D01*
X166858126Y-124306632D01*
X167051000Y-124419338D01*
X167259692Y-124499030D01*
X167264760Y-124500061D01*
X167264763Y-124500062D01*
X167359862Y-124519410D01*
X167478597Y-124543567D01*
X167483772Y-124543757D01*
X167483774Y-124543757D01*
X167696673Y-124551564D01*
X167696677Y-124551564D01*
X167701837Y-124551753D01*
X167706957Y-124551097D01*
X167706959Y-124551097D01*
X167918288Y-124524025D01*
X167918289Y-124524025D01*
X167923416Y-124523368D01*
X167928366Y-124521883D01*
X168132429Y-124460661D01*
X168132434Y-124460659D01*
X168137384Y-124459174D01*
X168337994Y-124360896D01*
X168519860Y-124231173D01*
X168556086Y-124195074D01*
X168664152Y-124087384D01*
X168678096Y-124073489D01*
X168808453Y-123892077D01*
X168809776Y-123893028D01*
X168856645Y-123849857D01*
X168926580Y-123837625D01*
X168992026Y-123865144D01*
X169019875Y-123896994D01*
X169079987Y-123995088D01*
X169226250Y-124163938D01*
X169398126Y-124306632D01*
X169591000Y-124419338D01*
X169799692Y-124499030D01*
X169804760Y-124500061D01*
X169804763Y-124500062D01*
X169899862Y-124519410D01*
X170018597Y-124543567D01*
X170023772Y-124543757D01*
X170023774Y-124543757D01*
X170236673Y-124551564D01*
X170236677Y-124551564D01*
X170241837Y-124551753D01*
X170246957Y-124551097D01*
X170246959Y-124551097D01*
X170458288Y-124524025D01*
X170458289Y-124524025D01*
X170463416Y-124523368D01*
X170468366Y-124521883D01*
X170672429Y-124460661D01*
X170672434Y-124460659D01*
X170677384Y-124459174D01*
X170877994Y-124360896D01*
X171059860Y-124231173D01*
X171096086Y-124195074D01*
X171204152Y-124087384D01*
X171218096Y-124073489D01*
X171348453Y-123892077D01*
X171349776Y-123893028D01*
X171396645Y-123849857D01*
X171466580Y-123837625D01*
X171532026Y-123865144D01*
X171559875Y-123896994D01*
X171619987Y-123995088D01*
X171766250Y-124163938D01*
X171938126Y-124306632D01*
X172131000Y-124419338D01*
X172339692Y-124499030D01*
X172344760Y-124500061D01*
X172344763Y-124500062D01*
X172439862Y-124519410D01*
X172558597Y-124543567D01*
X172563772Y-124543757D01*
X172563774Y-124543757D01*
X172776673Y-124551564D01*
X172776677Y-124551564D01*
X172781837Y-124551753D01*
X172786957Y-124551097D01*
X172786959Y-124551097D01*
X172998288Y-124524025D01*
X172998289Y-124524025D01*
X173003416Y-124523368D01*
X173008366Y-124521883D01*
X173212429Y-124460661D01*
X173212434Y-124460659D01*
X173217384Y-124459174D01*
X173417994Y-124360896D01*
X173599860Y-124231173D01*
X173636086Y-124195074D01*
X173744152Y-124087384D01*
X173758096Y-124073489D01*
X173888453Y-123892077D01*
X173901995Y-123864678D01*
X173985136Y-123696453D01*
X173985137Y-123696451D01*
X173987430Y-123691811D01*
X174052370Y-123478069D01*
X174081529Y-123256590D01*
X174083156Y-123190000D01*
X174064852Y-122967361D01*
X174010431Y-122750702D01*
X173921354Y-122545840D01*
X173800014Y-122358277D01*
X173649670Y-122193051D01*
X173645619Y-122189852D01*
X173645615Y-122189848D01*
X173478414Y-122057800D01*
X173478410Y-122057798D01*
X173474359Y-122054598D01*
X173459690Y-122046500D01*
X173360109Y-121991529D01*
X173278789Y-121946638D01*
X173273920Y-121944914D01*
X173273916Y-121944912D01*
X173073087Y-121873795D01*
X173073083Y-121873794D01*
X173068212Y-121872069D01*
X173063119Y-121871162D01*
X173063116Y-121871161D01*
X172853373Y-121833800D01*
X172853367Y-121833799D01*
X172848284Y-121832894D01*
X172774452Y-121831992D01*
X172630081Y-121830228D01*
X172630079Y-121830228D01*
X172624911Y-121830165D01*
X172404091Y-121863955D01*
X172191756Y-121933357D01*
X171993607Y-122036507D01*
X171989474Y-122039610D01*
X171989471Y-122039612D01*
X171819100Y-122167530D01*
X171814965Y-122170635D01*
X171660629Y-122332138D01*
X171553201Y-122489621D01*
X171498293Y-122534621D01*
X171427768Y-122542792D01*
X171364021Y-122511538D01*
X171343324Y-122487054D01*
X171262822Y-122362617D01*
X171262820Y-122362614D01*
X171260014Y-122358277D01*
X171109670Y-122193051D01*
X171105619Y-122189852D01*
X171105615Y-122189848D01*
X170938414Y-122057800D01*
X170938410Y-122057798D01*
X170934359Y-122054598D01*
X170919690Y-122046500D01*
X170820109Y-121991529D01*
X170738789Y-121946638D01*
X170733920Y-121944914D01*
X170733916Y-121944912D01*
X170533087Y-121873795D01*
X170533083Y-121873794D01*
X170528212Y-121872069D01*
X170523119Y-121871162D01*
X170523116Y-121871161D01*
X170313373Y-121833800D01*
X170313367Y-121833799D01*
X170308284Y-121832894D01*
X170234452Y-121831992D01*
X170090081Y-121830228D01*
X170090079Y-121830228D01*
X170084911Y-121830165D01*
X169864091Y-121863955D01*
X169651756Y-121933357D01*
X169453607Y-122036507D01*
X169449474Y-122039610D01*
X169449471Y-122039612D01*
X169279100Y-122167530D01*
X169274965Y-122170635D01*
X169120629Y-122332138D01*
X169013201Y-122489621D01*
X168958293Y-122534621D01*
X168887768Y-122542792D01*
X168824021Y-122511538D01*
X168803324Y-122487054D01*
X168722822Y-122362617D01*
X168722820Y-122362614D01*
X168720014Y-122358277D01*
X168569670Y-122193051D01*
X168565619Y-122189852D01*
X168565615Y-122189848D01*
X168398414Y-122057800D01*
X168398410Y-122057798D01*
X168394359Y-122054598D01*
X168379690Y-122046500D01*
X168280109Y-121991529D01*
X168198789Y-121946638D01*
X168193920Y-121944914D01*
X168193916Y-121944912D01*
X167993087Y-121873795D01*
X167993083Y-121873794D01*
X167988212Y-121872069D01*
X167983119Y-121871162D01*
X167983116Y-121871161D01*
X167773373Y-121833800D01*
X167773367Y-121833799D01*
X167768284Y-121832894D01*
X167694452Y-121831992D01*
X167550081Y-121830228D01*
X167550079Y-121830228D01*
X167544911Y-121830165D01*
X167324091Y-121863955D01*
X167111756Y-121933357D01*
X166913607Y-122036507D01*
X166909474Y-122039610D01*
X166909471Y-122039612D01*
X166739100Y-122167530D01*
X166734965Y-122170635D01*
X166580629Y-122332138D01*
X166473201Y-122489621D01*
X166418293Y-122534621D01*
X166347768Y-122542792D01*
X166284021Y-122511538D01*
X166263324Y-122487054D01*
X166182822Y-122362617D01*
X166182820Y-122362614D01*
X166180014Y-122358277D01*
X166029670Y-122193051D01*
X166025619Y-122189852D01*
X166025615Y-122189848D01*
X165858414Y-122057800D01*
X165858410Y-122057798D01*
X165854359Y-122054598D01*
X165839690Y-122046500D01*
X165740109Y-121991529D01*
X165658789Y-121946638D01*
X165653920Y-121944914D01*
X165653916Y-121944912D01*
X165453087Y-121873795D01*
X165453083Y-121873794D01*
X165448212Y-121872069D01*
X165443119Y-121871162D01*
X165443116Y-121871161D01*
X165233373Y-121833800D01*
X165233367Y-121833799D01*
X165228284Y-121832894D01*
X165154452Y-121831992D01*
X165010081Y-121830228D01*
X165010079Y-121830228D01*
X165004911Y-121830165D01*
X164784091Y-121863955D01*
X164571756Y-121933357D01*
X164373607Y-122036507D01*
X164369474Y-122039610D01*
X164369471Y-122039612D01*
X164199100Y-122167530D01*
X164194965Y-122170635D01*
X164040629Y-122332138D01*
X163933204Y-122489618D01*
X163932898Y-122490066D01*
X163877987Y-122535069D01*
X163807462Y-122543240D01*
X163743715Y-122511986D01*
X163723018Y-122487502D01*
X163642426Y-122362926D01*
X163636136Y-122354757D01*
X163492806Y-122197240D01*
X163485273Y-122190215D01*
X163318139Y-122058222D01*
X163309552Y-122052517D01*
X163123117Y-121949599D01*
X163113705Y-121945369D01*
X162912959Y-121874280D01*
X162902988Y-121871646D01*
X162831837Y-121858972D01*
X162818540Y-121860432D01*
X162814000Y-121874989D01*
X162814000Y-124508517D01*
X162306000Y-124508517D01*
X162306000Y-121873102D01*
X162302082Y-121859758D01*
X162287806Y-121857771D01*
X162249324Y-121863660D01*
X162239288Y-121866051D01*
X162036868Y-121932212D01*
X162027359Y-121936209D01*
X161838463Y-122034542D01*
X161829738Y-122040036D01*
X161659433Y-122167905D01*
X161651726Y-122174748D01*
X161574478Y-122255584D01*
X161512954Y-122291014D01*
X161442042Y-122287557D01*
X161384255Y-122246311D01*
X161365402Y-122212763D01*
X161323767Y-122101703D01*
X161320615Y-122093295D01*
X161233261Y-121976739D01*
X161116705Y-121889385D01*
X160980316Y-121838255D01*
X160918134Y-121831500D01*
X159121866Y-121831500D01*
X159059684Y-121838255D01*
X158923295Y-121889385D01*
X158806739Y-121976739D01*
X158801358Y-121983919D01*
X158792255Y-121996065D01*
X158735396Y-122038580D01*
X158691429Y-122046500D01*
X149115843Y-122046500D01*
X149047722Y-122026498D01*
X149026748Y-122009595D01*
X147865405Y-120848252D01*
X147831379Y-120785940D01*
X147828500Y-120759157D01*
X147828500Y-111640000D01*
X151086502Y-111640000D01*
X151106457Y-111868087D01*
X151107881Y-111873400D01*
X151107881Y-111873402D01*
X151155851Y-112052425D01*
X151165716Y-112089243D01*
X151168039Y-112094224D01*
X151168039Y-112094225D01*
X151260151Y-112291762D01*
X151260154Y-112291767D01*
X151262477Y-112296749D01*
X151265634Y-112301257D01*
X151369078Y-112448990D01*
X151393802Y-112484300D01*
X151555700Y-112646198D01*
X151560208Y-112649355D01*
X151560211Y-112649357D01*
X151600445Y-112677529D01*
X151743251Y-112777523D01*
X151748233Y-112779846D01*
X151748238Y-112779849D01*
X151945775Y-112871961D01*
X151950757Y-112874284D01*
X151956065Y-112875706D01*
X151956067Y-112875707D01*
X152166598Y-112932119D01*
X152166600Y-112932119D01*
X152171913Y-112933543D01*
X152400000Y-112953498D01*
X152628087Y-112933543D01*
X152633400Y-112932119D01*
X152633402Y-112932119D01*
X152843933Y-112875707D01*
X152843935Y-112875706D01*
X152849243Y-112874284D01*
X152854225Y-112871961D01*
X153051762Y-112779849D01*
X153051767Y-112779846D01*
X153056749Y-112777523D01*
X153199555Y-112677529D01*
X153239789Y-112649357D01*
X153239792Y-112649355D01*
X153244300Y-112646198D01*
X153406198Y-112484300D01*
X153430923Y-112448990D01*
X153534366Y-112301257D01*
X153537523Y-112296749D01*
X153539846Y-112291767D01*
X153539849Y-112291762D01*
X153631961Y-112094225D01*
X153631961Y-112094224D01*
X153634284Y-112089243D01*
X153644150Y-112052425D01*
X153692119Y-111873402D01*
X153692119Y-111873400D01*
X153693543Y-111868087D01*
X153713498Y-111640000D01*
X153693543Y-111411913D01*
X153687593Y-111389707D01*
X153635707Y-111196067D01*
X153635706Y-111196065D01*
X153634284Y-111190757D01*
X153547432Y-111004500D01*
X153539849Y-110988238D01*
X153539846Y-110988233D01*
X153537523Y-110983251D01*
X153464098Y-110878389D01*
X153409357Y-110800211D01*
X153409355Y-110800208D01*
X153406198Y-110795700D01*
X153244300Y-110633802D01*
X153239792Y-110630645D01*
X153239789Y-110630643D01*
X153161611Y-110575902D01*
X153056749Y-110502477D01*
X153051767Y-110500154D01*
X153051762Y-110500151D01*
X153017543Y-110484195D01*
X152964258Y-110437278D01*
X152944797Y-110369001D01*
X152965339Y-110301041D01*
X153017543Y-110255805D01*
X153051762Y-110239849D01*
X153051767Y-110239846D01*
X153056749Y-110237523D01*
X153199555Y-110137529D01*
X153239789Y-110109357D01*
X153239792Y-110109355D01*
X153244300Y-110106198D01*
X153406198Y-109944300D01*
X153430923Y-109908990D01*
X153534366Y-109761257D01*
X153537523Y-109756749D01*
X153539846Y-109751767D01*
X153539849Y-109751762D01*
X153631961Y-109554225D01*
X153631961Y-109554224D01*
X153634284Y-109549243D01*
X153644150Y-109512425D01*
X153692119Y-109333402D01*
X153692119Y-109333400D01*
X153693543Y-109328087D01*
X153713498Y-109100000D01*
X153693543Y-108871913D01*
X153686494Y-108845607D01*
X153635707Y-108656067D01*
X153635706Y-108656065D01*
X153634284Y-108650757D01*
X153624281Y-108629305D01*
X153539849Y-108448238D01*
X153539846Y-108448233D01*
X153537523Y-108443251D01*
X153437443Y-108300322D01*
X153409357Y-108260211D01*
X153409355Y-108260208D01*
X153406198Y-108255700D01*
X153244300Y-108093802D01*
X153239792Y-108090645D01*
X153239789Y-108090643D01*
X153161611Y-108035902D01*
X153056749Y-107962477D01*
X153051767Y-107960154D01*
X153051762Y-107960151D01*
X153017543Y-107944195D01*
X152964258Y-107897278D01*
X152944797Y-107829001D01*
X152965339Y-107761041D01*
X153017543Y-107715805D01*
X153051762Y-107699849D01*
X153051767Y-107699846D01*
X153056749Y-107697523D01*
X153199555Y-107597529D01*
X153239789Y-107569357D01*
X153239792Y-107569355D01*
X153244300Y-107566198D01*
X153406198Y-107404300D01*
X153430923Y-107368990D01*
X153534366Y-107221257D01*
X153537523Y-107216749D01*
X153539846Y-107211767D01*
X153539849Y-107211762D01*
X153631961Y-107014225D01*
X153631961Y-107014224D01*
X153634284Y-107009243D01*
X153644150Y-106972425D01*
X153692119Y-106793402D01*
X153692119Y-106793400D01*
X153693543Y-106788087D01*
X153713498Y-106560000D01*
X153693543Y-106331913D01*
X153687593Y-106309707D01*
X153635707Y-106116067D01*
X153635706Y-106116065D01*
X153634284Y-106110757D01*
X153622092Y-106084610D01*
X153539849Y-105908238D01*
X153539846Y-105908233D01*
X153537523Y-105903251D01*
X153464098Y-105798389D01*
X153409357Y-105720211D01*
X153409355Y-105720208D01*
X153406198Y-105715700D01*
X153244300Y-105553802D01*
X153239792Y-105550645D01*
X153239789Y-105550643D01*
X153143377Y-105483135D01*
X153056749Y-105422477D01*
X153051767Y-105420154D01*
X153051762Y-105420151D01*
X153017543Y-105404195D01*
X152964258Y-105357278D01*
X152944797Y-105289001D01*
X152965339Y-105221041D01*
X153017543Y-105175805D01*
X153051762Y-105159849D01*
X153051767Y-105159846D01*
X153056749Y-105157523D01*
X153190069Y-105064171D01*
X153239789Y-105029357D01*
X153239792Y-105029355D01*
X153244300Y-105026198D01*
X153406198Y-104864300D01*
X153430923Y-104828990D01*
X153509032Y-104717438D01*
X153537523Y-104676749D01*
X153539846Y-104671767D01*
X153539849Y-104671762D01*
X153631961Y-104474225D01*
X153631961Y-104474224D01*
X153634284Y-104469243D01*
X153644150Y-104432425D01*
X153692119Y-104253402D01*
X153692119Y-104253400D01*
X153693543Y-104248087D01*
X153713498Y-104020000D01*
X153693543Y-103791913D01*
X153686600Y-103766000D01*
X153635707Y-103576067D01*
X153635706Y-103576065D01*
X153634284Y-103570757D01*
X153621043Y-103542361D01*
X153539849Y-103368238D01*
X153539846Y-103368233D01*
X153537523Y-103363251D01*
X153418260Y-103192926D01*
X153409357Y-103180211D01*
X153409355Y-103180208D01*
X153406198Y-103175700D01*
X153244300Y-103013802D01*
X153239792Y-103010645D01*
X153239789Y-103010643D01*
X153161611Y-102955902D01*
X153056749Y-102882477D01*
X153051767Y-102880154D01*
X153051762Y-102880151D01*
X153017543Y-102864195D01*
X152964258Y-102817278D01*
X152944797Y-102749001D01*
X152965339Y-102681041D01*
X153017543Y-102635805D01*
X153051762Y-102619849D01*
X153051767Y-102619846D01*
X153056749Y-102617523D01*
X153190069Y-102524171D01*
X153239789Y-102489357D01*
X153239792Y-102489355D01*
X153244300Y-102486198D01*
X153406198Y-102324300D01*
X153430923Y-102288990D01*
X153509032Y-102177438D01*
X153537523Y-102136749D01*
X153539846Y-102131767D01*
X153539849Y-102131762D01*
X153631961Y-101934225D01*
X153631961Y-101934224D01*
X153634284Y-101929243D01*
X153644150Y-101892425D01*
X153692119Y-101713402D01*
X153692119Y-101713400D01*
X153693543Y-101708087D01*
X153713498Y-101480000D01*
X153693543Y-101251913D01*
X153686600Y-101226000D01*
X153635707Y-101036067D01*
X153635706Y-101036065D01*
X153634284Y-101030757D01*
X153602121Y-100961783D01*
X153539849Y-100828238D01*
X153539846Y-100828233D01*
X153537523Y-100823251D01*
X153418260Y-100652926D01*
X153409357Y-100640211D01*
X153409355Y-100640208D01*
X153406198Y-100635700D01*
X153244300Y-100473802D01*
X153239792Y-100470645D01*
X153239789Y-100470643D01*
X153070553Y-100352143D01*
X153056749Y-100342477D01*
X153051767Y-100340154D01*
X153051762Y-100340151D01*
X153017543Y-100324195D01*
X152964258Y-100277278D01*
X152944797Y-100209001D01*
X152965339Y-100141041D01*
X153017543Y-100095805D01*
X153051762Y-100079849D01*
X153051767Y-100079846D01*
X153056749Y-100077523D01*
X153183008Y-99989115D01*
X153239789Y-99949357D01*
X153239792Y-99949355D01*
X153244300Y-99946198D01*
X153406198Y-99784300D01*
X153417140Y-99768674D01*
X153534366Y-99601257D01*
X153537523Y-99596749D01*
X153539846Y-99591767D01*
X153539849Y-99591762D01*
X153631961Y-99394225D01*
X153631961Y-99394224D01*
X153634284Y-99389243D01*
X153644150Y-99352425D01*
X153692119Y-99173402D01*
X153692119Y-99173400D01*
X153693543Y-99168087D01*
X153713498Y-98940000D01*
X153693543Y-98711913D01*
X153687593Y-98689707D01*
X153635707Y-98496067D01*
X153635706Y-98496065D01*
X153634284Y-98490757D01*
X153622092Y-98464610D01*
X153539849Y-98288238D01*
X153539846Y-98288233D01*
X153537523Y-98283251D01*
X153464098Y-98178389D01*
X153409357Y-98100211D01*
X153409355Y-98100208D01*
X153406198Y-98095700D01*
X153244300Y-97933802D01*
X153239792Y-97930645D01*
X153239789Y-97930643D01*
X153104780Y-97836109D01*
X153056749Y-97802477D01*
X153051767Y-97800154D01*
X153051762Y-97800151D01*
X153017543Y-97784195D01*
X152964258Y-97737278D01*
X152944797Y-97669001D01*
X152965339Y-97601041D01*
X153017543Y-97555805D01*
X153051762Y-97539849D01*
X153051767Y-97539846D01*
X153056749Y-97537523D01*
X153186673Y-97446549D01*
X153239789Y-97409357D01*
X153239792Y-97409355D01*
X153244300Y-97406198D01*
X153406198Y-97244300D01*
X153436050Y-97201668D01*
X153517801Y-97084915D01*
X153537523Y-97056749D01*
X153539846Y-97051767D01*
X153539849Y-97051762D01*
X153631961Y-96854225D01*
X153631961Y-96854224D01*
X153634284Y-96849243D01*
X153693543Y-96628087D01*
X153713498Y-96400000D01*
X153693543Y-96171913D01*
X153634284Y-95950757D01*
X153631961Y-95945775D01*
X153539849Y-95748238D01*
X153539846Y-95748233D01*
X153537523Y-95743251D01*
X153406198Y-95555700D01*
X153244300Y-95393802D01*
X153239792Y-95390645D01*
X153239789Y-95390643D01*
X153161611Y-95335902D01*
X153056749Y-95262477D01*
X153051767Y-95260154D01*
X153051762Y-95260151D01*
X153017543Y-95244195D01*
X152964258Y-95197278D01*
X152944797Y-95129001D01*
X152965339Y-95061041D01*
X153017543Y-95015805D01*
X153051762Y-94999849D01*
X153051767Y-94999846D01*
X153056749Y-94997523D01*
X153161611Y-94924098D01*
X153239789Y-94869357D01*
X153239792Y-94869355D01*
X153244300Y-94866198D01*
X153406198Y-94704300D01*
X153537523Y-94516749D01*
X153539846Y-94511767D01*
X153539849Y-94511762D01*
X153631961Y-94314225D01*
X153631961Y-94314224D01*
X153634284Y-94309243D01*
X153693543Y-94088087D01*
X153713498Y-93860000D01*
X153693543Y-93631913D01*
X153634284Y-93410757D01*
X153578116Y-93290303D01*
X153539849Y-93208238D01*
X153539846Y-93208233D01*
X153537523Y-93203251D01*
X153406198Y-93015700D01*
X153244300Y-92853802D01*
X153239792Y-92850645D01*
X153239789Y-92850643D01*
X153129424Y-92773365D01*
X153056749Y-92722477D01*
X153051767Y-92720154D01*
X153051762Y-92720151D01*
X153017543Y-92704195D01*
X152964258Y-92657278D01*
X152944797Y-92589001D01*
X152965339Y-92521041D01*
X153017543Y-92475805D01*
X153051762Y-92459849D01*
X153051767Y-92459846D01*
X153056749Y-92457523D01*
X153161611Y-92384098D01*
X153239789Y-92329357D01*
X153239792Y-92329355D01*
X153244300Y-92326198D01*
X153406198Y-92164300D01*
X153537523Y-91976749D01*
X153539846Y-91971767D01*
X153539849Y-91971762D01*
X153631961Y-91774225D01*
X153631961Y-91774224D01*
X153634284Y-91769243D01*
X153693543Y-91548087D01*
X153713498Y-91320000D01*
X153693543Y-91091913D01*
X153634284Y-90870757D01*
X153631961Y-90865775D01*
X153539849Y-90668238D01*
X153539846Y-90668233D01*
X153537523Y-90663251D01*
X153406198Y-90475700D01*
X153244300Y-90313802D01*
X153239792Y-90310645D01*
X153239789Y-90310643D01*
X153161611Y-90255902D01*
X153056749Y-90182477D01*
X153051767Y-90180154D01*
X153051762Y-90180151D01*
X153017543Y-90164195D01*
X152964258Y-90117278D01*
X152944797Y-90049001D01*
X152965339Y-89981041D01*
X153017543Y-89935805D01*
X153051762Y-89919849D01*
X153051767Y-89919846D01*
X153056749Y-89917523D01*
X153161611Y-89844098D01*
X153239789Y-89789357D01*
X153239792Y-89789355D01*
X153244300Y-89786198D01*
X153406198Y-89624300D01*
X153537523Y-89436749D01*
X153539846Y-89431767D01*
X153539849Y-89431762D01*
X153631961Y-89234225D01*
X153631961Y-89234224D01*
X153634284Y-89229243D01*
X153693543Y-89008087D01*
X153713498Y-88780000D01*
X153693543Y-88551913D01*
X153634284Y-88330757D01*
X153631961Y-88325775D01*
X153539849Y-88128238D01*
X153539846Y-88128233D01*
X153537523Y-88123251D01*
X153406198Y-87935700D01*
X153244300Y-87773802D01*
X153239792Y-87770645D01*
X153239789Y-87770643D01*
X153161611Y-87715902D01*
X153056749Y-87642477D01*
X153051767Y-87640154D01*
X153051762Y-87640151D01*
X153017543Y-87624195D01*
X152964258Y-87577278D01*
X152944797Y-87509001D01*
X152965339Y-87441041D01*
X153017543Y-87395805D01*
X153051762Y-87379849D01*
X153051767Y-87379846D01*
X153056749Y-87377523D01*
X153199555Y-87277529D01*
X153239789Y-87249357D01*
X153239792Y-87249355D01*
X153244300Y-87246198D01*
X153406198Y-87084300D01*
X153430923Y-87048990D01*
X153534366Y-86901257D01*
X153537523Y-86896749D01*
X153539846Y-86891767D01*
X153539849Y-86891762D01*
X153631961Y-86694225D01*
X153631961Y-86694224D01*
X153634284Y-86689243D01*
X153644150Y-86652425D01*
X153692119Y-86473402D01*
X153692119Y-86473400D01*
X153693543Y-86468087D01*
X153713498Y-86240000D01*
X153693543Y-86011913D01*
X153687593Y-85989707D01*
X153635707Y-85796067D01*
X153635706Y-85796065D01*
X153634284Y-85790757D01*
X153622092Y-85764610D01*
X153539849Y-85588238D01*
X153539846Y-85588233D01*
X153537523Y-85583251D01*
X153464098Y-85478389D01*
X153409357Y-85400211D01*
X153409355Y-85400208D01*
X153406198Y-85395700D01*
X153244300Y-85233802D01*
X153239792Y-85230645D01*
X153239789Y-85230643D01*
X153104780Y-85136109D01*
X153056749Y-85102477D01*
X153051767Y-85100154D01*
X153051762Y-85100151D01*
X153017543Y-85084195D01*
X152964258Y-85037278D01*
X152944797Y-84969001D01*
X152965339Y-84901041D01*
X153017543Y-84855805D01*
X153051762Y-84839849D01*
X153051767Y-84839846D01*
X153056749Y-84837523D01*
X153194351Y-84741173D01*
X153239789Y-84709357D01*
X153239792Y-84709355D01*
X153244300Y-84706198D01*
X153406198Y-84544300D01*
X153419763Y-84524928D01*
X153509032Y-84397438D01*
X153537523Y-84356749D01*
X153539846Y-84351767D01*
X153539849Y-84351762D01*
X153547665Y-84335000D01*
X154026496Y-84335000D01*
X154046458Y-84524928D01*
X154105473Y-84706556D01*
X154108776Y-84712278D01*
X154108777Y-84712279D01*
X154123355Y-84737529D01*
X154200960Y-84871944D01*
X154205378Y-84876851D01*
X154205379Y-84876852D01*
X154272136Y-84950993D01*
X154302854Y-85015000D01*
X154304500Y-85035303D01*
X154304500Y-105089114D01*
X154303970Y-105100348D01*
X154302292Y-105107853D01*
X154303278Y-105139242D01*
X154304438Y-105176146D01*
X154304500Y-105180103D01*
X154304500Y-105208117D01*
X154304996Y-105212042D01*
X154304996Y-105212043D01*
X154305008Y-105212138D01*
X154305941Y-105223983D01*
X154307335Y-105268339D01*
X154313013Y-105287882D01*
X154317023Y-105307246D01*
X154319573Y-105327433D01*
X154322489Y-105334797D01*
X154322490Y-105334802D01*
X154335907Y-105368690D01*
X154339752Y-105379919D01*
X154352131Y-105422527D01*
X154356169Y-105429354D01*
X154356170Y-105429357D01*
X154362488Y-105440040D01*
X154371188Y-105457798D01*
X154375761Y-105469349D01*
X154375765Y-105469355D01*
X154378681Y-105476722D01*
X154383339Y-105483133D01*
X154383340Y-105483135D01*
X154404764Y-105512622D01*
X154411281Y-105522544D01*
X154429826Y-105553902D01*
X154429829Y-105553906D01*
X154433866Y-105560732D01*
X154448250Y-105575116D01*
X154461091Y-105590150D01*
X154473058Y-105606621D01*
X154479166Y-105611674D01*
X154507255Y-105634911D01*
X154516035Y-105642901D01*
X160906616Y-112033483D01*
X160914192Y-112041809D01*
X160918313Y-112048303D01*
X160924088Y-112053726D01*
X160968131Y-112095085D01*
X160970973Y-112097840D01*
X160990772Y-112117639D01*
X160993897Y-112120063D01*
X160993906Y-112120071D01*
X160993992Y-112120137D01*
X161003017Y-112127845D01*
X161035360Y-112158217D01*
X161042304Y-112162035D01*
X161042306Y-112162036D01*
X161053195Y-112168022D01*
X161069713Y-112178873D01*
X161085799Y-112191350D01*
X161126532Y-112208976D01*
X161137180Y-112214193D01*
X161176063Y-112235569D01*
X161183738Y-112237540D01*
X161183744Y-112237542D01*
X161195777Y-112240631D01*
X161214479Y-112247034D01*
X161233158Y-112255117D01*
X161240984Y-112256357D01*
X161240989Y-112256358D01*
X161276986Y-112262060D01*
X161288606Y-112264466D01*
X161323903Y-112273528D01*
X161331584Y-112275500D01*
X161351932Y-112275500D01*
X161371644Y-112277051D01*
X161391746Y-112280235D01*
X161435921Y-112276059D01*
X161447780Y-112275500D01*
X171502007Y-112275500D01*
X171570128Y-112295502D01*
X171605220Y-112329229D01*
X171689078Y-112448990D01*
X171713802Y-112484300D01*
X171875700Y-112646198D01*
X171880208Y-112649355D01*
X171880211Y-112649357D01*
X171920445Y-112677529D01*
X172063251Y-112777523D01*
X172068233Y-112779846D01*
X172068238Y-112779849D01*
X172265775Y-112871961D01*
X172270757Y-112874284D01*
X172276065Y-112875706D01*
X172276067Y-112875707D01*
X172486598Y-112932119D01*
X172486600Y-112932119D01*
X172491913Y-112933543D01*
X172720000Y-112953498D01*
X172948087Y-112933543D01*
X172953400Y-112932119D01*
X172953402Y-112932119D01*
X173163933Y-112875707D01*
X173163935Y-112875706D01*
X173169243Y-112874284D01*
X173174225Y-112871961D01*
X173371762Y-112779849D01*
X173371767Y-112779846D01*
X173376749Y-112777523D01*
X173519555Y-112677529D01*
X173559789Y-112649357D01*
X173559792Y-112649355D01*
X173564300Y-112646198D01*
X173726198Y-112484300D01*
X173750923Y-112448990D01*
X173854366Y-112301257D01*
X173857523Y-112296749D01*
X173859846Y-112291767D01*
X173859849Y-112291762D01*
X173951961Y-112094225D01*
X173951961Y-112094224D01*
X173954284Y-112089243D01*
X173964150Y-112052425D01*
X174012119Y-111873402D01*
X174012119Y-111873400D01*
X174013543Y-111868087D01*
X174033498Y-111640000D01*
X174013543Y-111411913D01*
X174007593Y-111389707D01*
X173955707Y-111196067D01*
X173955706Y-111196065D01*
X173954284Y-111190757D01*
X173867432Y-111004500D01*
X173859849Y-110988238D01*
X173859846Y-110988233D01*
X173857523Y-110983251D01*
X173784098Y-110878389D01*
X173729357Y-110800211D01*
X173729355Y-110800208D01*
X173726198Y-110795700D01*
X173564300Y-110633802D01*
X173559792Y-110630645D01*
X173559789Y-110630643D01*
X173481611Y-110575902D01*
X173376749Y-110502477D01*
X173371767Y-110500154D01*
X173371762Y-110500151D01*
X173337543Y-110484195D01*
X173284258Y-110437278D01*
X173264797Y-110369001D01*
X173285339Y-110301041D01*
X173337543Y-110255805D01*
X173371762Y-110239849D01*
X173371767Y-110239846D01*
X173376749Y-110237523D01*
X173519555Y-110137529D01*
X173559789Y-110109357D01*
X173559792Y-110109355D01*
X173564300Y-110106198D01*
X173726198Y-109944300D01*
X173750923Y-109908990D01*
X173854366Y-109761257D01*
X173857523Y-109756749D01*
X173859846Y-109751767D01*
X173859849Y-109751762D01*
X173951961Y-109554225D01*
X173951961Y-109554224D01*
X173954284Y-109549243D01*
X173964150Y-109512425D01*
X174012119Y-109333402D01*
X174012119Y-109333400D01*
X174013543Y-109328087D01*
X174033498Y-109100000D01*
X174013543Y-108871913D01*
X174006494Y-108845607D01*
X173955707Y-108656067D01*
X173955706Y-108656065D01*
X173954284Y-108650757D01*
X173944281Y-108629305D01*
X173859849Y-108448238D01*
X173859846Y-108448233D01*
X173857523Y-108443251D01*
X173757443Y-108300322D01*
X173729357Y-108260211D01*
X173729355Y-108260208D01*
X173726198Y-108255700D01*
X173564300Y-108093802D01*
X173559792Y-108090645D01*
X173559789Y-108090643D01*
X173481611Y-108035902D01*
X173376749Y-107962477D01*
X173371767Y-107960154D01*
X173371762Y-107960151D01*
X173337543Y-107944195D01*
X173284258Y-107897278D01*
X173264797Y-107829001D01*
X173285339Y-107761041D01*
X173337543Y-107715805D01*
X173371762Y-107699849D01*
X173371767Y-107699846D01*
X173376749Y-107697523D01*
X173519555Y-107597529D01*
X173559789Y-107569357D01*
X173559792Y-107569355D01*
X173564300Y-107566198D01*
X173726198Y-107404300D01*
X173750923Y-107368990D01*
X173854366Y-107221257D01*
X173857523Y-107216749D01*
X173859846Y-107211767D01*
X173859849Y-107211762D01*
X173951961Y-107014225D01*
X173951961Y-107014224D01*
X173954284Y-107009243D01*
X173964150Y-106972425D01*
X174012119Y-106793402D01*
X174012119Y-106793400D01*
X174013543Y-106788087D01*
X174033498Y-106560000D01*
X174013543Y-106331913D01*
X174007593Y-106309707D01*
X173955707Y-106116067D01*
X173955706Y-106116065D01*
X173954284Y-106110757D01*
X173942092Y-106084610D01*
X173859849Y-105908238D01*
X173859846Y-105908233D01*
X173857523Y-105903251D01*
X173784098Y-105798389D01*
X173729357Y-105720211D01*
X173729355Y-105720208D01*
X173726198Y-105715700D01*
X173564300Y-105553802D01*
X173559792Y-105550645D01*
X173559789Y-105550643D01*
X173463377Y-105483135D01*
X173376749Y-105422477D01*
X173371767Y-105420154D01*
X173371762Y-105420151D01*
X173337543Y-105404195D01*
X173284258Y-105357278D01*
X173264797Y-105289001D01*
X173285339Y-105221041D01*
X173337543Y-105175805D01*
X173371762Y-105159849D01*
X173371767Y-105159846D01*
X173376749Y-105157523D01*
X173510069Y-105064171D01*
X173559789Y-105029357D01*
X173559792Y-105029355D01*
X173564300Y-105026198D01*
X173726198Y-104864300D01*
X173750923Y-104828990D01*
X173829032Y-104717438D01*
X173857523Y-104676749D01*
X173859846Y-104671767D01*
X173859849Y-104671762D01*
X173951961Y-104474225D01*
X173951961Y-104474224D01*
X173954284Y-104469243D01*
X173964150Y-104432425D01*
X174012119Y-104253402D01*
X174012119Y-104253400D01*
X174013543Y-104248087D01*
X174033498Y-104020000D01*
X174013543Y-103791913D01*
X174006600Y-103766000D01*
X173955707Y-103576067D01*
X173955706Y-103576065D01*
X173954284Y-103570757D01*
X173941043Y-103542361D01*
X173859849Y-103368238D01*
X173859846Y-103368233D01*
X173857523Y-103363251D01*
X173738260Y-103192926D01*
X173729357Y-103180211D01*
X173729355Y-103180208D01*
X173726198Y-103175700D01*
X173564300Y-103013802D01*
X173559792Y-103010645D01*
X173559789Y-103010643D01*
X173481611Y-102955902D01*
X173376749Y-102882477D01*
X173371767Y-102880154D01*
X173371762Y-102880151D01*
X173337543Y-102864195D01*
X173284258Y-102817278D01*
X173264797Y-102749001D01*
X173285339Y-102681041D01*
X173337543Y-102635805D01*
X173371762Y-102619849D01*
X173371767Y-102619846D01*
X173376749Y-102617523D01*
X173510069Y-102524171D01*
X173559789Y-102489357D01*
X173559792Y-102489355D01*
X173564300Y-102486198D01*
X173726198Y-102324300D01*
X173750923Y-102288990D01*
X173834780Y-102169229D01*
X173890237Y-102124901D01*
X173937993Y-102115500D01*
X174944578Y-102115500D01*
X175012699Y-102135502D01*
X175033673Y-102152405D01*
X182207595Y-109326327D01*
X182241621Y-109388639D01*
X182244500Y-109415422D01*
X182244500Y-120466361D01*
X182224498Y-120534482D01*
X182176683Y-120578122D01*
X182126872Y-120604052D01*
X182122739Y-120607155D01*
X182122736Y-120607157D01*
X182097624Y-120626012D01*
X181941655Y-120743117D01*
X181781639Y-120910564D01*
X181778725Y-120914836D01*
X181778724Y-120914837D01*
X181763152Y-120937665D01*
X181651119Y-121101899D01*
X181553602Y-121311981D01*
X181491707Y-121535169D01*
X181467095Y-121765469D01*
X181467392Y-121770622D01*
X181467392Y-121770625D01*
X181477541Y-121946638D01*
X181480427Y-121996697D01*
X181481564Y-122001743D01*
X181481565Y-122001749D01*
X181505795Y-122109262D01*
X181531346Y-122222642D01*
X181533288Y-122227424D01*
X181533289Y-122227428D01*
X181588184Y-122362617D01*
X181618484Y-122437237D01*
X181739501Y-122634719D01*
X181742882Y-122638622D01*
X181851304Y-122763788D01*
X181880786Y-122828373D01*
X181870671Y-122898646D01*
X181824170Y-122952294D01*
X181800296Y-122964267D01*
X181744515Y-122985179D01*
X181733295Y-122989385D01*
X181616739Y-123076739D01*
X181529385Y-123193295D01*
X181478255Y-123329684D01*
X181471500Y-123391866D01*
X181471500Y-125288134D01*
X181478255Y-125350316D01*
X181529385Y-125486705D01*
X181616739Y-125603261D01*
X181733295Y-125690615D01*
X181869684Y-125741745D01*
X181931866Y-125748500D01*
X183828134Y-125748500D01*
X183890316Y-125741745D01*
X184026705Y-125690615D01*
X184143261Y-125603261D01*
X184230615Y-125486705D01*
X184281745Y-125350316D01*
X184288500Y-125288134D01*
X184288500Y-123391866D01*
X184281745Y-123329684D01*
X184230615Y-123193295D01*
X184143261Y-123076739D01*
X184026705Y-122989385D01*
X184018296Y-122986233D01*
X184018295Y-122986232D01*
X183959804Y-122964305D01*
X183903039Y-122921664D01*
X183878339Y-122855103D01*
X183893546Y-122785754D01*
X183915093Y-122757073D01*
X183952636Y-122719660D01*
X183952640Y-122719655D01*
X183956303Y-122716005D01*
X183966794Y-122701406D01*
X184017875Y-122630318D01*
X184091458Y-122527917D01*
X184110387Y-122489618D01*
X184191784Y-122324922D01*
X184191785Y-122324920D01*
X184194078Y-122320280D01*
X184261408Y-122098671D01*
X184291640Y-121869041D01*
X184291764Y-121863955D01*
X184293245Y-121803365D01*
X184293245Y-121803361D01*
X184293327Y-121800000D01*
X184277821Y-121611395D01*
X184274773Y-121574318D01*
X184274772Y-121574312D01*
X184274349Y-121569167D01*
X184217925Y-121344533D01*
X184207603Y-121320794D01*
X184127630Y-121136868D01*
X184127628Y-121136865D01*
X184125570Y-121132131D01*
X183999764Y-120937665D01*
X183843887Y-120766358D01*
X183839836Y-120763159D01*
X183839832Y-120763155D01*
X183666178Y-120626012D01*
X183666175Y-120626010D01*
X183662123Y-120622810D01*
X183580607Y-120577811D01*
X183530636Y-120527378D01*
X183515500Y-120467502D01*
X183515500Y-111606695D01*
X184057251Y-111606695D01*
X184057548Y-111611848D01*
X184057548Y-111611851D01*
X184063011Y-111706590D01*
X184070110Y-111829715D01*
X184071247Y-111834761D01*
X184071248Y-111834767D01*
X184079955Y-111873402D01*
X184119222Y-112047639D01*
X184168104Y-112168022D01*
X184200189Y-112247037D01*
X184203266Y-112254616D01*
X184319987Y-112445088D01*
X184466250Y-112613938D01*
X184638126Y-112756632D01*
X184831000Y-112869338D01*
X184835825Y-112871180D01*
X184835826Y-112871181D01*
X184908612Y-112898975D01*
X185039692Y-112949030D01*
X185044760Y-112950061D01*
X185044763Y-112950062D01*
X185149466Y-112971364D01*
X185258597Y-112993567D01*
X185263772Y-112993757D01*
X185263774Y-112993757D01*
X185476673Y-113001564D01*
X185476677Y-113001564D01*
X185481837Y-113001753D01*
X185486957Y-113001097D01*
X185486959Y-113001097D01*
X185698288Y-112974025D01*
X185698289Y-112974025D01*
X185703416Y-112973368D01*
X185769646Y-112953498D01*
X185912429Y-112910661D01*
X185912434Y-112910659D01*
X185917384Y-112909174D01*
X186117994Y-112810896D01*
X186299860Y-112681173D01*
X186331788Y-112649357D01*
X186454435Y-112527137D01*
X186458096Y-112523489D01*
X186489498Y-112479789D01*
X186585435Y-112346277D01*
X186588453Y-112342077D01*
X186608628Y-112301257D01*
X186685136Y-112146453D01*
X186685137Y-112146451D01*
X186687430Y-112141811D01*
X186752370Y-111928069D01*
X186781529Y-111706590D01*
X186783156Y-111640000D01*
X186764852Y-111417361D01*
X186710431Y-111200702D01*
X186621354Y-110995840D01*
X186500014Y-110808277D01*
X186349670Y-110643051D01*
X186345619Y-110639852D01*
X186345615Y-110639848D01*
X186178414Y-110507800D01*
X186178410Y-110507798D01*
X186174359Y-110504598D01*
X186133053Y-110481796D01*
X186083084Y-110431364D01*
X186068312Y-110361921D01*
X186093428Y-110295516D01*
X186120780Y-110268909D01*
X186169207Y-110234366D01*
X186299860Y-110141173D01*
X186331788Y-110109357D01*
X186454435Y-109987137D01*
X186458096Y-109983489D01*
X186489498Y-109939789D01*
X186585435Y-109806277D01*
X186588453Y-109802077D01*
X186608628Y-109761257D01*
X186685136Y-109606453D01*
X186685137Y-109606451D01*
X186687430Y-109601811D01*
X186720343Y-109493483D01*
X186750865Y-109393023D01*
X186750865Y-109393021D01*
X186752370Y-109388069D01*
X186781529Y-109166590D01*
X186783156Y-109100000D01*
X186764852Y-108877361D01*
X186710431Y-108660702D01*
X186621354Y-108455840D01*
X186500014Y-108268277D01*
X186349670Y-108103051D01*
X186345619Y-108099852D01*
X186345615Y-108099848D01*
X186178414Y-107967800D01*
X186178410Y-107967798D01*
X186174359Y-107964598D01*
X186133053Y-107941796D01*
X186083084Y-107891364D01*
X186068312Y-107821921D01*
X186093428Y-107755516D01*
X186120780Y-107728909D01*
X186169207Y-107694366D01*
X186299860Y-107601173D01*
X186331788Y-107569357D01*
X186454435Y-107447137D01*
X186458096Y-107443489D01*
X186489498Y-107399789D01*
X186585435Y-107266277D01*
X186588453Y-107262077D01*
X186608628Y-107221257D01*
X186685136Y-107066453D01*
X186685137Y-107066451D01*
X186687430Y-107061811D01*
X186752370Y-106848069D01*
X186781529Y-106626590D01*
X186783156Y-106560000D01*
X186764852Y-106337361D01*
X186710431Y-106120702D01*
X186621354Y-105915840D01*
X186500014Y-105728277D01*
X186349670Y-105563051D01*
X186345619Y-105559852D01*
X186345615Y-105559848D01*
X186178414Y-105427800D01*
X186178410Y-105427798D01*
X186174359Y-105424598D01*
X186159690Y-105416500D01*
X186141587Y-105406507D01*
X186132569Y-105401529D01*
X186082598Y-105351097D01*
X186067826Y-105281654D01*
X186092942Y-105215248D01*
X186120294Y-105188641D01*
X186295328Y-105063792D01*
X186303200Y-105057139D01*
X186454052Y-104906812D01*
X186460730Y-104898965D01*
X186585003Y-104726020D01*
X186590313Y-104717183D01*
X186684670Y-104526267D01*
X186688469Y-104516672D01*
X186750377Y-104312910D01*
X186752555Y-104302837D01*
X186753986Y-104291962D01*
X186751775Y-104277778D01*
X186738617Y-104274000D01*
X184103225Y-104274000D01*
X184089694Y-104277973D01*
X184088257Y-104287966D01*
X184118565Y-104422446D01*
X184121645Y-104432275D01*
X184201770Y-104629603D01*
X184206413Y-104638794D01*
X184317694Y-104820388D01*
X184323777Y-104828699D01*
X184463213Y-104989667D01*
X184470580Y-104996883D01*
X184634434Y-105132916D01*
X184642881Y-105138831D01*
X184711969Y-105179203D01*
X184760693Y-105230842D01*
X184773764Y-105300625D01*
X184747033Y-105366396D01*
X184706584Y-105399752D01*
X184693607Y-105406507D01*
X184689474Y-105409610D01*
X184689471Y-105409612D01*
X184545871Y-105517430D01*
X184514965Y-105540635D01*
X184360629Y-105702138D01*
X184357715Y-105706410D01*
X184357714Y-105706411D01*
X184348300Y-105720211D01*
X184234743Y-105886680D01*
X184140688Y-106089305D01*
X184080989Y-106304570D01*
X184057251Y-106526695D01*
X184057548Y-106531848D01*
X184057548Y-106531851D01*
X184063011Y-106626590D01*
X184070110Y-106749715D01*
X184071247Y-106754761D01*
X184071248Y-106754767D01*
X184079955Y-106793402D01*
X184119222Y-106967639D01*
X184203266Y-107174616D01*
X184319987Y-107365088D01*
X184466250Y-107533938D01*
X184638126Y-107676632D01*
X184684105Y-107703500D01*
X184711445Y-107719476D01*
X184760169Y-107771114D01*
X184773240Y-107840897D01*
X184746509Y-107906669D01*
X184706055Y-107940027D01*
X184693607Y-107946507D01*
X184689474Y-107949610D01*
X184689471Y-107949612D01*
X184668132Y-107965634D01*
X184514965Y-108080635D01*
X184360629Y-108242138D01*
X184357715Y-108246410D01*
X184357714Y-108246411D01*
X184316108Y-108307403D01*
X184234743Y-108426680D01*
X184140688Y-108629305D01*
X184080989Y-108844570D01*
X184057251Y-109066695D01*
X184057548Y-109071848D01*
X184057548Y-109071851D01*
X184063727Y-109179020D01*
X184070110Y-109289715D01*
X184071247Y-109294761D01*
X184071248Y-109294767D01*
X184079955Y-109333402D01*
X184119222Y-109507639D01*
X184168104Y-109628022D01*
X184200189Y-109707037D01*
X184203266Y-109714616D01*
X184319987Y-109905088D01*
X184466250Y-110073938D01*
X184638126Y-110216632D01*
X184705163Y-110255805D01*
X184711445Y-110259476D01*
X184760169Y-110311114D01*
X184773240Y-110380897D01*
X184746509Y-110446669D01*
X184706055Y-110480027D01*
X184693607Y-110486507D01*
X184689474Y-110489610D01*
X184689471Y-110489612D01*
X184668132Y-110505634D01*
X184514965Y-110620635D01*
X184360629Y-110782138D01*
X184357715Y-110786410D01*
X184357714Y-110786411D01*
X184348300Y-110800211D01*
X184234743Y-110966680D01*
X184140688Y-111169305D01*
X184080989Y-111384570D01*
X184057251Y-111606695D01*
X183515500Y-111606695D01*
X183515500Y-109179020D01*
X183516029Y-109167791D01*
X183517708Y-109160281D01*
X183515562Y-109092001D01*
X183515500Y-109088044D01*
X183515500Y-109060017D01*
X183514989Y-109055971D01*
X183514057Y-109044136D01*
X183512913Y-109007722D01*
X183512664Y-108999795D01*
X183506987Y-108980254D01*
X183502978Y-108960894D01*
X183501421Y-108948566D01*
X183501420Y-108948563D01*
X183500427Y-108940701D01*
X183497510Y-108933335D01*
X183497509Y-108933329D01*
X183484091Y-108899439D01*
X183480246Y-108888210D01*
X183467869Y-108845607D01*
X183463836Y-108838788D01*
X183463834Y-108838783D01*
X183457510Y-108828091D01*
X183448813Y-108810341D01*
X183441319Y-108791412D01*
X183415240Y-108755517D01*
X183408722Y-108745595D01*
X183390170Y-108714224D01*
X183390166Y-108714219D01*
X183386134Y-108707401D01*
X183371747Y-108693014D01*
X183358906Y-108677980D01*
X183351602Y-108667927D01*
X183346942Y-108661513D01*
X183312750Y-108633227D01*
X183303971Y-108625238D01*
X175765250Y-101086517D01*
X175757674Y-101078191D01*
X175753553Y-101071697D01*
X175703734Y-101024914D01*
X175700893Y-101022160D01*
X175681094Y-101002361D01*
X175677969Y-100999937D01*
X175677960Y-100999929D01*
X175677874Y-100999863D01*
X175668849Y-100992155D01*
X175642285Y-100967210D01*
X175636506Y-100961783D01*
X175618669Y-100951977D01*
X175602153Y-100941127D01*
X175586067Y-100928650D01*
X175545334Y-100911024D01*
X175534686Y-100905807D01*
X175523058Y-100899415D01*
X175495803Y-100884431D01*
X175488128Y-100882460D01*
X175488122Y-100882458D01*
X175476089Y-100879369D01*
X175457387Y-100872966D01*
X175438708Y-100864883D01*
X175404872Y-100859524D01*
X175394873Y-100857940D01*
X175383260Y-100855535D01*
X175340282Y-100844500D01*
X175319935Y-100844500D01*
X175300224Y-100842949D01*
X175287950Y-100841005D01*
X175280121Y-100839765D01*
X175272229Y-100840511D01*
X175235944Y-100843941D01*
X175224086Y-100844500D01*
X173937993Y-100844500D01*
X173869872Y-100824498D01*
X173834780Y-100790771D01*
X173729357Y-100640211D01*
X173729355Y-100640208D01*
X173726198Y-100635700D01*
X173564300Y-100473802D01*
X173559792Y-100470645D01*
X173559789Y-100470643D01*
X173390553Y-100352143D01*
X173376749Y-100342477D01*
X173371767Y-100340154D01*
X173371762Y-100340151D01*
X173337543Y-100324195D01*
X173284258Y-100277278D01*
X173264797Y-100209001D01*
X173285339Y-100141041D01*
X173337543Y-100095805D01*
X173371762Y-100079849D01*
X173371767Y-100079846D01*
X173376749Y-100077523D01*
X173503008Y-99989115D01*
X173559789Y-99949357D01*
X173559792Y-99949355D01*
X173564300Y-99946198D01*
X173726198Y-99784300D01*
X173737140Y-99768674D01*
X173854366Y-99601257D01*
X173857523Y-99596749D01*
X173859846Y-99591767D01*
X173859849Y-99591762D01*
X173951961Y-99394225D01*
X173951961Y-99394224D01*
X173954284Y-99389243D01*
X173964150Y-99352425D01*
X174012119Y-99173402D01*
X174012119Y-99173400D01*
X174013543Y-99168087D01*
X174033498Y-98940000D01*
X174013543Y-98711913D01*
X174007593Y-98689707D01*
X173955707Y-98496067D01*
X173955706Y-98496065D01*
X173954284Y-98490757D01*
X173942092Y-98464610D01*
X173859849Y-98288238D01*
X173859846Y-98288233D01*
X173857523Y-98283251D01*
X173784098Y-98178389D01*
X173729357Y-98100211D01*
X173729355Y-98100208D01*
X173726198Y-98095700D01*
X173564300Y-97933802D01*
X173559792Y-97930645D01*
X173559789Y-97930643D01*
X173424780Y-97836109D01*
X173376749Y-97802477D01*
X173371767Y-97800154D01*
X173371762Y-97800151D01*
X173337543Y-97784195D01*
X173284258Y-97737278D01*
X173264797Y-97669001D01*
X173285339Y-97601041D01*
X173337543Y-97555805D01*
X173371762Y-97539849D01*
X173371767Y-97539846D01*
X173376749Y-97537523D01*
X173506673Y-97446549D01*
X173559789Y-97409357D01*
X173559792Y-97409355D01*
X173564300Y-97406198D01*
X173726198Y-97244300D01*
X173756050Y-97201668D01*
X173837801Y-97084915D01*
X173857523Y-97056749D01*
X173859846Y-97051767D01*
X173859849Y-97051762D01*
X173951961Y-96854225D01*
X173951961Y-96854224D01*
X173954284Y-96849243D01*
X174013543Y-96628087D01*
X174033498Y-96400000D01*
X174013543Y-96171913D01*
X173954284Y-95950757D01*
X173951961Y-95945775D01*
X173859849Y-95748238D01*
X173859846Y-95748233D01*
X173857523Y-95743251D01*
X173726198Y-95555700D01*
X173564300Y-95393802D01*
X173559792Y-95390645D01*
X173559789Y-95390643D01*
X173481611Y-95335902D01*
X173376749Y-95262477D01*
X173371767Y-95260154D01*
X173371762Y-95260151D01*
X173337543Y-95244195D01*
X173284258Y-95197278D01*
X173264797Y-95129001D01*
X173285339Y-95061041D01*
X173337543Y-95015805D01*
X173371762Y-94999849D01*
X173371767Y-94999846D01*
X173376749Y-94997523D01*
X173481611Y-94924098D01*
X173559789Y-94869357D01*
X173559792Y-94869355D01*
X173564300Y-94866198D01*
X173726198Y-94704300D01*
X173857523Y-94516749D01*
X173859846Y-94511767D01*
X173859849Y-94511762D01*
X173951961Y-94314225D01*
X173951961Y-94314224D01*
X173954284Y-94309243D01*
X174013543Y-94088087D01*
X174033498Y-93860000D01*
X174013543Y-93631913D01*
X173954284Y-93410757D01*
X173898116Y-93290303D01*
X173859849Y-93208238D01*
X173859846Y-93208233D01*
X173857523Y-93203251D01*
X173726198Y-93015700D01*
X173564300Y-92853802D01*
X173559792Y-92850645D01*
X173559789Y-92850643D01*
X173449424Y-92773365D01*
X173376749Y-92722477D01*
X173371767Y-92720154D01*
X173371762Y-92720151D01*
X173337543Y-92704195D01*
X173284258Y-92657278D01*
X173264797Y-92589001D01*
X173285339Y-92521041D01*
X173337543Y-92475805D01*
X173371762Y-92459849D01*
X173371767Y-92459846D01*
X173376749Y-92457523D01*
X173481611Y-92384098D01*
X173559789Y-92329357D01*
X173559792Y-92329355D01*
X173564300Y-92326198D01*
X173726198Y-92164300D01*
X173857523Y-91976749D01*
X173859846Y-91971767D01*
X173859849Y-91971762D01*
X173951961Y-91774225D01*
X173951961Y-91774224D01*
X173954284Y-91769243D01*
X174013543Y-91548087D01*
X174033498Y-91320000D01*
X174013543Y-91091913D01*
X173954284Y-90870757D01*
X173951961Y-90865775D01*
X173859849Y-90668238D01*
X173859846Y-90668233D01*
X173857523Y-90663251D01*
X173726198Y-90475700D01*
X173564300Y-90313802D01*
X173559792Y-90310645D01*
X173559789Y-90310643D01*
X173481611Y-90255902D01*
X173376749Y-90182477D01*
X173371767Y-90180154D01*
X173371762Y-90180151D01*
X173337543Y-90164195D01*
X173284258Y-90117278D01*
X173264797Y-90049001D01*
X173285339Y-89981041D01*
X173337543Y-89935805D01*
X173371762Y-89919849D01*
X173371767Y-89919846D01*
X173376749Y-89917523D01*
X173481611Y-89844098D01*
X173559789Y-89789357D01*
X173559792Y-89789355D01*
X173564300Y-89786198D01*
X173726198Y-89624300D01*
X173857523Y-89436749D01*
X173859846Y-89431767D01*
X173859849Y-89431762D01*
X173951961Y-89234225D01*
X173951961Y-89234224D01*
X173954284Y-89229243D01*
X174013543Y-89008087D01*
X174033498Y-88780000D01*
X174013543Y-88551913D01*
X173954284Y-88330757D01*
X173951961Y-88325775D01*
X173859849Y-88128238D01*
X173859846Y-88128233D01*
X173857523Y-88123251D01*
X173726198Y-87935700D01*
X173564300Y-87773802D01*
X173559792Y-87770645D01*
X173559789Y-87770643D01*
X173481611Y-87715902D01*
X173376749Y-87642477D01*
X173371767Y-87640154D01*
X173371762Y-87640151D01*
X173337543Y-87624195D01*
X173284258Y-87577278D01*
X173264797Y-87509001D01*
X173285339Y-87441041D01*
X173337543Y-87395805D01*
X173371762Y-87379849D01*
X173371767Y-87379846D01*
X173376749Y-87377523D01*
X173519555Y-87277529D01*
X173559789Y-87249357D01*
X173559792Y-87249355D01*
X173564300Y-87246198D01*
X173726198Y-87084300D01*
X173750923Y-87048990D01*
X173854366Y-86901257D01*
X173857523Y-86896749D01*
X173859846Y-86891767D01*
X173859849Y-86891762D01*
X173951961Y-86694225D01*
X173951961Y-86694224D01*
X173954284Y-86689243D01*
X173964150Y-86652425D01*
X174012119Y-86473402D01*
X174012119Y-86473400D01*
X174013543Y-86468087D01*
X174033498Y-86240000D01*
X174013543Y-86011913D01*
X174007593Y-85989707D01*
X173955707Y-85796067D01*
X173955706Y-85796065D01*
X173954284Y-85790757D01*
X173942092Y-85764610D01*
X173859849Y-85588238D01*
X173859846Y-85588233D01*
X173857523Y-85583251D01*
X173784098Y-85478389D01*
X173729357Y-85400211D01*
X173729355Y-85400208D01*
X173726198Y-85395700D01*
X173564300Y-85233802D01*
X173559792Y-85230645D01*
X173559789Y-85230643D01*
X173424780Y-85136109D01*
X173376749Y-85102477D01*
X173371767Y-85100154D01*
X173371762Y-85100151D01*
X173337543Y-85084195D01*
X173284258Y-85037278D01*
X173264797Y-84969001D01*
X173285339Y-84901041D01*
X173337543Y-84855805D01*
X173371762Y-84839849D01*
X173371767Y-84839846D01*
X173376749Y-84837523D01*
X173514351Y-84741173D01*
X173559789Y-84709357D01*
X173559792Y-84709355D01*
X173564300Y-84706198D01*
X173726198Y-84544300D01*
X173739763Y-84524928D01*
X173829032Y-84397438D01*
X173857523Y-84356749D01*
X173859846Y-84351767D01*
X173859849Y-84351762D01*
X173951961Y-84154225D01*
X173951961Y-84154224D01*
X173954284Y-84149243D01*
X173964150Y-84112425D01*
X174012119Y-83933402D01*
X174012119Y-83933400D01*
X174013543Y-83928087D01*
X174033498Y-83700000D01*
X174013543Y-83471913D01*
X174006600Y-83446000D01*
X173955707Y-83256067D01*
X173955706Y-83256065D01*
X173954284Y-83250757D01*
X173865713Y-83060814D01*
X173859849Y-83048238D01*
X173859846Y-83048233D01*
X173857523Y-83043251D01*
X173738260Y-82872926D01*
X173729357Y-82860211D01*
X173729355Y-82860208D01*
X173726198Y-82855700D01*
X173564300Y-82693802D01*
X173559792Y-82690645D01*
X173559789Y-82690643D01*
X173481611Y-82635902D01*
X173376749Y-82562477D01*
X173371767Y-82560154D01*
X173371762Y-82560151D01*
X173174225Y-82468039D01*
X173174224Y-82468039D01*
X173169243Y-82465716D01*
X173163935Y-82464294D01*
X173163933Y-82464293D01*
X172953402Y-82407881D01*
X172953400Y-82407881D01*
X172948087Y-82406457D01*
X172720000Y-82386502D01*
X172491913Y-82406457D01*
X172486600Y-82407881D01*
X172486598Y-82407881D01*
X172276067Y-82464293D01*
X172276065Y-82464294D01*
X172270757Y-82465716D01*
X172265776Y-82468039D01*
X172265775Y-82468039D01*
X172068238Y-82560151D01*
X172068233Y-82560154D01*
X172063251Y-82562477D01*
X171958389Y-82635902D01*
X171880211Y-82690643D01*
X171880208Y-82690645D01*
X171875700Y-82693802D01*
X171713802Y-82855700D01*
X171710645Y-82860208D01*
X171710643Y-82860211D01*
X171701740Y-82872926D01*
X171582477Y-83043251D01*
X171580154Y-83048233D01*
X171580151Y-83048238D01*
X171574287Y-83060814D01*
X171485716Y-83250757D01*
X171484294Y-83256065D01*
X171484293Y-83256067D01*
X171433400Y-83446000D01*
X171426457Y-83471913D01*
X171406502Y-83700000D01*
X171426457Y-83928087D01*
X171427881Y-83933400D01*
X171427881Y-83933402D01*
X171475851Y-84112425D01*
X171485716Y-84149243D01*
X171488039Y-84154224D01*
X171488039Y-84154225D01*
X171580151Y-84351762D01*
X171580154Y-84351767D01*
X171582477Y-84356749D01*
X171610968Y-84397438D01*
X171700238Y-84524928D01*
X171713802Y-84544300D01*
X171875700Y-84706198D01*
X171880208Y-84709355D01*
X171880211Y-84709357D01*
X171925649Y-84741173D01*
X172063251Y-84837523D01*
X172068233Y-84839846D01*
X172068238Y-84839849D01*
X172102457Y-84855805D01*
X172155742Y-84902722D01*
X172175203Y-84970999D01*
X172154661Y-85038959D01*
X172102457Y-85084195D01*
X172068238Y-85100151D01*
X172068233Y-85100154D01*
X172063251Y-85102477D01*
X172015220Y-85136109D01*
X171880211Y-85230643D01*
X171880208Y-85230645D01*
X171875700Y-85233802D01*
X171713802Y-85395700D01*
X171710645Y-85400208D01*
X171710643Y-85400211D01*
X171655902Y-85478389D01*
X171582477Y-85583251D01*
X171580154Y-85588233D01*
X171580151Y-85588238D01*
X171497908Y-85764610D01*
X171485716Y-85790757D01*
X171484294Y-85796065D01*
X171484293Y-85796067D01*
X171432407Y-85989707D01*
X171426457Y-86011913D01*
X171406502Y-86240000D01*
X171426457Y-86468087D01*
X171427881Y-86473400D01*
X171427881Y-86473402D01*
X171475851Y-86652425D01*
X171485716Y-86689243D01*
X171488039Y-86694224D01*
X171488039Y-86694225D01*
X171580151Y-86891762D01*
X171580154Y-86891767D01*
X171582477Y-86896749D01*
X171585634Y-86901257D01*
X171689078Y-87048990D01*
X171713802Y-87084300D01*
X171875700Y-87246198D01*
X171880208Y-87249355D01*
X171880211Y-87249357D01*
X171920445Y-87277529D01*
X172063251Y-87377523D01*
X172068233Y-87379846D01*
X172068238Y-87379849D01*
X172102457Y-87395805D01*
X172155742Y-87442722D01*
X172175203Y-87510999D01*
X172154661Y-87578959D01*
X172102457Y-87624195D01*
X172068238Y-87640151D01*
X172068233Y-87640154D01*
X172063251Y-87642477D01*
X171958389Y-87715902D01*
X171880211Y-87770643D01*
X171880208Y-87770645D01*
X171875700Y-87773802D01*
X171713802Y-87935700D01*
X171582477Y-88123251D01*
X171580154Y-88128233D01*
X171580151Y-88128238D01*
X171488039Y-88325775D01*
X171485716Y-88330757D01*
X171426457Y-88551913D01*
X171406502Y-88780000D01*
X171426457Y-89008087D01*
X171485716Y-89229243D01*
X171488039Y-89234224D01*
X171488039Y-89234225D01*
X171580151Y-89431762D01*
X171580154Y-89431767D01*
X171582477Y-89436749D01*
X171713802Y-89624300D01*
X171875700Y-89786198D01*
X171880208Y-89789355D01*
X171880211Y-89789357D01*
X171958389Y-89844098D01*
X172063251Y-89917523D01*
X172068233Y-89919846D01*
X172068238Y-89919849D01*
X172102457Y-89935805D01*
X172155742Y-89982722D01*
X172175203Y-90050999D01*
X172154661Y-90118959D01*
X172102457Y-90164195D01*
X172068238Y-90180151D01*
X172068233Y-90180154D01*
X172063251Y-90182477D01*
X171958389Y-90255902D01*
X171880211Y-90310643D01*
X171880208Y-90310645D01*
X171875700Y-90313802D01*
X171713802Y-90475700D01*
X171582477Y-90663251D01*
X171580154Y-90668233D01*
X171580151Y-90668238D01*
X171488039Y-90865775D01*
X171485716Y-90870757D01*
X171426457Y-91091913D01*
X171406502Y-91320000D01*
X171426457Y-91548087D01*
X171485716Y-91769243D01*
X171488039Y-91774224D01*
X171488039Y-91774225D01*
X171580151Y-91971762D01*
X171580154Y-91971767D01*
X171582477Y-91976749D01*
X171713802Y-92164300D01*
X171875700Y-92326198D01*
X171880208Y-92329355D01*
X171880211Y-92329357D01*
X171958389Y-92384098D01*
X172063251Y-92457523D01*
X172068233Y-92459846D01*
X172068238Y-92459849D01*
X172102457Y-92475805D01*
X172155742Y-92522722D01*
X172175203Y-92590999D01*
X172154661Y-92658959D01*
X172102457Y-92704195D01*
X172068238Y-92720151D01*
X172068233Y-92720154D01*
X172063251Y-92722477D01*
X171990576Y-92773365D01*
X171880211Y-92850643D01*
X171880208Y-92850645D01*
X171875700Y-92853802D01*
X171713802Y-93015700D01*
X171582477Y-93203251D01*
X171580154Y-93208233D01*
X171580151Y-93208238D01*
X171541884Y-93290303D01*
X171485716Y-93410757D01*
X171426457Y-93631913D01*
X171406502Y-93860000D01*
X171426457Y-94088087D01*
X171485716Y-94309243D01*
X171488039Y-94314224D01*
X171488039Y-94314225D01*
X171580151Y-94511762D01*
X171580154Y-94511767D01*
X171582477Y-94516749D01*
X171713802Y-94704300D01*
X171875700Y-94866198D01*
X171880208Y-94869355D01*
X171880211Y-94869357D01*
X171958389Y-94924098D01*
X172063251Y-94997523D01*
X172068233Y-94999846D01*
X172068238Y-94999849D01*
X172102457Y-95015805D01*
X172155742Y-95062722D01*
X172175203Y-95130999D01*
X172154661Y-95198959D01*
X172102457Y-95244195D01*
X172068238Y-95260151D01*
X172068233Y-95260154D01*
X172063251Y-95262477D01*
X171958389Y-95335902D01*
X171880211Y-95390643D01*
X171880208Y-95390645D01*
X171875700Y-95393802D01*
X171713802Y-95555700D01*
X171582477Y-95743251D01*
X171580154Y-95748233D01*
X171580151Y-95748238D01*
X171488039Y-95945775D01*
X171485716Y-95950757D01*
X171426457Y-96171913D01*
X171406502Y-96400000D01*
X171426457Y-96628087D01*
X171485716Y-96849243D01*
X171488039Y-96854224D01*
X171488039Y-96854225D01*
X171580151Y-97051762D01*
X171580154Y-97051767D01*
X171582477Y-97056749D01*
X171602199Y-97084915D01*
X171683951Y-97201668D01*
X171713802Y-97244300D01*
X171875700Y-97406198D01*
X171880208Y-97409355D01*
X171880211Y-97409357D01*
X171933327Y-97446549D01*
X172063251Y-97537523D01*
X172068233Y-97539846D01*
X172068238Y-97539849D01*
X172102457Y-97555805D01*
X172155742Y-97602722D01*
X172175203Y-97670999D01*
X172154661Y-97738959D01*
X172102457Y-97784195D01*
X172068238Y-97800151D01*
X172068233Y-97800154D01*
X172063251Y-97802477D01*
X172015220Y-97836109D01*
X171880211Y-97930643D01*
X171880208Y-97930645D01*
X171875700Y-97933802D01*
X171713802Y-98095700D01*
X171710645Y-98100208D01*
X171710643Y-98100211D01*
X171655902Y-98178389D01*
X171582477Y-98283251D01*
X171580154Y-98288233D01*
X171580151Y-98288238D01*
X171497908Y-98464610D01*
X171485716Y-98490757D01*
X171484294Y-98496065D01*
X171484293Y-98496067D01*
X171432407Y-98689707D01*
X171426457Y-98711913D01*
X171406502Y-98940000D01*
X171426457Y-99168087D01*
X171427881Y-99173400D01*
X171427881Y-99173402D01*
X171475851Y-99352425D01*
X171485716Y-99389243D01*
X171488039Y-99394224D01*
X171488039Y-99394225D01*
X171580151Y-99591762D01*
X171580154Y-99591767D01*
X171582477Y-99596749D01*
X171585634Y-99601257D01*
X171702861Y-99768674D01*
X171713802Y-99784300D01*
X171875700Y-99946198D01*
X171880208Y-99949355D01*
X171880211Y-99949357D01*
X171936992Y-99989115D01*
X172063251Y-100077523D01*
X172068233Y-100079846D01*
X172068238Y-100079849D01*
X172102457Y-100095805D01*
X172155742Y-100142722D01*
X172175203Y-100210999D01*
X172154661Y-100278959D01*
X172102457Y-100324195D01*
X172068238Y-100340151D01*
X172068233Y-100340154D01*
X172063251Y-100342477D01*
X172049447Y-100352143D01*
X171880211Y-100470643D01*
X171880208Y-100470645D01*
X171875700Y-100473802D01*
X171713802Y-100635700D01*
X171710645Y-100640208D01*
X171710643Y-100640211D01*
X171701740Y-100652926D01*
X171582477Y-100823251D01*
X171580154Y-100828233D01*
X171580151Y-100828238D01*
X171517879Y-100961783D01*
X171485716Y-101030757D01*
X171484294Y-101036065D01*
X171484293Y-101036067D01*
X171433400Y-101226000D01*
X171426457Y-101251913D01*
X171406502Y-101480000D01*
X171426457Y-101708087D01*
X171427881Y-101713400D01*
X171427881Y-101713402D01*
X171475851Y-101892425D01*
X171485716Y-101929243D01*
X171488039Y-101934224D01*
X171488039Y-101934225D01*
X171580151Y-102131762D01*
X171580154Y-102131767D01*
X171582477Y-102136749D01*
X171610968Y-102177438D01*
X171689078Y-102288990D01*
X171713802Y-102324300D01*
X171875700Y-102486198D01*
X171880208Y-102489355D01*
X171880211Y-102489357D01*
X171929931Y-102524171D01*
X172063251Y-102617523D01*
X172068233Y-102619846D01*
X172068238Y-102619849D01*
X172102457Y-102635805D01*
X172155742Y-102682722D01*
X172175203Y-102750999D01*
X172154661Y-102818959D01*
X172102457Y-102864195D01*
X172068238Y-102880151D01*
X172068233Y-102880154D01*
X172063251Y-102882477D01*
X171958389Y-102955902D01*
X171880211Y-103010643D01*
X171880208Y-103010645D01*
X171875700Y-103013802D01*
X171713802Y-103175700D01*
X171710645Y-103180208D01*
X171710643Y-103180211D01*
X171701740Y-103192926D01*
X171582477Y-103363251D01*
X171580154Y-103368233D01*
X171580151Y-103368238D01*
X171498957Y-103542361D01*
X171485716Y-103570757D01*
X171484294Y-103576065D01*
X171484293Y-103576067D01*
X171433400Y-103766000D01*
X171426457Y-103791913D01*
X171406502Y-104020000D01*
X171426457Y-104248087D01*
X171427881Y-104253400D01*
X171427881Y-104253402D01*
X171475851Y-104432425D01*
X171485716Y-104469243D01*
X171488039Y-104474224D01*
X171488039Y-104474225D01*
X171580151Y-104671762D01*
X171580154Y-104671767D01*
X171582477Y-104676749D01*
X171610968Y-104717438D01*
X171689078Y-104828990D01*
X171713802Y-104864300D01*
X171875700Y-105026198D01*
X171880208Y-105029355D01*
X171880211Y-105029357D01*
X171929931Y-105064171D01*
X172063251Y-105157523D01*
X172068233Y-105159846D01*
X172068238Y-105159849D01*
X172102457Y-105175805D01*
X172155742Y-105222722D01*
X172175203Y-105290999D01*
X172154661Y-105358959D01*
X172102457Y-105404195D01*
X172068238Y-105420151D01*
X172068233Y-105420154D01*
X172063251Y-105422477D01*
X171976623Y-105483135D01*
X171880211Y-105550643D01*
X171880208Y-105550645D01*
X171875700Y-105553802D01*
X171713802Y-105715700D01*
X171710645Y-105720208D01*
X171710643Y-105720211D01*
X171655902Y-105798389D01*
X171582477Y-105903251D01*
X171580154Y-105908233D01*
X171580151Y-105908238D01*
X171497908Y-106084610D01*
X171485716Y-106110757D01*
X171484294Y-106116065D01*
X171484293Y-106116067D01*
X171432407Y-106309707D01*
X171426457Y-106331913D01*
X171406502Y-106560000D01*
X171426457Y-106788087D01*
X171427881Y-106793400D01*
X171427881Y-106793402D01*
X171475851Y-106972425D01*
X171485716Y-107009243D01*
X171488039Y-107014224D01*
X171488039Y-107014225D01*
X171580151Y-107211762D01*
X171580154Y-107211767D01*
X171582477Y-107216749D01*
X171585634Y-107221257D01*
X171689078Y-107368990D01*
X171713802Y-107404300D01*
X171875700Y-107566198D01*
X171880208Y-107569355D01*
X171880211Y-107569357D01*
X171920445Y-107597529D01*
X172063251Y-107697523D01*
X172068233Y-107699846D01*
X172068238Y-107699849D01*
X172102457Y-107715805D01*
X172155742Y-107762722D01*
X172175203Y-107830999D01*
X172154661Y-107898959D01*
X172102457Y-107944195D01*
X172068238Y-107960151D01*
X172068233Y-107960154D01*
X172063251Y-107962477D01*
X171958389Y-108035902D01*
X171880211Y-108090643D01*
X171880208Y-108090645D01*
X171875700Y-108093802D01*
X171713802Y-108255700D01*
X171710643Y-108260211D01*
X171707110Y-108264422D01*
X171705151Y-108262778D01*
X171657870Y-108300322D01*
X171587227Y-108307403D01*
X171521396Y-108272664D01*
X169169323Y-105920590D01*
X166791094Y-103542361D01*
X166791090Y-103542358D01*
X163450977Y-100202245D01*
X160057405Y-96808672D01*
X160023379Y-96746360D01*
X160020500Y-96719577D01*
X160020500Y-93290303D01*
X160040502Y-93222182D01*
X160052864Y-93205993D01*
X160119621Y-93131852D01*
X160119622Y-93131851D01*
X160124040Y-93126944D01*
X160219527Y-92961556D01*
X160278542Y-92779928D01*
X160284249Y-92725634D01*
X160297814Y-92596565D01*
X160298504Y-92590000D01*
X160284580Y-92457523D01*
X160279232Y-92406635D01*
X160279232Y-92406633D01*
X160278542Y-92400072D01*
X160219527Y-92218444D01*
X160124040Y-92053056D01*
X159996253Y-91911134D01*
X159841752Y-91798882D01*
X159835724Y-91796198D01*
X159835722Y-91796197D01*
X159673319Y-91723891D01*
X159673318Y-91723891D01*
X159667288Y-91721206D01*
X159573888Y-91701353D01*
X159486944Y-91682872D01*
X159486939Y-91682872D01*
X159480487Y-91681500D01*
X159289513Y-91681500D01*
X159283061Y-91682872D01*
X159283056Y-91682872D01*
X159196113Y-91701353D01*
X159102712Y-91721206D01*
X159096682Y-91723891D01*
X159096681Y-91723891D01*
X158934278Y-91796197D01*
X158934276Y-91796198D01*
X158928248Y-91798882D01*
X158773747Y-91911134D01*
X158645960Y-92053056D01*
X158550473Y-92218444D01*
X158491458Y-92400072D01*
X158490768Y-92406633D01*
X158490768Y-92406635D01*
X158485420Y-92457523D01*
X158471496Y-92590000D01*
X158472186Y-92596565D01*
X158485752Y-92725634D01*
X158491458Y-92779928D01*
X158550473Y-92961556D01*
X158645960Y-93126944D01*
X158650378Y-93131851D01*
X158650379Y-93131852D01*
X158717136Y-93205993D01*
X158747854Y-93270000D01*
X158749500Y-93290303D01*
X158749500Y-96955980D01*
X158748970Y-96967214D01*
X158747292Y-96974719D01*
X158747541Y-96982638D01*
X158749438Y-97043012D01*
X158749500Y-97046969D01*
X158749500Y-97074983D01*
X158749996Y-97078908D01*
X158749996Y-97078909D01*
X158750008Y-97079004D01*
X158750941Y-97090849D01*
X158752335Y-97135205D01*
X158754547Y-97142817D01*
X158758013Y-97154748D01*
X158762023Y-97174112D01*
X158764573Y-97194299D01*
X158767489Y-97201663D01*
X158767490Y-97201668D01*
X158780907Y-97235556D01*
X158784752Y-97246785D01*
X158788242Y-97258796D01*
X158797131Y-97289393D01*
X158801169Y-97296220D01*
X158801170Y-97296223D01*
X158807488Y-97306906D01*
X158816188Y-97324664D01*
X158820761Y-97336215D01*
X158820765Y-97336221D01*
X158823681Y-97343588D01*
X158828339Y-97349999D01*
X158828340Y-97350001D01*
X158849764Y-97379488D01*
X158856281Y-97389410D01*
X158874826Y-97420768D01*
X158874829Y-97420772D01*
X158878866Y-97427598D01*
X158893250Y-97441982D01*
X158906091Y-97457016D01*
X158918058Y-97473487D01*
X158924166Y-97478540D01*
X158952255Y-97501777D01*
X158961035Y-97509767D01*
X165948906Y-104497639D01*
X165948909Y-104497641D01*
X165948914Y-104497646D01*
X170944750Y-109493483D01*
X170952326Y-109501809D01*
X170956447Y-109508303D01*
X170962222Y-109513726D01*
X171006265Y-109555085D01*
X171009107Y-109557840D01*
X171028906Y-109577639D01*
X171032031Y-109580063D01*
X171032040Y-109580071D01*
X171032126Y-109580137D01*
X171041151Y-109587845D01*
X171073494Y-109618217D01*
X171080438Y-109622035D01*
X171080440Y-109622036D01*
X171091329Y-109628022D01*
X171107847Y-109638873D01*
X171123933Y-109651350D01*
X171164666Y-109668976D01*
X171175314Y-109674193D01*
X171214197Y-109695569D01*
X171221872Y-109697540D01*
X171221878Y-109697542D01*
X171233911Y-109700631D01*
X171252613Y-109707034D01*
X171271292Y-109715117D01*
X171305128Y-109720476D01*
X171315127Y-109722060D01*
X171326740Y-109724465D01*
X171369718Y-109735500D01*
X171390065Y-109735500D01*
X171409777Y-109737051D01*
X171429879Y-109740235D01*
X171437771Y-109739489D01*
X171474056Y-109736059D01*
X171485914Y-109735500D01*
X171502007Y-109735500D01*
X171570128Y-109755502D01*
X171605220Y-109789229D01*
X171689078Y-109908990D01*
X171713802Y-109944300D01*
X171875700Y-110106198D01*
X171880208Y-110109355D01*
X171880211Y-110109357D01*
X171920445Y-110137529D01*
X172063251Y-110237523D01*
X172068233Y-110239846D01*
X172068238Y-110239849D01*
X172102457Y-110255805D01*
X172155742Y-110302722D01*
X172175203Y-110370999D01*
X172154661Y-110438959D01*
X172102457Y-110484195D01*
X172068238Y-110500151D01*
X172068233Y-110500154D01*
X172063251Y-110502477D01*
X171958389Y-110575902D01*
X171880211Y-110630643D01*
X171880208Y-110630645D01*
X171875700Y-110633802D01*
X171713802Y-110795700D01*
X171710645Y-110800208D01*
X171710643Y-110800211D01*
X171605220Y-110950771D01*
X171549763Y-110995099D01*
X171502007Y-111004500D01*
X161727289Y-111004500D01*
X161659168Y-110984498D01*
X161638194Y-110967595D01*
X155612405Y-104941806D01*
X155578379Y-104879494D01*
X155575500Y-104852711D01*
X155575500Y-85035303D01*
X155595502Y-84967182D01*
X155607864Y-84950993D01*
X155674621Y-84876852D01*
X155674622Y-84876851D01*
X155679040Y-84871944D01*
X155756645Y-84737529D01*
X155771223Y-84712279D01*
X155771224Y-84712278D01*
X155774527Y-84706556D01*
X155833542Y-84524928D01*
X155853504Y-84335000D01*
X155839974Y-84206267D01*
X155834232Y-84151635D01*
X155834232Y-84151633D01*
X155833542Y-84145072D01*
X155774527Y-83963444D01*
X155769075Y-83954000D01*
X155682341Y-83803774D01*
X155679040Y-83798056D01*
X155653696Y-83769908D01*
X155555675Y-83661045D01*
X155555674Y-83661044D01*
X155551253Y-83656134D01*
X155396752Y-83543882D01*
X155390724Y-83541198D01*
X155390722Y-83541197D01*
X155228319Y-83468891D01*
X155228318Y-83468891D01*
X155222288Y-83466206D01*
X155120499Y-83444570D01*
X155041944Y-83427872D01*
X155041939Y-83427872D01*
X155035487Y-83426500D01*
X154844513Y-83426500D01*
X154838061Y-83427872D01*
X154838056Y-83427872D01*
X154759501Y-83444570D01*
X154657712Y-83466206D01*
X154651682Y-83468891D01*
X154651681Y-83468891D01*
X154489278Y-83541197D01*
X154489276Y-83541198D01*
X154483248Y-83543882D01*
X154328747Y-83656134D01*
X154324326Y-83661044D01*
X154324325Y-83661045D01*
X154226305Y-83769908D01*
X154200960Y-83798056D01*
X154197659Y-83803774D01*
X154110926Y-83954000D01*
X154105473Y-83963444D01*
X154046458Y-84145072D01*
X154045768Y-84151633D01*
X154045768Y-84151635D01*
X154040026Y-84206267D01*
X154026496Y-84335000D01*
X153547665Y-84335000D01*
X153631961Y-84154225D01*
X153631961Y-84154224D01*
X153634284Y-84149243D01*
X153644150Y-84112425D01*
X153692119Y-83933402D01*
X153692119Y-83933400D01*
X153693543Y-83928087D01*
X153713498Y-83700000D01*
X153693543Y-83471913D01*
X153686600Y-83446000D01*
X153635707Y-83256067D01*
X153635706Y-83256065D01*
X153634284Y-83250757D01*
X153545713Y-83060814D01*
X153539849Y-83048238D01*
X153539846Y-83048233D01*
X153537523Y-83043251D01*
X153418260Y-82872926D01*
X153409357Y-82860211D01*
X153409355Y-82860208D01*
X153406198Y-82855700D01*
X153244300Y-82693802D01*
X153239792Y-82690645D01*
X153239789Y-82690643D01*
X153161611Y-82635902D01*
X153056749Y-82562477D01*
X153051767Y-82560154D01*
X153051762Y-82560151D01*
X153016951Y-82543919D01*
X152963666Y-82497002D01*
X152944205Y-82428725D01*
X152964747Y-82360765D01*
X153016951Y-82315529D01*
X153051511Y-82299414D01*
X153061006Y-82293931D01*
X153113048Y-82257491D01*
X153121424Y-82247012D01*
X153114356Y-82233566D01*
X152412812Y-81532022D01*
X152398868Y-81524408D01*
X152397035Y-81524539D01*
X152390420Y-81528790D01*
X151684923Y-82234287D01*
X151678493Y-82246062D01*
X151687789Y-82258077D01*
X151738994Y-82293931D01*
X151748489Y-82299414D01*
X151783049Y-82315529D01*
X151836334Y-82362446D01*
X151855795Y-82430723D01*
X151835253Y-82498683D01*
X151783049Y-82543919D01*
X151748238Y-82560151D01*
X151748233Y-82560154D01*
X151743251Y-82562477D01*
X151638389Y-82635902D01*
X151560211Y-82690643D01*
X151560208Y-82690645D01*
X151555700Y-82693802D01*
X151393802Y-82855700D01*
X151390645Y-82860208D01*
X151390643Y-82860211D01*
X151381740Y-82872926D01*
X151262477Y-83043251D01*
X151260154Y-83048233D01*
X151260151Y-83048238D01*
X151254287Y-83060814D01*
X151165716Y-83250757D01*
X151164294Y-83256065D01*
X151164293Y-83256067D01*
X151113400Y-83446000D01*
X151106457Y-83471913D01*
X151086502Y-83700000D01*
X151106457Y-83928087D01*
X151107881Y-83933400D01*
X151107881Y-83933402D01*
X151155851Y-84112425D01*
X151165716Y-84149243D01*
X151168039Y-84154224D01*
X151168039Y-84154225D01*
X151260151Y-84351762D01*
X151260154Y-84351767D01*
X151262477Y-84356749D01*
X151290968Y-84397438D01*
X151380238Y-84524928D01*
X151393802Y-84544300D01*
X151555700Y-84706198D01*
X151560208Y-84709355D01*
X151560211Y-84709357D01*
X151605649Y-84741173D01*
X151743251Y-84837523D01*
X151748233Y-84839846D01*
X151748238Y-84839849D01*
X151782457Y-84855805D01*
X151835742Y-84902722D01*
X151855203Y-84970999D01*
X151834661Y-85038959D01*
X151782457Y-85084195D01*
X151748238Y-85100151D01*
X151748233Y-85100154D01*
X151743251Y-85102477D01*
X151695220Y-85136109D01*
X151560211Y-85230643D01*
X151560208Y-85230645D01*
X151555700Y-85233802D01*
X151393802Y-85395700D01*
X151390645Y-85400208D01*
X151390643Y-85400211D01*
X151335902Y-85478389D01*
X151262477Y-85583251D01*
X151260154Y-85588233D01*
X151260151Y-85588238D01*
X151177908Y-85764610D01*
X151165716Y-85790757D01*
X151164294Y-85796065D01*
X151164293Y-85796067D01*
X151112407Y-85989707D01*
X151106457Y-86011913D01*
X151086502Y-86240000D01*
X151106457Y-86468087D01*
X151107881Y-86473400D01*
X151107881Y-86473402D01*
X151155851Y-86652425D01*
X151165716Y-86689243D01*
X151168039Y-86694224D01*
X151168039Y-86694225D01*
X151260151Y-86891762D01*
X151260154Y-86891767D01*
X151262477Y-86896749D01*
X151265634Y-86901257D01*
X151369078Y-87048990D01*
X151393802Y-87084300D01*
X151555700Y-87246198D01*
X151560208Y-87249355D01*
X151560211Y-87249357D01*
X151600445Y-87277529D01*
X151743251Y-87377523D01*
X151748233Y-87379846D01*
X151748238Y-87379849D01*
X151782457Y-87395805D01*
X151835742Y-87442722D01*
X151855203Y-87510999D01*
X151834661Y-87578959D01*
X151782457Y-87624195D01*
X151748238Y-87640151D01*
X151748233Y-87640154D01*
X151743251Y-87642477D01*
X151638389Y-87715902D01*
X151560211Y-87770643D01*
X151560208Y-87770645D01*
X151555700Y-87773802D01*
X151393802Y-87935700D01*
X151262477Y-88123251D01*
X151260154Y-88128233D01*
X151260151Y-88128238D01*
X151168039Y-88325775D01*
X151165716Y-88330757D01*
X151106457Y-88551913D01*
X151086502Y-88780000D01*
X151106457Y-89008087D01*
X151165716Y-89229243D01*
X151168039Y-89234224D01*
X151168039Y-89234225D01*
X151260151Y-89431762D01*
X151260154Y-89431767D01*
X151262477Y-89436749D01*
X151393802Y-89624300D01*
X151555700Y-89786198D01*
X151560208Y-89789355D01*
X151560211Y-89789357D01*
X151638389Y-89844098D01*
X151743251Y-89917523D01*
X151748233Y-89919846D01*
X151748238Y-89919849D01*
X151782457Y-89935805D01*
X151835742Y-89982722D01*
X151855203Y-90050999D01*
X151834661Y-90118959D01*
X151782457Y-90164195D01*
X151748238Y-90180151D01*
X151748233Y-90180154D01*
X151743251Y-90182477D01*
X151638389Y-90255902D01*
X151560211Y-90310643D01*
X151560208Y-90310645D01*
X151555700Y-90313802D01*
X151393802Y-90475700D01*
X151262477Y-90663251D01*
X151260154Y-90668233D01*
X151260151Y-90668238D01*
X151168039Y-90865775D01*
X151165716Y-90870757D01*
X151106457Y-91091913D01*
X151086502Y-91320000D01*
X151106457Y-91548087D01*
X151165716Y-91769243D01*
X151168039Y-91774224D01*
X151168039Y-91774225D01*
X151260151Y-91971762D01*
X151260154Y-91971767D01*
X151262477Y-91976749D01*
X151393802Y-92164300D01*
X151555700Y-92326198D01*
X151560208Y-92329355D01*
X151560211Y-92329357D01*
X151638389Y-92384098D01*
X151743251Y-92457523D01*
X151748233Y-92459846D01*
X151748238Y-92459849D01*
X151782457Y-92475805D01*
X151835742Y-92522722D01*
X151855203Y-92590999D01*
X151834661Y-92658959D01*
X151782457Y-92704195D01*
X151748238Y-92720151D01*
X151748233Y-92720154D01*
X151743251Y-92722477D01*
X151670576Y-92773365D01*
X151560211Y-92850643D01*
X151560208Y-92850645D01*
X151555700Y-92853802D01*
X151393802Y-93015700D01*
X151262477Y-93203251D01*
X151260154Y-93208233D01*
X151260151Y-93208238D01*
X151221884Y-93290303D01*
X151165716Y-93410757D01*
X151106457Y-93631913D01*
X151086502Y-93860000D01*
X151106457Y-94088087D01*
X151165716Y-94309243D01*
X151168039Y-94314224D01*
X151168039Y-94314225D01*
X151260151Y-94511762D01*
X151260154Y-94511767D01*
X151262477Y-94516749D01*
X151393802Y-94704300D01*
X151555700Y-94866198D01*
X151560208Y-94869355D01*
X151560211Y-94869357D01*
X151638389Y-94924098D01*
X151743251Y-94997523D01*
X151748233Y-94999846D01*
X151748238Y-94999849D01*
X151782457Y-95015805D01*
X151835742Y-95062722D01*
X151855203Y-95130999D01*
X151834661Y-95198959D01*
X151782457Y-95244195D01*
X151748238Y-95260151D01*
X151748233Y-95260154D01*
X151743251Y-95262477D01*
X151638389Y-95335902D01*
X151560211Y-95390643D01*
X151560208Y-95390645D01*
X151555700Y-95393802D01*
X151393802Y-95555700D01*
X151262477Y-95743251D01*
X151260154Y-95748233D01*
X151260151Y-95748238D01*
X151168039Y-95945775D01*
X151165716Y-95950757D01*
X151106457Y-96171913D01*
X151086502Y-96400000D01*
X151106457Y-96628087D01*
X151165716Y-96849243D01*
X151168039Y-96854224D01*
X151168039Y-96854225D01*
X151260151Y-97051762D01*
X151260154Y-97051767D01*
X151262477Y-97056749D01*
X151282199Y-97084915D01*
X151363951Y-97201668D01*
X151393802Y-97244300D01*
X151555700Y-97406198D01*
X151560208Y-97409355D01*
X151560211Y-97409357D01*
X151613327Y-97446549D01*
X151743251Y-97537523D01*
X151748233Y-97539846D01*
X151748238Y-97539849D01*
X151782457Y-97555805D01*
X151835742Y-97602722D01*
X151855203Y-97670999D01*
X151834661Y-97738959D01*
X151782457Y-97784195D01*
X151748238Y-97800151D01*
X151748233Y-97800154D01*
X151743251Y-97802477D01*
X151695220Y-97836109D01*
X151560211Y-97930643D01*
X151560208Y-97930645D01*
X151555700Y-97933802D01*
X151393802Y-98095700D01*
X151390645Y-98100208D01*
X151390643Y-98100211D01*
X151335902Y-98178389D01*
X151262477Y-98283251D01*
X151260154Y-98288233D01*
X151260151Y-98288238D01*
X151177908Y-98464610D01*
X151165716Y-98490757D01*
X151164294Y-98496065D01*
X151164293Y-98496067D01*
X151112407Y-98689707D01*
X151106457Y-98711913D01*
X151086502Y-98940000D01*
X151106457Y-99168087D01*
X151107881Y-99173400D01*
X151107881Y-99173402D01*
X151155851Y-99352425D01*
X151165716Y-99389243D01*
X151168039Y-99394224D01*
X151168039Y-99394225D01*
X151260151Y-99591762D01*
X151260154Y-99591767D01*
X151262477Y-99596749D01*
X151265634Y-99601257D01*
X151382861Y-99768674D01*
X151393802Y-99784300D01*
X151555700Y-99946198D01*
X151560208Y-99949355D01*
X151560211Y-99949357D01*
X151616992Y-99989115D01*
X151743251Y-100077523D01*
X151748233Y-100079846D01*
X151748238Y-100079849D01*
X151782457Y-100095805D01*
X151835742Y-100142722D01*
X151855203Y-100210999D01*
X151834661Y-100278959D01*
X151782457Y-100324195D01*
X151748238Y-100340151D01*
X151748233Y-100340154D01*
X151743251Y-100342477D01*
X151729447Y-100352143D01*
X151560211Y-100470643D01*
X151560208Y-100470645D01*
X151555700Y-100473802D01*
X151393802Y-100635700D01*
X151390645Y-100640208D01*
X151390643Y-100640211D01*
X151381740Y-100652926D01*
X151262477Y-100823251D01*
X151260154Y-100828233D01*
X151260151Y-100828238D01*
X151197879Y-100961783D01*
X151165716Y-101030757D01*
X151164294Y-101036065D01*
X151164293Y-101036067D01*
X151113400Y-101226000D01*
X151106457Y-101251913D01*
X151086502Y-101480000D01*
X151106457Y-101708087D01*
X151107881Y-101713400D01*
X151107881Y-101713402D01*
X151155851Y-101892425D01*
X151165716Y-101929243D01*
X151168039Y-101934224D01*
X151168039Y-101934225D01*
X151260151Y-102131762D01*
X151260154Y-102131767D01*
X151262477Y-102136749D01*
X151290968Y-102177438D01*
X151369078Y-102288990D01*
X151393802Y-102324300D01*
X151555700Y-102486198D01*
X151560208Y-102489355D01*
X151560211Y-102489357D01*
X151609931Y-102524171D01*
X151743251Y-102617523D01*
X151748233Y-102619846D01*
X151748238Y-102619849D01*
X151782457Y-102635805D01*
X151835742Y-102682722D01*
X151855203Y-102750999D01*
X151834661Y-102818959D01*
X151782457Y-102864195D01*
X151748238Y-102880151D01*
X151748233Y-102880154D01*
X151743251Y-102882477D01*
X151638389Y-102955902D01*
X151560211Y-103010643D01*
X151560208Y-103010645D01*
X151555700Y-103013802D01*
X151393802Y-103175700D01*
X151390645Y-103180208D01*
X151390643Y-103180211D01*
X151381740Y-103192926D01*
X151262477Y-103363251D01*
X151260154Y-103368233D01*
X151260151Y-103368238D01*
X151178957Y-103542361D01*
X151165716Y-103570757D01*
X151164294Y-103576065D01*
X151164293Y-103576067D01*
X151113400Y-103766000D01*
X151106457Y-103791913D01*
X151086502Y-104020000D01*
X151106457Y-104248087D01*
X151107881Y-104253400D01*
X151107881Y-104253402D01*
X151155851Y-104432425D01*
X151165716Y-104469243D01*
X151168039Y-104474224D01*
X151168039Y-104474225D01*
X151260151Y-104671762D01*
X151260154Y-104671767D01*
X151262477Y-104676749D01*
X151290968Y-104717438D01*
X151369078Y-104828990D01*
X151393802Y-104864300D01*
X151555700Y-105026198D01*
X151560208Y-105029355D01*
X151560211Y-105029357D01*
X151609931Y-105064171D01*
X151743251Y-105157523D01*
X151748233Y-105159846D01*
X151748238Y-105159849D01*
X151782457Y-105175805D01*
X151835742Y-105222722D01*
X151855203Y-105290999D01*
X151834661Y-105358959D01*
X151782457Y-105404195D01*
X151748238Y-105420151D01*
X151748233Y-105420154D01*
X151743251Y-105422477D01*
X151656623Y-105483135D01*
X151560211Y-105550643D01*
X151560208Y-105550645D01*
X151555700Y-105553802D01*
X151393802Y-105715700D01*
X151390645Y-105720208D01*
X151390643Y-105720211D01*
X151335902Y-105798389D01*
X151262477Y-105903251D01*
X151260154Y-105908233D01*
X151260151Y-105908238D01*
X151177908Y-106084610D01*
X151165716Y-106110757D01*
X151164294Y-106116065D01*
X151164293Y-106116067D01*
X151112407Y-106309707D01*
X151106457Y-106331913D01*
X151086502Y-106560000D01*
X151106457Y-106788087D01*
X151107881Y-106793400D01*
X151107881Y-106793402D01*
X151155851Y-106972425D01*
X151165716Y-107009243D01*
X151168039Y-107014224D01*
X151168039Y-107014225D01*
X151260151Y-107211762D01*
X151260154Y-107211767D01*
X151262477Y-107216749D01*
X151265634Y-107221257D01*
X151369078Y-107368990D01*
X151393802Y-107404300D01*
X151555700Y-107566198D01*
X151560208Y-107569355D01*
X151560211Y-107569357D01*
X151600445Y-107597529D01*
X151743251Y-107697523D01*
X151748233Y-107699846D01*
X151748238Y-107699849D01*
X151782457Y-107715805D01*
X151835742Y-107762722D01*
X151855203Y-107830999D01*
X151834661Y-107898959D01*
X151782457Y-107944195D01*
X151748238Y-107960151D01*
X151748233Y-107960154D01*
X151743251Y-107962477D01*
X151638389Y-108035902D01*
X151560211Y-108090643D01*
X151560208Y-108090645D01*
X151555700Y-108093802D01*
X151393802Y-108255700D01*
X151390645Y-108260208D01*
X151390643Y-108260211D01*
X151362557Y-108300322D01*
X151262477Y-108443251D01*
X151260154Y-108448233D01*
X151260151Y-108448238D01*
X151175719Y-108629305D01*
X151165716Y-108650757D01*
X151164294Y-108656065D01*
X151164293Y-108656067D01*
X151113506Y-108845607D01*
X151106457Y-108871913D01*
X151086502Y-109100000D01*
X151106457Y-109328087D01*
X151107881Y-109333400D01*
X151107881Y-109333402D01*
X151155851Y-109512425D01*
X151165716Y-109549243D01*
X151168039Y-109554224D01*
X151168039Y-109554225D01*
X151260151Y-109751762D01*
X151260154Y-109751767D01*
X151262477Y-109756749D01*
X151265634Y-109761257D01*
X151369078Y-109908990D01*
X151393802Y-109944300D01*
X151555700Y-110106198D01*
X151560208Y-110109355D01*
X151560211Y-110109357D01*
X151600445Y-110137529D01*
X151743251Y-110237523D01*
X151748233Y-110239846D01*
X151748238Y-110239849D01*
X151782457Y-110255805D01*
X151835742Y-110302722D01*
X151855203Y-110370999D01*
X151834661Y-110438959D01*
X151782457Y-110484195D01*
X151748238Y-110500151D01*
X151748233Y-110500154D01*
X151743251Y-110502477D01*
X151638389Y-110575902D01*
X151560211Y-110630643D01*
X151560208Y-110630645D01*
X151555700Y-110633802D01*
X151393802Y-110795700D01*
X151390645Y-110800208D01*
X151390643Y-110800211D01*
X151335902Y-110878389D01*
X151262477Y-110983251D01*
X151260154Y-110988233D01*
X151260151Y-110988238D01*
X151252568Y-111004500D01*
X151165716Y-111190757D01*
X151164294Y-111196065D01*
X151164293Y-111196067D01*
X151112407Y-111389707D01*
X151106457Y-111411913D01*
X151086502Y-111640000D01*
X147828500Y-111640000D01*
X147828500Y-106574518D01*
X147828511Y-106572869D01*
X147829783Y-106475680D01*
X147829859Y-106469898D01*
X147828885Y-106464230D01*
X147828500Y-106454418D01*
X147828500Y-86254518D01*
X147828511Y-86252869D01*
X147829783Y-86155680D01*
X147829859Y-86149898D01*
X147828885Y-86144230D01*
X147828500Y-86134418D01*
X147828500Y-81165475D01*
X151087483Y-81165475D01*
X151106472Y-81382519D01*
X151108375Y-81393312D01*
X151164764Y-81603761D01*
X151168510Y-81614053D01*
X151260586Y-81811511D01*
X151266069Y-81821006D01*
X151302509Y-81873048D01*
X151312988Y-81881424D01*
X151326434Y-81874356D01*
X152027978Y-81172812D01*
X152034356Y-81161132D01*
X152764408Y-81161132D01*
X152764539Y-81162965D01*
X152768790Y-81169580D01*
X153474287Y-81875077D01*
X153486062Y-81881507D01*
X153498077Y-81872211D01*
X153533931Y-81821006D01*
X153539414Y-81811511D01*
X153631490Y-81614053D01*
X153635236Y-81603761D01*
X153691625Y-81393312D01*
X153693528Y-81382519D01*
X153712517Y-81165475D01*
X153712517Y-81154525D01*
X153693528Y-80937481D01*
X153691625Y-80926688D01*
X153635236Y-80716239D01*
X153631490Y-80705947D01*
X153539414Y-80508489D01*
X153533931Y-80498994D01*
X153497491Y-80446952D01*
X153487012Y-80438576D01*
X153473566Y-80445644D01*
X152772022Y-81147188D01*
X152764408Y-81161132D01*
X152034356Y-81161132D01*
X152035592Y-81158868D01*
X152035461Y-81157035D01*
X152031210Y-81150420D01*
X151325713Y-80444923D01*
X151313938Y-80438493D01*
X151301923Y-80447789D01*
X151266069Y-80498994D01*
X151260586Y-80508489D01*
X151168510Y-80705947D01*
X151164764Y-80716239D01*
X151108375Y-80926688D01*
X151106472Y-80937481D01*
X151087483Y-81154525D01*
X151087483Y-81165475D01*
X147828500Y-81165475D01*
X147828500Y-79145843D01*
X147848502Y-79077722D01*
X147865405Y-79056748D01*
X149661748Y-77260405D01*
X149724060Y-77226379D01*
X149750843Y-77223500D01*
X151728135Y-77223500D01*
X151781395Y-77235310D01*
X151782467Y-77235810D01*
X151835748Y-77282732D01*
X151855203Y-77351011D01*
X151834655Y-77418969D01*
X151782457Y-77464195D01*
X151748238Y-77480151D01*
X151748233Y-77480154D01*
X151743251Y-77482477D01*
X151638389Y-77555902D01*
X151560211Y-77610643D01*
X151560208Y-77610645D01*
X151555700Y-77613802D01*
X151393802Y-77775700D01*
X151390645Y-77780208D01*
X151390643Y-77780211D01*
X151358803Y-77825684D01*
X151262477Y-77963251D01*
X151260154Y-77968233D01*
X151260151Y-77968238D01*
X151175719Y-78149305D01*
X151165716Y-78170757D01*
X151164294Y-78176065D01*
X151164293Y-78176067D01*
X151113177Y-78366834D01*
X151106457Y-78391913D01*
X151086502Y-78620000D01*
X151106457Y-78848087D01*
X151107881Y-78853400D01*
X151107881Y-78853402D01*
X151155851Y-79032425D01*
X151165716Y-79069243D01*
X151168039Y-79074224D01*
X151168039Y-79074225D01*
X151260151Y-79271762D01*
X151260154Y-79271767D01*
X151262477Y-79276749D01*
X151265634Y-79281257D01*
X151369078Y-79428990D01*
X151393802Y-79464300D01*
X151555700Y-79626198D01*
X151560208Y-79629355D01*
X151560211Y-79629357D01*
X151600445Y-79657529D01*
X151743251Y-79757523D01*
X151748233Y-79759846D01*
X151748238Y-79759849D01*
X151783049Y-79776081D01*
X151836334Y-79822998D01*
X151855795Y-79891275D01*
X151835253Y-79959235D01*
X151783049Y-80004471D01*
X151748489Y-80020586D01*
X151738994Y-80026069D01*
X151686952Y-80062509D01*
X151678576Y-80072988D01*
X151685644Y-80086434D01*
X152387188Y-80787978D01*
X152401132Y-80795592D01*
X152402965Y-80795461D01*
X152409580Y-80791210D01*
X153115077Y-80085713D01*
X153121507Y-80073938D01*
X153112211Y-80061923D01*
X153061006Y-80026069D01*
X153051511Y-80020586D01*
X153016951Y-80004471D01*
X152963666Y-79957554D01*
X152944205Y-79889277D01*
X152964747Y-79821317D01*
X153016951Y-79776081D01*
X153051762Y-79759849D01*
X153051767Y-79759846D01*
X153056749Y-79757523D01*
X153199555Y-79657529D01*
X153239789Y-79629357D01*
X153239792Y-79629355D01*
X153244300Y-79626198D01*
X153406198Y-79464300D01*
X153430923Y-79428990D01*
X153534366Y-79281257D01*
X153537523Y-79276749D01*
X153539846Y-79271767D01*
X153539849Y-79271762D01*
X153631961Y-79074225D01*
X153631961Y-79074224D01*
X153634284Y-79069243D01*
X153644150Y-79032425D01*
X153692119Y-78853402D01*
X153692119Y-78853400D01*
X153693543Y-78848087D01*
X153713498Y-78620000D01*
X153693543Y-78391913D01*
X153686823Y-78366834D01*
X153635707Y-78176067D01*
X153635706Y-78176065D01*
X153634284Y-78170757D01*
X153624281Y-78149305D01*
X153539849Y-77968238D01*
X153539846Y-77968233D01*
X153537523Y-77963251D01*
X153441197Y-77825684D01*
X153409357Y-77780211D01*
X153409355Y-77780208D01*
X153406198Y-77775700D01*
X153244300Y-77613802D01*
X153239792Y-77610645D01*
X153239789Y-77610643D01*
X153161611Y-77555902D01*
X153056749Y-77482477D01*
X153051767Y-77480154D01*
X153051762Y-77480151D01*
X153017543Y-77464195D01*
X152964258Y-77417278D01*
X152944797Y-77349001D01*
X152965339Y-77281041D01*
X153017533Y-77235810D01*
X153018605Y-77235310D01*
X153071865Y-77223500D01*
X179070500Y-77223500D01*
X179138621Y-77243502D01*
X179185114Y-77297158D01*
X179196500Y-77349500D01*
X179196500Y-96992195D01*
X179196230Y-97000436D01*
X179191994Y-97065061D01*
X179202399Y-97152973D01*
X179202736Y-97156186D01*
X179210831Y-97244279D01*
X179212399Y-97249839D01*
X179213061Y-97253412D01*
X179215250Y-97264415D01*
X179216018Y-97268028D01*
X179216697Y-97273765D01*
X179242938Y-97358276D01*
X179243854Y-97361373D01*
X179267877Y-97446549D01*
X179270435Y-97451737D01*
X179271760Y-97455188D01*
X179275901Y-97465566D01*
X179277304Y-97468953D01*
X179279018Y-97474473D01*
X179281709Y-97479587D01*
X179281709Y-97479588D01*
X179320198Y-97552745D01*
X179321695Y-97555681D01*
X179360829Y-97635037D01*
X179364287Y-97639668D01*
X179366250Y-97642871D01*
X179372173Y-97652258D01*
X179374182Y-97655351D01*
X179376871Y-97660463D01*
X179431656Y-97729956D01*
X179433627Y-97732526D01*
X179483116Y-97798801D01*
X179483123Y-97798808D01*
X179486573Y-97803429D01*
X179490807Y-97807343D01*
X179490809Y-97807345D01*
X179546973Y-97859262D01*
X179550539Y-97862692D01*
X181406151Y-99718304D01*
X181411788Y-99724322D01*
X181454494Y-99773019D01*
X181459029Y-99776594D01*
X181459030Y-99776595D01*
X181523982Y-99827798D01*
X181526547Y-99829876D01*
X181590100Y-99882734D01*
X181590105Y-99882738D01*
X181594540Y-99886426D01*
X181599574Y-99889245D01*
X181602584Y-99891314D01*
X181611854Y-99897508D01*
X181614999Y-99899551D01*
X181619537Y-99903128D01*
X181624645Y-99905816D01*
X181624649Y-99905818D01*
X181677824Y-99933794D01*
X181693994Y-99942301D01*
X181697816Y-99944312D01*
X181700716Y-99945887D01*
X181763723Y-99981173D01*
X181777904Y-99989115D01*
X181783376Y-99990972D01*
X181786776Y-99992486D01*
X181796987Y-99996873D01*
X181800421Y-99998295D01*
X181805527Y-100000982D01*
X181811041Y-100002694D01*
X181811043Y-100002695D01*
X181889999Y-100027212D01*
X181893135Y-100028231D01*
X181939269Y-100043891D01*
X181976912Y-100056669D01*
X181982625Y-100057498D01*
X181986138Y-100058341D01*
X181997151Y-100060833D01*
X182000718Y-100061591D01*
X182006234Y-100063304D01*
X182011962Y-100063982D01*
X182011967Y-100063983D01*
X182064367Y-100070184D01*
X182094118Y-100073706D01*
X182097340Y-100074130D01*
X182184897Y-100086825D01*
X182267054Y-100083597D01*
X182272001Y-100083500D01*
X184091429Y-100083500D01*
X184159550Y-100103502D01*
X184192255Y-100133935D01*
X184206739Y-100153261D01*
X184323295Y-100240615D01*
X184331704Y-100243767D01*
X184331705Y-100243768D01*
X184440451Y-100284535D01*
X184497216Y-100327176D01*
X184521916Y-100393738D01*
X184506709Y-100463087D01*
X184487316Y-100489568D01*
X184360629Y-100622138D01*
X184357715Y-100626410D01*
X184357714Y-100626411D01*
X184348300Y-100640211D01*
X184234743Y-100806680D01*
X184219386Y-100839765D01*
X184145071Y-100999863D01*
X184140688Y-101009305D01*
X184080989Y-101224570D01*
X184057251Y-101446695D01*
X184057548Y-101451848D01*
X184057548Y-101451851D01*
X184063011Y-101546590D01*
X184070110Y-101669715D01*
X184071247Y-101674761D01*
X184071248Y-101674767D01*
X184079955Y-101713402D01*
X184119222Y-101887639D01*
X184203266Y-102094616D01*
X184319987Y-102285088D01*
X184466250Y-102453938D01*
X184638126Y-102596632D01*
X184705163Y-102635805D01*
X184711955Y-102639774D01*
X184760679Y-102691412D01*
X184773750Y-102761195D01*
X184747019Y-102826967D01*
X184706562Y-102860327D01*
X184698457Y-102864546D01*
X184689738Y-102870036D01*
X184519433Y-102997905D01*
X184511726Y-103004748D01*
X184364590Y-103158717D01*
X184358104Y-103166727D01*
X184238098Y-103342649D01*
X184233000Y-103351623D01*
X184143338Y-103544783D01*
X184139775Y-103554470D01*
X184084389Y-103754183D01*
X184085912Y-103762607D01*
X184098292Y-103766000D01*
X186738344Y-103766000D01*
X186751875Y-103762027D01*
X186753180Y-103752947D01*
X186711214Y-103585875D01*
X186707894Y-103576124D01*
X186622972Y-103380814D01*
X186618105Y-103371739D01*
X186502426Y-103192926D01*
X186496136Y-103184757D01*
X186352806Y-103027240D01*
X186345273Y-103020215D01*
X186178139Y-102888222D01*
X186169556Y-102882520D01*
X186132602Y-102862120D01*
X186082631Y-102811687D01*
X186067859Y-102742245D01*
X186092975Y-102675839D01*
X186120327Y-102649232D01*
X186143797Y-102632491D01*
X186299860Y-102521173D01*
X186331788Y-102489357D01*
X186454435Y-102367137D01*
X186458096Y-102363489D01*
X186489498Y-102319789D01*
X186585435Y-102186277D01*
X186588453Y-102182077D01*
X186608628Y-102141257D01*
X186685136Y-101986453D01*
X186685137Y-101986451D01*
X186687430Y-101981811D01*
X186752370Y-101768069D01*
X186781529Y-101546590D01*
X186783156Y-101480000D01*
X186764852Y-101257361D01*
X186710431Y-101040702D01*
X186621354Y-100835840D01*
X186500014Y-100648277D01*
X186480405Y-100626727D01*
X186352798Y-100486488D01*
X186321746Y-100422642D01*
X186330141Y-100352143D01*
X186375317Y-100297375D01*
X186401761Y-100283706D01*
X186508297Y-100243767D01*
X186516705Y-100240615D01*
X186633261Y-100153261D01*
X186720615Y-100036705D01*
X186771745Y-99900316D01*
X186778500Y-99838134D01*
X186778500Y-98041866D01*
X186771745Y-97979684D01*
X186720615Y-97843295D01*
X186633261Y-97726739D01*
X186516705Y-97639385D01*
X186380316Y-97588255D01*
X186318134Y-97581500D01*
X184521866Y-97581500D01*
X184459684Y-97588255D01*
X184323295Y-97639385D01*
X184206739Y-97726739D01*
X184197581Y-97738959D01*
X184192255Y-97746065D01*
X184135396Y-97788580D01*
X184091429Y-97796500D01*
X182770843Y-97796500D01*
X182702722Y-97776498D01*
X182681748Y-97759595D01*
X181520405Y-96598252D01*
X181486379Y-96535940D01*
X181483500Y-96509157D01*
X181483500Y-86206695D01*
X184057251Y-86206695D01*
X184057548Y-86211848D01*
X184057548Y-86211851D01*
X184063011Y-86306590D01*
X184070110Y-86429715D01*
X184071247Y-86434761D01*
X184071248Y-86434767D01*
X184079955Y-86473402D01*
X184119222Y-86647639D01*
X184203266Y-86854616D01*
X184319987Y-87045088D01*
X184466250Y-87213938D01*
X184638126Y-87356632D01*
X184831000Y-87469338D01*
X185039692Y-87549030D01*
X185044760Y-87550061D01*
X185044763Y-87550062D01*
X185152017Y-87571883D01*
X185258597Y-87593567D01*
X185263772Y-87593757D01*
X185263774Y-87593757D01*
X185476673Y-87601564D01*
X185476677Y-87601564D01*
X185481837Y-87601753D01*
X185486957Y-87601097D01*
X185486959Y-87601097D01*
X185698288Y-87574025D01*
X185698289Y-87574025D01*
X185703416Y-87573368D01*
X185708366Y-87571883D01*
X185912429Y-87510661D01*
X185912434Y-87510659D01*
X185917384Y-87509174D01*
X186117994Y-87410896D01*
X186299860Y-87281173D01*
X186331788Y-87249357D01*
X186443400Y-87138134D01*
X186458096Y-87123489D01*
X186489498Y-87079789D01*
X186585435Y-86946277D01*
X186588453Y-86942077D01*
X186608628Y-86901257D01*
X186685136Y-86746453D01*
X186685137Y-86746451D01*
X186687430Y-86741811D01*
X186752370Y-86528069D01*
X186781529Y-86306590D01*
X186783156Y-86240000D01*
X186764852Y-86017361D01*
X186710431Y-85800702D01*
X186621354Y-85595840D01*
X186500014Y-85408277D01*
X186349670Y-85243051D01*
X186345619Y-85239852D01*
X186345615Y-85239848D01*
X186178414Y-85107800D01*
X186178410Y-85107798D01*
X186174359Y-85104598D01*
X186133053Y-85081796D01*
X186083084Y-85031364D01*
X186068312Y-84961921D01*
X186093428Y-84895516D01*
X186120780Y-84868909D01*
X186169207Y-84834366D01*
X186299860Y-84741173D01*
X186324906Y-84716215D01*
X186454435Y-84587137D01*
X186458096Y-84583489D01*
X186489498Y-84539789D01*
X186585435Y-84406277D01*
X186588453Y-84402077D01*
X186608628Y-84361257D01*
X186685136Y-84206453D01*
X186685137Y-84206451D01*
X186687430Y-84201811D01*
X186752370Y-83988069D01*
X186781529Y-83766590D01*
X186783156Y-83700000D01*
X186764852Y-83477361D01*
X186710431Y-83260702D01*
X186621354Y-83055840D01*
X186500014Y-82868277D01*
X186349670Y-82703051D01*
X186345619Y-82699852D01*
X186345615Y-82699848D01*
X186178414Y-82567800D01*
X186178410Y-82567798D01*
X186174359Y-82564598D01*
X186133053Y-82541796D01*
X186083084Y-82491364D01*
X186068312Y-82421921D01*
X186093428Y-82355516D01*
X186120780Y-82328909D01*
X186169817Y-82293931D01*
X186299860Y-82201173D01*
X186458096Y-82043489D01*
X186517594Y-81960689D01*
X186585435Y-81866277D01*
X186588453Y-81862077D01*
X186608752Y-81821006D01*
X186685136Y-81666453D01*
X186685137Y-81666451D01*
X186687430Y-81661811D01*
X186752370Y-81448069D01*
X186781529Y-81226590D01*
X186783156Y-81160000D01*
X186764852Y-80937361D01*
X186710431Y-80720702D01*
X186621354Y-80515840D01*
X186500014Y-80328277D01*
X186349670Y-80163051D01*
X186345619Y-80159852D01*
X186345615Y-80159848D01*
X186178414Y-80027800D01*
X186178410Y-80027798D01*
X186174359Y-80024598D01*
X186133053Y-80001796D01*
X186083084Y-79951364D01*
X186068312Y-79881921D01*
X186093428Y-79815516D01*
X186120780Y-79788909D01*
X186169207Y-79754366D01*
X186299860Y-79661173D01*
X186331788Y-79629357D01*
X186454435Y-79507137D01*
X186458096Y-79503489D01*
X186489498Y-79459789D01*
X186585435Y-79326277D01*
X186588453Y-79322077D01*
X186608628Y-79281257D01*
X186685136Y-79126453D01*
X186685137Y-79126451D01*
X186687430Y-79121811D01*
X186752370Y-78908069D01*
X186781529Y-78686590D01*
X186783156Y-78620000D01*
X186764852Y-78397361D01*
X186710431Y-78180702D01*
X186621354Y-77975840D01*
X186529613Y-77834030D01*
X186502822Y-77792617D01*
X186502820Y-77792614D01*
X186500014Y-77788277D01*
X186349670Y-77623051D01*
X186345619Y-77619852D01*
X186345615Y-77619848D01*
X186178414Y-77487800D01*
X186178410Y-77487798D01*
X186174359Y-77484598D01*
X186132569Y-77461529D01*
X186082598Y-77411097D01*
X186067826Y-77341654D01*
X186092942Y-77275248D01*
X186120294Y-77248641D01*
X186295328Y-77123792D01*
X186303200Y-77117139D01*
X186454052Y-76966812D01*
X186460730Y-76958965D01*
X186585003Y-76786020D01*
X186590313Y-76777183D01*
X186684670Y-76586267D01*
X186688469Y-76576672D01*
X186750377Y-76372910D01*
X186752555Y-76362837D01*
X186753986Y-76351962D01*
X186751775Y-76337778D01*
X186738617Y-76334000D01*
X184103225Y-76334000D01*
X184089694Y-76337973D01*
X184088257Y-76347966D01*
X184118565Y-76482446D01*
X184121645Y-76492275D01*
X184201770Y-76689603D01*
X184206413Y-76698794D01*
X184317694Y-76880388D01*
X184323777Y-76888699D01*
X184463213Y-77049667D01*
X184470580Y-77056883D01*
X184634434Y-77192916D01*
X184642881Y-77198831D01*
X184711969Y-77239203D01*
X184760693Y-77290842D01*
X184773764Y-77360625D01*
X184747033Y-77426396D01*
X184706584Y-77459752D01*
X184693607Y-77466507D01*
X184689474Y-77469610D01*
X184689471Y-77469612D01*
X184668132Y-77485634D01*
X184514965Y-77600635D01*
X184360629Y-77762138D01*
X184357715Y-77766410D01*
X184357714Y-77766411D01*
X184348300Y-77780211D01*
X184234743Y-77946680D01*
X184140688Y-78149305D01*
X184080989Y-78364570D01*
X184057251Y-78586695D01*
X184057548Y-78591848D01*
X184057548Y-78591851D01*
X184063011Y-78686590D01*
X184070110Y-78809715D01*
X184071247Y-78814761D01*
X184071248Y-78814767D01*
X184079955Y-78853402D01*
X184119222Y-79027639D01*
X184203266Y-79234616D01*
X184319987Y-79425088D01*
X184466250Y-79593938D01*
X184638126Y-79736632D01*
X184705635Y-79776081D01*
X184711445Y-79779476D01*
X184760169Y-79831114D01*
X184773240Y-79900897D01*
X184746509Y-79966669D01*
X184706055Y-80000027D01*
X184693607Y-80006507D01*
X184689474Y-80009610D01*
X184689471Y-80009612D01*
X184619019Y-80062509D01*
X184514965Y-80140635D01*
X184360629Y-80302138D01*
X184234743Y-80486680D01*
X184140688Y-80689305D01*
X184080989Y-80904570D01*
X184057251Y-81126695D01*
X184057548Y-81131848D01*
X184057548Y-81131851D01*
X184063011Y-81226590D01*
X184070110Y-81349715D01*
X184071247Y-81354761D01*
X184071248Y-81354767D01*
X184079935Y-81393312D01*
X184119222Y-81567639D01*
X184203266Y-81774616D01*
X184319987Y-81965088D01*
X184466250Y-82133938D01*
X184638126Y-82276632D01*
X184667730Y-82293931D01*
X184711445Y-82319476D01*
X184760169Y-82371114D01*
X184773240Y-82440897D01*
X184746509Y-82506669D01*
X184706055Y-82540027D01*
X184693607Y-82546507D01*
X184689474Y-82549610D01*
X184689471Y-82549612D01*
X184668132Y-82565634D01*
X184514965Y-82680635D01*
X184360629Y-82842138D01*
X184357715Y-82846410D01*
X184357714Y-82846411D01*
X184348300Y-82860211D01*
X184234743Y-83026680D01*
X184140688Y-83229305D01*
X184080989Y-83444570D01*
X184057251Y-83666695D01*
X184057548Y-83671848D01*
X184057548Y-83671851D01*
X184063011Y-83766590D01*
X184070110Y-83889715D01*
X184071247Y-83894761D01*
X184071248Y-83894767D01*
X184079955Y-83933402D01*
X184119222Y-84107639D01*
X184203266Y-84314616D01*
X184319987Y-84505088D01*
X184466250Y-84673938D01*
X184638126Y-84816632D01*
X184698865Y-84852125D01*
X184711445Y-84859476D01*
X184760169Y-84911114D01*
X184773240Y-84980897D01*
X184746509Y-85046669D01*
X184706055Y-85080027D01*
X184693607Y-85086507D01*
X184689474Y-85089610D01*
X184689471Y-85089612D01*
X184519100Y-85217530D01*
X184514965Y-85220635D01*
X184360629Y-85382138D01*
X184357715Y-85386410D01*
X184357714Y-85386411D01*
X184348300Y-85400211D01*
X184234743Y-85566680D01*
X184140688Y-85769305D01*
X184080989Y-85984570D01*
X184057251Y-86206695D01*
X181483500Y-86206695D01*
X181483500Y-76242805D01*
X181483770Y-76234564D01*
X181487628Y-76175705D01*
X181488006Y-76169939D01*
X181484373Y-76139244D01*
X181483500Y-76124434D01*
X181483500Y-74185843D01*
X181503502Y-74117722D01*
X181520405Y-74096748D01*
X183436749Y-72180405D01*
X183499061Y-72146379D01*
X183525844Y-72143500D01*
X184091429Y-72143500D01*
X184159550Y-72163502D01*
X184192255Y-72193935D01*
X184206739Y-72213261D01*
X184323295Y-72300615D01*
X184331704Y-72303767D01*
X184331705Y-72303768D01*
X184440451Y-72344535D01*
X184497216Y-72387176D01*
X184521916Y-72453738D01*
X184506709Y-72523087D01*
X184487316Y-72549568D01*
X184360629Y-72682138D01*
X184234743Y-72866680D01*
X184219003Y-72900590D01*
X184156827Y-73034537D01*
X184140688Y-73069305D01*
X184080989Y-73284570D01*
X184057251Y-73506695D01*
X184057548Y-73511848D01*
X184057548Y-73511851D01*
X184062957Y-73605665D01*
X184070110Y-73729715D01*
X184071247Y-73734761D01*
X184071248Y-73734767D01*
X184091119Y-73822939D01*
X184119222Y-73947639D01*
X184203266Y-74154616D01*
X184319987Y-74345088D01*
X184466250Y-74513938D01*
X184638126Y-74656632D01*
X184705635Y-74696081D01*
X184711955Y-74699774D01*
X184760679Y-74751412D01*
X184773750Y-74821195D01*
X184747019Y-74886967D01*
X184706562Y-74920327D01*
X184698457Y-74924546D01*
X184689738Y-74930036D01*
X184519433Y-75057905D01*
X184511726Y-75064748D01*
X184364590Y-75218717D01*
X184358104Y-75226727D01*
X184238098Y-75402649D01*
X184233000Y-75411623D01*
X184143338Y-75604783D01*
X184139775Y-75614470D01*
X184084389Y-75814183D01*
X184085912Y-75822607D01*
X184098292Y-75826000D01*
X186738344Y-75826000D01*
X186751875Y-75822027D01*
X186753180Y-75812947D01*
X186711214Y-75645875D01*
X186707894Y-75636124D01*
X186622972Y-75440814D01*
X186618105Y-75431739D01*
X186502426Y-75252926D01*
X186496136Y-75244757D01*
X186352806Y-75087240D01*
X186345273Y-75080215D01*
X186178139Y-74948222D01*
X186169556Y-74942520D01*
X186132602Y-74922120D01*
X186082631Y-74871687D01*
X186067859Y-74802245D01*
X186092975Y-74735839D01*
X186120327Y-74709232D01*
X186143797Y-74692491D01*
X186299860Y-74581173D01*
X186458096Y-74423489D01*
X186517594Y-74340689D01*
X186585435Y-74246277D01*
X186588453Y-74242077D01*
X186616246Y-74185843D01*
X186685136Y-74046453D01*
X186685137Y-74046451D01*
X186687430Y-74041811D01*
X186752370Y-73828069D01*
X186781529Y-73606590D01*
X186783156Y-73540000D01*
X186764852Y-73317361D01*
X186710431Y-73100702D01*
X186621354Y-72895840D01*
X186574925Y-72824072D01*
X186502822Y-72712617D01*
X186502820Y-72712614D01*
X186500014Y-72708277D01*
X186496532Y-72704450D01*
X186352798Y-72546488D01*
X186321746Y-72482642D01*
X186330141Y-72412143D01*
X186375317Y-72357375D01*
X186401761Y-72343706D01*
X186508297Y-72303767D01*
X186516705Y-72300615D01*
X186633261Y-72213261D01*
X186720615Y-72096705D01*
X186771745Y-71960316D01*
X186778500Y-71898134D01*
X186778500Y-70101866D01*
X186771745Y-70039684D01*
X186720615Y-69903295D01*
X186633261Y-69786739D01*
X186516705Y-69699385D01*
X186380316Y-69648255D01*
X186318134Y-69641500D01*
X184521866Y-69641500D01*
X184459684Y-69648255D01*
X184323295Y-69699385D01*
X184206739Y-69786739D01*
X184201358Y-69793919D01*
X184192255Y-69806065D01*
X184135396Y-69848580D01*
X184091429Y-69856500D01*
X183042795Y-69856500D01*
X183034554Y-69856230D01*
X183018633Y-69855187D01*
X182969939Y-69851995D01*
X182918486Y-69858085D01*
X182882092Y-69862392D01*
X182878813Y-69862736D01*
X182796477Y-69870302D01*
X182796476Y-69870302D01*
X182790721Y-69870831D01*
X182785162Y-69872399D01*
X182781588Y-69873061D01*
X182770585Y-69875250D01*
X182766972Y-69876018D01*
X182761235Y-69876697D01*
X182676724Y-69902938D01*
X182673627Y-69903854D01*
X182588451Y-69927877D01*
X182583263Y-69930435D01*
X182579812Y-69931760D01*
X182569434Y-69935901D01*
X182566047Y-69937304D01*
X182560527Y-69939018D01*
X182555413Y-69941709D01*
X182555412Y-69941709D01*
X182482255Y-69980198D01*
X182479319Y-69981695D01*
X182399963Y-70020829D01*
X182395332Y-70024287D01*
X182392129Y-70026250D01*
X182382742Y-70032173D01*
X182379649Y-70034182D01*
X182374537Y-70036871D01*
X182305044Y-70091656D01*
X182302474Y-70093627D01*
X182236199Y-70143116D01*
X182236192Y-70143123D01*
X182231571Y-70146573D01*
X182227657Y-70150807D01*
X182227655Y-70150809D01*
X182175738Y-70206973D01*
X182172308Y-70210539D01*
X179561696Y-72821151D01*
X179555678Y-72826788D01*
X179506981Y-72869494D01*
X179503406Y-72874029D01*
X179503405Y-72874030D01*
X179452202Y-72938982D01*
X179450124Y-72941547D01*
X179397266Y-73005100D01*
X179397262Y-73005105D01*
X179393574Y-73009540D01*
X179390755Y-73014574D01*
X179388686Y-73017584D01*
X179382492Y-73026854D01*
X179380449Y-73029999D01*
X179376872Y-73034537D01*
X179374184Y-73039645D01*
X179374182Y-73039649D01*
X179335688Y-73112816D01*
X179334118Y-73115706D01*
X179290885Y-73192904D01*
X179289028Y-73198376D01*
X179287514Y-73201776D01*
X179283127Y-73211987D01*
X179281705Y-73215421D01*
X179279018Y-73220527D01*
X179277306Y-73226041D01*
X179277305Y-73226043D01*
X179252788Y-73304999D01*
X179251769Y-73308135D01*
X179233729Y-73361280D01*
X179223331Y-73391912D01*
X179222502Y-73397625D01*
X179221659Y-73401138D01*
X179219167Y-73412151D01*
X179218409Y-73415718D01*
X179216696Y-73421234D01*
X179216018Y-73426962D01*
X179216017Y-73426967D01*
X179206297Y-73509098D01*
X179205870Y-73512340D01*
X179193175Y-73599897D01*
X179196403Y-73682054D01*
X179196500Y-73687001D01*
X179196500Y-74810500D01*
X179176498Y-74878621D01*
X179122842Y-74925114D01*
X179070500Y-74936500D01*
X153630269Y-74936500D01*
X153562148Y-74916498D01*
X153515655Y-74862842D01*
X153505551Y-74792568D01*
X153535045Y-74727988D01*
X153554703Y-74709675D01*
X153563261Y-74703261D01*
X153650615Y-74586705D01*
X153701745Y-74450316D01*
X153708500Y-74388134D01*
X153708500Y-72691866D01*
X153701745Y-72629684D01*
X153650615Y-72493295D01*
X153563261Y-72376739D01*
X153446705Y-72289385D01*
X153310316Y-72238255D01*
X153248134Y-72231500D01*
X151551866Y-72231500D01*
X151489684Y-72238255D01*
X151353295Y-72289385D01*
X151236739Y-72376739D01*
X151149385Y-72493295D01*
X151098255Y-72629684D01*
X151091500Y-72691866D01*
X151091500Y-74388134D01*
X151098255Y-74450316D01*
X151149385Y-74586705D01*
X151236739Y-74703261D01*
X151245296Y-74709674D01*
X151246318Y-74711041D01*
X151250269Y-74714992D01*
X151249699Y-74715562D01*
X151287811Y-74766532D01*
X151292837Y-74837351D01*
X151258778Y-74899644D01*
X151196447Y-74933635D01*
X151169731Y-74936500D01*
X149267794Y-74936500D01*
X149259553Y-74936230D01*
X149243632Y-74935187D01*
X149194938Y-74931995D01*
X149107074Y-74942395D01*
X149103807Y-74942737D01*
X149083556Y-74944598D01*
X149021476Y-74950302D01*
X149021474Y-74950302D01*
X149015721Y-74950831D01*
X149010159Y-74952400D01*
X149006601Y-74953059D01*
X148995551Y-74955257D01*
X148991970Y-74956018D01*
X148986234Y-74956697D01*
X148901731Y-74982935D01*
X148898599Y-74983863D01*
X148813451Y-75007877D01*
X148808269Y-75010433D01*
X148804824Y-75011755D01*
X148794421Y-75015906D01*
X148791042Y-75017305D01*
X148785526Y-75019018D01*
X148780420Y-75021704D01*
X148780416Y-75021706D01*
X148707217Y-75060218D01*
X148704292Y-75061708D01*
X148680035Y-75073671D01*
X148630141Y-75098275D01*
X148630137Y-75098278D01*
X148624963Y-75100829D01*
X148620338Y-75104283D01*
X148617172Y-75106223D01*
X148607759Y-75112162D01*
X148604649Y-75114181D01*
X148599537Y-75116871D01*
X148595003Y-75120446D01*
X148595002Y-75120446D01*
X148530058Y-75171644D01*
X148527457Y-75173640D01*
X148456571Y-75226573D01*
X148452657Y-75230807D01*
X148452655Y-75230809D01*
X148400750Y-75286960D01*
X148397320Y-75290526D01*
X145906696Y-77781151D01*
X145900678Y-77786788D01*
X145851981Y-77829494D01*
X145848406Y-77834029D01*
X145848405Y-77834030D01*
X145797202Y-77898982D01*
X145795124Y-77901547D01*
X145742266Y-77965100D01*
X145742262Y-77965105D01*
X145738574Y-77969540D01*
X145735755Y-77974574D01*
X145733686Y-77977584D01*
X145727492Y-77986854D01*
X145725449Y-77989999D01*
X145721872Y-77994537D01*
X145719184Y-77999645D01*
X145719182Y-77999649D01*
X145680688Y-78072816D01*
X145679118Y-78075706D01*
X145635885Y-78152904D01*
X145634028Y-78158376D01*
X145632514Y-78161776D01*
X145628127Y-78171987D01*
X145626705Y-78175421D01*
X145624018Y-78180527D01*
X145622306Y-78186041D01*
X145622305Y-78186043D01*
X145597788Y-78264999D01*
X145596769Y-78268135D01*
X145568331Y-78351912D01*
X145567502Y-78357625D01*
X145566659Y-78361138D01*
X145564167Y-78372151D01*
X145563409Y-78375718D01*
X145561696Y-78381234D01*
X145561018Y-78386962D01*
X145561017Y-78386967D01*
X145551297Y-78469098D01*
X145550870Y-78472340D01*
X145538175Y-78559897D01*
X145540669Y-78623365D01*
X145541403Y-78642054D01*
X145541500Y-78647001D01*
X145541500Y-84970500D01*
X145521498Y-85038621D01*
X145467842Y-85085114D01*
X145415500Y-85096500D01*
X141028571Y-85096500D01*
X140960450Y-85076498D01*
X140927745Y-85046065D01*
X140922166Y-85038621D01*
X140913261Y-85026739D01*
X140796705Y-84939385D01*
X140677687Y-84894767D01*
X140620923Y-84852125D01*
X140596223Y-84785564D01*
X140611430Y-84716215D01*
X140632977Y-84687535D01*
X140734052Y-84586812D01*
X140740730Y-84578965D01*
X140865003Y-84406020D01*
X140870313Y-84397183D01*
X140964670Y-84206267D01*
X140968469Y-84196672D01*
X141030377Y-83992910D01*
X141032555Y-83982837D01*
X141033986Y-83971962D01*
X141031775Y-83957778D01*
X141018617Y-83954000D01*
X138383225Y-83954000D01*
X138369694Y-83957973D01*
X138368257Y-83967966D01*
X138398565Y-84102446D01*
X138401645Y-84112275D01*
X138481770Y-84309603D01*
X138486413Y-84318794D01*
X138597694Y-84500388D01*
X138603777Y-84508699D01*
X138743213Y-84669667D01*
X138750577Y-84676879D01*
X138755522Y-84680985D01*
X138795156Y-84739889D01*
X138796653Y-84810870D01*
X138759537Y-84871392D01*
X138719264Y-84895910D01*
X138611705Y-84936232D01*
X138611704Y-84936233D01*
X138603295Y-84939385D01*
X138486739Y-85026739D01*
X138399385Y-85143295D01*
X138348255Y-85279684D01*
X138341500Y-85341866D01*
X138341500Y-87138134D01*
X138348255Y-87200316D01*
X138399385Y-87336705D01*
X138486739Y-87453261D01*
X138603295Y-87540615D01*
X138739684Y-87591745D01*
X138801866Y-87598500D01*
X140598134Y-87598500D01*
X140660316Y-87591745D01*
X140796705Y-87540615D01*
X140913261Y-87453261D01*
X140927745Y-87433935D01*
X140984604Y-87391420D01*
X141028571Y-87383500D01*
X145415500Y-87383500D01*
X145483621Y-87403502D01*
X145530114Y-87457158D01*
X145541500Y-87509500D01*
X145541500Y-105290500D01*
X145521498Y-105358621D01*
X145467842Y-105405114D01*
X145415500Y-105416500D01*
X140475333Y-105416500D01*
X140407212Y-105396498D01*
X140360719Y-105342842D01*
X140350615Y-105272568D01*
X140380109Y-105207988D01*
X140402165Y-105187921D01*
X140430118Y-105167982D01*
X140579860Y-105061173D01*
X140611788Y-105029357D01*
X140734435Y-104907137D01*
X140738096Y-104903489D01*
X140769498Y-104859789D01*
X140865435Y-104726277D01*
X140868453Y-104722077D01*
X140888628Y-104681257D01*
X140965136Y-104526453D01*
X140965137Y-104526451D01*
X140967430Y-104521811D01*
X141032370Y-104308069D01*
X141061529Y-104086590D01*
X141063156Y-104020000D01*
X141044852Y-103797361D01*
X140990431Y-103580702D01*
X140901354Y-103375840D01*
X140780014Y-103188277D01*
X140629670Y-103023051D01*
X140625619Y-103019852D01*
X140625615Y-103019848D01*
X140458414Y-102887800D01*
X140458410Y-102887798D01*
X140454359Y-102884598D01*
X140412569Y-102861529D01*
X140362598Y-102811097D01*
X140347826Y-102741654D01*
X140372942Y-102675248D01*
X140400294Y-102648641D01*
X140575328Y-102523792D01*
X140583200Y-102517139D01*
X140734052Y-102366812D01*
X140740730Y-102358965D01*
X140865003Y-102186020D01*
X140870313Y-102177183D01*
X140964670Y-101986267D01*
X140968469Y-101976672D01*
X141030377Y-101772910D01*
X141032555Y-101762837D01*
X141033986Y-101751962D01*
X141031775Y-101737778D01*
X141018617Y-101734000D01*
X138383225Y-101734000D01*
X138369694Y-101737973D01*
X138368257Y-101747966D01*
X138398565Y-101882446D01*
X138401645Y-101892275D01*
X138481770Y-102089603D01*
X138486413Y-102098794D01*
X138597694Y-102280388D01*
X138603777Y-102288699D01*
X138743213Y-102449667D01*
X138750580Y-102456883D01*
X138914434Y-102592916D01*
X138922881Y-102598831D01*
X138991969Y-102639203D01*
X139040693Y-102690842D01*
X139053764Y-102760625D01*
X139027033Y-102826396D01*
X138986584Y-102859752D01*
X138973607Y-102866507D01*
X138969474Y-102869610D01*
X138969471Y-102869612D01*
X138948132Y-102885634D01*
X138794965Y-103000635D01*
X138640629Y-103162138D01*
X138637715Y-103166410D01*
X138637714Y-103166411D01*
X138628300Y-103180211D01*
X138514743Y-103346680D01*
X138499003Y-103380590D01*
X138423908Y-103542369D01*
X138420688Y-103549305D01*
X138360989Y-103764570D01*
X138337251Y-103986695D01*
X138337548Y-103991848D01*
X138337548Y-103991851D01*
X138343011Y-104086590D01*
X138350110Y-104209715D01*
X138351247Y-104214761D01*
X138351248Y-104214767D01*
X138359955Y-104253402D01*
X138399222Y-104427639D01*
X138483266Y-104634616D01*
X138599987Y-104825088D01*
X138746250Y-104993938D01*
X138918126Y-105136632D01*
X138985163Y-105175805D01*
X138991445Y-105179476D01*
X139040169Y-105231114D01*
X139053240Y-105300897D01*
X139026509Y-105366669D01*
X138986055Y-105400027D01*
X138973607Y-105406507D01*
X138969474Y-105409610D01*
X138969471Y-105409612D01*
X138825871Y-105517430D01*
X138794965Y-105540635D01*
X138640629Y-105702138D01*
X138637715Y-105706410D01*
X138637714Y-105706411D01*
X138628300Y-105720211D01*
X138514743Y-105886680D01*
X138420688Y-106089305D01*
X138360989Y-106304570D01*
X138337251Y-106526695D01*
X138337548Y-106531848D01*
X138337548Y-106531851D01*
X138343011Y-106626590D01*
X138350110Y-106749715D01*
X138351247Y-106754761D01*
X138351248Y-106754767D01*
X138359955Y-106793402D01*
X138399222Y-106967639D01*
X138483266Y-107174616D01*
X138599987Y-107365088D01*
X138746250Y-107533938D01*
X138918126Y-107676632D01*
X138964105Y-107703500D01*
X138991445Y-107719476D01*
X139040169Y-107771114D01*
X139053240Y-107840897D01*
X139026509Y-107906669D01*
X138986055Y-107940027D01*
X138973607Y-107946507D01*
X138969474Y-107949610D01*
X138969471Y-107949612D01*
X138948132Y-107965634D01*
X138794965Y-108080635D01*
X138640629Y-108242138D01*
X138637715Y-108246410D01*
X138637714Y-108246411D01*
X138596108Y-108307403D01*
X138514743Y-108426680D01*
X138420688Y-108629305D01*
X138360989Y-108844570D01*
X138337251Y-109066695D01*
X138337548Y-109071848D01*
X138337548Y-109071851D01*
X138343727Y-109179020D01*
X138350110Y-109289715D01*
X138351247Y-109294761D01*
X138351248Y-109294767D01*
X138359955Y-109333402D01*
X138399222Y-109507639D01*
X138448104Y-109628022D01*
X138480189Y-109707037D01*
X138483266Y-109714616D01*
X138599987Y-109905088D01*
X138746250Y-110073938D01*
X138918126Y-110216632D01*
X138985163Y-110255805D01*
X138991445Y-110259476D01*
X139040169Y-110311114D01*
X139053240Y-110380897D01*
X139026509Y-110446669D01*
X138986055Y-110480027D01*
X138973607Y-110486507D01*
X138969474Y-110489610D01*
X138969471Y-110489612D01*
X138948132Y-110505634D01*
X138794965Y-110620635D01*
X138640629Y-110782138D01*
X138637715Y-110786410D01*
X138637714Y-110786411D01*
X138628300Y-110800211D01*
X138514743Y-110966680D01*
X138420688Y-111169305D01*
X138360989Y-111384570D01*
X138337251Y-111606695D01*
X138337548Y-111611848D01*
X138337548Y-111611851D01*
X138343011Y-111706590D01*
X138350110Y-111829715D01*
X138351247Y-111834761D01*
X138351248Y-111834767D01*
X138359955Y-111873402D01*
X138399222Y-112047639D01*
X138448104Y-112168022D01*
X138480189Y-112247037D01*
X138483266Y-112254616D01*
X138599987Y-112445088D01*
X138746250Y-112613938D01*
X138918126Y-112756632D01*
X138988595Y-112797811D01*
X138991445Y-112799476D01*
X139040169Y-112851114D01*
X139053240Y-112920897D01*
X139026509Y-112986669D01*
X138986055Y-113020027D01*
X138973607Y-113026507D01*
X138969474Y-113029610D01*
X138969471Y-113029612D01*
X138945247Y-113047800D01*
X138794965Y-113160635D01*
X138640629Y-113322138D01*
X138514743Y-113506680D01*
X138420688Y-113709305D01*
X138360989Y-113924570D01*
X138337251Y-114146695D01*
X137668500Y-114146695D01*
X137668500Y-98906695D01*
X138337251Y-98906695D01*
X138337548Y-98911848D01*
X138337548Y-98911851D01*
X138343011Y-99006590D01*
X138350110Y-99129715D01*
X138351247Y-99134761D01*
X138351248Y-99134767D01*
X138359955Y-99173402D01*
X138399222Y-99347639D01*
X138483266Y-99554616D01*
X138485965Y-99559020D01*
X138587262Y-99724322D01*
X138599987Y-99745088D01*
X138746250Y-99913938D01*
X138918126Y-100056632D01*
X138985163Y-100095805D01*
X138991955Y-100099774D01*
X139040679Y-100151412D01*
X139053750Y-100221195D01*
X139027019Y-100286967D01*
X138986562Y-100320327D01*
X138978457Y-100324546D01*
X138969738Y-100330036D01*
X138799433Y-100457905D01*
X138791726Y-100464748D01*
X138644590Y-100618717D01*
X138638104Y-100626727D01*
X138518098Y-100802649D01*
X138513000Y-100811623D01*
X138423338Y-101004783D01*
X138419775Y-101014470D01*
X138364389Y-101214183D01*
X138365912Y-101222607D01*
X138378292Y-101226000D01*
X141018344Y-101226000D01*
X141031875Y-101222027D01*
X141033180Y-101212947D01*
X140991214Y-101045875D01*
X140987894Y-101036124D01*
X140902972Y-100840814D01*
X140898105Y-100831739D01*
X140782426Y-100652926D01*
X140776136Y-100644757D01*
X140632806Y-100487240D01*
X140625273Y-100480215D01*
X140458139Y-100348222D01*
X140449556Y-100342520D01*
X140412602Y-100322120D01*
X140362631Y-100271687D01*
X140347859Y-100202245D01*
X140372975Y-100135839D01*
X140400327Y-100109232D01*
X140436402Y-100083500D01*
X140579860Y-99981173D01*
X140611788Y-99949357D01*
X140723400Y-99838134D01*
X140738096Y-99823489D01*
X140769498Y-99779789D01*
X140865435Y-99646277D01*
X140868453Y-99642077D01*
X140888628Y-99601257D01*
X140965136Y-99446453D01*
X140965137Y-99446451D01*
X140967430Y-99441811D01*
X141032370Y-99228069D01*
X141061529Y-99006590D01*
X141063156Y-98940000D01*
X141044852Y-98717361D01*
X140990431Y-98500702D01*
X140901354Y-98295840D01*
X140780014Y-98108277D01*
X140629670Y-97943051D01*
X140625619Y-97939852D01*
X140625615Y-97939848D01*
X140458414Y-97807800D01*
X140458410Y-97807798D01*
X140454359Y-97804598D01*
X140446304Y-97800151D01*
X140348326Y-97746065D01*
X140258789Y-97696638D01*
X140253920Y-97694914D01*
X140253916Y-97694912D01*
X140053087Y-97623795D01*
X140053083Y-97623794D01*
X140048212Y-97622069D01*
X140043119Y-97621162D01*
X140043116Y-97621161D01*
X139833373Y-97583800D01*
X139833367Y-97583799D01*
X139828284Y-97582894D01*
X139754452Y-97581992D01*
X139610081Y-97580228D01*
X139610079Y-97580228D01*
X139604911Y-97580165D01*
X139384091Y-97613955D01*
X139171756Y-97683357D01*
X138973607Y-97786507D01*
X138969474Y-97789610D01*
X138969471Y-97789612D01*
X138799100Y-97917530D01*
X138794965Y-97920635D01*
X138640629Y-98082138D01*
X138637715Y-98086410D01*
X138637714Y-98086411D01*
X138628300Y-98100211D01*
X138514743Y-98266680D01*
X138420688Y-98469305D01*
X138360989Y-98684570D01*
X138337251Y-98906695D01*
X137668500Y-98906695D01*
X137668500Y-81126695D01*
X138337251Y-81126695D01*
X138337548Y-81131848D01*
X138337548Y-81131851D01*
X138343011Y-81226590D01*
X138350110Y-81349715D01*
X138351247Y-81354761D01*
X138351248Y-81354767D01*
X138359935Y-81393312D01*
X138399222Y-81567639D01*
X138483266Y-81774616D01*
X138599987Y-81965088D01*
X138746250Y-82133938D01*
X138918126Y-82276632D01*
X138947730Y-82293931D01*
X138991955Y-82319774D01*
X139040679Y-82371412D01*
X139053750Y-82441195D01*
X139027019Y-82506967D01*
X138986562Y-82540327D01*
X138978457Y-82544546D01*
X138969738Y-82550036D01*
X138799433Y-82677905D01*
X138791726Y-82684748D01*
X138644590Y-82838717D01*
X138638104Y-82846727D01*
X138518098Y-83022649D01*
X138513000Y-83031623D01*
X138423338Y-83224783D01*
X138419775Y-83234470D01*
X138364389Y-83434183D01*
X138365912Y-83442607D01*
X138378292Y-83446000D01*
X141018344Y-83446000D01*
X141031875Y-83442027D01*
X141033180Y-83432947D01*
X140991214Y-83265875D01*
X140987894Y-83256124D01*
X140902972Y-83060814D01*
X140898105Y-83051739D01*
X140782426Y-82872926D01*
X140776136Y-82864757D01*
X140632806Y-82707240D01*
X140625273Y-82700215D01*
X140458139Y-82568222D01*
X140449556Y-82562520D01*
X140412602Y-82542120D01*
X140362631Y-82491687D01*
X140347859Y-82422245D01*
X140372975Y-82355839D01*
X140400327Y-82329232D01*
X140449817Y-82293931D01*
X140579860Y-82201173D01*
X140738096Y-82043489D01*
X140797594Y-81960689D01*
X140865435Y-81866277D01*
X140868453Y-81862077D01*
X140888752Y-81821006D01*
X140965136Y-81666453D01*
X140965137Y-81666451D01*
X140967430Y-81661811D01*
X141032370Y-81448069D01*
X141061529Y-81226590D01*
X141063156Y-81160000D01*
X141044852Y-80937361D01*
X140990431Y-80720702D01*
X140901354Y-80515840D01*
X140780014Y-80328277D01*
X140629670Y-80163051D01*
X140625619Y-80159852D01*
X140625615Y-80159848D01*
X140458414Y-80027800D01*
X140458410Y-80027798D01*
X140454359Y-80024598D01*
X140413053Y-80001796D01*
X140363084Y-79951364D01*
X140348312Y-79881921D01*
X140373428Y-79815516D01*
X140400780Y-79788909D01*
X140449207Y-79754366D01*
X140579860Y-79661173D01*
X140611788Y-79629357D01*
X140734435Y-79507137D01*
X140738096Y-79503489D01*
X140769498Y-79459789D01*
X140865435Y-79326277D01*
X140868453Y-79322077D01*
X140888628Y-79281257D01*
X140965136Y-79126453D01*
X140965137Y-79126451D01*
X140967430Y-79121811D01*
X141032370Y-78908069D01*
X141061529Y-78686590D01*
X141063156Y-78620000D01*
X141044852Y-78397361D01*
X140990431Y-78180702D01*
X140901354Y-77975840D01*
X140809613Y-77834030D01*
X140782822Y-77792617D01*
X140782820Y-77792614D01*
X140780014Y-77788277D01*
X140629670Y-77623051D01*
X140625619Y-77619852D01*
X140625615Y-77619848D01*
X140458414Y-77487800D01*
X140458410Y-77487798D01*
X140454359Y-77484598D01*
X140413053Y-77461796D01*
X140363084Y-77411364D01*
X140348312Y-77341921D01*
X140373428Y-77275516D01*
X140400780Y-77248909D01*
X140444603Y-77217650D01*
X140579860Y-77121173D01*
X140738096Y-76963489D01*
X140797594Y-76880689D01*
X140865435Y-76786277D01*
X140868453Y-76782077D01*
X140967430Y-76581811D01*
X141032370Y-76368069D01*
X141061529Y-76146590D01*
X141061611Y-76143240D01*
X141063074Y-76083365D01*
X141063074Y-76083361D01*
X141063156Y-76080000D01*
X141044852Y-75857361D01*
X140990431Y-75640702D01*
X140901354Y-75435840D01*
X140780014Y-75248277D01*
X140629670Y-75083051D01*
X140625619Y-75079852D01*
X140625615Y-75079848D01*
X140458414Y-74947800D01*
X140458410Y-74947798D01*
X140454359Y-74944598D01*
X140413053Y-74921796D01*
X140363084Y-74871364D01*
X140348312Y-74801921D01*
X140373428Y-74735516D01*
X140400780Y-74708909D01*
X140444603Y-74677650D01*
X140579860Y-74581173D01*
X140738096Y-74423489D01*
X140797594Y-74340689D01*
X140865435Y-74246277D01*
X140868453Y-74242077D01*
X140896246Y-74185843D01*
X140965136Y-74046453D01*
X140965137Y-74046451D01*
X140967430Y-74041811D01*
X141032370Y-73828069D01*
X141061529Y-73606590D01*
X141063156Y-73540000D01*
X141044852Y-73317361D01*
X140990431Y-73100702D01*
X140901354Y-72895840D01*
X140854925Y-72824072D01*
X140782822Y-72712617D01*
X140782820Y-72712614D01*
X140780014Y-72708277D01*
X140629670Y-72543051D01*
X140625619Y-72539852D01*
X140625615Y-72539848D01*
X140458414Y-72407800D01*
X140458410Y-72407798D01*
X140454359Y-72404598D01*
X140413053Y-72381796D01*
X140363084Y-72331364D01*
X140348312Y-72261921D01*
X140373428Y-72195516D01*
X140400780Y-72168909D01*
X140444603Y-72137650D01*
X140579860Y-72041173D01*
X140738096Y-71883489D01*
X140797594Y-71800689D01*
X140865435Y-71706277D01*
X140868453Y-71702077D01*
X140967430Y-71501811D01*
X141032370Y-71288069D01*
X141061529Y-71066590D01*
X141063156Y-71000000D01*
X141044852Y-70777361D01*
X140990431Y-70560702D01*
X140901354Y-70355840D01*
X140807355Y-70210539D01*
X140782822Y-70172617D01*
X140782820Y-70172614D01*
X140780014Y-70168277D01*
X140629670Y-70003051D01*
X140625619Y-69999852D01*
X140625615Y-69999848D01*
X140458414Y-69867800D01*
X140458410Y-69867798D01*
X140454359Y-69864598D01*
X140439690Y-69856500D01*
X140348326Y-69806065D01*
X140258789Y-69756638D01*
X140253920Y-69754914D01*
X140253916Y-69754912D01*
X140053087Y-69683795D01*
X140053083Y-69683794D01*
X140048212Y-69682069D01*
X140043119Y-69681162D01*
X140043116Y-69681161D01*
X139833373Y-69643800D01*
X139833367Y-69643799D01*
X139828284Y-69642894D01*
X139754452Y-69641992D01*
X139610081Y-69640228D01*
X139610079Y-69640228D01*
X139604911Y-69640165D01*
X139384091Y-69673955D01*
X139171756Y-69743357D01*
X138973607Y-69846507D01*
X138969474Y-69849610D01*
X138969471Y-69849612D01*
X138799100Y-69977530D01*
X138794965Y-69980635D01*
X138640629Y-70142138D01*
X138637715Y-70146410D01*
X138637714Y-70146411D01*
X138595174Y-70208772D01*
X138514743Y-70326680D01*
X138420688Y-70529305D01*
X138360989Y-70744570D01*
X138337251Y-70966695D01*
X138337548Y-70971848D01*
X138337548Y-70971851D01*
X138343011Y-71066590D01*
X138350110Y-71189715D01*
X138351247Y-71194761D01*
X138351248Y-71194767D01*
X138371119Y-71282939D01*
X138399222Y-71407639D01*
X138483266Y-71614616D01*
X138599987Y-71805088D01*
X138746250Y-71973938D01*
X138918126Y-72116632D01*
X138964105Y-72143500D01*
X138991445Y-72159476D01*
X139040169Y-72211114D01*
X139053240Y-72280897D01*
X139026509Y-72346669D01*
X138986055Y-72380027D01*
X138973607Y-72386507D01*
X138969474Y-72389610D01*
X138969471Y-72389612D01*
X138820180Y-72501703D01*
X138794965Y-72520635D01*
X138640629Y-72682138D01*
X138514743Y-72866680D01*
X138499003Y-72900590D01*
X138436827Y-73034537D01*
X138420688Y-73069305D01*
X138360989Y-73284570D01*
X138337251Y-73506695D01*
X138337548Y-73511848D01*
X138337548Y-73511851D01*
X138342957Y-73605665D01*
X138350110Y-73729715D01*
X138351247Y-73734761D01*
X138351248Y-73734767D01*
X138371119Y-73822939D01*
X138399222Y-73947639D01*
X138483266Y-74154616D01*
X138599987Y-74345088D01*
X138746250Y-74513938D01*
X138918126Y-74656632D01*
X138985635Y-74696081D01*
X138991445Y-74699476D01*
X139040169Y-74751114D01*
X139053240Y-74820897D01*
X139026509Y-74886669D01*
X138986055Y-74920027D01*
X138973607Y-74926507D01*
X138969474Y-74929610D01*
X138969471Y-74929612D01*
X138799100Y-75057530D01*
X138794965Y-75060635D01*
X138640629Y-75222138D01*
X138637715Y-75226410D01*
X138637714Y-75226411D01*
X138634714Y-75230809D01*
X138514743Y-75406680D01*
X138420688Y-75609305D01*
X138360989Y-75824570D01*
X138337251Y-76046695D01*
X138337548Y-76051848D01*
X138337548Y-76051851D01*
X138348083Y-76234564D01*
X138350110Y-76269715D01*
X138351247Y-76274761D01*
X138351248Y-76274767D01*
X138364597Y-76334000D01*
X138399222Y-76487639D01*
X138483266Y-76694616D01*
X138599987Y-76885088D01*
X138746250Y-77053938D01*
X138918126Y-77196632D01*
X138964105Y-77223500D01*
X138991445Y-77239476D01*
X139040169Y-77291114D01*
X139053240Y-77360897D01*
X139026509Y-77426669D01*
X138986055Y-77460027D01*
X138973607Y-77466507D01*
X138969474Y-77469610D01*
X138969471Y-77469612D01*
X138948132Y-77485634D01*
X138794965Y-77600635D01*
X138640629Y-77762138D01*
X138637715Y-77766410D01*
X138637714Y-77766411D01*
X138628300Y-77780211D01*
X138514743Y-77946680D01*
X138420688Y-78149305D01*
X138360989Y-78364570D01*
X138337251Y-78586695D01*
X138337548Y-78591848D01*
X138337548Y-78591851D01*
X138343011Y-78686590D01*
X138350110Y-78809715D01*
X138351247Y-78814761D01*
X138351248Y-78814767D01*
X138359955Y-78853402D01*
X138399222Y-79027639D01*
X138483266Y-79234616D01*
X138599987Y-79425088D01*
X138746250Y-79593938D01*
X138918126Y-79736632D01*
X138985635Y-79776081D01*
X138991445Y-79779476D01*
X139040169Y-79831114D01*
X139053240Y-79900897D01*
X139026509Y-79966669D01*
X138986055Y-80000027D01*
X138973607Y-80006507D01*
X138969474Y-80009610D01*
X138969471Y-80009612D01*
X138899019Y-80062509D01*
X138794965Y-80140635D01*
X138640629Y-80302138D01*
X138514743Y-80486680D01*
X138420688Y-80689305D01*
X138360989Y-80904570D01*
X138337251Y-81126695D01*
X137668500Y-81126695D01*
X137668500Y-63366086D01*
X137978775Y-63366086D01*
X137985084Y-63767697D01*
X138029160Y-64166932D01*
X138110611Y-64560247D01*
X138228716Y-64944151D01*
X138382425Y-65315237D01*
X138570374Y-65670211D01*
X138571999Y-65672685D01*
X138572005Y-65672695D01*
X138783199Y-65994207D01*
X138790894Y-66005922D01*
X139042030Y-66319390D01*
X139044094Y-66321520D01*
X139044102Y-66321529D01*
X139253220Y-66537321D01*
X139321550Y-66607833D01*
X139626976Y-66868691D01*
X139955594Y-67099648D01*
X140131952Y-67200241D01*
X140301913Y-67297185D01*
X140301918Y-67297188D01*
X140304489Y-67298654D01*
X140670564Y-67463943D01*
X141050569Y-67594048D01*
X141053443Y-67594738D01*
X141053450Y-67594740D01*
X141438253Y-67687123D01*
X141438257Y-67687124D01*
X141441132Y-67687814D01*
X141444065Y-67688231D01*
X141444068Y-67688232D01*
X141575313Y-67706911D01*
X141838785Y-67744408D01*
X142240000Y-67763329D01*
X142641215Y-67744408D01*
X142904687Y-67706911D01*
X143035932Y-67688232D01*
X143035935Y-67688231D01*
X143038868Y-67687814D01*
X143041743Y-67687124D01*
X143041747Y-67687123D01*
X143426550Y-67594740D01*
X143426557Y-67594738D01*
X143429431Y-67594048D01*
X143809436Y-67463943D01*
X144175511Y-67298654D01*
X144178082Y-67297188D01*
X144178087Y-67297185D01*
X144348048Y-67200241D01*
X144524406Y-67099648D01*
X144853024Y-66868691D01*
X145158450Y-66607833D01*
X145226780Y-66537321D01*
X145435898Y-66321529D01*
X145435906Y-66321520D01*
X145437970Y-66319390D01*
X145689106Y-66005922D01*
X145696801Y-65994207D01*
X145907995Y-65672695D01*
X145908001Y-65672685D01*
X145909626Y-65670211D01*
X146097575Y-65315237D01*
X146251284Y-64944151D01*
X146369389Y-64560247D01*
X146450840Y-64166932D01*
X146468154Y-64010102D01*
X146494645Y-63770153D01*
X146494645Y-63770149D01*
X146494916Y-63767697D01*
X146494993Y-63765244D01*
X146494994Y-63765231D01*
X146503251Y-63502468D01*
X146503329Y-63500000D01*
X146484408Y-63098785D01*
X146427814Y-62701132D01*
X146334048Y-62310569D01*
X146203943Y-61930564D01*
X146038654Y-61564489D01*
X145969695Y-61443590D01*
X145841113Y-61218163D01*
X145839648Y-61215594D01*
X145608691Y-60886976D01*
X145347833Y-60581550D01*
X145246530Y-60483381D01*
X145061529Y-60304102D01*
X145061520Y-60304094D01*
X145059390Y-60302030D01*
X144745922Y-60050894D01*
X144734207Y-60043199D01*
X144412695Y-59832005D01*
X144412685Y-59831999D01*
X144410211Y-59830374D01*
X144055237Y-59642425D01*
X143684151Y-59488716D01*
X143300247Y-59370611D01*
X143297344Y-59370010D01*
X143297337Y-59370008D01*
X142909851Y-59289764D01*
X142909841Y-59289762D01*
X142906932Y-59289160D01*
X142507697Y-59245084D01*
X142504716Y-59245037D01*
X142504713Y-59245037D01*
X142392454Y-59243274D01*
X142106086Y-59238775D01*
X142103142Y-59239007D01*
X142103132Y-59239007D01*
X141718775Y-59269257D01*
X141705663Y-59270289D01*
X141309984Y-59339346D01*
X141307117Y-59340130D01*
X141307105Y-59340133D01*
X140925423Y-59444549D01*
X140925413Y-59444552D01*
X140922559Y-59445333D01*
X140919795Y-59446377D01*
X140919784Y-59446381D01*
X140549601Y-59586262D01*
X140546828Y-59587310D01*
X140186126Y-59764016D01*
X140183591Y-59765569D01*
X140183590Y-59765570D01*
X140075178Y-59832005D01*
X139843654Y-59973883D01*
X139522452Y-60215049D01*
X139225371Y-60485371D01*
X138955049Y-60782452D01*
X138713883Y-61103654D01*
X138504016Y-61446126D01*
X138502704Y-61448805D01*
X138502703Y-61448806D01*
X138446031Y-61564489D01*
X138327310Y-61806828D01*
X138326263Y-61809598D01*
X138326262Y-61809601D01*
X138186381Y-62179784D01*
X138186377Y-62179795D01*
X138185333Y-62182559D01*
X138184552Y-62185413D01*
X138184549Y-62185423D01*
X138080133Y-62567105D01*
X138080130Y-62567117D01*
X138079346Y-62569984D01*
X138010289Y-62965663D01*
X138010057Y-62968611D01*
X138000044Y-63095843D01*
X137978775Y-63366086D01*
X137668500Y-63366086D01*
X137668500Y-61222817D01*
X137688502Y-61154696D01*
X137705405Y-61133722D01*
X139873723Y-58965405D01*
X139936035Y-58931379D01*
X139962818Y-58928500D01*
X149597183Y-58928500D01*
X149665304Y-58948502D01*
G37*
G04 #@! TD.AperFunction*
M02*
