G04 #@! TF.GenerationSoftware,KiCad,Pcbnew,(6.0.7)*
G04 #@! TF.CreationDate,2022-11-06T18:43:16-05:00*
G04 #@! TF.ProjectId,MDR_Breakout_Board,4d44525f-4272-4656-916b-6f75745f426f,rev?*
G04 #@! TF.SameCoordinates,Original*
G04 #@! TF.FileFunction,Legend,Top*
G04 #@! TF.FilePolarity,Positive*
%FSLAX46Y46*%
G04 Gerber Fmt 4.6, Leading zero omitted, Abs format (unit mm)*
G04 Created by KiCad (PCBNEW (6.0.7)) date 2022-11-06 18:43:16*
%MOMM*%
%LPD*%
G01*
G04 APERTURE LIST*
%ADD10C,0.150000*%
%ADD11C,0.190500*%
%ADD12C,0.406400*%
%ADD13C,0.120000*%
%ADD14C,7.500000*%
%ADD15R,1.700000X1.700000*%
%ADD16O,1.700000X1.700000*%
%ADD17R,1.800000X1.800000*%
%ADD18C,1.800000*%
%ADD19C,1.600000*%
%ADD20O,1.600000X1.600000*%
%ADD21R,1.600000X1.600000*%
G04 APERTURE END LIST*
D10*
X139700000Y-132715000D02*
X154940000Y-132715000D01*
D11*
X182789285Y-81643809D02*
X182849761Y-81462380D01*
X182910238Y-81401904D01*
X183031190Y-81341428D01*
X183212619Y-81341428D01*
X183333571Y-81401904D01*
X183394047Y-81462380D01*
X183454523Y-81583333D01*
X183454523Y-82067142D01*
X182184523Y-82067142D01*
X182184523Y-81643809D01*
X182245000Y-81522857D01*
X182305476Y-81462380D01*
X182426428Y-81401904D01*
X182547380Y-81401904D01*
X182668333Y-81462380D01*
X182728809Y-81522857D01*
X182789285Y-81643809D01*
X182789285Y-82067142D01*
X183454523Y-80797142D02*
X182184523Y-80797142D01*
X183091666Y-80373809D01*
X182184523Y-79950476D01*
X183454523Y-79950476D01*
X182789285Y-79345714D02*
X182789285Y-78922380D01*
X183454523Y-78740952D02*
X183454523Y-79345714D01*
X182184523Y-79345714D01*
X182184523Y-78740952D01*
X182184523Y-77652380D02*
X182184523Y-77894285D01*
X182245000Y-78015238D01*
X182305476Y-78075714D01*
X182486904Y-78196666D01*
X182728809Y-78257142D01*
X183212619Y-78257142D01*
X183333571Y-78196666D01*
X183394047Y-78136190D01*
X183454523Y-78015238D01*
X183454523Y-77773333D01*
X183394047Y-77652380D01*
X183333571Y-77591904D01*
X183212619Y-77531428D01*
X182910238Y-77531428D01*
X182789285Y-77591904D01*
X182728809Y-77652380D01*
X182668333Y-77773333D01*
X182668333Y-78015238D01*
X182728809Y-78136190D01*
X182789285Y-78196666D01*
X182910238Y-78257142D01*
X182728809Y-76805714D02*
X182668333Y-76926666D01*
X182607857Y-76987142D01*
X182486904Y-77047619D01*
X182426428Y-77047619D01*
X182305476Y-76987142D01*
X182245000Y-76926666D01*
X182184523Y-76805714D01*
X182184523Y-76563809D01*
X182245000Y-76442857D01*
X182305476Y-76382380D01*
X182426428Y-76321904D01*
X182486904Y-76321904D01*
X182607857Y-76382380D01*
X182668333Y-76442857D01*
X182728809Y-76563809D01*
X182728809Y-76805714D01*
X182789285Y-76926666D01*
X182849761Y-76987142D01*
X182970714Y-77047619D01*
X183212619Y-77047619D01*
X183333571Y-76987142D01*
X183394047Y-76926666D01*
X183454523Y-76805714D01*
X183454523Y-76563809D01*
X183394047Y-76442857D01*
X183333571Y-76382380D01*
X183212619Y-76321904D01*
X182970714Y-76321904D01*
X182849761Y-76382380D01*
X182789285Y-76442857D01*
X182728809Y-76563809D01*
X182184523Y-75535714D02*
X182184523Y-75414761D01*
X182245000Y-75293809D01*
X182305476Y-75233333D01*
X182426428Y-75172857D01*
X182668333Y-75112380D01*
X182970714Y-75112380D01*
X183212619Y-75172857D01*
X183333571Y-75233333D01*
X183394047Y-75293809D01*
X183454523Y-75414761D01*
X183454523Y-75535714D01*
X183394047Y-75656666D01*
X183333571Y-75717142D01*
X183212619Y-75777619D01*
X182970714Y-75838095D01*
X182668333Y-75838095D01*
X182426428Y-75777619D01*
X182305476Y-75717142D01*
X182245000Y-75656666D01*
X182184523Y-75535714D01*
D10*
X164385714Y-133516666D02*
X164861904Y-133516666D01*
X164290476Y-133802380D02*
X164623809Y-132802380D01*
X164957142Y-133802380D01*
X165242857Y-132897619D02*
X165290476Y-132850000D01*
X165385714Y-132802380D01*
X165623809Y-132802380D01*
X165719047Y-132850000D01*
X165766666Y-132897619D01*
X165814285Y-132992857D01*
X165814285Y-133088095D01*
X165766666Y-133230952D01*
X165195238Y-133802380D01*
X165814285Y-133802380D01*
D11*
X162408809Y-120861666D02*
X163013571Y-120861666D01*
X162287857Y-121224523D02*
X162711190Y-119954523D01*
X163134523Y-121224523D01*
X163557857Y-121224523D02*
X163557857Y-119954523D01*
X163860238Y-119954523D01*
X164041666Y-120015000D01*
X164162619Y-120135952D01*
X164223095Y-120256904D01*
X164283571Y-120498809D01*
X164283571Y-120680238D01*
X164223095Y-120922142D01*
X164162619Y-121043095D01*
X164041666Y-121164047D01*
X163860238Y-121224523D01*
X163557857Y-121224523D01*
X164767380Y-121164047D02*
X164948809Y-121224523D01*
X165251190Y-121224523D01*
X165372142Y-121164047D01*
X165432619Y-121103571D01*
X165493095Y-120982619D01*
X165493095Y-120861666D01*
X165432619Y-120740714D01*
X165372142Y-120680238D01*
X165251190Y-120619761D01*
X165009285Y-120559285D01*
X164888333Y-120498809D01*
X164827857Y-120438333D01*
X164767380Y-120317380D01*
X164767380Y-120196428D01*
X164827857Y-120075476D01*
X164888333Y-120015000D01*
X165009285Y-119954523D01*
X165311666Y-119954523D01*
X165493095Y-120015000D01*
X166702619Y-121224523D02*
X165976904Y-121224523D01*
X166339761Y-121224523D02*
X166339761Y-119954523D01*
X166218809Y-120135952D01*
X166097857Y-120256904D01*
X165976904Y-120317380D01*
X167912142Y-121224523D02*
X167186428Y-121224523D01*
X167549285Y-121224523D02*
X167549285Y-119954523D01*
X167428333Y-120135952D01*
X167307380Y-120256904D01*
X167186428Y-120317380D01*
X169121666Y-121224523D02*
X168395952Y-121224523D01*
X168758809Y-121224523D02*
X168758809Y-119954523D01*
X168637857Y-120135952D01*
X168516904Y-120256904D01*
X168395952Y-120317380D01*
X170270714Y-119954523D02*
X169665952Y-119954523D01*
X169605476Y-120559285D01*
X169665952Y-120498809D01*
X169786904Y-120438333D01*
X170089285Y-120438333D01*
X170210238Y-120498809D01*
X170270714Y-120559285D01*
X170331190Y-120680238D01*
X170331190Y-120982619D01*
X170270714Y-121103571D01*
X170210238Y-121164047D01*
X170089285Y-121224523D01*
X169786904Y-121224523D01*
X169665952Y-121164047D01*
X169605476Y-121103571D01*
X183091666Y-109160476D02*
X183091666Y-108555714D01*
X183454523Y-109281428D02*
X182184523Y-108858095D01*
X183454523Y-108434761D01*
X183454523Y-108011428D02*
X182184523Y-108011428D01*
X182184523Y-107709047D01*
X182245000Y-107527619D01*
X182365952Y-107406666D01*
X182486904Y-107346190D01*
X182728809Y-107285714D01*
X182910238Y-107285714D01*
X183152142Y-107346190D01*
X183273095Y-107406666D01*
X183394047Y-107527619D01*
X183454523Y-107709047D01*
X183454523Y-108011428D01*
X182184523Y-106862380D02*
X183454523Y-106015714D01*
X182184523Y-106015714D02*
X183454523Y-106862380D01*
X183454523Y-104927142D02*
X183454523Y-105531904D01*
X182184523Y-105531904D01*
X182184523Y-104624761D02*
X182184523Y-103838571D01*
X182668333Y-104261904D01*
X182668333Y-104080476D01*
X182728809Y-103959523D01*
X182789285Y-103899047D01*
X182910238Y-103838571D01*
X183212619Y-103838571D01*
X183333571Y-103899047D01*
X183394047Y-103959523D01*
X183454523Y-104080476D01*
X183454523Y-104443333D01*
X183394047Y-104564285D01*
X183333571Y-104624761D01*
X182184523Y-103415238D02*
X182184523Y-102568571D01*
X183454523Y-103112857D01*
X182184523Y-101480000D02*
X182184523Y-102084761D01*
X182789285Y-102145238D01*
X182728809Y-102084761D01*
X182668333Y-101963809D01*
X182668333Y-101661428D01*
X182728809Y-101540476D01*
X182789285Y-101480000D01*
X182910238Y-101419523D01*
X183212619Y-101419523D01*
X183333571Y-101480000D01*
X183394047Y-101540476D01*
X183454523Y-101661428D01*
X183454523Y-101963809D01*
X183394047Y-102084761D01*
X183333571Y-102145238D01*
X140186682Y-135309428D02*
X140186682Y-133785428D01*
X140186682Y-134511142D02*
X141057539Y-134511142D01*
X141057539Y-135309428D02*
X141057539Y-133785428D01*
X142363825Y-135236857D02*
X142218682Y-135309428D01*
X141928396Y-135309428D01*
X141783253Y-135236857D01*
X141710682Y-135091714D01*
X141710682Y-134511142D01*
X141783253Y-134366000D01*
X141928396Y-134293428D01*
X142218682Y-134293428D01*
X142363825Y-134366000D01*
X142436396Y-134511142D01*
X142436396Y-134656285D01*
X141710682Y-134801428D01*
X143307253Y-135309428D02*
X143162110Y-135236857D01*
X143089539Y-135091714D01*
X143089539Y-133785428D01*
X143887825Y-135309428D02*
X143887825Y-134293428D01*
X143887825Y-134438571D02*
X143960396Y-134366000D01*
X144105539Y-134293428D01*
X144323253Y-134293428D01*
X144468396Y-134366000D01*
X144540967Y-134511142D01*
X144540967Y-135309428D01*
X144540967Y-134511142D02*
X144613539Y-134366000D01*
X144758682Y-134293428D01*
X144976396Y-134293428D01*
X145121539Y-134366000D01*
X145194110Y-134511142D01*
X145194110Y-135309428D01*
X146500396Y-135236857D02*
X146355253Y-135309428D01*
X146064967Y-135309428D01*
X145919825Y-135236857D01*
X145847253Y-135091714D01*
X145847253Y-134511142D01*
X145919825Y-134366000D01*
X146064967Y-134293428D01*
X146355253Y-134293428D01*
X146500396Y-134366000D01*
X146572967Y-134511142D01*
X146572967Y-134656285D01*
X145847253Y-134801428D01*
X147008396Y-134293428D02*
X147588967Y-134293428D01*
X147226110Y-133785428D02*
X147226110Y-135091714D01*
X147298682Y-135236857D01*
X147443825Y-135309428D01*
X147588967Y-135309428D01*
X149766110Y-134511142D02*
X149983825Y-134583714D01*
X150056396Y-134656285D01*
X150128967Y-134801428D01*
X150128967Y-135019142D01*
X150056396Y-135164285D01*
X149983825Y-135236857D01*
X149838682Y-135309428D01*
X149258110Y-135309428D01*
X149258110Y-133785428D01*
X149766110Y-133785428D01*
X149911253Y-133858000D01*
X149983825Y-133930571D01*
X150056396Y-134075714D01*
X150056396Y-134220857D01*
X149983825Y-134366000D01*
X149911253Y-134438571D01*
X149766110Y-134511142D01*
X149258110Y-134511142D01*
X150999825Y-135309428D02*
X150854682Y-135236857D01*
X150782110Y-135164285D01*
X150709539Y-135019142D01*
X150709539Y-134583714D01*
X150782110Y-134438571D01*
X150854682Y-134366000D01*
X150999825Y-134293428D01*
X151217539Y-134293428D01*
X151362682Y-134366000D01*
X151435253Y-134438571D01*
X151507825Y-134583714D01*
X151507825Y-135019142D01*
X151435253Y-135164285D01*
X151362682Y-135236857D01*
X151217539Y-135309428D01*
X150999825Y-135309428D01*
X152814110Y-135309428D02*
X152814110Y-134511142D01*
X152741539Y-134366000D01*
X152596396Y-134293428D01*
X152306110Y-134293428D01*
X152160967Y-134366000D01*
X152814110Y-135236857D02*
X152668967Y-135309428D01*
X152306110Y-135309428D01*
X152160967Y-135236857D01*
X152088396Y-135091714D01*
X152088396Y-134946571D01*
X152160967Y-134801428D01*
X152306110Y-134728857D01*
X152668967Y-134728857D01*
X152814110Y-134656285D01*
X153539825Y-135309428D02*
X153539825Y-134293428D01*
X153539825Y-134583714D02*
X153612396Y-134438571D01*
X153684967Y-134366000D01*
X153830110Y-134293428D01*
X153975253Y-134293428D01*
X155136396Y-135309428D02*
X155136396Y-133785428D01*
X155136396Y-135236857D02*
X154991253Y-135309428D01*
X154700967Y-135309428D01*
X154555825Y-135236857D01*
X154483253Y-135164285D01*
X154410682Y-135019142D01*
X154410682Y-134583714D01*
X154483253Y-134438571D01*
X154555825Y-134366000D01*
X154700967Y-134293428D01*
X154991253Y-134293428D01*
X155136396Y-134366000D01*
X141725952Y-75535714D02*
X141665476Y-75717142D01*
X141665476Y-76019523D01*
X141725952Y-76140476D01*
X141786428Y-76200952D01*
X141907380Y-76261428D01*
X142028333Y-76261428D01*
X142149285Y-76200952D01*
X142209761Y-76140476D01*
X142270238Y-76019523D01*
X142330714Y-75777619D01*
X142391190Y-75656666D01*
X142451666Y-75596190D01*
X142572619Y-75535714D01*
X142693571Y-75535714D01*
X142814523Y-75596190D01*
X142875000Y-75656666D01*
X142935476Y-75777619D01*
X142935476Y-76080000D01*
X142875000Y-76261428D01*
X141665476Y-76805714D02*
X142512142Y-76805714D01*
X142935476Y-76805714D02*
X142875000Y-76745238D01*
X142814523Y-76805714D01*
X142875000Y-76866190D01*
X142935476Y-76805714D01*
X142814523Y-76805714D01*
X141665476Y-78075714D02*
X141665476Y-77350000D01*
X141665476Y-77712857D02*
X142935476Y-77712857D01*
X142754047Y-77591904D01*
X142633095Y-77470952D01*
X142572619Y-77350000D01*
X141665476Y-79285238D02*
X141665476Y-78559523D01*
X141665476Y-78922380D02*
X142935476Y-78922380D01*
X142754047Y-78801428D01*
X142633095Y-78680476D01*
X142572619Y-78559523D01*
X142512142Y-80373809D02*
X141665476Y-80373809D01*
X142995952Y-80071428D02*
X142088809Y-79769047D01*
X142088809Y-80555238D01*
X142935476Y-81643809D02*
X142935476Y-81039047D01*
X142330714Y-80978571D01*
X142391190Y-81039047D01*
X142451666Y-81160000D01*
X142451666Y-81462380D01*
X142391190Y-81583333D01*
X142330714Y-81643809D01*
X142209761Y-81704285D01*
X141907380Y-81704285D01*
X141786428Y-81643809D01*
X141725952Y-81583333D01*
X141665476Y-81462380D01*
X141665476Y-81160000D01*
X141725952Y-81039047D01*
X141786428Y-80978571D01*
D10*
X155337142Y-141374761D02*
X155480000Y-141422380D01*
X155718095Y-141422380D01*
X155813333Y-141374761D01*
X155860952Y-141327142D01*
X155908571Y-141231904D01*
X155908571Y-141136666D01*
X155860952Y-141041428D01*
X155813333Y-140993809D01*
X155718095Y-140946190D01*
X155527619Y-140898571D01*
X155432380Y-140850952D01*
X155384761Y-140803333D01*
X155337142Y-140708095D01*
X155337142Y-140612857D01*
X155384761Y-140517619D01*
X155432380Y-140470000D01*
X155527619Y-140422380D01*
X155765714Y-140422380D01*
X155908571Y-140470000D01*
X156337142Y-141422380D02*
X156337142Y-140755714D01*
X156337142Y-140422380D02*
X156289523Y-140470000D01*
X156337142Y-140517619D01*
X156384761Y-140470000D01*
X156337142Y-140422380D01*
X156337142Y-140517619D01*
X157241904Y-140755714D02*
X157241904Y-141565238D01*
X157194285Y-141660476D01*
X157146666Y-141708095D01*
X157051428Y-141755714D01*
X156908571Y-141755714D01*
X156813333Y-141708095D01*
X157241904Y-141374761D02*
X157146666Y-141422380D01*
X156956190Y-141422380D01*
X156860952Y-141374761D01*
X156813333Y-141327142D01*
X156765714Y-141231904D01*
X156765714Y-140946190D01*
X156813333Y-140850952D01*
X156860952Y-140803333D01*
X156956190Y-140755714D01*
X157146666Y-140755714D01*
X157241904Y-140803333D01*
X157718095Y-140755714D02*
X157718095Y-141422380D01*
X157718095Y-140850952D02*
X157765714Y-140803333D01*
X157860952Y-140755714D01*
X158003809Y-140755714D01*
X158099047Y-140803333D01*
X158146666Y-140898571D01*
X158146666Y-141422380D01*
X159051428Y-141422380D02*
X159051428Y-140898571D01*
X159003809Y-140803333D01*
X158908571Y-140755714D01*
X158718095Y-140755714D01*
X158622857Y-140803333D01*
X159051428Y-141374761D02*
X158956190Y-141422380D01*
X158718095Y-141422380D01*
X158622857Y-141374761D01*
X158575238Y-141279523D01*
X158575238Y-141184285D01*
X158622857Y-141089047D01*
X158718095Y-141041428D01*
X158956190Y-141041428D01*
X159051428Y-140993809D01*
X159670476Y-141422380D02*
X159575238Y-141374761D01*
X159527619Y-141279523D01*
X159527619Y-140422380D01*
X159083809Y-70599761D02*
X159226666Y-70647380D01*
X159464761Y-70647380D01*
X159560000Y-70599761D01*
X159607619Y-70552142D01*
X159655238Y-70456904D01*
X159655238Y-70361666D01*
X159607619Y-70266428D01*
X159560000Y-70218809D01*
X159464761Y-70171190D01*
X159274285Y-70123571D01*
X159179047Y-70075952D01*
X159131428Y-70028333D01*
X159083809Y-69933095D01*
X159083809Y-69837857D01*
X159131428Y-69742619D01*
X159179047Y-69695000D01*
X159274285Y-69647380D01*
X159512380Y-69647380D01*
X159655238Y-69695000D01*
X160083809Y-69980714D02*
X160083809Y-70980714D01*
X160083809Y-70028333D02*
X160179047Y-69980714D01*
X160369523Y-69980714D01*
X160464761Y-70028333D01*
X160512380Y-70075952D01*
X160560000Y-70171190D01*
X160560000Y-70456904D01*
X160512380Y-70552142D01*
X160464761Y-70599761D01*
X160369523Y-70647380D01*
X160179047Y-70647380D01*
X160083809Y-70599761D01*
X161417142Y-70647380D02*
X161417142Y-70123571D01*
X161369523Y-70028333D01*
X161274285Y-69980714D01*
X161083809Y-69980714D01*
X160988571Y-70028333D01*
X161417142Y-70599761D02*
X161321904Y-70647380D01*
X161083809Y-70647380D01*
X160988571Y-70599761D01*
X160940952Y-70504523D01*
X160940952Y-70409285D01*
X160988571Y-70314047D01*
X161083809Y-70266428D01*
X161321904Y-70266428D01*
X161417142Y-70218809D01*
X161893333Y-70647380D02*
X161893333Y-69980714D01*
X161893333Y-70171190D02*
X161940952Y-70075952D01*
X161988571Y-70028333D01*
X162083809Y-69980714D01*
X162179047Y-69980714D01*
X162512380Y-70647380D02*
X162512380Y-69647380D01*
X162607619Y-70266428D02*
X162893333Y-70647380D01*
X162893333Y-69980714D02*
X162512380Y-70361666D01*
X163179047Y-69980714D02*
X163560000Y-69980714D01*
X163321904Y-70647380D02*
X163321904Y-69790238D01*
X163369523Y-69695000D01*
X163464761Y-69647380D01*
X163560000Y-69647380D01*
X164321904Y-69980714D02*
X164321904Y-70647380D01*
X163893333Y-69980714D02*
X163893333Y-70504523D01*
X163940952Y-70599761D01*
X164036190Y-70647380D01*
X164179047Y-70647380D01*
X164274285Y-70599761D01*
X164321904Y-70552142D01*
X164798095Y-69980714D02*
X164798095Y-70647380D01*
X164798095Y-70075952D02*
X164845714Y-70028333D01*
X164940952Y-69980714D01*
X165083809Y-69980714D01*
X165179047Y-70028333D01*
X165226666Y-70123571D01*
X165226666Y-70647380D01*
X157060000Y-71733571D02*
X156726666Y-71733571D01*
X156726666Y-72257380D02*
X156726666Y-71257380D01*
X157202857Y-71257380D01*
X157964761Y-72209761D02*
X157869523Y-72257380D01*
X157679047Y-72257380D01*
X157583809Y-72209761D01*
X157536190Y-72114523D01*
X157536190Y-71733571D01*
X157583809Y-71638333D01*
X157679047Y-71590714D01*
X157869523Y-71590714D01*
X157964761Y-71638333D01*
X158012380Y-71733571D01*
X158012380Y-71828809D01*
X157536190Y-71924047D01*
X158869523Y-72257380D02*
X158869523Y-71733571D01*
X158821904Y-71638333D01*
X158726666Y-71590714D01*
X158536190Y-71590714D01*
X158440952Y-71638333D01*
X158869523Y-72209761D02*
X158774285Y-72257380D01*
X158536190Y-72257380D01*
X158440952Y-72209761D01*
X158393333Y-72114523D01*
X158393333Y-72019285D01*
X158440952Y-71924047D01*
X158536190Y-71876428D01*
X158774285Y-71876428D01*
X158869523Y-71828809D01*
X159202857Y-71590714D02*
X159583809Y-71590714D01*
X159345714Y-71257380D02*
X159345714Y-72114523D01*
X159393333Y-72209761D01*
X159488571Y-72257380D01*
X159583809Y-72257380D01*
X159917142Y-72257380D02*
X159917142Y-71257380D01*
X160345714Y-72257380D02*
X160345714Y-71733571D01*
X160298095Y-71638333D01*
X160202857Y-71590714D01*
X160060000Y-71590714D01*
X159964761Y-71638333D01*
X159917142Y-71685952D01*
X161202857Y-72209761D02*
X161107619Y-72257380D01*
X160917142Y-72257380D01*
X160821904Y-72209761D01*
X160774285Y-72114523D01*
X160774285Y-71733571D01*
X160821904Y-71638333D01*
X160917142Y-71590714D01*
X161107619Y-71590714D01*
X161202857Y-71638333D01*
X161250476Y-71733571D01*
X161250476Y-71828809D01*
X160774285Y-71924047D01*
X161679047Y-72257380D02*
X161679047Y-71590714D01*
X161679047Y-71781190D02*
X161726666Y-71685952D01*
X161774285Y-71638333D01*
X161869523Y-71590714D01*
X161964761Y-71590714D01*
X163631428Y-72257380D02*
X163298095Y-71781190D01*
X163060000Y-72257380D02*
X163060000Y-71257380D01*
X163440952Y-71257380D01*
X163536190Y-71305000D01*
X163583809Y-71352619D01*
X163631428Y-71447857D01*
X163631428Y-71590714D01*
X163583809Y-71685952D01*
X163536190Y-71733571D01*
X163440952Y-71781190D01*
X163060000Y-71781190D01*
X164060000Y-72257380D02*
X164060000Y-71257380D01*
X164440952Y-71257380D01*
X164536190Y-71305000D01*
X164583809Y-71352619D01*
X164631428Y-71447857D01*
X164631428Y-71590714D01*
X164583809Y-71685952D01*
X164536190Y-71733571D01*
X164440952Y-71781190D01*
X164060000Y-71781190D01*
X165012380Y-71352619D02*
X165060000Y-71305000D01*
X165155238Y-71257380D01*
X165393333Y-71257380D01*
X165488571Y-71305000D01*
X165536190Y-71352619D01*
X165583809Y-71447857D01*
X165583809Y-71543095D01*
X165536190Y-71685952D01*
X164964761Y-72257380D01*
X165583809Y-72257380D01*
X166202857Y-71257380D02*
X166298095Y-71257380D01*
X166393333Y-71305000D01*
X166440952Y-71352619D01*
X166488571Y-71447857D01*
X166536190Y-71638333D01*
X166536190Y-71876428D01*
X166488571Y-72066904D01*
X166440952Y-72162142D01*
X166393333Y-72209761D01*
X166298095Y-72257380D01*
X166202857Y-72257380D01*
X166107619Y-72209761D01*
X166060000Y-72162142D01*
X166012380Y-72066904D01*
X165964761Y-71876428D01*
X165964761Y-71638333D01*
X166012380Y-71447857D01*
X166060000Y-71352619D01*
X166107619Y-71305000D01*
X166202857Y-71257380D01*
X167393333Y-71590714D02*
X167393333Y-72257380D01*
X167155238Y-71209761D02*
X166917142Y-71924047D01*
X167536190Y-71924047D01*
X168107619Y-71257380D02*
X168202857Y-71257380D01*
X168298095Y-71305000D01*
X168345714Y-71352619D01*
X168393333Y-71447857D01*
X168440952Y-71638333D01*
X168440952Y-71876428D01*
X168393333Y-72066904D01*
X168345714Y-72162142D01*
X168298095Y-72209761D01*
X168202857Y-72257380D01*
X168107619Y-72257380D01*
X168012380Y-72209761D01*
X167964761Y-72162142D01*
X167917142Y-72066904D01*
X167869523Y-71876428D01*
X167869523Y-71638333D01*
X167917142Y-71447857D01*
X167964761Y-71352619D01*
X168012380Y-71305000D01*
X168107619Y-71257380D01*
D12*
X140351207Y-128726716D02*
X140641493Y-128823478D01*
X141125302Y-128823478D01*
X141318826Y-128726716D01*
X141415588Y-128629954D01*
X141512350Y-128436430D01*
X141512350Y-128242906D01*
X141415588Y-128049382D01*
X141318826Y-127952620D01*
X141125302Y-127855859D01*
X140738255Y-127759097D01*
X140544731Y-127662335D01*
X140447969Y-127565573D01*
X140351207Y-127372049D01*
X140351207Y-127178525D01*
X140447969Y-126985001D01*
X140544731Y-126888240D01*
X140738255Y-126791478D01*
X141222064Y-126791478D01*
X141512350Y-126888240D01*
X142383207Y-128823478D02*
X142383207Y-126791478D01*
X142867017Y-126791478D01*
X143157302Y-126888240D01*
X143350826Y-127081763D01*
X143447588Y-127275287D01*
X143544350Y-127662335D01*
X143544350Y-127952620D01*
X143447588Y-128339668D01*
X143350826Y-128533192D01*
X143157302Y-128726716D01*
X142867017Y-128823478D01*
X142383207Y-128823478D01*
X144415207Y-128823478D02*
X144415207Y-126791478D01*
X145189302Y-126791478D01*
X145382826Y-126888240D01*
X145479588Y-126985001D01*
X145576350Y-127178525D01*
X145576350Y-127468811D01*
X145479588Y-127662335D01*
X145382826Y-127759097D01*
X145189302Y-127855859D01*
X144415207Y-127855859D01*
X140157683Y-130062998D02*
X141318826Y-130062998D01*
X140738255Y-132094998D02*
X140738255Y-130062998D01*
X142770255Y-131998236D02*
X142576731Y-132094998D01*
X142189683Y-132094998D01*
X141996160Y-131998236D01*
X141899398Y-131804712D01*
X141899398Y-131030617D01*
X141996160Y-130837093D01*
X142189683Y-130740331D01*
X142576731Y-130740331D01*
X142770255Y-130837093D01*
X142867017Y-131030617D01*
X142867017Y-131224140D01*
X141899398Y-131417664D01*
X144608731Y-132094998D02*
X144608731Y-131030617D01*
X144511969Y-130837093D01*
X144318445Y-130740331D01*
X143931398Y-130740331D01*
X143737874Y-130837093D01*
X144608731Y-131998236D02*
X144415207Y-132094998D01*
X143931398Y-132094998D01*
X143737874Y-131998236D01*
X143641112Y-131804712D01*
X143641112Y-131611188D01*
X143737874Y-131417664D01*
X143931398Y-131320902D01*
X144415207Y-131320902D01*
X144608731Y-131224140D01*
X145576350Y-132094998D02*
X145576350Y-130740331D01*
X145576350Y-130933855D02*
X145673112Y-130837093D01*
X145866636Y-130740331D01*
X146156921Y-130740331D01*
X146350445Y-130837093D01*
X146447207Y-131030617D01*
X146447207Y-132094998D01*
X146447207Y-131030617D02*
X146543969Y-130837093D01*
X146737493Y-130740331D01*
X147027779Y-130740331D01*
X147221302Y-130837093D01*
X147318064Y-131030617D01*
X147318064Y-132094998D01*
X149640350Y-130062998D02*
X150898255Y-130062998D01*
X150220921Y-130837093D01*
X150511207Y-130837093D01*
X150704731Y-130933855D01*
X150801493Y-131030617D01*
X150898255Y-131224140D01*
X150898255Y-131707950D01*
X150801493Y-131901474D01*
X150704731Y-131998236D01*
X150511207Y-132094998D01*
X149930636Y-132094998D01*
X149737112Y-131998236D01*
X149640350Y-131901474D01*
X152833493Y-132094998D02*
X151672350Y-132094998D01*
X152252921Y-132094998D02*
X152252921Y-130062998D01*
X152059398Y-130353283D01*
X151865874Y-130546807D01*
X151672350Y-130643569D01*
D10*
X166925714Y-133516666D02*
X167401904Y-133516666D01*
X166830476Y-133802380D02*
X167163809Y-132802380D01*
X167497142Y-133802380D01*
X168354285Y-133802380D02*
X167782857Y-133802380D01*
X168068571Y-133802380D02*
X168068571Y-132802380D01*
X167973333Y-132945238D01*
X167878095Y-133040476D01*
X167782857Y-133088095D01*
X156718095Y-143010000D02*
X156622857Y-142962380D01*
X156480000Y-142962380D01*
X156337142Y-143010000D01*
X156241904Y-143105238D01*
X156194285Y-143200476D01*
X156146666Y-143390952D01*
X156146666Y-143533809D01*
X156194285Y-143724285D01*
X156241904Y-143819523D01*
X156337142Y-143914761D01*
X156480000Y-143962380D01*
X156575238Y-143962380D01*
X156718095Y-143914761D01*
X156765714Y-143867142D01*
X156765714Y-143533809D01*
X156575238Y-143533809D01*
X157194285Y-143962380D02*
X157194285Y-142962380D01*
X157765714Y-143962380D01*
X157765714Y-142962380D01*
X158241904Y-143962380D02*
X158241904Y-142962380D01*
X158480000Y-142962380D01*
X158622857Y-143010000D01*
X158718095Y-143105238D01*
X158765714Y-143200476D01*
X158813333Y-143390952D01*
X158813333Y-143533809D01*
X158765714Y-143724285D01*
X158718095Y-143819523D01*
X158622857Y-143914761D01*
X158480000Y-143962380D01*
X158241904Y-143962380D01*
D11*
X142028333Y-98758571D02*
X142028333Y-99363333D01*
X141665476Y-98637619D02*
X142935476Y-99060952D01*
X141665476Y-99484285D01*
X141665476Y-100451904D02*
X142935476Y-100451904D01*
X141725952Y-100451904D02*
X141665476Y-100330952D01*
X141665476Y-100089047D01*
X141725952Y-99968095D01*
X141786428Y-99907619D01*
X141907380Y-99847142D01*
X142270238Y-99847142D01*
X142391190Y-99907619D01*
X142451666Y-99968095D01*
X142512142Y-100089047D01*
X142512142Y-100330952D01*
X142451666Y-100451904D01*
X141665476Y-101600952D02*
X142330714Y-101600952D01*
X142451666Y-101540476D01*
X142512142Y-101419523D01*
X142512142Y-101177619D01*
X142451666Y-101056666D01*
X141725952Y-101600952D02*
X141665476Y-101480000D01*
X141665476Y-101177619D01*
X141725952Y-101056666D01*
X141846904Y-100996190D01*
X141967857Y-100996190D01*
X142088809Y-101056666D01*
X142149285Y-101177619D01*
X142149285Y-101480000D01*
X142209761Y-101600952D01*
X142512142Y-102024285D02*
X142512142Y-102508095D01*
X141665476Y-102205714D02*
X142754047Y-102205714D01*
X142875000Y-102266190D01*
X142935476Y-102387142D01*
X142935476Y-102508095D01*
X141665476Y-102931428D02*
X142512142Y-102931428D01*
X142270238Y-102931428D02*
X142391190Y-102991904D01*
X142451666Y-103052380D01*
X142512142Y-103173333D01*
X142512142Y-103294285D01*
X142512142Y-104261904D02*
X141665476Y-104261904D01*
X142512142Y-103717619D02*
X141846904Y-103717619D01*
X141725952Y-103778095D01*
X141665476Y-103899047D01*
X141665476Y-104080476D01*
X141725952Y-104201428D01*
X141786428Y-104261904D01*
X141665476Y-104866666D02*
X142512142Y-104866666D01*
X142935476Y-104866666D02*
X142875000Y-104806190D01*
X142814523Y-104866666D01*
X142875000Y-104927142D01*
X142935476Y-104866666D01*
X142814523Y-104866666D01*
X142512142Y-105290000D02*
X142512142Y-105773809D01*
X142935476Y-105471428D02*
X141846904Y-105471428D01*
X141725952Y-105531904D01*
X141665476Y-105652857D01*
X141665476Y-105773809D01*
X142330714Y-107588095D02*
X142270238Y-107769523D01*
X142209761Y-107830000D01*
X142088809Y-107890476D01*
X141907380Y-107890476D01*
X141786428Y-107830000D01*
X141725952Y-107769523D01*
X141665476Y-107648571D01*
X141665476Y-107164761D01*
X142935476Y-107164761D01*
X142935476Y-107588095D01*
X142875000Y-107709047D01*
X142814523Y-107769523D01*
X142693571Y-107830000D01*
X142572619Y-107830000D01*
X142451666Y-107769523D01*
X142391190Y-107709047D01*
X142330714Y-107588095D01*
X142330714Y-107164761D01*
X141665476Y-109039523D02*
X141665476Y-108434761D01*
X142935476Y-108434761D01*
X142330714Y-109462857D02*
X142330714Y-109886190D01*
X141665476Y-110067619D02*
X141665476Y-109462857D01*
X142935476Y-109462857D01*
X142935476Y-110067619D01*
X142330714Y-112002857D02*
X142330714Y-111579523D01*
X141665476Y-111579523D02*
X142935476Y-111579523D01*
X142935476Y-112184285D01*
X141665476Y-112668095D02*
X142512142Y-112668095D01*
X142270238Y-112668095D02*
X142391190Y-112728571D01*
X142451666Y-112789047D01*
X142512142Y-112910000D01*
X142512142Y-113030952D01*
X141665476Y-113454285D02*
X142512142Y-113454285D01*
X142935476Y-113454285D02*
X142875000Y-113393809D01*
X142814523Y-113454285D01*
X142875000Y-113514761D01*
X142935476Y-113454285D01*
X142814523Y-113454285D01*
X141725952Y-114542857D02*
X141665476Y-114421904D01*
X141665476Y-114180000D01*
X141725952Y-114059047D01*
X141846904Y-113998571D01*
X142330714Y-113998571D01*
X142451666Y-114059047D01*
X142512142Y-114180000D01*
X142512142Y-114421904D01*
X142451666Y-114542857D01*
X142330714Y-114603333D01*
X142209761Y-114603333D01*
X142088809Y-113998571D01*
X142512142Y-115147619D02*
X141665476Y-115147619D01*
X142391190Y-115147619D02*
X142451666Y-115208095D01*
X142512142Y-115329047D01*
X142512142Y-115510476D01*
X142451666Y-115631428D01*
X142330714Y-115691904D01*
X141665476Y-115691904D01*
X141665476Y-116840952D02*
X142935476Y-116840952D01*
X141725952Y-116840952D02*
X141665476Y-116720000D01*
X141665476Y-116478095D01*
X141725952Y-116357142D01*
X141786428Y-116296666D01*
X141907380Y-116236190D01*
X142270238Y-116236190D01*
X142391190Y-116296666D01*
X142451666Y-116357142D01*
X142512142Y-116478095D01*
X142512142Y-116720000D01*
X142451666Y-116840952D01*
D10*
X169465714Y-133516666D02*
X169941904Y-133516666D01*
X169370476Y-133802380D02*
X169703809Y-132802380D01*
X170037142Y-133802380D01*
X170560952Y-132802380D02*
X170656190Y-132802380D01*
X170751428Y-132850000D01*
X170799047Y-132897619D01*
X170846666Y-132992857D01*
X170894285Y-133183333D01*
X170894285Y-133421428D01*
X170846666Y-133611904D01*
X170799047Y-133707142D01*
X170751428Y-133754761D01*
X170656190Y-133802380D01*
X170560952Y-133802380D01*
X170465714Y-133754761D01*
X170418095Y-133707142D01*
X170370476Y-133611904D01*
X170322857Y-133421428D01*
X170322857Y-133183333D01*
X170370476Y-132992857D01*
X170418095Y-132897619D01*
X170465714Y-132850000D01*
X170560952Y-132802380D01*
X161845714Y-133516666D02*
X162321904Y-133516666D01*
X161750476Y-133802380D02*
X162083809Y-132802380D01*
X162417142Y-133802380D01*
X162655238Y-132802380D02*
X163274285Y-132802380D01*
X162940952Y-133183333D01*
X163083809Y-133183333D01*
X163179047Y-133230952D01*
X163226666Y-133278571D01*
X163274285Y-133373809D01*
X163274285Y-133611904D01*
X163226666Y-133707142D01*
X163179047Y-133754761D01*
X163083809Y-133802380D01*
X162798095Y-133802380D01*
X162702857Y-133754761D01*
X162655238Y-133707142D01*
X185086666Y-95622380D02*
X185086666Y-96336666D01*
X185039047Y-96479523D01*
X184943809Y-96574761D01*
X184800952Y-96622380D01*
X184705714Y-96622380D01*
X185991428Y-95955714D02*
X185991428Y-96622380D01*
X185753333Y-95574761D02*
X185515238Y-96289047D01*
X186134285Y-96289047D01*
X182141904Y-119832380D02*
X182141904Y-118832380D01*
X182380000Y-118832380D01*
X182522857Y-118880000D01*
X182618095Y-118975238D01*
X182665714Y-119070476D01*
X182713333Y-119260952D01*
X182713333Y-119403809D01*
X182665714Y-119594285D01*
X182618095Y-119689523D01*
X182522857Y-119784761D01*
X182380000Y-119832380D01*
X182141904Y-119832380D01*
X183665714Y-119832380D02*
X183094285Y-119832380D01*
X183380000Y-119832380D02*
X183380000Y-118832380D01*
X183284761Y-118975238D01*
X183189523Y-119070476D01*
X183094285Y-119118095D01*
X175093333Y-137612380D02*
X174760000Y-137136190D01*
X174521904Y-137612380D02*
X174521904Y-136612380D01*
X174902857Y-136612380D01*
X174998095Y-136660000D01*
X175045714Y-136707619D01*
X175093333Y-136802857D01*
X175093333Y-136945714D01*
X175045714Y-137040952D01*
X174998095Y-137088571D01*
X174902857Y-137136190D01*
X174521904Y-137136190D01*
X176045714Y-137612380D02*
X175474285Y-137612380D01*
X175760000Y-137612380D02*
X175760000Y-136612380D01*
X175664761Y-136755238D01*
X175569523Y-136850476D01*
X175474285Y-136898095D01*
X161845714Y-66086666D02*
X162321904Y-66086666D01*
X161750476Y-66372380D02*
X162083809Y-65372380D01*
X162417142Y-66372380D01*
X163274285Y-66372380D02*
X162702857Y-66372380D01*
X162988571Y-66372380D02*
X162988571Y-65372380D01*
X162893333Y-65515238D01*
X162798095Y-65610476D01*
X162702857Y-65658095D01*
D13*
X186750000Y-100210000D02*
X186750000Y-112970000D01*
X185420000Y-97610000D02*
X186750000Y-97610000D01*
X186750000Y-97610000D02*
X186750000Y-98940000D01*
X184090000Y-100210000D02*
X186750000Y-100210000D01*
X184090000Y-100210000D02*
X184090000Y-112970000D01*
X184090000Y-112970000D02*
X186750000Y-112970000D01*
X141030000Y-69670000D02*
X138370000Y-69670000D01*
X138370000Y-87570000D02*
X138370000Y-86240000D01*
X141030000Y-84970000D02*
X138370000Y-84970000D01*
X138370000Y-84970000D02*
X138370000Y-69670000D01*
X141030000Y-84970000D02*
X141030000Y-69670000D01*
X139700000Y-87570000D02*
X138370000Y-87570000D01*
X138370000Y-115450000D02*
X138370000Y-97610000D01*
X139700000Y-118050000D02*
X138370000Y-118050000D01*
X141030000Y-97610000D02*
X138370000Y-97610000D01*
X141030000Y-115450000D02*
X141030000Y-97610000D01*
X138370000Y-118050000D02*
X138370000Y-116720000D01*
X141030000Y-115450000D02*
X138370000Y-115450000D01*
X161290000Y-121860000D02*
X174050000Y-121860000D01*
X158690000Y-123190000D02*
X158690000Y-121860000D01*
X161290000Y-124520000D02*
X161290000Y-121860000D01*
X174050000Y-124520000D02*
X174050000Y-121860000D01*
X161290000Y-124520000D02*
X174050000Y-124520000D01*
X158690000Y-121860000D02*
X160020000Y-121860000D01*
X181335000Y-125630000D02*
X184425000Y-125630000D01*
X184424830Y-125630000D02*
G75*
G03*
X182879538Y-120080000I-1544830J2560000D01*
G01*
X182880462Y-120080000D02*
G75*
G03*
X181335170Y-125630000I-462J-2990000D01*
G01*
X185380000Y-123070000D02*
G75*
G03*
X185380000Y-123070000I-2500000J0D01*
G01*
X161230000Y-134560000D02*
X162560000Y-134560000D01*
X163830000Y-137220000D02*
X163830000Y-134560000D01*
X171510000Y-137220000D02*
X171510000Y-134560000D01*
X161230000Y-135890000D02*
X161230000Y-134560000D01*
X163830000Y-134560000D02*
X171510000Y-134560000D01*
X163830000Y-137220000D02*
X171510000Y-137220000D01*
X173540000Y-132540000D02*
X173540000Y-141780000D01*
X175260000Y-131850000D02*
X175260000Y-132540000D01*
X175260000Y-142470000D02*
X175260000Y-141780000D01*
X176980000Y-132540000D02*
X173540000Y-132540000D01*
X173540000Y-141780000D02*
X176980000Y-141780000D01*
X176980000Y-141780000D02*
X176980000Y-132540000D01*
X184090000Y-72270000D02*
X184090000Y-87570000D01*
X186750000Y-72270000D02*
X186750000Y-87570000D01*
X185420000Y-69670000D02*
X186750000Y-69670000D01*
X184090000Y-87570000D02*
X186750000Y-87570000D01*
X186750000Y-69670000D02*
X186750000Y-71000000D01*
X184090000Y-72270000D02*
X186750000Y-72270000D01*
X161230000Y-141090000D02*
X161230000Y-139760000D01*
X161230000Y-142360000D02*
X163830000Y-142360000D01*
X163830000Y-139760000D02*
X171510000Y-139760000D01*
X161230000Y-144960000D02*
X171510000Y-144960000D01*
X171510000Y-144960000D02*
X171510000Y-139760000D01*
X161230000Y-139760000D02*
X162560000Y-139760000D01*
X163830000Y-142360000D02*
X163830000Y-139760000D01*
X161230000Y-144960000D02*
X161230000Y-142360000D01*
X174100000Y-69730000D02*
X174100000Y-115450000D01*
X171450000Y-118100000D02*
X153670000Y-118100000D01*
X151020000Y-69730000D02*
X151020000Y-115450000D01*
X150700000Y-74540000D02*
X150700000Y-72540000D01*
X171450000Y-67080000D02*
X153670000Y-67080000D01*
X171450000Y-118100000D02*
G75*
G03*
X174100000Y-115450000I0J2650000D01*
G01*
X153670000Y-67080000D02*
G75*
G03*
X151020000Y-69730000I0J-2650000D01*
G01*
X151020000Y-115450000D02*
G75*
G03*
X153670000Y-118100000I2650000J0D01*
G01*
X174100000Y-69730000D02*
G75*
G03*
X171450000Y-67080000I-2650000J0D01*
G01*
%LPC*%
D14*
X142240000Y-63500000D03*
D15*
X185420000Y-98940000D03*
D16*
X185420000Y-101480000D03*
X185420000Y-104020000D03*
X185420000Y-106560000D03*
X185420000Y-109100000D03*
X185420000Y-111640000D03*
D15*
X139700000Y-86240000D03*
D16*
X139700000Y-83700000D03*
X139700000Y-81160000D03*
X139700000Y-78620000D03*
X139700000Y-76080000D03*
X139700000Y-73540000D03*
X139700000Y-71000000D03*
D14*
X182880000Y-142240000D03*
X142240000Y-142240000D03*
D15*
X139700000Y-116720000D03*
D16*
X139700000Y-114180000D03*
X139700000Y-111640000D03*
X139700000Y-109100000D03*
X139700000Y-106560000D03*
X139700000Y-104020000D03*
X139700000Y-101480000D03*
X139700000Y-98940000D03*
D15*
X160020000Y-123190000D03*
D16*
X162560000Y-123190000D03*
X165100000Y-123190000D03*
X167640000Y-123190000D03*
X170180000Y-123190000D03*
X172720000Y-123190000D03*
D17*
X182880000Y-124340000D03*
D18*
X182880000Y-121800000D03*
D15*
X162560000Y-135890000D03*
D16*
X165100000Y-135890000D03*
X167640000Y-135890000D03*
X170180000Y-135890000D03*
D19*
X175260000Y-143510000D03*
D20*
X175260000Y-130810000D03*
D15*
X185420000Y-71000000D03*
D16*
X185420000Y-73540000D03*
X185420000Y-76080000D03*
X185420000Y-78620000D03*
X185420000Y-81160000D03*
X185420000Y-83700000D03*
X185420000Y-86240000D03*
D14*
X182880000Y-63500000D03*
D15*
X162560000Y-141090000D03*
D16*
X162560000Y-143630000D03*
X165100000Y-141090000D03*
X165100000Y-143630000D03*
X167640000Y-141090000D03*
X167640000Y-143630000D03*
X170180000Y-141090000D03*
X170180000Y-143630000D03*
D21*
X152400000Y-73540000D03*
D19*
X152400000Y-76080000D03*
X152400000Y-78620000D03*
X152400000Y-81160000D03*
X152400000Y-83700000D03*
X152400000Y-86240000D03*
X152400000Y-88780000D03*
X152400000Y-91320000D03*
X152400000Y-93860000D03*
X152400000Y-96400000D03*
X152400000Y-98940000D03*
X152400000Y-101480000D03*
X152400000Y-104020000D03*
X152400000Y-106560000D03*
X152400000Y-109100000D03*
X152400000Y-111640000D03*
X172720000Y-111640000D03*
X172720000Y-109100000D03*
X172720000Y-106560000D03*
X172720000Y-104020000D03*
X172720000Y-101480000D03*
X172720000Y-98940000D03*
X172720000Y-96400000D03*
X172720000Y-93860000D03*
X172720000Y-91320000D03*
X172720000Y-88780000D03*
X172720000Y-86240000D03*
X172720000Y-83700000D03*
M02*
