%TF.GenerationSoftware,KiCad,Pcbnew,(6.0.7)*%
%TF.CreationDate,2022-11-06T18:43:46-05:00*%
%TF.ProjectId,MDR_Breakout_Board,4d44525f-4272-4656-916b-6f75745f426f,rev?*%
%TF.SameCoordinates,Original*%
%TF.FileFunction,Drillmap*%
%TF.FilePolarity,Positive*%
%FSLAX45Y45*%
G04 Gerber Fmt 4.5, Leading zero omitted, Abs format (unit mm)*
G04 Created by KiCad (PCBNEW (6.0.7)) date 2022-11-06 18:43:46*
%MOMM*%
%LPD*%
G01*
G04 APERTURE LIST*
%ADD10C,0.100000*%
%ADD11C,0.200000*%
%ADD12C,0.040000*%
%ADD13C,0.080000*%
%ADD14C,0.090000*%
%ADD15C,0.430000*%
G04 APERTURE END LIST*
D10*
X14224000Y-14732000D02*
X13970000Y-14732000D01*
X13716000Y-14224000D02*
X13716000Y-6350000D01*
X18542000Y-14732000D02*
X18796000Y-14478000D01*
X14224000Y-14732000D02*
X18288000Y-14732000D01*
X13716000Y-6350000D02*
X13716000Y-6096000D01*
X18796000Y-6350000D02*
X18796000Y-6096000D01*
X13970000Y-14732000D02*
X13716000Y-14478000D01*
X14224000Y-5842000D02*
X14986000Y-5842000D01*
X17018000Y-6350000D02*
X17526000Y-5842000D01*
X18796000Y-6350000D02*
X18796000Y-14224000D01*
X15494000Y-6350000D02*
X14986000Y-5842000D01*
X17526000Y-5842000D02*
X18288000Y-5842000D01*
X18542000Y-5842000D02*
X18288000Y-5842000D01*
X18288000Y-14732000D02*
X18542000Y-14732000D01*
X18796000Y-6096000D02*
X18542000Y-5842000D01*
X18796000Y-14478000D02*
X18796000Y-14224000D01*
X13716000Y-6096000D02*
X13970000Y-5842000D01*
X13970000Y-5842000D02*
X14224000Y-5842000D01*
X13716000Y-14478000D02*
X13716000Y-14224000D01*
X15494000Y-6350000D02*
X17018000Y-6350000D01*
D11*
D12*
X13950000Y-12172000D02*
X13990000Y-12212000D01*
X13990000Y-12172000D02*
X13950000Y-12212000D01*
X13950000Y-12426000D02*
X13990000Y-12466000D01*
X13990000Y-12426000D02*
X13950000Y-12466000D01*
X14204000Y-8362000D02*
X14244000Y-8402000D01*
X14244000Y-8362000D02*
X14204000Y-8402000D01*
X14204000Y-8870000D02*
X14244000Y-8910000D01*
X14244000Y-8870000D02*
X14204000Y-8910000D01*
X14204000Y-9124000D02*
X14244000Y-9164000D01*
X14244000Y-9124000D02*
X14204000Y-9164000D01*
X14204000Y-9378000D02*
X14244000Y-9418000D01*
X14244000Y-9378000D02*
X14204000Y-9418000D01*
X14204000Y-9632000D02*
X14244000Y-9672000D01*
X14244000Y-9632000D02*
X14204000Y-9672000D01*
X14204000Y-10140000D02*
X14244000Y-10180000D01*
X14244000Y-10140000D02*
X14204000Y-10180000D01*
X14204000Y-11918000D02*
X14244000Y-11958000D01*
X14244000Y-11918000D02*
X14204000Y-11958000D01*
X14204000Y-12172000D02*
X14244000Y-12212000D01*
X14244000Y-12172000D02*
X14204000Y-12212000D01*
X14204000Y-12426000D02*
X14244000Y-12466000D01*
X14244000Y-12426000D02*
X14204000Y-12466000D01*
X14458000Y-6838000D02*
X14498000Y-6878000D01*
X14498000Y-6838000D02*
X14458000Y-6878000D01*
X14458000Y-7092000D02*
X14498000Y-7132000D01*
X14498000Y-7092000D02*
X14458000Y-7132000D01*
X14458000Y-8870000D02*
X14498000Y-8910000D01*
X14498000Y-8870000D02*
X14458000Y-8910000D01*
X14458000Y-9124000D02*
X14498000Y-9164000D01*
X14498000Y-9124000D02*
X14458000Y-9164000D01*
X14458000Y-9378000D02*
X14498000Y-9418000D01*
X14498000Y-9378000D02*
X14458000Y-9418000D01*
X14458000Y-9632000D02*
X14498000Y-9672000D01*
X14498000Y-9632000D02*
X14458000Y-9672000D01*
X14458000Y-9886000D02*
X14498000Y-9926000D01*
X14498000Y-9886000D02*
X14458000Y-9926000D01*
X14458000Y-10140000D02*
X14498000Y-10180000D01*
X14498000Y-10140000D02*
X14458000Y-10180000D01*
X14458000Y-10394000D02*
X14498000Y-10434000D01*
X14498000Y-10394000D02*
X14458000Y-10434000D01*
X14458000Y-12426000D02*
X14498000Y-12466000D01*
X14498000Y-12426000D02*
X14458000Y-12466000D01*
X14712000Y-6838000D02*
X14752000Y-6878000D01*
X14752000Y-6838000D02*
X14712000Y-6878000D01*
X14712000Y-7092000D02*
X14752000Y-7132000D01*
X14752000Y-7092000D02*
X14712000Y-7132000D01*
X14712000Y-7346000D02*
X14752000Y-7386000D01*
X14752000Y-7346000D02*
X14712000Y-7386000D01*
X14966000Y-6838000D02*
X15006000Y-6878000D01*
X15006000Y-6838000D02*
X14966000Y-6878000D01*
X14966000Y-7092000D02*
X15006000Y-7132000D01*
X15006000Y-7092000D02*
X14966000Y-7132000D01*
X14966000Y-7346000D02*
X15006000Y-7386000D01*
X15006000Y-7346000D02*
X14966000Y-7386000D01*
X14966000Y-13696000D02*
X15006000Y-13736000D01*
X15006000Y-13696000D02*
X14966000Y-13736000D01*
X14966000Y-13950000D02*
X15006000Y-13990000D01*
X15006000Y-13950000D02*
X14966000Y-13990000D01*
X14966000Y-14204000D02*
X15006000Y-14244000D01*
X15006000Y-14204000D02*
X14966000Y-14244000D01*
X15220000Y-13696000D02*
X15260000Y-13736000D01*
X15260000Y-13696000D02*
X15220000Y-13736000D01*
X15220000Y-13950000D02*
X15260000Y-13990000D01*
X15260000Y-13950000D02*
X15220000Y-13990000D01*
X15220000Y-14204000D02*
X15260000Y-14244000D01*
X15260000Y-14204000D02*
X15220000Y-14244000D01*
X15474000Y-8413500D02*
X15514000Y-8453500D01*
X15514000Y-8413500D02*
X15474000Y-8453500D01*
X15474000Y-11410000D02*
X15514000Y-11450000D01*
X15514000Y-11410000D02*
X15474000Y-11450000D01*
X15474000Y-11664000D02*
X15514000Y-11704000D01*
X15514000Y-11664000D02*
X15474000Y-11704000D01*
X15474000Y-12680000D02*
X15514000Y-12720000D01*
X15514000Y-12680000D02*
X15474000Y-12720000D01*
X15474000Y-12934000D02*
X15514000Y-12974000D01*
X15514000Y-12934000D02*
X15474000Y-12974000D01*
X15474000Y-13696000D02*
X15514000Y-13736000D01*
X15514000Y-13696000D02*
X15474000Y-13736000D01*
X15474000Y-13950000D02*
X15514000Y-13990000D01*
X15514000Y-13950000D02*
X15474000Y-13990000D01*
X15728000Y-7854000D02*
X15768000Y-7894000D01*
X15768000Y-7854000D02*
X15728000Y-7894000D01*
X15728000Y-8108000D02*
X15768000Y-8148000D01*
X15768000Y-8108000D02*
X15728000Y-8148000D01*
X15728000Y-8362000D02*
X15768000Y-8402000D01*
X15768000Y-8362000D02*
X15728000Y-8402000D01*
X15728000Y-8616000D02*
X15768000Y-8656000D01*
X15768000Y-8616000D02*
X15728000Y-8656000D01*
X15728000Y-8870000D02*
X15768000Y-8910000D01*
X15768000Y-8870000D02*
X15728000Y-8910000D01*
X15728000Y-10648000D02*
X15768000Y-10688000D01*
X15768000Y-10648000D02*
X15728000Y-10688000D01*
X15728000Y-10902000D02*
X15768000Y-10942000D01*
X15768000Y-10902000D02*
X15728000Y-10942000D01*
X15728000Y-11156000D02*
X15768000Y-11196000D01*
X15768000Y-11156000D02*
X15728000Y-11196000D01*
X15728000Y-11410000D02*
X15768000Y-11450000D01*
X15768000Y-11410000D02*
X15728000Y-11450000D01*
X15728000Y-11664000D02*
X15768000Y-11704000D01*
X15768000Y-11664000D02*
X15728000Y-11704000D01*
X15728000Y-12680000D02*
X15768000Y-12720000D01*
X15768000Y-12680000D02*
X15728000Y-12720000D01*
X15728000Y-12934000D02*
X15768000Y-12974000D01*
X15768000Y-12934000D02*
X15728000Y-12974000D01*
X15728000Y-13188000D02*
X15768000Y-13228000D01*
X15768000Y-13188000D02*
X15728000Y-13228000D01*
X15728000Y-13442000D02*
X15768000Y-13482000D01*
X15768000Y-13442000D02*
X15728000Y-13482000D01*
X15728000Y-13696000D02*
X15768000Y-13736000D01*
X15768000Y-13696000D02*
X15728000Y-13736000D01*
X15728000Y-13950000D02*
X15768000Y-13990000D01*
X15768000Y-13950000D02*
X15728000Y-13990000D01*
X15918500Y-9239000D02*
X15958500Y-9279000D01*
X15958500Y-9239000D02*
X15918500Y-9279000D01*
X15982000Y-7854000D02*
X16022000Y-7894000D01*
X16022000Y-7854000D02*
X15982000Y-7894000D01*
X15982000Y-8108000D02*
X16022000Y-8148000D01*
X16022000Y-8108000D02*
X15982000Y-8148000D01*
X15982000Y-8362000D02*
X16022000Y-8402000D01*
X16022000Y-8362000D02*
X15982000Y-8402000D01*
X15982000Y-8616000D02*
X16022000Y-8656000D01*
X16022000Y-8616000D02*
X15982000Y-8656000D01*
X15982000Y-8870000D02*
X16022000Y-8910000D01*
X16022000Y-8870000D02*
X15982000Y-8910000D01*
X15982000Y-10648000D02*
X16022000Y-10688000D01*
X16022000Y-10648000D02*
X15982000Y-10688000D01*
X15982000Y-10902000D02*
X16022000Y-10942000D01*
X16022000Y-10902000D02*
X15982000Y-10942000D01*
X15982000Y-11156000D02*
X16022000Y-11196000D01*
X16022000Y-11156000D02*
X15982000Y-11196000D01*
X15982000Y-11410000D02*
X16022000Y-11450000D01*
X16022000Y-11410000D02*
X15982000Y-11450000D01*
X15982000Y-11664000D02*
X16022000Y-11704000D01*
X16022000Y-11664000D02*
X15982000Y-11704000D01*
X15982000Y-12680000D02*
X16022000Y-12720000D01*
X16022000Y-12680000D02*
X15982000Y-12720000D01*
X15982000Y-12934000D02*
X16022000Y-12974000D01*
X16022000Y-12934000D02*
X15982000Y-12974000D01*
X15982000Y-14331000D02*
X16022000Y-14371000D01*
X16022000Y-14331000D02*
X15982000Y-14371000D01*
X16236000Y-7854000D02*
X16276000Y-7894000D01*
X16276000Y-7854000D02*
X16236000Y-7894000D01*
X16236000Y-8108000D02*
X16276000Y-8148000D01*
X16276000Y-8108000D02*
X16236000Y-8148000D01*
X16236000Y-8362000D02*
X16276000Y-8402000D01*
X16276000Y-8362000D02*
X16236000Y-8402000D01*
X16236000Y-8616000D02*
X16276000Y-8656000D01*
X16276000Y-8616000D02*
X16236000Y-8656000D01*
X16236000Y-8870000D02*
X16276000Y-8910000D01*
X16276000Y-8870000D02*
X16236000Y-8910000D01*
X16236000Y-10902000D02*
X16276000Y-10942000D01*
X16276000Y-10902000D02*
X16236000Y-10942000D01*
X16236000Y-11410000D02*
X16276000Y-11450000D01*
X16276000Y-11410000D02*
X16236000Y-11450000D01*
X16236000Y-11664000D02*
X16276000Y-11704000D01*
X16276000Y-11664000D02*
X16236000Y-11704000D01*
X16236000Y-12680000D02*
X16276000Y-12720000D01*
X16276000Y-12680000D02*
X16236000Y-12720000D01*
X16236000Y-12934000D02*
X16276000Y-12974000D01*
X16276000Y-12934000D02*
X16236000Y-12974000D01*
X16490000Y-7854000D02*
X16530000Y-7894000D01*
X16530000Y-7854000D02*
X16490000Y-7894000D01*
X16490000Y-8108000D02*
X16530000Y-8148000D01*
X16530000Y-8108000D02*
X16490000Y-8148000D01*
X16490000Y-8362000D02*
X16530000Y-8402000D01*
X16530000Y-8362000D02*
X16490000Y-8402000D01*
X16490000Y-8616000D02*
X16530000Y-8656000D01*
X16530000Y-8616000D02*
X16490000Y-8656000D01*
X16490000Y-11410000D02*
X16530000Y-11450000D01*
X16530000Y-11410000D02*
X16490000Y-11450000D01*
X16490000Y-11664000D02*
X16530000Y-11704000D01*
X16530000Y-11664000D02*
X16490000Y-11704000D01*
X16490000Y-12680000D02*
X16530000Y-12720000D01*
X16530000Y-12680000D02*
X16490000Y-12720000D01*
X16490000Y-12934000D02*
X16530000Y-12974000D01*
X16530000Y-12934000D02*
X16490000Y-12974000D01*
X16744000Y-12680000D02*
X16784000Y-12720000D01*
X16784000Y-12680000D02*
X16744000Y-12720000D01*
X16744000Y-12934000D02*
X16784000Y-12974000D01*
X16784000Y-12934000D02*
X16744000Y-12974000D01*
X16998000Y-12680000D02*
X17038000Y-12720000D01*
X17038000Y-12680000D02*
X16998000Y-12720000D01*
X16998000Y-12934000D02*
X17038000Y-12974000D01*
X17038000Y-12934000D02*
X16998000Y-12974000D01*
X17252000Y-14331000D02*
X17292000Y-14371000D01*
X17292000Y-14331000D02*
X17252000Y-14371000D01*
X17506000Y-8362000D02*
X17546000Y-8402000D01*
X17546000Y-8362000D02*
X17506000Y-8402000D01*
X17506000Y-8616000D02*
X17546000Y-8656000D01*
X17546000Y-8616000D02*
X17506000Y-8656000D01*
X17506000Y-8870000D02*
X17546000Y-8910000D01*
X17546000Y-8870000D02*
X17506000Y-8910000D01*
X17506000Y-9378000D02*
X17546000Y-9418000D01*
X17546000Y-9378000D02*
X17506000Y-9418000D01*
X17506000Y-9632000D02*
X17546000Y-9672000D01*
X17546000Y-9632000D02*
X17506000Y-9672000D01*
X17506000Y-9886000D02*
X17546000Y-9926000D01*
X17546000Y-9886000D02*
X17506000Y-9926000D01*
X17506000Y-11410000D02*
X17546000Y-11450000D01*
X17546000Y-11410000D02*
X17506000Y-11450000D01*
X17506000Y-11664000D02*
X17546000Y-11704000D01*
X17546000Y-11664000D02*
X17506000Y-11704000D01*
X17506000Y-11918000D02*
X17546000Y-11958000D01*
X17546000Y-11918000D02*
X17506000Y-11958000D01*
X17760000Y-9378000D02*
X17800000Y-9418000D01*
X17800000Y-9378000D02*
X17760000Y-9418000D01*
X17760000Y-9632000D02*
X17800000Y-9672000D01*
X17800000Y-9632000D02*
X17760000Y-9672000D01*
X17760000Y-9886000D02*
X17800000Y-9926000D01*
X17800000Y-9886000D02*
X17760000Y-9926000D01*
X17760000Y-10140000D02*
X17800000Y-10180000D01*
X17800000Y-10140000D02*
X17760000Y-10180000D01*
X17760000Y-11410000D02*
X17800000Y-11450000D01*
X17800000Y-11410000D02*
X17760000Y-11450000D01*
X17760000Y-11664000D02*
X17800000Y-11704000D01*
X17800000Y-11664000D02*
X17760000Y-11704000D01*
X17760000Y-11918000D02*
X17800000Y-11958000D01*
X17800000Y-11918000D02*
X17760000Y-11958000D01*
X18014000Y-9886000D02*
X18054000Y-9926000D01*
X18054000Y-9886000D02*
X18014000Y-9926000D01*
X18014000Y-10140000D02*
X18054000Y-10180000D01*
X18054000Y-10140000D02*
X18014000Y-10180000D01*
X18014000Y-10394000D02*
X18054000Y-10434000D01*
X18054000Y-10394000D02*
X18014000Y-10434000D01*
X18014000Y-11410000D02*
X18054000Y-11450000D01*
X18054000Y-11410000D02*
X18014000Y-11450000D01*
X18014000Y-11664000D02*
X18054000Y-11704000D01*
X18054000Y-11664000D02*
X18014000Y-11704000D01*
X18268000Y-7600000D02*
X18308000Y-7640000D01*
X18308000Y-7600000D02*
X18268000Y-7640000D01*
X18268000Y-10394000D02*
X18308000Y-10434000D01*
X18308000Y-10394000D02*
X18268000Y-10434000D01*
D13*
X15280000Y-7354000D02*
G75*
G03*
X15280000Y-7354000I-40000J0D01*
G01*
X15280000Y-7608000D02*
G75*
G03*
X15280000Y-7608000I-40000J0D01*
G01*
X15280000Y-7862000D02*
G75*
G03*
X15280000Y-7862000I-40000J0D01*
G01*
X15280000Y-8116000D02*
G75*
G03*
X15280000Y-8116000I-40000J0D01*
G01*
X15280000Y-8370000D02*
G75*
G03*
X15280000Y-8370000I-40000J0D01*
G01*
X15280000Y-8624000D02*
G75*
G03*
X15280000Y-8624000I-40000J0D01*
G01*
X15280000Y-8878000D02*
G75*
G03*
X15280000Y-8878000I-40000J0D01*
G01*
X15280000Y-9132000D02*
G75*
G03*
X15280000Y-9132000I-40000J0D01*
G01*
X15280000Y-9386000D02*
G75*
G03*
X15280000Y-9386000I-40000J0D01*
G01*
X15280000Y-9640000D02*
G75*
G03*
X15280000Y-9640000I-40000J0D01*
G01*
X15280000Y-9894000D02*
G75*
G03*
X15280000Y-9894000I-40000J0D01*
G01*
X15280000Y-10148000D02*
G75*
G03*
X15280000Y-10148000I-40000J0D01*
G01*
X15280000Y-10402000D02*
G75*
G03*
X15280000Y-10402000I-40000J0D01*
G01*
X15280000Y-10656000D02*
G75*
G03*
X15280000Y-10656000I-40000J0D01*
G01*
X15280000Y-10910000D02*
G75*
G03*
X15280000Y-10910000I-40000J0D01*
G01*
X15280000Y-11164000D02*
G75*
G03*
X15280000Y-11164000I-40000J0D01*
G01*
X17312000Y-8370000D02*
G75*
G03*
X17312000Y-8370000I-40000J0D01*
G01*
X17312000Y-8624000D02*
G75*
G03*
X17312000Y-8624000I-40000J0D01*
G01*
X17312000Y-8878000D02*
G75*
G03*
X17312000Y-8878000I-40000J0D01*
G01*
X17312000Y-9132000D02*
G75*
G03*
X17312000Y-9132000I-40000J0D01*
G01*
X17312000Y-9386000D02*
G75*
G03*
X17312000Y-9386000I-40000J0D01*
G01*
X17312000Y-9640000D02*
G75*
G03*
X17312000Y-9640000I-40000J0D01*
G01*
X17312000Y-9894000D02*
G75*
G03*
X17312000Y-9894000I-40000J0D01*
G01*
X17312000Y-10148000D02*
G75*
G03*
X17312000Y-10148000I-40000J0D01*
G01*
X17312000Y-10402000D02*
G75*
G03*
X17312000Y-10402000I-40000J0D01*
G01*
X17312000Y-10656000D02*
G75*
G03*
X17312000Y-10656000I-40000J0D01*
G01*
X17312000Y-10910000D02*
G75*
G03*
X17312000Y-10910000I-40000J0D01*
G01*
X17312000Y-11164000D02*
G75*
G03*
X17312000Y-11164000I-40000J0D01*
G01*
X17566000Y-13081000D02*
G75*
G03*
X17566000Y-13081000I-40000J0D01*
G01*
X17566000Y-14351000D02*
G75*
G03*
X17566000Y-14351000I-40000J0D01*
G01*
D14*
X18288000Y-12135000D02*
X18288000Y-12225000D01*
X18243000Y-12180000D02*
X18333000Y-12180000D01*
X18288000Y-12389000D02*
X18288000Y-12479000D01*
X18243000Y-12434000D02*
X18333000Y-12434000D01*
D10*
X14005356Y-7135356D02*
X14005356Y-7064644D01*
X13934644Y-7064644D01*
X13934644Y-7135356D01*
X14005356Y-7135356D01*
X14005356Y-7389356D02*
X14005356Y-7318644D01*
X13934644Y-7318644D01*
X13934644Y-7389356D01*
X14005356Y-7389356D01*
X14005356Y-7643356D02*
X14005356Y-7572644D01*
X13934644Y-7572644D01*
X13934644Y-7643356D01*
X14005356Y-7643356D01*
X14005356Y-7897356D02*
X14005356Y-7826644D01*
X13934644Y-7826644D01*
X13934644Y-7897356D01*
X14005356Y-7897356D01*
X14005356Y-8151356D02*
X14005356Y-8080644D01*
X13934644Y-8080644D01*
X13934644Y-8151356D01*
X14005356Y-8151356D01*
X14005356Y-8405356D02*
X14005356Y-8334644D01*
X13934644Y-8334644D01*
X13934644Y-8405356D01*
X14005356Y-8405356D01*
X14005356Y-8659356D02*
X14005356Y-8588644D01*
X13934644Y-8588644D01*
X13934644Y-8659356D01*
X14005356Y-8659356D01*
X14005356Y-9929356D02*
X14005356Y-9858644D01*
X13934644Y-9858644D01*
X13934644Y-9929356D01*
X14005356Y-9929356D01*
X14005356Y-10183356D02*
X14005356Y-10112644D01*
X13934644Y-10112644D01*
X13934644Y-10183356D01*
X14005356Y-10183356D01*
X14005356Y-10437356D02*
X14005356Y-10366644D01*
X13934644Y-10366644D01*
X13934644Y-10437356D01*
X14005356Y-10437356D01*
X14005356Y-10691356D02*
X14005356Y-10620644D01*
X13934644Y-10620644D01*
X13934644Y-10691356D01*
X14005356Y-10691356D01*
X14005356Y-10945356D02*
X14005356Y-10874644D01*
X13934644Y-10874644D01*
X13934644Y-10945356D01*
X14005356Y-10945356D01*
X14005356Y-11199356D02*
X14005356Y-11128644D01*
X13934644Y-11128644D01*
X13934644Y-11199356D01*
X14005356Y-11199356D01*
X14005356Y-11453356D02*
X14005356Y-11382644D01*
X13934644Y-11382644D01*
X13934644Y-11453356D01*
X14005356Y-11453356D01*
X14005356Y-11707356D02*
X14005356Y-11636644D01*
X13934644Y-11636644D01*
X13934644Y-11707356D01*
X14005356Y-11707356D01*
X16037356Y-12354356D02*
X16037356Y-12283644D01*
X15966644Y-12283644D01*
X15966644Y-12354356D01*
X16037356Y-12354356D01*
X16291356Y-12354356D02*
X16291356Y-12283644D01*
X16220644Y-12283644D01*
X16220644Y-12354356D01*
X16291356Y-12354356D01*
X16291356Y-13624356D02*
X16291356Y-13553644D01*
X16220644Y-13553644D01*
X16220644Y-13624356D01*
X16291356Y-13624356D01*
X16291356Y-14144356D02*
X16291356Y-14073644D01*
X16220644Y-14073644D01*
X16220644Y-14144356D01*
X16291356Y-14144356D01*
X16291356Y-14398356D02*
X16291356Y-14327644D01*
X16220644Y-14327644D01*
X16220644Y-14398356D01*
X16291356Y-14398356D01*
X16545356Y-12354356D02*
X16545356Y-12283644D01*
X16474644Y-12283644D01*
X16474644Y-12354356D01*
X16545356Y-12354356D01*
X16545356Y-13624356D02*
X16545356Y-13553644D01*
X16474644Y-13553644D01*
X16474644Y-13624356D01*
X16545356Y-13624356D01*
X16545356Y-14144356D02*
X16545356Y-14073644D01*
X16474644Y-14073644D01*
X16474644Y-14144356D01*
X16545356Y-14144356D01*
X16545356Y-14398356D02*
X16545356Y-14327644D01*
X16474644Y-14327644D01*
X16474644Y-14398356D01*
X16545356Y-14398356D01*
X16799356Y-12354356D02*
X16799356Y-12283644D01*
X16728644Y-12283644D01*
X16728644Y-12354356D01*
X16799356Y-12354356D01*
X16799356Y-13624356D02*
X16799356Y-13553644D01*
X16728644Y-13553644D01*
X16728644Y-13624356D01*
X16799356Y-13624356D01*
X16799356Y-14144356D02*
X16799356Y-14073644D01*
X16728644Y-14073644D01*
X16728644Y-14144356D01*
X16799356Y-14144356D01*
X16799356Y-14398356D02*
X16799356Y-14327644D01*
X16728644Y-14327644D01*
X16728644Y-14398356D01*
X16799356Y-14398356D01*
X17053356Y-12354356D02*
X17053356Y-12283644D01*
X16982644Y-12283644D01*
X16982644Y-12354356D01*
X17053356Y-12354356D01*
X17053356Y-13624356D02*
X17053356Y-13553644D01*
X16982644Y-13553644D01*
X16982644Y-13624356D01*
X17053356Y-13624356D01*
X17053356Y-14144356D02*
X17053356Y-14073644D01*
X16982644Y-14073644D01*
X16982644Y-14144356D01*
X17053356Y-14144356D01*
X17053356Y-14398356D02*
X17053356Y-14327644D01*
X16982644Y-14327644D01*
X16982644Y-14398356D01*
X17053356Y-14398356D01*
X17307356Y-12354356D02*
X17307356Y-12283644D01*
X17236644Y-12283644D01*
X17236644Y-12354356D01*
X17307356Y-12354356D01*
X18577356Y-7135356D02*
X18577356Y-7064644D01*
X18506644Y-7064644D01*
X18506644Y-7135356D01*
X18577356Y-7135356D01*
X18577356Y-7389356D02*
X18577356Y-7318644D01*
X18506644Y-7318644D01*
X18506644Y-7389356D01*
X18577356Y-7389356D01*
X18577356Y-7643356D02*
X18577356Y-7572644D01*
X18506644Y-7572644D01*
X18506644Y-7643356D01*
X18577356Y-7643356D01*
X18577356Y-7897356D02*
X18577356Y-7826644D01*
X18506644Y-7826644D01*
X18506644Y-7897356D01*
X18577356Y-7897356D01*
X18577356Y-8151356D02*
X18577356Y-8080644D01*
X18506644Y-8080644D01*
X18506644Y-8151356D01*
X18577356Y-8151356D01*
X18577356Y-8405356D02*
X18577356Y-8334644D01*
X18506644Y-8334644D01*
X18506644Y-8405356D01*
X18577356Y-8405356D01*
X18577356Y-8659356D02*
X18577356Y-8588644D01*
X18506644Y-8588644D01*
X18506644Y-8659356D01*
X18577356Y-8659356D01*
X18577356Y-9929356D02*
X18577356Y-9858644D01*
X18506644Y-9858644D01*
X18506644Y-9929356D01*
X18577356Y-9929356D01*
X18577356Y-10183356D02*
X18577356Y-10112644D01*
X18506644Y-10112644D01*
X18506644Y-10183356D01*
X18577356Y-10183356D01*
X18577356Y-10437356D02*
X18577356Y-10366644D01*
X18506644Y-10366644D01*
X18506644Y-10437356D01*
X18577356Y-10437356D01*
X18577356Y-10691356D02*
X18577356Y-10620644D01*
X18506644Y-10620644D01*
X18506644Y-10691356D01*
X18577356Y-10691356D01*
X18577356Y-10945356D02*
X18577356Y-10874644D01*
X18506644Y-10874644D01*
X18506644Y-10945356D01*
X18577356Y-10945356D01*
X18577356Y-11199356D02*
X18577356Y-11128644D01*
X18506644Y-11128644D01*
X18506644Y-11199356D01*
X18577356Y-11199356D01*
D15*
X14224000Y-6565000D02*
X14439000Y-6350000D01*
X14224000Y-6135000D01*
X14009000Y-6350000D01*
X14224000Y-6565000D01*
X14224000Y-14439000D02*
X14439000Y-14224000D01*
X14224000Y-14009000D01*
X14009000Y-14224000D01*
X14224000Y-14439000D01*
X18288000Y-6565000D02*
X18503000Y-6350000D01*
X18288000Y-6135000D01*
X18073000Y-6350000D01*
X18288000Y-6565000D01*
X18288000Y-14439000D02*
X18503000Y-14224000D01*
X18288000Y-14009000D01*
X18073000Y-14224000D01*
X18288000Y-14439000D01*
D11*
X13968619Y-15047476D02*
X13968619Y-14847476D01*
X14016238Y-14847476D01*
X14044809Y-14857000D01*
X14063857Y-14876048D01*
X14073381Y-14895095D01*
X14082905Y-14933190D01*
X14082905Y-14961762D01*
X14073381Y-14999857D01*
X14063857Y-15018905D01*
X14044809Y-15037952D01*
X14016238Y-15047476D01*
X13968619Y-15047476D01*
X14168619Y-15047476D02*
X14168619Y-14914143D01*
X14168619Y-14952238D02*
X14178143Y-14933190D01*
X14187667Y-14923667D01*
X14206714Y-14914143D01*
X14225762Y-14914143D01*
X14292428Y-15047476D02*
X14292428Y-14914143D01*
X14292428Y-14847476D02*
X14282905Y-14857000D01*
X14292428Y-14866524D01*
X14301952Y-14857000D01*
X14292428Y-14847476D01*
X14292428Y-14866524D01*
X14416238Y-15047476D02*
X14397190Y-15037952D01*
X14387667Y-15018905D01*
X14387667Y-14847476D01*
X14521000Y-15047476D02*
X14501952Y-15037952D01*
X14492428Y-15018905D01*
X14492428Y-14847476D01*
X14749571Y-15047476D02*
X14749571Y-14847476D01*
X14816238Y-14990333D01*
X14882905Y-14847476D01*
X14882905Y-15047476D01*
X15063857Y-15047476D02*
X15063857Y-14942714D01*
X15054333Y-14923667D01*
X15035286Y-14914143D01*
X14997190Y-14914143D01*
X14978143Y-14923667D01*
X15063857Y-15037952D02*
X15044809Y-15047476D01*
X14997190Y-15047476D01*
X14978143Y-15037952D01*
X14968619Y-15018905D01*
X14968619Y-14999857D01*
X14978143Y-14980809D01*
X14997190Y-14971286D01*
X15044809Y-14971286D01*
X15063857Y-14961762D01*
X15159095Y-14914143D02*
X15159095Y-15114143D01*
X15159095Y-14923667D02*
X15178143Y-14914143D01*
X15216238Y-14914143D01*
X15235286Y-14923667D01*
X15244809Y-14933190D01*
X15254333Y-14952238D01*
X15254333Y-15009381D01*
X15244809Y-15028428D01*
X15235286Y-15037952D01*
X15216238Y-15047476D01*
X15178143Y-15047476D01*
X15159095Y-15037952D01*
X15340048Y-15028428D02*
X15349571Y-15037952D01*
X15340048Y-15047476D01*
X15330524Y-15037952D01*
X15340048Y-15028428D01*
X15340048Y-15047476D01*
X15340048Y-14923667D02*
X15349571Y-14933190D01*
X15340048Y-14942714D01*
X15330524Y-14933190D01*
X15340048Y-14923667D01*
X15340048Y-14942714D01*
D12*
X13671000Y-15357000D02*
X13711000Y-15397000D01*
X13711000Y-15357000D02*
X13671000Y-15397000D01*
D11*
X14006714Y-15267476D02*
X14025762Y-15267476D01*
X14044809Y-15277000D01*
X14054333Y-15286524D01*
X14063857Y-15305571D01*
X14073381Y-15343667D01*
X14073381Y-15391286D01*
X14063857Y-15429381D01*
X14054333Y-15448428D01*
X14044809Y-15457952D01*
X14025762Y-15467476D01*
X14006714Y-15467476D01*
X13987667Y-15457952D01*
X13978143Y-15448428D01*
X13968619Y-15429381D01*
X13959095Y-15391286D01*
X13959095Y-15343667D01*
X13968619Y-15305571D01*
X13978143Y-15286524D01*
X13987667Y-15277000D01*
X14006714Y-15267476D01*
X14159095Y-15448428D02*
X14168619Y-15457952D01*
X14159095Y-15467476D01*
X14149571Y-15457952D01*
X14159095Y-15448428D01*
X14159095Y-15467476D01*
X14340048Y-15334143D02*
X14340048Y-15467476D01*
X14292428Y-15257952D02*
X14244809Y-15400809D01*
X14368619Y-15400809D01*
X14482905Y-15267476D02*
X14501952Y-15267476D01*
X14521000Y-15277000D01*
X14530524Y-15286524D01*
X14540048Y-15305571D01*
X14549571Y-15343667D01*
X14549571Y-15391286D01*
X14540048Y-15429381D01*
X14530524Y-15448428D01*
X14521000Y-15457952D01*
X14501952Y-15467476D01*
X14482905Y-15467476D01*
X14463857Y-15457952D01*
X14454333Y-15448428D01*
X14444809Y-15429381D01*
X14435286Y-15391286D01*
X14435286Y-15343667D01*
X14444809Y-15305571D01*
X14454333Y-15286524D01*
X14463857Y-15277000D01*
X14482905Y-15267476D01*
X14673381Y-15267476D02*
X14692428Y-15267476D01*
X14711476Y-15277000D01*
X14721000Y-15286524D01*
X14730524Y-15305571D01*
X14740048Y-15343667D01*
X14740048Y-15391286D01*
X14730524Y-15429381D01*
X14721000Y-15448428D01*
X14711476Y-15457952D01*
X14692428Y-15467476D01*
X14673381Y-15467476D01*
X14654333Y-15457952D01*
X14644809Y-15448428D01*
X14635286Y-15429381D01*
X14625762Y-15391286D01*
X14625762Y-15343667D01*
X14635286Y-15305571D01*
X14644809Y-15286524D01*
X14654333Y-15277000D01*
X14673381Y-15267476D01*
X14825762Y-15467476D02*
X14825762Y-15334143D01*
X14825762Y-15353190D02*
X14835286Y-15343667D01*
X14854333Y-15334143D01*
X14882905Y-15334143D01*
X14901952Y-15343667D01*
X14911476Y-15362714D01*
X14911476Y-15467476D01*
X14911476Y-15362714D02*
X14921000Y-15343667D01*
X14940048Y-15334143D01*
X14968619Y-15334143D01*
X14987667Y-15343667D01*
X14997190Y-15362714D01*
X14997190Y-15467476D01*
X15092428Y-15467476D02*
X15092428Y-15334143D01*
X15092428Y-15353190D02*
X15101952Y-15343667D01*
X15121000Y-15334143D01*
X15149571Y-15334143D01*
X15168619Y-15343667D01*
X15178143Y-15362714D01*
X15178143Y-15467476D01*
X15178143Y-15362714D02*
X15187667Y-15343667D01*
X15206714Y-15334143D01*
X15235286Y-15334143D01*
X15254333Y-15343667D01*
X15263857Y-15362714D01*
X15263857Y-15467476D01*
X15654333Y-15257952D02*
X15482905Y-15515095D01*
X15911476Y-15267476D02*
X15930524Y-15267476D01*
X15949571Y-15277000D01*
X15959095Y-15286524D01*
X15968619Y-15305571D01*
X15978143Y-15343667D01*
X15978143Y-15391286D01*
X15968619Y-15429381D01*
X15959095Y-15448428D01*
X15949571Y-15457952D01*
X15930524Y-15467476D01*
X15911476Y-15467476D01*
X15892428Y-15457952D01*
X15882905Y-15448428D01*
X15873381Y-15429381D01*
X15863857Y-15391286D01*
X15863857Y-15343667D01*
X15873381Y-15305571D01*
X15882905Y-15286524D01*
X15892428Y-15277000D01*
X15911476Y-15267476D01*
X16063857Y-15448428D02*
X16073381Y-15457952D01*
X16063857Y-15467476D01*
X16054333Y-15457952D01*
X16063857Y-15448428D01*
X16063857Y-15467476D01*
X16197190Y-15267476D02*
X16216238Y-15267476D01*
X16235286Y-15277000D01*
X16244809Y-15286524D01*
X16254333Y-15305571D01*
X16263857Y-15343667D01*
X16263857Y-15391286D01*
X16254333Y-15429381D01*
X16244809Y-15448428D01*
X16235286Y-15457952D01*
X16216238Y-15467476D01*
X16197190Y-15467476D01*
X16178143Y-15457952D01*
X16168619Y-15448428D01*
X16159095Y-15429381D01*
X16149571Y-15391286D01*
X16149571Y-15343667D01*
X16159095Y-15305571D01*
X16168619Y-15286524D01*
X16178143Y-15277000D01*
X16197190Y-15267476D01*
X16454333Y-15467476D02*
X16340048Y-15467476D01*
X16397190Y-15467476D02*
X16397190Y-15267476D01*
X16378143Y-15296048D01*
X16359095Y-15315095D01*
X16340048Y-15324619D01*
X16635286Y-15267476D02*
X16540048Y-15267476D01*
X16530524Y-15362714D01*
X16540048Y-15353190D01*
X16559095Y-15343667D01*
X16606714Y-15343667D01*
X16625762Y-15353190D01*
X16635286Y-15362714D01*
X16644809Y-15381762D01*
X16644809Y-15429381D01*
X16635286Y-15448428D01*
X16625762Y-15457952D01*
X16606714Y-15467476D01*
X16559095Y-15467476D01*
X16540048Y-15457952D01*
X16530524Y-15448428D01*
X16711476Y-15267476D02*
X16844810Y-15267476D01*
X16759095Y-15467476D01*
X16911476Y-15267476D02*
X16911476Y-15305571D01*
X16987667Y-15267476D02*
X16987667Y-15305571D01*
X17282905Y-15543667D02*
X17273381Y-15534143D01*
X17254333Y-15505571D01*
X17244810Y-15486524D01*
X17235286Y-15457952D01*
X17225762Y-15410333D01*
X17225762Y-15372238D01*
X17235286Y-15324619D01*
X17244810Y-15296048D01*
X17254333Y-15277000D01*
X17273381Y-15248428D01*
X17282905Y-15238905D01*
X17463857Y-15467476D02*
X17349571Y-15467476D01*
X17406714Y-15467476D02*
X17406714Y-15267476D01*
X17387667Y-15296048D01*
X17368619Y-15315095D01*
X17349571Y-15324619D01*
X17654333Y-15467476D02*
X17540048Y-15467476D01*
X17597190Y-15467476D02*
X17597190Y-15267476D01*
X17578143Y-15296048D01*
X17559095Y-15315095D01*
X17540048Y-15324619D01*
X17825762Y-15267476D02*
X17787667Y-15267476D01*
X17768619Y-15277000D01*
X17759095Y-15286524D01*
X17740048Y-15315095D01*
X17730524Y-15353190D01*
X17730524Y-15429381D01*
X17740048Y-15448428D01*
X17749571Y-15457952D01*
X17768619Y-15467476D01*
X17806714Y-15467476D01*
X17825762Y-15457952D01*
X17835286Y-15448428D01*
X17844810Y-15429381D01*
X17844810Y-15381762D01*
X17835286Y-15362714D01*
X17825762Y-15353190D01*
X17806714Y-15343667D01*
X17768619Y-15343667D01*
X17749571Y-15353190D01*
X17740048Y-15362714D01*
X17730524Y-15381762D01*
X18082905Y-15467476D02*
X18082905Y-15267476D01*
X18168619Y-15467476D02*
X18168619Y-15362714D01*
X18159095Y-15343667D01*
X18140048Y-15334143D01*
X18111476Y-15334143D01*
X18092429Y-15343667D01*
X18082905Y-15353190D01*
X18292429Y-15467476D02*
X18273381Y-15457952D01*
X18263857Y-15448428D01*
X18254333Y-15429381D01*
X18254333Y-15372238D01*
X18263857Y-15353190D01*
X18273381Y-15343667D01*
X18292429Y-15334143D01*
X18321000Y-15334143D01*
X18340048Y-15343667D01*
X18349571Y-15353190D01*
X18359095Y-15372238D01*
X18359095Y-15429381D01*
X18349571Y-15448428D01*
X18340048Y-15457952D01*
X18321000Y-15467476D01*
X18292429Y-15467476D01*
X18473381Y-15467476D02*
X18454333Y-15457952D01*
X18444810Y-15438905D01*
X18444810Y-15267476D01*
X18625762Y-15457952D02*
X18606714Y-15467476D01*
X18568619Y-15467476D01*
X18549571Y-15457952D01*
X18540048Y-15438905D01*
X18540048Y-15362714D01*
X18549571Y-15343667D01*
X18568619Y-15334143D01*
X18606714Y-15334143D01*
X18625762Y-15343667D01*
X18635286Y-15362714D01*
X18635286Y-15381762D01*
X18540048Y-15400809D01*
X18711476Y-15457952D02*
X18730524Y-15467476D01*
X18768619Y-15467476D01*
X18787667Y-15457952D01*
X18797190Y-15438905D01*
X18797190Y-15429381D01*
X18787667Y-15410333D01*
X18768619Y-15400809D01*
X18740048Y-15400809D01*
X18721000Y-15391286D01*
X18711476Y-15372238D01*
X18711476Y-15362714D01*
X18721000Y-15343667D01*
X18740048Y-15334143D01*
X18768619Y-15334143D01*
X18787667Y-15343667D01*
X18863857Y-15543667D02*
X18873381Y-15534143D01*
X18892429Y-15505571D01*
X18901952Y-15486524D01*
X18911476Y-15457952D01*
X18921000Y-15410333D01*
X18921000Y-15372238D01*
X18911476Y-15324619D01*
X18901952Y-15296048D01*
X18892429Y-15277000D01*
X18873381Y-15248428D01*
X18863857Y-15238905D01*
D13*
X13711000Y-15641000D02*
G75*
G03*
X13711000Y-15641000I-40000J0D01*
G01*
D11*
X14006714Y-15531476D02*
X14025762Y-15531476D01*
X14044809Y-15541000D01*
X14054333Y-15550524D01*
X14063857Y-15569571D01*
X14073381Y-15607667D01*
X14073381Y-15655286D01*
X14063857Y-15693381D01*
X14054333Y-15712428D01*
X14044809Y-15721952D01*
X14025762Y-15731476D01*
X14006714Y-15731476D01*
X13987667Y-15721952D01*
X13978143Y-15712428D01*
X13968619Y-15693381D01*
X13959095Y-15655286D01*
X13959095Y-15607667D01*
X13968619Y-15569571D01*
X13978143Y-15550524D01*
X13987667Y-15541000D01*
X14006714Y-15531476D01*
X14159095Y-15712428D02*
X14168619Y-15721952D01*
X14159095Y-15731476D01*
X14149571Y-15721952D01*
X14159095Y-15712428D01*
X14159095Y-15731476D01*
X14282905Y-15617190D02*
X14263857Y-15607667D01*
X14254333Y-15598143D01*
X14244809Y-15579095D01*
X14244809Y-15569571D01*
X14254333Y-15550524D01*
X14263857Y-15541000D01*
X14282905Y-15531476D01*
X14321000Y-15531476D01*
X14340048Y-15541000D01*
X14349571Y-15550524D01*
X14359095Y-15569571D01*
X14359095Y-15579095D01*
X14349571Y-15598143D01*
X14340048Y-15607667D01*
X14321000Y-15617190D01*
X14282905Y-15617190D01*
X14263857Y-15626714D01*
X14254333Y-15636238D01*
X14244809Y-15655286D01*
X14244809Y-15693381D01*
X14254333Y-15712428D01*
X14263857Y-15721952D01*
X14282905Y-15731476D01*
X14321000Y-15731476D01*
X14340048Y-15721952D01*
X14349571Y-15712428D01*
X14359095Y-15693381D01*
X14359095Y-15655286D01*
X14349571Y-15636238D01*
X14340048Y-15626714D01*
X14321000Y-15617190D01*
X14482905Y-15531476D02*
X14501952Y-15531476D01*
X14521000Y-15541000D01*
X14530524Y-15550524D01*
X14540048Y-15569571D01*
X14549571Y-15607667D01*
X14549571Y-15655286D01*
X14540048Y-15693381D01*
X14530524Y-15712428D01*
X14521000Y-15721952D01*
X14501952Y-15731476D01*
X14482905Y-15731476D01*
X14463857Y-15721952D01*
X14454333Y-15712428D01*
X14444809Y-15693381D01*
X14435286Y-15655286D01*
X14435286Y-15607667D01*
X14444809Y-15569571D01*
X14454333Y-15550524D01*
X14463857Y-15541000D01*
X14482905Y-15531476D01*
X14673381Y-15531476D02*
X14692428Y-15531476D01*
X14711476Y-15541000D01*
X14721000Y-15550524D01*
X14730524Y-15569571D01*
X14740048Y-15607667D01*
X14740048Y-15655286D01*
X14730524Y-15693381D01*
X14721000Y-15712428D01*
X14711476Y-15721952D01*
X14692428Y-15731476D01*
X14673381Y-15731476D01*
X14654333Y-15721952D01*
X14644809Y-15712428D01*
X14635286Y-15693381D01*
X14625762Y-15655286D01*
X14625762Y-15607667D01*
X14635286Y-15569571D01*
X14644809Y-15550524D01*
X14654333Y-15541000D01*
X14673381Y-15531476D01*
X14825762Y-15731476D02*
X14825762Y-15598143D01*
X14825762Y-15617190D02*
X14835286Y-15607667D01*
X14854333Y-15598143D01*
X14882905Y-15598143D01*
X14901952Y-15607667D01*
X14911476Y-15626714D01*
X14911476Y-15731476D01*
X14911476Y-15626714D02*
X14921000Y-15607667D01*
X14940048Y-15598143D01*
X14968619Y-15598143D01*
X14987667Y-15607667D01*
X14997190Y-15626714D01*
X14997190Y-15731476D01*
X15092428Y-15731476D02*
X15092428Y-15598143D01*
X15092428Y-15617190D02*
X15101952Y-15607667D01*
X15121000Y-15598143D01*
X15149571Y-15598143D01*
X15168619Y-15607667D01*
X15178143Y-15626714D01*
X15178143Y-15731476D01*
X15178143Y-15626714D02*
X15187667Y-15607667D01*
X15206714Y-15598143D01*
X15235286Y-15598143D01*
X15254333Y-15607667D01*
X15263857Y-15626714D01*
X15263857Y-15731476D01*
X15654333Y-15521952D02*
X15482905Y-15779095D01*
X15911476Y-15531476D02*
X15930524Y-15531476D01*
X15949571Y-15541000D01*
X15959095Y-15550524D01*
X15968619Y-15569571D01*
X15978143Y-15607667D01*
X15978143Y-15655286D01*
X15968619Y-15693381D01*
X15959095Y-15712428D01*
X15949571Y-15721952D01*
X15930524Y-15731476D01*
X15911476Y-15731476D01*
X15892428Y-15721952D01*
X15882905Y-15712428D01*
X15873381Y-15693381D01*
X15863857Y-15655286D01*
X15863857Y-15607667D01*
X15873381Y-15569571D01*
X15882905Y-15550524D01*
X15892428Y-15541000D01*
X15911476Y-15531476D01*
X16063857Y-15712428D02*
X16073381Y-15721952D01*
X16063857Y-15731476D01*
X16054333Y-15721952D01*
X16063857Y-15712428D01*
X16063857Y-15731476D01*
X16197190Y-15531476D02*
X16216238Y-15531476D01*
X16235286Y-15541000D01*
X16244809Y-15550524D01*
X16254333Y-15569571D01*
X16263857Y-15607667D01*
X16263857Y-15655286D01*
X16254333Y-15693381D01*
X16244809Y-15712428D01*
X16235286Y-15721952D01*
X16216238Y-15731476D01*
X16197190Y-15731476D01*
X16178143Y-15721952D01*
X16168619Y-15712428D01*
X16159095Y-15693381D01*
X16149571Y-15655286D01*
X16149571Y-15607667D01*
X16159095Y-15569571D01*
X16168619Y-15550524D01*
X16178143Y-15541000D01*
X16197190Y-15531476D01*
X16330524Y-15531476D02*
X16454333Y-15531476D01*
X16387667Y-15607667D01*
X16416238Y-15607667D01*
X16435286Y-15617190D01*
X16444809Y-15626714D01*
X16454333Y-15645762D01*
X16454333Y-15693381D01*
X16444809Y-15712428D01*
X16435286Y-15721952D01*
X16416238Y-15731476D01*
X16359095Y-15731476D01*
X16340048Y-15721952D01*
X16330524Y-15712428D01*
X16644809Y-15731476D02*
X16530524Y-15731476D01*
X16587667Y-15731476D02*
X16587667Y-15531476D01*
X16568619Y-15560048D01*
X16549571Y-15579095D01*
X16530524Y-15588619D01*
X16825762Y-15531476D02*
X16730524Y-15531476D01*
X16721000Y-15626714D01*
X16730524Y-15617190D01*
X16749571Y-15607667D01*
X16797190Y-15607667D01*
X16816238Y-15617190D01*
X16825762Y-15626714D01*
X16835286Y-15645762D01*
X16835286Y-15693381D01*
X16825762Y-15712428D01*
X16816238Y-15721952D01*
X16797190Y-15731476D01*
X16749571Y-15731476D01*
X16730524Y-15721952D01*
X16721000Y-15712428D01*
X16911476Y-15531476D02*
X16911476Y-15569571D01*
X16987667Y-15531476D02*
X16987667Y-15569571D01*
X17282905Y-15807667D02*
X17273381Y-15798143D01*
X17254333Y-15769571D01*
X17244810Y-15750524D01*
X17235286Y-15721952D01*
X17225762Y-15674333D01*
X17225762Y-15636238D01*
X17235286Y-15588619D01*
X17244810Y-15560048D01*
X17254333Y-15541000D01*
X17273381Y-15512428D01*
X17282905Y-15502905D01*
X17340048Y-15531476D02*
X17463857Y-15531476D01*
X17397190Y-15607667D01*
X17425762Y-15607667D01*
X17444810Y-15617190D01*
X17454333Y-15626714D01*
X17463857Y-15645762D01*
X17463857Y-15693381D01*
X17454333Y-15712428D01*
X17444810Y-15721952D01*
X17425762Y-15731476D01*
X17368619Y-15731476D01*
X17349571Y-15721952D01*
X17340048Y-15712428D01*
X17587667Y-15531476D02*
X17606714Y-15531476D01*
X17625762Y-15541000D01*
X17635286Y-15550524D01*
X17644810Y-15569571D01*
X17654333Y-15607667D01*
X17654333Y-15655286D01*
X17644810Y-15693381D01*
X17635286Y-15712428D01*
X17625762Y-15721952D01*
X17606714Y-15731476D01*
X17587667Y-15731476D01*
X17568619Y-15721952D01*
X17559095Y-15712428D01*
X17549571Y-15693381D01*
X17540048Y-15655286D01*
X17540048Y-15607667D01*
X17549571Y-15569571D01*
X17559095Y-15550524D01*
X17568619Y-15541000D01*
X17587667Y-15531476D01*
X17892429Y-15731476D02*
X17892429Y-15531476D01*
X17978143Y-15731476D02*
X17978143Y-15626714D01*
X17968619Y-15607667D01*
X17949571Y-15598143D01*
X17921000Y-15598143D01*
X17901952Y-15607667D01*
X17892429Y-15617190D01*
X18101952Y-15731476D02*
X18082905Y-15721952D01*
X18073381Y-15712428D01*
X18063857Y-15693381D01*
X18063857Y-15636238D01*
X18073381Y-15617190D01*
X18082905Y-15607667D01*
X18101952Y-15598143D01*
X18130524Y-15598143D01*
X18149571Y-15607667D01*
X18159095Y-15617190D01*
X18168619Y-15636238D01*
X18168619Y-15693381D01*
X18159095Y-15712428D01*
X18149571Y-15721952D01*
X18130524Y-15731476D01*
X18101952Y-15731476D01*
X18282905Y-15731476D02*
X18263857Y-15721952D01*
X18254333Y-15702905D01*
X18254333Y-15531476D01*
X18435286Y-15721952D02*
X18416238Y-15731476D01*
X18378143Y-15731476D01*
X18359095Y-15721952D01*
X18349571Y-15702905D01*
X18349571Y-15626714D01*
X18359095Y-15607667D01*
X18378143Y-15598143D01*
X18416238Y-15598143D01*
X18435286Y-15607667D01*
X18444810Y-15626714D01*
X18444810Y-15645762D01*
X18349571Y-15664809D01*
X18521000Y-15721952D02*
X18540048Y-15731476D01*
X18578143Y-15731476D01*
X18597190Y-15721952D01*
X18606714Y-15702905D01*
X18606714Y-15693381D01*
X18597190Y-15674333D01*
X18578143Y-15664809D01*
X18549571Y-15664809D01*
X18530524Y-15655286D01*
X18521000Y-15636238D01*
X18521000Y-15626714D01*
X18530524Y-15607667D01*
X18549571Y-15598143D01*
X18578143Y-15598143D01*
X18597190Y-15607667D01*
X18673381Y-15807667D02*
X18682905Y-15798143D01*
X18701952Y-15769571D01*
X18711476Y-15750524D01*
X18721000Y-15721952D01*
X18730524Y-15674333D01*
X18730524Y-15636238D01*
X18721000Y-15588619D01*
X18711476Y-15560048D01*
X18701952Y-15541000D01*
X18682905Y-15512428D01*
X18673381Y-15502905D01*
D14*
X13666000Y-15860000D02*
X13666000Y-15950000D01*
X13621000Y-15905000D02*
X13711000Y-15905000D01*
D11*
X14006714Y-15795476D02*
X14025762Y-15795476D01*
X14044809Y-15805000D01*
X14054333Y-15814524D01*
X14063857Y-15833571D01*
X14073381Y-15871667D01*
X14073381Y-15919286D01*
X14063857Y-15957381D01*
X14054333Y-15976428D01*
X14044809Y-15985952D01*
X14025762Y-15995476D01*
X14006714Y-15995476D01*
X13987667Y-15985952D01*
X13978143Y-15976428D01*
X13968619Y-15957381D01*
X13959095Y-15919286D01*
X13959095Y-15871667D01*
X13968619Y-15833571D01*
X13978143Y-15814524D01*
X13987667Y-15805000D01*
X14006714Y-15795476D01*
X14159095Y-15976428D02*
X14168619Y-15985952D01*
X14159095Y-15995476D01*
X14149571Y-15985952D01*
X14159095Y-15976428D01*
X14159095Y-15995476D01*
X14263857Y-15995476D02*
X14301952Y-15995476D01*
X14321000Y-15985952D01*
X14330524Y-15976428D01*
X14349571Y-15947857D01*
X14359095Y-15909762D01*
X14359095Y-15833571D01*
X14349571Y-15814524D01*
X14340048Y-15805000D01*
X14321000Y-15795476D01*
X14282905Y-15795476D01*
X14263857Y-15805000D01*
X14254333Y-15814524D01*
X14244809Y-15833571D01*
X14244809Y-15881190D01*
X14254333Y-15900238D01*
X14263857Y-15909762D01*
X14282905Y-15919286D01*
X14321000Y-15919286D01*
X14340048Y-15909762D01*
X14349571Y-15900238D01*
X14359095Y-15881190D01*
X14482905Y-15795476D02*
X14501952Y-15795476D01*
X14521000Y-15805000D01*
X14530524Y-15814524D01*
X14540048Y-15833571D01*
X14549571Y-15871667D01*
X14549571Y-15919286D01*
X14540048Y-15957381D01*
X14530524Y-15976428D01*
X14521000Y-15985952D01*
X14501952Y-15995476D01*
X14482905Y-15995476D01*
X14463857Y-15985952D01*
X14454333Y-15976428D01*
X14444809Y-15957381D01*
X14435286Y-15919286D01*
X14435286Y-15871667D01*
X14444809Y-15833571D01*
X14454333Y-15814524D01*
X14463857Y-15805000D01*
X14482905Y-15795476D01*
X14673381Y-15795476D02*
X14692428Y-15795476D01*
X14711476Y-15805000D01*
X14721000Y-15814524D01*
X14730524Y-15833571D01*
X14740048Y-15871667D01*
X14740048Y-15919286D01*
X14730524Y-15957381D01*
X14721000Y-15976428D01*
X14711476Y-15985952D01*
X14692428Y-15995476D01*
X14673381Y-15995476D01*
X14654333Y-15985952D01*
X14644809Y-15976428D01*
X14635286Y-15957381D01*
X14625762Y-15919286D01*
X14625762Y-15871667D01*
X14635286Y-15833571D01*
X14644809Y-15814524D01*
X14654333Y-15805000D01*
X14673381Y-15795476D01*
X14825762Y-15995476D02*
X14825762Y-15862143D01*
X14825762Y-15881190D02*
X14835286Y-15871667D01*
X14854333Y-15862143D01*
X14882905Y-15862143D01*
X14901952Y-15871667D01*
X14911476Y-15890714D01*
X14911476Y-15995476D01*
X14911476Y-15890714D02*
X14921000Y-15871667D01*
X14940048Y-15862143D01*
X14968619Y-15862143D01*
X14987667Y-15871667D01*
X14997190Y-15890714D01*
X14997190Y-15995476D01*
X15092428Y-15995476D02*
X15092428Y-15862143D01*
X15092428Y-15881190D02*
X15101952Y-15871667D01*
X15121000Y-15862143D01*
X15149571Y-15862143D01*
X15168619Y-15871667D01*
X15178143Y-15890714D01*
X15178143Y-15995476D01*
X15178143Y-15890714D02*
X15187667Y-15871667D01*
X15206714Y-15862143D01*
X15235286Y-15862143D01*
X15254333Y-15871667D01*
X15263857Y-15890714D01*
X15263857Y-15995476D01*
X15654333Y-15785952D02*
X15482905Y-16043095D01*
X15911476Y-15795476D02*
X15930524Y-15795476D01*
X15949571Y-15805000D01*
X15959095Y-15814524D01*
X15968619Y-15833571D01*
X15978143Y-15871667D01*
X15978143Y-15919286D01*
X15968619Y-15957381D01*
X15959095Y-15976428D01*
X15949571Y-15985952D01*
X15930524Y-15995476D01*
X15911476Y-15995476D01*
X15892428Y-15985952D01*
X15882905Y-15976428D01*
X15873381Y-15957381D01*
X15863857Y-15919286D01*
X15863857Y-15871667D01*
X15873381Y-15833571D01*
X15882905Y-15814524D01*
X15892428Y-15805000D01*
X15911476Y-15795476D01*
X16063857Y-15976428D02*
X16073381Y-15985952D01*
X16063857Y-15995476D01*
X16054333Y-15985952D01*
X16063857Y-15976428D01*
X16063857Y-15995476D01*
X16197190Y-15795476D02*
X16216238Y-15795476D01*
X16235286Y-15805000D01*
X16244809Y-15814524D01*
X16254333Y-15833571D01*
X16263857Y-15871667D01*
X16263857Y-15919286D01*
X16254333Y-15957381D01*
X16244809Y-15976428D01*
X16235286Y-15985952D01*
X16216238Y-15995476D01*
X16197190Y-15995476D01*
X16178143Y-15985952D01*
X16168619Y-15976428D01*
X16159095Y-15957381D01*
X16149571Y-15919286D01*
X16149571Y-15871667D01*
X16159095Y-15833571D01*
X16168619Y-15814524D01*
X16178143Y-15805000D01*
X16197190Y-15795476D01*
X16330524Y-15795476D02*
X16454333Y-15795476D01*
X16387667Y-15871667D01*
X16416238Y-15871667D01*
X16435286Y-15881190D01*
X16444809Y-15890714D01*
X16454333Y-15909762D01*
X16454333Y-15957381D01*
X16444809Y-15976428D01*
X16435286Y-15985952D01*
X16416238Y-15995476D01*
X16359095Y-15995476D01*
X16340048Y-15985952D01*
X16330524Y-15976428D01*
X16635286Y-15795476D02*
X16540048Y-15795476D01*
X16530524Y-15890714D01*
X16540048Y-15881190D01*
X16559095Y-15871667D01*
X16606714Y-15871667D01*
X16625762Y-15881190D01*
X16635286Y-15890714D01*
X16644809Y-15909762D01*
X16644809Y-15957381D01*
X16635286Y-15976428D01*
X16625762Y-15985952D01*
X16606714Y-15995476D01*
X16559095Y-15995476D01*
X16540048Y-15985952D01*
X16530524Y-15976428D01*
X16816238Y-15862143D02*
X16816238Y-15995476D01*
X16768619Y-15785952D02*
X16721000Y-15928809D01*
X16844810Y-15928809D01*
X16911476Y-15795476D02*
X16911476Y-15833571D01*
X16987667Y-15795476D02*
X16987667Y-15833571D01*
X17282905Y-16071667D02*
X17273381Y-16062143D01*
X17254333Y-16033571D01*
X17244810Y-16014524D01*
X17235286Y-15985952D01*
X17225762Y-15938333D01*
X17225762Y-15900238D01*
X17235286Y-15852619D01*
X17244810Y-15824048D01*
X17254333Y-15805000D01*
X17273381Y-15776428D01*
X17282905Y-15766905D01*
X17349571Y-15814524D02*
X17359095Y-15805000D01*
X17378143Y-15795476D01*
X17425762Y-15795476D01*
X17444810Y-15805000D01*
X17454333Y-15814524D01*
X17463857Y-15833571D01*
X17463857Y-15852619D01*
X17454333Y-15881190D01*
X17340048Y-15995476D01*
X17463857Y-15995476D01*
X17701952Y-15995476D02*
X17701952Y-15795476D01*
X17787667Y-15995476D02*
X17787667Y-15890714D01*
X17778143Y-15871667D01*
X17759095Y-15862143D01*
X17730524Y-15862143D01*
X17711476Y-15871667D01*
X17701952Y-15881190D01*
X17911476Y-15995476D02*
X17892429Y-15985952D01*
X17882905Y-15976428D01*
X17873381Y-15957381D01*
X17873381Y-15900238D01*
X17882905Y-15881190D01*
X17892429Y-15871667D01*
X17911476Y-15862143D01*
X17940048Y-15862143D01*
X17959095Y-15871667D01*
X17968619Y-15881190D01*
X17978143Y-15900238D01*
X17978143Y-15957381D01*
X17968619Y-15976428D01*
X17959095Y-15985952D01*
X17940048Y-15995476D01*
X17911476Y-15995476D01*
X18092429Y-15995476D02*
X18073381Y-15985952D01*
X18063857Y-15966905D01*
X18063857Y-15795476D01*
X18244810Y-15985952D02*
X18225762Y-15995476D01*
X18187667Y-15995476D01*
X18168619Y-15985952D01*
X18159095Y-15966905D01*
X18159095Y-15890714D01*
X18168619Y-15871667D01*
X18187667Y-15862143D01*
X18225762Y-15862143D01*
X18244810Y-15871667D01*
X18254333Y-15890714D01*
X18254333Y-15909762D01*
X18159095Y-15928809D01*
X18330524Y-15985952D02*
X18349571Y-15995476D01*
X18387667Y-15995476D01*
X18406714Y-15985952D01*
X18416238Y-15966905D01*
X18416238Y-15957381D01*
X18406714Y-15938333D01*
X18387667Y-15928809D01*
X18359095Y-15928809D01*
X18340048Y-15919286D01*
X18330524Y-15900238D01*
X18330524Y-15890714D01*
X18340048Y-15871667D01*
X18359095Y-15862143D01*
X18387667Y-15862143D01*
X18406714Y-15871667D01*
X18482905Y-16071667D02*
X18492429Y-16062143D01*
X18511476Y-16033571D01*
X18521000Y-16014524D01*
X18530524Y-15985952D01*
X18540048Y-15938333D01*
X18540048Y-15900238D01*
X18530524Y-15852619D01*
X18521000Y-15824048D01*
X18511476Y-15805000D01*
X18492429Y-15776428D01*
X18482905Y-15766905D01*
D10*
X13696356Y-16204356D02*
X13696356Y-16133644D01*
X13625644Y-16133644D01*
X13625644Y-16204356D01*
X13696356Y-16204356D01*
D11*
X14073381Y-16259476D02*
X13959095Y-16259476D01*
X14016238Y-16259476D02*
X14016238Y-16059476D01*
X13997190Y-16088048D01*
X13978143Y-16107095D01*
X13959095Y-16116619D01*
X14159095Y-16240428D02*
X14168619Y-16249952D01*
X14159095Y-16259476D01*
X14149571Y-16249952D01*
X14159095Y-16240428D01*
X14159095Y-16259476D01*
X14292428Y-16059476D02*
X14311476Y-16059476D01*
X14330524Y-16069000D01*
X14340048Y-16078524D01*
X14349571Y-16097571D01*
X14359095Y-16135667D01*
X14359095Y-16183286D01*
X14349571Y-16221381D01*
X14340048Y-16240428D01*
X14330524Y-16249952D01*
X14311476Y-16259476D01*
X14292428Y-16259476D01*
X14273381Y-16249952D01*
X14263857Y-16240428D01*
X14254333Y-16221381D01*
X14244809Y-16183286D01*
X14244809Y-16135667D01*
X14254333Y-16097571D01*
X14263857Y-16078524D01*
X14273381Y-16069000D01*
X14292428Y-16059476D01*
X14482905Y-16059476D02*
X14501952Y-16059476D01*
X14521000Y-16069000D01*
X14530524Y-16078524D01*
X14540048Y-16097571D01*
X14549571Y-16135667D01*
X14549571Y-16183286D01*
X14540048Y-16221381D01*
X14530524Y-16240428D01*
X14521000Y-16249952D01*
X14501952Y-16259476D01*
X14482905Y-16259476D01*
X14463857Y-16249952D01*
X14454333Y-16240428D01*
X14444809Y-16221381D01*
X14435286Y-16183286D01*
X14435286Y-16135667D01*
X14444809Y-16097571D01*
X14454333Y-16078524D01*
X14463857Y-16069000D01*
X14482905Y-16059476D01*
X14673381Y-16059476D02*
X14692428Y-16059476D01*
X14711476Y-16069000D01*
X14721000Y-16078524D01*
X14730524Y-16097571D01*
X14740048Y-16135667D01*
X14740048Y-16183286D01*
X14730524Y-16221381D01*
X14721000Y-16240428D01*
X14711476Y-16249952D01*
X14692428Y-16259476D01*
X14673381Y-16259476D01*
X14654333Y-16249952D01*
X14644809Y-16240428D01*
X14635286Y-16221381D01*
X14625762Y-16183286D01*
X14625762Y-16135667D01*
X14635286Y-16097571D01*
X14644809Y-16078524D01*
X14654333Y-16069000D01*
X14673381Y-16059476D01*
X14825762Y-16259476D02*
X14825762Y-16126143D01*
X14825762Y-16145190D02*
X14835286Y-16135667D01*
X14854333Y-16126143D01*
X14882905Y-16126143D01*
X14901952Y-16135667D01*
X14911476Y-16154714D01*
X14911476Y-16259476D01*
X14911476Y-16154714D02*
X14921000Y-16135667D01*
X14940048Y-16126143D01*
X14968619Y-16126143D01*
X14987667Y-16135667D01*
X14997190Y-16154714D01*
X14997190Y-16259476D01*
X15092428Y-16259476D02*
X15092428Y-16126143D01*
X15092428Y-16145190D02*
X15101952Y-16135667D01*
X15121000Y-16126143D01*
X15149571Y-16126143D01*
X15168619Y-16135667D01*
X15178143Y-16154714D01*
X15178143Y-16259476D01*
X15178143Y-16154714D02*
X15187667Y-16135667D01*
X15206714Y-16126143D01*
X15235286Y-16126143D01*
X15254333Y-16135667D01*
X15263857Y-16154714D01*
X15263857Y-16259476D01*
X15654333Y-16049952D02*
X15482905Y-16307095D01*
X15911476Y-16059476D02*
X15930524Y-16059476D01*
X15949571Y-16069000D01*
X15959095Y-16078524D01*
X15968619Y-16097571D01*
X15978143Y-16135667D01*
X15978143Y-16183286D01*
X15968619Y-16221381D01*
X15959095Y-16240428D01*
X15949571Y-16249952D01*
X15930524Y-16259476D01*
X15911476Y-16259476D01*
X15892428Y-16249952D01*
X15882905Y-16240428D01*
X15873381Y-16221381D01*
X15863857Y-16183286D01*
X15863857Y-16135667D01*
X15873381Y-16097571D01*
X15882905Y-16078524D01*
X15892428Y-16069000D01*
X15911476Y-16059476D01*
X16063857Y-16240428D02*
X16073381Y-16249952D01*
X16063857Y-16259476D01*
X16054333Y-16249952D01*
X16063857Y-16240428D01*
X16063857Y-16259476D01*
X16197190Y-16059476D02*
X16216238Y-16059476D01*
X16235286Y-16069000D01*
X16244809Y-16078524D01*
X16254333Y-16097571D01*
X16263857Y-16135667D01*
X16263857Y-16183286D01*
X16254333Y-16221381D01*
X16244809Y-16240428D01*
X16235286Y-16249952D01*
X16216238Y-16259476D01*
X16197190Y-16259476D01*
X16178143Y-16249952D01*
X16168619Y-16240428D01*
X16159095Y-16221381D01*
X16149571Y-16183286D01*
X16149571Y-16135667D01*
X16159095Y-16097571D01*
X16168619Y-16078524D01*
X16178143Y-16069000D01*
X16197190Y-16059476D01*
X16330524Y-16059476D02*
X16454333Y-16059476D01*
X16387667Y-16135667D01*
X16416238Y-16135667D01*
X16435286Y-16145190D01*
X16444809Y-16154714D01*
X16454333Y-16173762D01*
X16454333Y-16221381D01*
X16444809Y-16240428D01*
X16435286Y-16249952D01*
X16416238Y-16259476D01*
X16359095Y-16259476D01*
X16340048Y-16249952D01*
X16330524Y-16240428D01*
X16549571Y-16259476D02*
X16587667Y-16259476D01*
X16606714Y-16249952D01*
X16616238Y-16240428D01*
X16635286Y-16211857D01*
X16644809Y-16173762D01*
X16644809Y-16097571D01*
X16635286Y-16078524D01*
X16625762Y-16069000D01*
X16606714Y-16059476D01*
X16568619Y-16059476D01*
X16549571Y-16069000D01*
X16540048Y-16078524D01*
X16530524Y-16097571D01*
X16530524Y-16145190D01*
X16540048Y-16164238D01*
X16549571Y-16173762D01*
X16568619Y-16183286D01*
X16606714Y-16183286D01*
X16625762Y-16173762D01*
X16635286Y-16164238D01*
X16644809Y-16145190D01*
X16816238Y-16126143D02*
X16816238Y-16259476D01*
X16768619Y-16049952D02*
X16721000Y-16192809D01*
X16844810Y-16192809D01*
X16911476Y-16059476D02*
X16911476Y-16097571D01*
X16987667Y-16059476D02*
X16987667Y-16097571D01*
X17282905Y-16335667D02*
X17273381Y-16326143D01*
X17254333Y-16297571D01*
X17244810Y-16278524D01*
X17235286Y-16249952D01*
X17225762Y-16202333D01*
X17225762Y-16164238D01*
X17235286Y-16116619D01*
X17244810Y-16088048D01*
X17254333Y-16069000D01*
X17273381Y-16040428D01*
X17282905Y-16030905D01*
X17444810Y-16126143D02*
X17444810Y-16259476D01*
X17397190Y-16049952D02*
X17349571Y-16192809D01*
X17473381Y-16192809D01*
X17635286Y-16059476D02*
X17597190Y-16059476D01*
X17578143Y-16069000D01*
X17568619Y-16078524D01*
X17549571Y-16107095D01*
X17540048Y-16145190D01*
X17540048Y-16221381D01*
X17549571Y-16240428D01*
X17559095Y-16249952D01*
X17578143Y-16259476D01*
X17616238Y-16259476D01*
X17635286Y-16249952D01*
X17644810Y-16240428D01*
X17654333Y-16221381D01*
X17654333Y-16173762D01*
X17644810Y-16154714D01*
X17635286Y-16145190D01*
X17616238Y-16135667D01*
X17578143Y-16135667D01*
X17559095Y-16145190D01*
X17549571Y-16154714D01*
X17540048Y-16173762D01*
X17892429Y-16259476D02*
X17892429Y-16059476D01*
X17978143Y-16259476D02*
X17978143Y-16154714D01*
X17968619Y-16135667D01*
X17949571Y-16126143D01*
X17921000Y-16126143D01*
X17901952Y-16135667D01*
X17892429Y-16145190D01*
X18101952Y-16259476D02*
X18082905Y-16249952D01*
X18073381Y-16240428D01*
X18063857Y-16221381D01*
X18063857Y-16164238D01*
X18073381Y-16145190D01*
X18082905Y-16135667D01*
X18101952Y-16126143D01*
X18130524Y-16126143D01*
X18149571Y-16135667D01*
X18159095Y-16145190D01*
X18168619Y-16164238D01*
X18168619Y-16221381D01*
X18159095Y-16240428D01*
X18149571Y-16249952D01*
X18130524Y-16259476D01*
X18101952Y-16259476D01*
X18282905Y-16259476D02*
X18263857Y-16249952D01*
X18254333Y-16230905D01*
X18254333Y-16059476D01*
X18435286Y-16249952D02*
X18416238Y-16259476D01*
X18378143Y-16259476D01*
X18359095Y-16249952D01*
X18349571Y-16230905D01*
X18349571Y-16154714D01*
X18359095Y-16135667D01*
X18378143Y-16126143D01*
X18416238Y-16126143D01*
X18435286Y-16135667D01*
X18444810Y-16154714D01*
X18444810Y-16173762D01*
X18349571Y-16192809D01*
X18521000Y-16249952D02*
X18540048Y-16259476D01*
X18578143Y-16259476D01*
X18597190Y-16249952D01*
X18606714Y-16230905D01*
X18606714Y-16221381D01*
X18597190Y-16202333D01*
X18578143Y-16192809D01*
X18549571Y-16192809D01*
X18530524Y-16183286D01*
X18521000Y-16164238D01*
X18521000Y-16154714D01*
X18530524Y-16135667D01*
X18549571Y-16126143D01*
X18578143Y-16126143D01*
X18597190Y-16135667D01*
X18673381Y-16335667D02*
X18682905Y-16326143D01*
X18701952Y-16297571D01*
X18711476Y-16278524D01*
X18721000Y-16249952D01*
X18730524Y-16202333D01*
X18730524Y-16164238D01*
X18721000Y-16116619D01*
X18711476Y-16088048D01*
X18701952Y-16069000D01*
X18682905Y-16040428D01*
X18673381Y-16030905D01*
X13611000Y-16533000D02*
X13711000Y-16433000D01*
X13611000Y-16333000D01*
X13511000Y-16433000D01*
X13611000Y-16533000D01*
X14054333Y-16390143D02*
X14054333Y-16523476D01*
X14006714Y-16313952D02*
X13959095Y-16456809D01*
X14082905Y-16456809D01*
X14159095Y-16504428D02*
X14168619Y-16513952D01*
X14159095Y-16523476D01*
X14149571Y-16513952D01*
X14159095Y-16504428D01*
X14159095Y-16523476D01*
X14235286Y-16323476D02*
X14359095Y-16323476D01*
X14292428Y-16399667D01*
X14321000Y-16399667D01*
X14340048Y-16409190D01*
X14349571Y-16418714D01*
X14359095Y-16437762D01*
X14359095Y-16485381D01*
X14349571Y-16504428D01*
X14340048Y-16513952D01*
X14321000Y-16523476D01*
X14263857Y-16523476D01*
X14244809Y-16513952D01*
X14235286Y-16504428D01*
X14482905Y-16323476D02*
X14501952Y-16323476D01*
X14521000Y-16333000D01*
X14530524Y-16342524D01*
X14540048Y-16361571D01*
X14549571Y-16399667D01*
X14549571Y-16447286D01*
X14540048Y-16485381D01*
X14530524Y-16504428D01*
X14521000Y-16513952D01*
X14501952Y-16523476D01*
X14482905Y-16523476D01*
X14463857Y-16513952D01*
X14454333Y-16504428D01*
X14444809Y-16485381D01*
X14435286Y-16447286D01*
X14435286Y-16399667D01*
X14444809Y-16361571D01*
X14454333Y-16342524D01*
X14463857Y-16333000D01*
X14482905Y-16323476D01*
X14673381Y-16323476D02*
X14692428Y-16323476D01*
X14711476Y-16333000D01*
X14721000Y-16342524D01*
X14730524Y-16361571D01*
X14740048Y-16399667D01*
X14740048Y-16447286D01*
X14730524Y-16485381D01*
X14721000Y-16504428D01*
X14711476Y-16513952D01*
X14692428Y-16523476D01*
X14673381Y-16523476D01*
X14654333Y-16513952D01*
X14644809Y-16504428D01*
X14635286Y-16485381D01*
X14625762Y-16447286D01*
X14625762Y-16399667D01*
X14635286Y-16361571D01*
X14644809Y-16342524D01*
X14654333Y-16333000D01*
X14673381Y-16323476D01*
X14825762Y-16523476D02*
X14825762Y-16390143D01*
X14825762Y-16409190D02*
X14835286Y-16399667D01*
X14854333Y-16390143D01*
X14882905Y-16390143D01*
X14901952Y-16399667D01*
X14911476Y-16418714D01*
X14911476Y-16523476D01*
X14911476Y-16418714D02*
X14921000Y-16399667D01*
X14940048Y-16390143D01*
X14968619Y-16390143D01*
X14987667Y-16399667D01*
X14997190Y-16418714D01*
X14997190Y-16523476D01*
X15092428Y-16523476D02*
X15092428Y-16390143D01*
X15092428Y-16409190D02*
X15101952Y-16399667D01*
X15121000Y-16390143D01*
X15149571Y-16390143D01*
X15168619Y-16399667D01*
X15178143Y-16418714D01*
X15178143Y-16523476D01*
X15178143Y-16418714D02*
X15187667Y-16399667D01*
X15206714Y-16390143D01*
X15235286Y-16390143D01*
X15254333Y-16399667D01*
X15263857Y-16418714D01*
X15263857Y-16523476D01*
X15654333Y-16313952D02*
X15482905Y-16571095D01*
X15911476Y-16323476D02*
X15930524Y-16323476D01*
X15949571Y-16333000D01*
X15959095Y-16342524D01*
X15968619Y-16361571D01*
X15978143Y-16399667D01*
X15978143Y-16447286D01*
X15968619Y-16485381D01*
X15959095Y-16504428D01*
X15949571Y-16513952D01*
X15930524Y-16523476D01*
X15911476Y-16523476D01*
X15892428Y-16513952D01*
X15882905Y-16504428D01*
X15873381Y-16485381D01*
X15863857Y-16447286D01*
X15863857Y-16399667D01*
X15873381Y-16361571D01*
X15882905Y-16342524D01*
X15892428Y-16333000D01*
X15911476Y-16323476D01*
X16063857Y-16504428D02*
X16073381Y-16513952D01*
X16063857Y-16523476D01*
X16054333Y-16513952D01*
X16063857Y-16504428D01*
X16063857Y-16523476D01*
X16263857Y-16523476D02*
X16149571Y-16523476D01*
X16206714Y-16523476D02*
X16206714Y-16323476D01*
X16187667Y-16352048D01*
X16168619Y-16371095D01*
X16149571Y-16380619D01*
X16435286Y-16323476D02*
X16397190Y-16323476D01*
X16378143Y-16333000D01*
X16368619Y-16342524D01*
X16349571Y-16371095D01*
X16340048Y-16409190D01*
X16340048Y-16485381D01*
X16349571Y-16504428D01*
X16359095Y-16513952D01*
X16378143Y-16523476D01*
X16416238Y-16523476D01*
X16435286Y-16513952D01*
X16444809Y-16504428D01*
X16454333Y-16485381D01*
X16454333Y-16437762D01*
X16444809Y-16418714D01*
X16435286Y-16409190D01*
X16416238Y-16399667D01*
X16378143Y-16399667D01*
X16359095Y-16409190D01*
X16349571Y-16418714D01*
X16340048Y-16437762D01*
X16549571Y-16523476D02*
X16587667Y-16523476D01*
X16606714Y-16513952D01*
X16616238Y-16504428D01*
X16635286Y-16475857D01*
X16644809Y-16437762D01*
X16644809Y-16361571D01*
X16635286Y-16342524D01*
X16625762Y-16333000D01*
X16606714Y-16323476D01*
X16568619Y-16323476D01*
X16549571Y-16333000D01*
X16540048Y-16342524D01*
X16530524Y-16361571D01*
X16530524Y-16409190D01*
X16540048Y-16428238D01*
X16549571Y-16437762D01*
X16568619Y-16447286D01*
X16606714Y-16447286D01*
X16625762Y-16437762D01*
X16635286Y-16428238D01*
X16644809Y-16409190D01*
X16711476Y-16323476D02*
X16835286Y-16323476D01*
X16768619Y-16399667D01*
X16797190Y-16399667D01*
X16816238Y-16409190D01*
X16825762Y-16418714D01*
X16835286Y-16437762D01*
X16835286Y-16485381D01*
X16825762Y-16504428D01*
X16816238Y-16513952D01*
X16797190Y-16523476D01*
X16740048Y-16523476D01*
X16721000Y-16513952D01*
X16711476Y-16504428D01*
X16911476Y-16323476D02*
X16911476Y-16361571D01*
X16987667Y-16323476D02*
X16987667Y-16361571D01*
X17282905Y-16599667D02*
X17273381Y-16590143D01*
X17254333Y-16561571D01*
X17244810Y-16542524D01*
X17235286Y-16513952D01*
X17225762Y-16466333D01*
X17225762Y-16428238D01*
X17235286Y-16380619D01*
X17244810Y-16352048D01*
X17254333Y-16333000D01*
X17273381Y-16304428D01*
X17282905Y-16294905D01*
X17444810Y-16390143D02*
X17444810Y-16523476D01*
X17397190Y-16313952D02*
X17349571Y-16456809D01*
X17473381Y-16456809D01*
X17701952Y-16523476D02*
X17701952Y-16323476D01*
X17787667Y-16523476D02*
X17787667Y-16418714D01*
X17778143Y-16399667D01*
X17759095Y-16390143D01*
X17730524Y-16390143D01*
X17711476Y-16399667D01*
X17701952Y-16409190D01*
X17911476Y-16523476D02*
X17892429Y-16513952D01*
X17882905Y-16504428D01*
X17873381Y-16485381D01*
X17873381Y-16428238D01*
X17882905Y-16409190D01*
X17892429Y-16399667D01*
X17911476Y-16390143D01*
X17940048Y-16390143D01*
X17959095Y-16399667D01*
X17968619Y-16409190D01*
X17978143Y-16428238D01*
X17978143Y-16485381D01*
X17968619Y-16504428D01*
X17959095Y-16513952D01*
X17940048Y-16523476D01*
X17911476Y-16523476D01*
X18092429Y-16523476D02*
X18073381Y-16513952D01*
X18063857Y-16494905D01*
X18063857Y-16323476D01*
X18244810Y-16513952D02*
X18225762Y-16523476D01*
X18187667Y-16523476D01*
X18168619Y-16513952D01*
X18159095Y-16494905D01*
X18159095Y-16418714D01*
X18168619Y-16399667D01*
X18187667Y-16390143D01*
X18225762Y-16390143D01*
X18244810Y-16399667D01*
X18254333Y-16418714D01*
X18254333Y-16437762D01*
X18159095Y-16456809D01*
X18330524Y-16513952D02*
X18349571Y-16523476D01*
X18387667Y-16523476D01*
X18406714Y-16513952D01*
X18416238Y-16494905D01*
X18416238Y-16485381D01*
X18406714Y-16466333D01*
X18387667Y-16456809D01*
X18359095Y-16456809D01*
X18340048Y-16447286D01*
X18330524Y-16428238D01*
X18330524Y-16418714D01*
X18340048Y-16399667D01*
X18359095Y-16390143D01*
X18387667Y-16390143D01*
X18406714Y-16399667D01*
X18482905Y-16599667D02*
X18492429Y-16590143D01*
X18511476Y-16561571D01*
X18521000Y-16542524D01*
X18530524Y-16513952D01*
X18540048Y-16466333D01*
X18540048Y-16428238D01*
X18530524Y-16380619D01*
X18521000Y-16352048D01*
X18511476Y-16333000D01*
X18492429Y-16304428D01*
X18482905Y-16294905D01*
M02*
