M48
; DRILL file {KiCad (6.0.7)} date Sun Nov  6 18:44:30 2022
; FORMAT={-:-/ absolute / metric / decimal}
; #@! TF.CreationDate,2022-11-06T18:44:30-05:00
; #@! TF.GenerationSoftware,Kicad,Pcbnew,(6.0.7)
; #@! TF.FileFunction,Plated,1,2,PTH
FMAT,2
METRIC
; #@! TA.AperFunction,Plated,PTH,ViaDrill
T1C0.400
; #@! TA.AperFunction,Plated,PTH,ComponentDrill
T2C0.800
; #@! TA.AperFunction,Plated,PTH,ComponentDrill
T3C0.900
; #@! TA.AperFunction,Plated,PTH,ComponentDrill
T4C1.000
; #@! TA.AperFunction,Plated,PTH,ComponentDrill
T5C4.300
%
G90
G05
T1
X139.7Y-121.92
X139.7Y-124.46
X142.24Y-83.82
X142.24Y-88.9
X142.24Y-91.44
X142.24Y-93.98
X142.24Y-96.52
X142.24Y-101.6
X142.24Y-119.38
X142.24Y-121.92
X142.24Y-124.46
X144.78Y-68.58
X144.78Y-71.12
X144.78Y-88.9
X144.78Y-91.44
X144.78Y-93.98
X144.78Y-96.52
X144.78Y-99.06
X144.78Y-101.6
X144.78Y-104.14
X144.78Y-124.46
X147.32Y-68.58
X147.32Y-71.12
X147.32Y-73.66
X149.86Y-68.58
X149.86Y-71.12
X149.86Y-73.66
X149.86Y-137.16
X149.86Y-139.7
X149.86Y-142.24
X152.4Y-137.16
X152.4Y-139.7
X152.4Y-142.24
X154.94Y-84.335
X154.94Y-114.3
X154.94Y-116.84
X154.94Y-127.0
X154.94Y-129.54
X154.94Y-137.16
X154.94Y-139.7
X157.48Y-78.74
X157.48Y-81.28
X157.48Y-83.82
X157.48Y-86.36
X157.48Y-88.9
X157.48Y-106.68
X157.48Y-109.22
X157.48Y-111.76
X157.48Y-114.3
X157.48Y-116.84
X157.48Y-127.0
X157.48Y-129.54
X157.48Y-132.08
X157.48Y-134.62
X157.48Y-137.16
X157.48Y-139.7
X159.385Y-92.59
X160.02Y-78.74
X160.02Y-81.28
X160.02Y-83.82
X160.02Y-86.36
X160.02Y-88.9
X160.02Y-106.68
X160.02Y-109.22
X160.02Y-111.76
X160.02Y-114.3
X160.02Y-116.84
X160.02Y-127.0
X160.02Y-129.54
X160.02Y-143.51
X162.56Y-78.74
X162.56Y-81.28
X162.56Y-83.82
X162.56Y-86.36
X162.56Y-88.9
X162.56Y-109.22
X162.56Y-114.3
X162.56Y-116.84
X162.56Y-127.0
X162.56Y-129.54
X165.1Y-78.74
X165.1Y-81.28
X165.1Y-83.82
X165.1Y-86.36
X165.1Y-114.3
X165.1Y-116.84
X165.1Y-127.0
X165.1Y-129.54
X167.64Y-127.0
X167.64Y-129.54
X170.18Y-127.0
X170.18Y-129.54
X172.72Y-143.51
X175.26Y-83.82
X175.26Y-86.36
X175.26Y-88.9
X175.26Y-93.98
X175.26Y-96.52
X175.26Y-99.06
X175.26Y-114.3
X175.26Y-116.84
X175.26Y-119.38
X177.8Y-93.98
X177.8Y-96.52
X177.8Y-99.06
X177.8Y-101.6
X177.8Y-114.3
X177.8Y-116.84
X177.8Y-119.38
X180.34Y-99.06
X180.34Y-101.6
X180.34Y-104.14
X180.34Y-114.3
X180.34Y-116.84
X182.88Y-76.2
X182.88Y-104.14
T2
X152.4Y-73.54
X152.4Y-76.08
X152.4Y-78.62
X152.4Y-81.16
X152.4Y-83.7
X152.4Y-86.24
X152.4Y-88.78
X152.4Y-91.32
X152.4Y-93.86
X152.4Y-96.4
X152.4Y-98.94
X152.4Y-101.48
X152.4Y-104.02
X152.4Y-106.56
X152.4Y-109.1
X152.4Y-111.64
X172.72Y-83.7
X172.72Y-86.24
X172.72Y-88.78
X172.72Y-91.32
X172.72Y-93.86
X172.72Y-96.4
X172.72Y-98.94
X172.72Y-101.48
X172.72Y-104.02
X172.72Y-106.56
X172.72Y-109.1
X172.72Y-111.64
X175.26Y-130.81
X175.26Y-143.51
T3
X182.88Y-121.8
X182.88Y-124.34
T4
X139.7Y-71.0
X139.7Y-73.54
X139.7Y-76.08
X139.7Y-78.62
X139.7Y-81.16
X139.7Y-83.7
X139.7Y-86.24
X139.7Y-98.94
X139.7Y-101.48
X139.7Y-104.02
X139.7Y-106.56
X139.7Y-109.1
X139.7Y-111.64
X139.7Y-114.18
X139.7Y-116.72
X160.02Y-123.19
X162.56Y-123.19
X162.56Y-135.89
X162.56Y-141.09
X162.56Y-143.63
X165.1Y-123.19
X165.1Y-135.89
X165.1Y-141.09
X165.1Y-143.63
X167.64Y-123.19
X167.64Y-135.89
X167.64Y-141.09
X167.64Y-143.63
X170.18Y-123.19
X170.18Y-135.89
X170.18Y-141.09
X170.18Y-143.63
X172.72Y-123.19
X185.42Y-71.0
X185.42Y-73.54
X185.42Y-76.08
X185.42Y-78.62
X185.42Y-81.16
X185.42Y-83.7
X185.42Y-86.24
X185.42Y-98.94
X185.42Y-101.48
X185.42Y-104.02
X185.42Y-106.56
X185.42Y-109.1
X185.42Y-111.64
T5
X142.24Y-63.5
X142.24Y-142.24
X182.88Y-63.5
X182.88Y-142.24
T0
M30
