%TF.GenerationSoftware,KiCad,Pcbnew,(6.0.7)*%
%TF.CreationDate,2022-11-06T18:43:46-05:00*%
%TF.ProjectId,MDR_Breakout_Board,4d44525f-4272-4656-916b-6f75745f426f,rev?*%
%TF.SameCoordinates,Original*%
%TF.FileFunction,Drillmap*%
%TF.FilePolarity,Positive*%
%FSLAX45Y45*%
G04 Gerber Fmt 4.5, Leading zero omitted, Abs format (unit mm)*
G04 Created by KiCad (PCBNEW (6.0.7)) date 2022-11-06 18:43:46*
%MOMM*%
%LPD*%
G01*
G04 APERTURE LIST*
%ADD10C,0.100000*%
%ADD11C,0.200000*%
G04 APERTURE END LIST*
D10*
X14224000Y-14732000D02*
X13970000Y-14732000D01*
X13716000Y-14224000D02*
X13716000Y-6350000D01*
X18542000Y-14732000D02*
X18796000Y-14478000D01*
X14224000Y-14732000D02*
X18288000Y-14732000D01*
X13716000Y-6350000D02*
X13716000Y-6096000D01*
X18796000Y-6350000D02*
X18796000Y-6096000D01*
X13970000Y-14732000D02*
X13716000Y-14478000D01*
X14224000Y-5842000D02*
X14986000Y-5842000D01*
X17018000Y-6350000D02*
X17526000Y-5842000D01*
X18796000Y-6350000D02*
X18796000Y-14224000D01*
X15494000Y-6350000D02*
X14986000Y-5842000D01*
X17526000Y-5842000D02*
X18288000Y-5842000D01*
X18542000Y-5842000D02*
X18288000Y-5842000D01*
X18288000Y-14732000D02*
X18542000Y-14732000D01*
X18796000Y-6096000D02*
X18542000Y-5842000D01*
X18796000Y-14478000D02*
X18796000Y-14224000D01*
X13716000Y-6096000D02*
X13970000Y-5842000D01*
X13970000Y-5842000D02*
X14224000Y-5842000D01*
X13716000Y-14478000D02*
X13716000Y-14224000D01*
X15494000Y-6350000D02*
X17018000Y-6350000D01*
D11*
X13968619Y-15047476D02*
X13968619Y-14847476D01*
X14016238Y-14847476D01*
X14044809Y-14857000D01*
X14063857Y-14876048D01*
X14073381Y-14895095D01*
X14082905Y-14933190D01*
X14082905Y-14961762D01*
X14073381Y-14999857D01*
X14063857Y-15018905D01*
X14044809Y-15037952D01*
X14016238Y-15047476D01*
X13968619Y-15047476D01*
X14168619Y-15047476D02*
X14168619Y-14914143D01*
X14168619Y-14952238D02*
X14178143Y-14933190D01*
X14187667Y-14923667D01*
X14206714Y-14914143D01*
X14225762Y-14914143D01*
X14292428Y-15047476D02*
X14292428Y-14914143D01*
X14292428Y-14847476D02*
X14282905Y-14857000D01*
X14292428Y-14866524D01*
X14301952Y-14857000D01*
X14292428Y-14847476D01*
X14292428Y-14866524D01*
X14416238Y-15047476D02*
X14397190Y-15037952D01*
X14387667Y-15018905D01*
X14387667Y-14847476D01*
X14521000Y-15047476D02*
X14501952Y-15037952D01*
X14492428Y-15018905D01*
X14492428Y-14847476D01*
X14749571Y-15047476D02*
X14749571Y-14847476D01*
X14816238Y-14990333D01*
X14882905Y-14847476D01*
X14882905Y-15047476D01*
X15063857Y-15047476D02*
X15063857Y-14942714D01*
X15054333Y-14923667D01*
X15035286Y-14914143D01*
X14997190Y-14914143D01*
X14978143Y-14923667D01*
X15063857Y-15037952D02*
X15044809Y-15047476D01*
X14997190Y-15047476D01*
X14978143Y-15037952D01*
X14968619Y-15018905D01*
X14968619Y-14999857D01*
X14978143Y-14980809D01*
X14997190Y-14971286D01*
X15044809Y-14971286D01*
X15063857Y-14961762D01*
X15159095Y-14914143D02*
X15159095Y-15114143D01*
X15159095Y-14923667D02*
X15178143Y-14914143D01*
X15216238Y-14914143D01*
X15235286Y-14923667D01*
X15244809Y-14933190D01*
X15254333Y-14952238D01*
X15254333Y-15009381D01*
X15244809Y-15028428D01*
X15235286Y-15037952D01*
X15216238Y-15047476D01*
X15178143Y-15047476D01*
X15159095Y-15037952D01*
X15340048Y-15028428D02*
X15349571Y-15037952D01*
X15340048Y-15047476D01*
X15330524Y-15037952D01*
X15340048Y-15028428D01*
X15340048Y-15047476D01*
X15340048Y-14923667D02*
X15349571Y-14933190D01*
X15340048Y-14942714D01*
X15330524Y-14933190D01*
X15340048Y-14923667D01*
X15340048Y-14942714D01*
M02*
